<?xml version="1.0" encoding="UTF-8"?>
<svg xmlns="http://www.w3.org/2000/svg" xmlns:xlink="http://www.w3.org/1999/xlink" version="1.2" >
<font id="Sharis Regular">
<font-face  font-family="Sharis" units-per-em="1024" ascent="975" descent="-300" font-style="normal" font-weight="400" font-stretch="normal" cap-height="750" x-height="500" underline-position="-125" underline-thickness="50" />
<missing-glyph  horiz-adv-x="650" d="" />
<glyph glyph-name="NULL" d="" />
<glyph glyph-name="CR" unicode="&#xd;" horiz-adv-x="256" d="" />
<glyph glyph-name="space" unicode="&#x20;" horiz-adv-x="289" d="" />
<glyph glyph-name="exclam" unicode="&#x21;" horiz-adv-x="244" d="M122 -5 C158 -5 182 19 182 55 C182 91 158 115 122 115 C86 115 62 91 62 55 C62 19 86 -5 122 -5 L122 -5 Z M122 755 C74 755 64 713 70 650 L114 210 L130 210 L174 650 C181 713 171 755 122 755 L122 755 Z " />
<glyph glyph-name="quotedbl" unicode="&#x22;" horiz-adv-x="356" d="M740 750 C713 750 710 732 715 705 L745 560 L755 560 L785 705 C790 732 787 750 760 750 L740 750 L740 750 Z " />
<glyph glyph-name="numbersign" unicode="&#x23;" horiz-adv-x="571" d="M418 667 L392 493 L222 493 L248 667 L243 667 L217 493 L68 493 L59 427 L207 427 L178 233 L26 233 L16 167 L168 167 L143 0 L148 0 L173 167 L344 167 L319 0 L324 0 L349 167 L495 167 L504 233 L358 233 L387 427 L541 427 L551 493 L396 493 L422 667 L418 667 L418 667 Z M211 427 L381 427 L352 233 L181 233 L211 427 L211 427 Z " />
<glyph glyph-name="dollar" unicode="&#x24;" horiz-adv-x="581" d="M314 825 L314 757 C299 759 284 760 269 760 C267 760 265 760 263 760 L263 825 L233 825 L233 758 C130 745 64 671 64 565 C64 482 122 402 233 347 L233 10 C212 18 192 29 173 42 C118 83 68 170 56 223 C53 236 51 245 51 245 C51 245 50 236 49 223 C49 211 48 202 48 202 L48 147 L48 138 L48 74 C48 74 49 60 49 38 C50 16 51 2 51 2 C51 2 53 16 56 38 C59 65 89 79 127 50 L128 50 C158 27 193 10 231 0 L231 -75 L261 -75 L261 -6 C276 -8 291 -9 307 -9 C308 -9 309 -9 310 -9 L310 -74 L340 -74 L340 -7 C460 5 537 83 537 195 C537 286 470 372 340 423 L340 745 L330 748 C331 748 332 748 333 748 C335 747 337 746 339 745 L339 745 C343 744 347 743 351 742 L342 745 C413 717 475 631 490 570 C493 557 495 548 495 548 C495 548 495 557 496 570 C497 582 497 591 497 591 L497 646 L497 647 L497 704 C497 704 497 715 496 732 C495 750 495 761 495 761 C495 761 493 750 490 732 C486 711 466 696 442 710 C414 730 379 745 340 754 L340 827 L314 825 L314 825 Z M340 745 L340 745 C341 745 342 745 343 745 L340 745 L340 745 Z M261 335 C267 333 273 331 279 329 C291 325 302 320 312 315 L312 -2 C311 -2 310 -2 309 -2 C294 -2 279 0 264 3 L261 335 L261 335 Z M344 301 C425 260 466 213 466 169 C466 80 419 16 344 1 L344 301 L344 301 Z M264 460 L264 759 C266 759 268 759 270 759 C285 759 300 757 315 754 L315 436 C297 444 280 452 265 460 L264 460 L264 460 Z M235 478 C173 518 141 562 141 603 C141 682 177 738 235 754 L235 478 L235 478 Z " />
<glyph glyph-name="ampersand" unicode="&#x26;" horiz-adv-x="335" d="M326 465 C424 497 489 556 489 612 C489 702 419 761 315 761 C213 761 145 697 145 600 C145 557 180 507 237 440 C119 400 41 305 41 200 C41 74 123 -9 246 -9 C333 -9 424 39 507 124 L536 90 C587 30 653 -10 701 -10 C771 -10 825 53 836 146 L821 151 C814 96 781 59 736 59 C699 59 649 89 610 134 L563 188 C628 271 686 377 731 499 L711 499 C668 381 610 281 545 207 L348 437 C340 446 333 455 326 463 L326 465 L326 465 Z M318 473 C258 544 220 596 220 642 C220 699 258 738 315 738 C378 738 420 688 420 614 C420 551 379 496 317 473 L318 473 L318 473 Z M484 147 C423 95 358 66 294 66 C195 66 129 128 129 221 C129 317 175 397 244 427 C254 416 264 404 275 392 L484 147 L484 147 Z " />
<glyph glyph-name="quotesingle" unicode="&#x27;" horiz-adv-x="218" d="" />
<glyph glyph-name="parenleft" unicode="&#x28;" horiz-adv-x="543" d="M320 760 C170 659 70 464 70 273 C70 91 167 -104 313 -214 L318 -205 C205 -120 130 71 130 273 C130 481 208 672 325 750 L320 760 L320 760 Z " />
<glyph glyph-name="parenright" unicode="&#x29;" horiz-adv-x="543" d="M25 750 C142 674 220 484 220 273 C220 60 145 -131 32 -204 L37 -214 C183 -119 280 76 280 273 C280 468 180 663 30 760 L25 750 L25 750 Z " />
<glyph glyph-name="asterisk" unicode="&#x2a;" horiz-adv-x="296" d="M150 630 L176 750 C180 770 170 783 150 783 C130 783 120 770 124 750 L150 630 L150 630 Z M150 630 L241 548 C256 534 273 536 283 553 C292 571 286 586 267 592 L150 630 L150 630 Z M150 630 L59 712 C44 726 27 724 17 707 C8 689 14 674 33 668 L150 630 L150 630 Z M150 630 L267 668 C286 674 292 689 283 707 C273 724 256 726 241 712 L150 630 L150 630 Z M150 630 L33 592 C14 586 8 571 17 553 C27 536 44 534 59 548 L150 630 L150 630 Z M150 630 L124 510 C120 490 130 477 150 477 C170 477 180 490 176 510 L150 630 L150 630 Z " />
<glyph glyph-name="plus" unicode="&#x2b;" horiz-adv-x="651" d="M293 476 L293 280 L100 280 L100 220 L293 220 L293 24 L359 24 L359 220 L551 220 L551 280 L359 280 L359 476 L293 476 L293 476 Z " />
<glyph glyph-name="comma" unicode="&#x2c;" horiz-adv-x="258" d="M173 35 C176 25 178 13 178 0 C178 -65 133 -108 66 -108 L66 -111 C140 -111 190 -62 190 11 C190 55 177 89 156 105 C148 112 138 116 126 116 C90 116 66 92 66 56 C66 20 90 -4 126 -4 C150 -4 168 11 174 36 L173 35 L173 35 Z " />
<glyph glyph-name="hyphen" unicode="&#x2d;" horiz-adv-x="461" d="M80 252 L381 252 L381 318 L80 318 L80 252 L80 252 Z " />
<glyph glyph-name="period" unicode="&#x2e;" horiz-adv-x="195" d="M125 -5 C161 -5 185 19 185 55 C185 91 161 115 125 115 C89 115 65 91 65 55 C65 19 89 -5 125 -5 L125 -5 Z " />
<glyph glyph-name="slash" unicode="&#x2f;" horiz-adv-x="389" d="M309 770 L27 -80 L77 -80 L359 770 L309 770 L309 770 Z " />
<glyph glyph-name="zero" unicode="0" horiz-adv-x="610" d="M305 25 C186 25 85 115 85 250 C85 372 173 475 305 475 C424 475 525 385 525 250 C525 129 437 25 305 25 L305 25 Z M45 250 C45 94 165 -10 305 -10 C461 -10 565 110 565 250 C565 406 445 510 305 510 C149 510 45 390 45 250 L45 250 Z " />
<glyph glyph-name="one" unicode="1" horiz-adv-x="365" d="M225 23 L225 477 C225 490 248 492 283 492 L325 492 C325 492 315 494 300 496 C285 498 275 500 275 500 L183 500 L90 500 C90 500 80 498 65 496 C50 494 40 492 40 492 L82 492 C117 492 140 490 140 477 L140 23 C140 10 117 8 82 8 L40 8 C40 8 50 6 65 4 C80 2 90 0 90 0 L183 0 L275 0 C275 0 285 2 300 4 C315 6 325 8 325 8 L283 8 C248 8 225 10 225 23 L225 23 Z " />
<glyph glyph-name="two" unicode="2" horiz-adv-x="572" d="M61 290 C79 383 152 445 244 445 C330 445 388 397 388 325 C388 207 223 100 30 15 L30 0 L347 0 L414 0 L462 0 L509 75 L509 75 C516 85 523 96 528 105 C528 105 531 112 535 123 C538 130 540 135 541 138 L515 98 C507 84 483 75 391 75 L187 75 C352 161 473 255 473 345 C473 444 399 510 288 510 C167 510 69 424 44 294 L61 290 L61 290 Z M541 138 C542 139 542 140 542 140 L541 138 L541 138 Z " />
<glyph glyph-name="three" unicode="3" horiz-adv-x="466" d="M17 -215 L20 -232 C264 -206 426 -111 426 7 C426 106 339 184 208 203 C333 266 411 329 411 387 C411 461 340 511 235 511 C128 511 42 448 20 352 L39 347 C53 409 118 451 200 451 C273 451 321 414 321 357 C321 291 232 227 99 171 L99 154 C241 133 336 66 336 -16 C336 -115 208 -194 17 -214 L17 -215 L17 -215 Z " />
<glyph glyph-name="four" unicode="4" horiz-adv-x="679" d="M655 1 C657 13 658 25 659 35 C662 54 666 79 668 98 C669 98 668 104 667 114 C666 124 665 130 665 130 L659 88 C657 74 639 65 546 65 L446 65 L446 390 L446 530 L435 530 L15 15 L15 0 L43 0 L361 0 L361 -220 L446 -220 L446 0 L587 0 C637 0 646 -5 645 -13 L639 -55 C639 -55 642 -49 645 -41 C649 -33 651 -27 651 -27 C652 -19 653 -10 654 0 L654 0 L655 1 L655 1 Z M95 65 L360 390 L360 66 L95 66 L95 65 L95 65 Z " />
<glyph glyph-name="five" unicode="5" horiz-adv-x="467" d="M60 -234 C286 -206 437 -93 437 50 C437 186 300 277 94 277 L79 277 L112 424 L374 426 C376 437 378 451 380 463 L383 482 C385 494 387 508 389 519 C389 519 388 523 386 529 C385 535 384 539 384 539 L381 522 C379 508 361 499 277 499 L94 499 L30 200 L45 186 L83 186 C249 186 360 120 360 20 C360 -101 239 -197 57 -219 L60 -234 L60 -234 Z " />
<glyph glyph-name="six" unicode="6" horiz-adv-x="599" d="M581 750 C263 750 50 567 50 291 C50 111 152 -10 306 -10 C450 -10 546 90 546 239 C546 372 450 461 307 461 C236 461 180 431 148 380 C194 599 357 737 584 737 L581 750 L581 750 Z M134 246 C134 373 202 457 304 457 C398 457 460 372 460 243 C460 94 398 -6 304 -6 C202 -6 134 95 134 246 L134 246 Z " />
<glyph glyph-name="seven" unicode="7" horiz-adv-x="470" d="M133 500 C76 500 67 505 71 513 L83 540 C83 540 80 536 75 530 C70 524 67 520 67 520 C59 502 48 478 40 460 C32 442 21 418 13 400 C13 400 12 393 10 384 C7 374 6 367 6 367 L21 400 C29 419 43 432 85 432 L431 432 L447 457 L111 -220 L176 -220 L465 485 L465 500 L463 500 L133 500 L133 500 Z " />
<glyph glyph-name="eight" unicode="8" horiz-adv-x="573" d="M222 376 C235 370 249 364 263 359 C386 313 468 262 468 154 C468 57 395 -7 286 -7 C183 -7 114 65 114 174 C114 262 156 338 222 377 L222 376 L222 376 Z M215 380 C109 334 40 256 40 175 C40 65 138 -9 286 -9 C434 -9 533 72 533 192 C533 309 459 370 343 419 C444 461 508 529 508 598 C508 695 418 760 284 760 C153 760 65 688 65 580 C65 496 123 426 215 380 L215 380 Z M336 422 C322 428 308 434 293 439 C197 475 133 538 133 613 C133 700 193 758 284 758 C375 758 435 691 435 591 C435 521 397 458 336 423 L336 422 L336 422 Z " />
<glyph glyph-name="nine" unicode="9" horiz-adv-x="599" d="M18 -250 C337 -250 550 -67 550 209 C550 389 447 510 293 510 C149 510 53 410 53 261 C53 128 149 39 293 39 C364 39 420 69 452 120 C406 -99 243 -237 16 -237 L18 -250 L18 -250 Z M466 254 C466 127 397 43 295 43 C202 43 139 128 139 257 C139 406 202 506 295 506 C397 506 466 405 466 254 L466 254 Z " />
<glyph glyph-name="colon" unicode="&#x3a;" horiz-adv-x="135" d="M125 385 C161 385 185 409 185 445 C185 481 161 505 125 505 C89 505 65 481 65 445 C65 409 89 385 125 385 L125 385 Z M125 -5 C161 -5 185 19 185 55 C185 91 161 115 125 115 C89 115 65 91 65 55 C65 19 89 -5 125 -5 L125 -5 Z " />
<glyph glyph-name="semicolon" unicode="&#x3b;" horiz-adv-x="258" d="M125 385 C161 385 185 409 185 445 C185 481 161 505 125 505 C89 505 65 481 65 445 C65 409 89 385 125 385 L125 385 Z M173 35 C176 25 178 13 178 0 C178 -65 133 -108 66 -108 L66 -111 C140 -111 190 -62 190 11 C190 55 177 89 156 105 C148 112 138 116 126 116 C90 116 66 92 66 56 C66 20 90 -4 126 -4 C150 -4 168 11 174 36 L173 35 L173 35 Z " />
<glyph glyph-name="equal" unicode="&#x3d;" horiz-adv-x="564" d="M83 219 L83 181 L495 181 L495 219 L83 219 L83 219 Z M83 319 L83 281 L495 281 L495 319 L83 319 L83 319 Z " />
<glyph glyph-name="question" unicode="&#x3f;" horiz-adv-x="299" d="M125 -5 C161 -5 185 19 185 55 C185 91 161 115 125 115 C89 115 65 91 65 55 C65 19 89 -5 125 -5 L125 -5 Z M125 210 L125 360 C218 360 251 394 285 444 C303 470 315 515 315 555 C315 678 247 760 145 760 C97 760 65 735 65 697 C65 672 83 655 111 655 C131 655 156 670 176 670 C244 670 289 620 289 545 C289 530 280 506 266 485 C248 458 222 440 97 440 L110 210 L125 210 L125 210 Z " />
<glyph glyph-name="at" unicode="&#x40;" horiz-adv-x="1207" d="M1088 0 C1022 -142 834 -236 619 -236 C321 -236 122 -38 122 259 C122 556 315 754 604 754 C893 754 1086 590 1086 343 C1086 141 1011 7 898 7 C800 7 753 84 782 200 L852 480 L772 480 L753 402 C735 456 682 490 610 490 C424 490 301 371 301 192 C301 82 377 8 490 8 C578 8 653 50 694 117 C704 31 772 -22 881 -22 C1043 -22 1151 124 1151 343 C1151 604 932 778 603 778 C274 778 54 570 54 259 C54 -52 280 -260 618 -260 C844 -260 1043 -156 1116 0 L1088 0 L1088 0 Z M740 356 L701 200 C679 113 612 55 533 55 C449 55 393 116 393 208 C393 363 478 466 606 466 C687 466 740 422 741 356 L740 356 L740 356 Z " />
<glyph glyph-name="A" unicode="A" horiz-adv-x="808" d="M670 128 L669 128 L467 720 L450 770 L440 770 C421 743 394 723 372 720 L375 710 L375 710 L194 147 C155 30 111 7 57 7 L14 7 C14 7 21 5 31 3 C40 1 47 -1 47 -1 L147 -1 L151 -1 L165 -1 L284 -1 C284 -1 290 1 300 3 C310 5 316 7 316 7 L276 7 C203 7 162 31 202 157 L202 157 L246 294 L516 294 L574 123 C606 26 575 8 520 8 L481 8 C481 8 487 6 497 4 C507 2 513 0 513 0 L616 0 L644 0 L715 0 L775 0 C775 0 782 2 791 4 C801 6 808 8 808 8 L765 8 C733 8 706 27 672 128 L670 128 L670 128 Z M248 299 L379 706 L516 299 L248 299 L248 299 Z " />
<glyph glyph-name="B" unicode="B" horiz-adv-x="722" d="M241 747 L334 747 C519 747 562 672 562 560 C562 456 473 386 341 386 L241 386 L241 677 L241 747 L241 747 Z M394 386 C554 398 657 468 657 569 C657 677 597 749 340 749 L241 749 L168 749 L94 749 C94 749 83 747 68 745 C52 743 41 741 41 741 L84 741 C121 741 146 731 146 676 L146 72 C146 17 121 7 84 7 L41 7 C41 7 52 5 68 3 C83 1 94 -1 94 -1 L168 -1 L241 -1 L361 -1 C554 -1 683 36 683 192 C683 306 567 382 393 384 L394 386 L394 386 Z M341 382 L376 382 C497 382 577 306 577 191 C577 37 489 1 357 1 L307 1 C267 1 240 21 240 50 L240 71 L240 382 L341 382 L341 382 Z " />
<glyph glyph-name="C" unicode="C" horiz-adv-x="774" d="M642 711 L642 711 C593 742 529 760 432 760 C204 760 52 606 52 375 C52 144 200 -10 421 -10 C519 -10 590 10 646 44 C686 64 717 52 723 30 C728 12 731 0 731 0 L731 30 L731 59 L731 119 L731 120 L731 181 C731 181 730 189 730 202 C729 215 728 223 728 223 C728 223 726 215 723 202 C712 155 656 73 592 36 L592 36 C544 8 489 -8 423 -8 C263 -8 156 145 156 374 C156 603 267 755 434 755 C494 755 541 743 581 722 C651 684 712 599 724 547 C727 534 729 526 729 526 C729 526 729 534 730 547 C731 560 731 568 731 568 L731 628 L731 630 L731 687 C731 687 731 699 730 716 C729 733 729 745 729 745 C729 745 727 733 724 716 C720 694 686 684 643 711 L642 711 L642 711 Z " />
<glyph glyph-name="D" unicode="D" horiz-adv-x="886" d="M146 677 L146 73 C146 18 121 8 84 8 L41 8 C41 8 52 6 68 4 C83 2 94 0 94 0 L146 0 L168 0 L241 0 L334 0 C633 0 832 127 832 375 C832 600 678 750 380 750 L241 750 L168 750 L146 750 L94 750 C94 750 83 748 68 746 C52 744 41 742 41 742 L84 742 C121 742 146 732 146 677 L146 677 Z M241 747 L369 747 C605 747 727 598 727 375 C727 129 568 3 330 3 C250 3 241 23 241 52 L241 73 L241 677 L241 747 L241 747 Z " />
<glyph glyph-name="E" unicode="E" horiz-adv-x="680" d="M500 0 L608 0 C609 10 611 23 612 33 C614 43 616 56 617 66 L617 97 C618 116 618 128 618 128 L612 86 C605 36 584 3 500 3 L293 3 C246 3 241 23 241 52 L241 73 L241 385 L415 385 C499 385 515 346 515 287 L515 245 C515 245 517 259 519 280 C521 301 523 315 523 315 L523 385 L523 387 L523 388 L523 458 C523 458 521 472 519 493 C517 514 515 528 515 528 L515 486 C515 427 499 388 415 388 L241 388 L241 677 L241 747 L475 747 C576 747 578 709 582 652 L584 622 C584 622 585 634 586 653 C587 672 587 684 587 684 C587 694 586 707 585 717 C584 727 584 740 583 750 L475 750 L241 750 L168 750 L146 750 L94 750 C94 750 83 748 68 746 C52 744 41 742 41 742 L84 742 C121 742 146 732 146 677 L146 73 C146 18 121 8 84 8 L41 8 C41 8 52 6 68 4 C83 2 94 0 94 0 L146 0 L168 0 L241 0 L500 0 L500 0 Z " />
<glyph glyph-name="F" unicode="F" horiz-adv-x="655" d="M440 382 C492 372 504 337 506 288 L508 240 C508 240 509 255 510 276 C512 298 513 313 513 313 L513 382 L513 384 L513 385 L513 456 C513 456 512 470 510 491 C509 513 508 527 508 527 L506 479 C504 422 487 385 405 385 L241 385 L241 677 L241 748 L395 748 C546 748 578 715 582 665 L586 623 C586 623 587 636 587 654 C588 673 588 686 588 686 C588 696 586 708 585 718 C585 728 584 740 583 750 L475 750 L241 750 L168 750 L146 750 L94 750 C94 750 83 748 68 746 C52 744 41 742 41 742 L84 742 C121 742 146 732 146 677 L146 73 C146 18 121 8 84 8 L41 8 C41 8 52 6 68 4 C83 2 94 0 94 0 L146 0 L194 0 L241 0 L294 0 C294 0 304 2 320 4 C336 6 346 8 346 8 L304 8 C266 8 241 18 241 73 L241 382 L440 382 L440 382 Z " />
<glyph glyph-name="G" unicode="G" horiz-adv-x="855" d="M642 711 L642 711 C593 742 529 760 432 760 C204 760 52 606 52 375 C52 144 202 -10 427 -10 C542 -10 630 5 706 30 L714 32 L714 33 C739 42 763 52 786 63 L785 66 C765 57 742 48 714 41 L714 258 C714 308 731 318 757 318 L799 318 C799 318 791 320 778 322 C765 324 757 326 757 326 L663 326 L569 326 C569 326 559 324 544 322 C529 320 519 318 519 318 L562 318 C596 318 619 308 619 258 L621 23 L621 23 L620 120 C620 57 548 15 440 14 L461 14 C453 14 444 14 435 14 L440 14 C438 14 436 14 434 14 C267 14 155 159 155 376 C155 605 266 757 433 757 C493 757 540 745 580 724 C650 686 711 601 723 549 C726 536 728 528 728 528 C728 528 728 536 729 549 C730 562 730 570 730 570 L730 630 L730 632 L730 689 C730 689 730 701 729 718 C728 735 728 747 728 747 C728 747 726 735 723 718 C719 696 685 686 642 713 L642 711 L642 711 Z " />
<glyph glyph-name="H" unicode="H" horiz-adv-x="892" d="M748 68 L748 682 C748 732 773 742 811 742 L853 742 C853 742 842 744 827 746 C811 748 800 750 800 750 L700 750 L600 750 C600 750 590 748 574 746 C558 744 548 742 548 742 L590 742 C628 742 653 732 653 682 L653 385 L277 385 L277 682 C277 732 302 742 340 742 L382 742 C382 742 372 744 356 746 C340 748 330 750 330 750 L230 750 L130 750 C130 750 119 748 104 746 C88 744 77 742 77 742 L120 742 C157 742 182 732 182 682 L182 68 C182 18 157 8 120 8 L77 8 C77 8 88 6 104 4 C119 2 130 0 130 0 L230 0 L330 0 C330 0 340 2 356 4 C372 6 382 8 382 8 L340 8 C302 8 277 18 277 68 L277 381 L653 381 L653 68 C653 18 628 8 590 8 L548 8 C548 8 558 6 574 4 C590 2 600 0 600 0 L700 0 L800 0 C800 0 811 2 827 4 C842 6 853 8 853 8 L811 8 C773 8 748 18 748 68 L748 68 Z " />
<glyph glyph-name="I" unicode="I" horiz-adv-x="382" d="M238 68 L238 682 C238 732 263 742 300 742 L343 742 C343 742 332 744 316 746 C301 748 290 750 290 750 L190 750 L90 750 C90 750 80 748 64 746 C48 744 38 742 38 742 L80 742 C118 742 143 732 143 682 L143 68 C143 18 118 8 80 8 L38 8 C38 8 48 6 64 4 C80 2 90 0 90 0 L190 0 L290 0 C290 0 301 2 316 4 C332 6 343 8 343 8 L300 8 C263 8 238 18 238 68 L238 68 Z " />
<glyph glyph-name="J" unicode="J" horiz-adv-x="382" d="M143 682 L142 -68 C142 -191 68 -215 14 -215 C-34 -215 -13 -135 -61 -135 C-88 -135 -106 -153 -106 -180 C-106 -204 -59 -220 10 -220 C106 -220 238 -167 238 112 L238 682 C238 732 263 742 300 742 L343 742 C343 742 332 744 316 746 C301 748 290 750 290 750 L190 750 L90 750 C90 750 80 748 64 746 C48 744 38 742 38 742 L80 742 C118 742 143 732 143 682 L143 682 Z " />
<glyph glyph-name="K" unicode="K" horiz-adv-x="809" d="M656 73 L656 73 L320 431 L532 652 L532 652 C533 653 534 654 535 655 L555 675 C611 731 643 742 672 742 L715 742 C715 742 708 744 699 746 C689 748 682 750 682 750 L627 750 L588 750 L581 750 L480 750 C480 750 474 748 464 746 C454 744 448 742 448 742 L483 742 C540 742 561 724 477 630 L242 375 L242 690 C242 734 267 742 305 742 L347 742 C347 742 337 744 321 746 C305 748 295 750 295 750 L242 750 L195 750 L147 750 L95 750 C95 750 84 748 69 746 C53 744 42 742 42 742 L85 742 C122 742 147 734 147 690 L147 60 C147 16 122 8 85 8 L42 8 C42 8 53 6 69 4 C84 2 95 0 95 0 L147 0 L195 0 L242 0 L295 0 C295 0 305 2 321 4 C337 6 347 8 347 8 L305 8 C267 8 242 16 242 60 L242 375 L597 0 L684 0 L725 0 L771 0 C771 0 777 2 787 4 C797 6 803 8 803 8 L753 8 C733 8 688 40 657 73 L656 73 L656 73 Z " />
<glyph glyph-name="L" unicode="L" horiz-adv-x="686" d="M612 16 L612 16 C615 27 618 39 620 49 C624 63 630 83 633 97 C634 97 637 114 641 139 C645 164 648 181 648 181 L637 139 C617 65 578 16 439 16 L289 16 C243 16 238 30 238 52 L238 73 L238 677 C238 732 263 742 300 742 L343 742 C343 742 332 744 316 746 C301 748 290 750 290 750 L238 750 L190 750 L143 750 L90 750 C90 750 80 748 64 746 C48 744 38 742 38 742 L80 742 C118 742 143 732 143 677 L143 73 C143 18 118 8 80 8 L38 8 C38 8 48 6 64 4 C80 2 90 0 90 0 L143 0 L164 0 L238 0 L435 0 L607 0 L612 0 L612 16 L612 16 Z " />
<glyph glyph-name="M" unicode="M" horiz-adv-x="934" d="M836 73 L836 73 L820 592 L820 592 C817 718 841 742 878 742 L920 742 C920 742 913 744 903 746 C894 748 887 750 887 750 L815 750 L806 750 L758 750 L724 750 L498 122 L246 750 L178 750 L154 750 L132 750 L62 750 C62 750 56 748 46 746 C36 744 30 742 30 742 L72 742 C105 742 131 735 153 698 L137 138 L137 138 C134 29 100 8 50 8 L8 8 C8 8 14 6 24 4 C34 2 40 0 40 0 L133 0 L149 0 L166 0 L258 0 C258 0 265 2 275 4 C284 6 291 8 291 8 L249 8 C202 8 170 25 169 113 L178 647 L404 121 L456 0 L480 0 L728 665 L743 73 L743 73 C745 18 719 8 681 8 L638 8 C638 8 649 6 665 4 C680 2 691 0 691 0 L745 0 L791 0 L840 0 L890 0 C890 0 901 2 917 4 C932 6 943 8 943 8 L901 8 C864 8 840 18 838 73 L836 73 L836 73 Z " />
<glyph glyph-name="N" unicode="N" horiz-adv-x="821" d="M166 128 L165 128 L163 626 L546 135 L651 0 L670 0 L676 642 L676 642 L676 642 L676 646 C677 726 710 741 759 741 L801 741 C801 741 788 743 770 745 C751 747 738 749 738 749 L677 749 L662 749 L648 749 L586 749 C586 749 574 747 555 745 C536 743 524 741 524 741 L566 741 C612 741 644 727 649 657 L651 155 L622 191 L186 749 L164 749 L140 749 L114 749 L68 749 L42 749 C42 749 35 747 25 745 C16 743 9 741 9 741 L66 741 C71 741 78 735 101 706 L101 706 L140 657 L139 137 L139 137 C139 28 106 7 56 7 L14 7 C14 7 20 5 30 3 C40 1 46 -1 46 -1 L139 -1 L153 -1 L167 -1 L260 -1 C260 -1 266 1 276 3 C286 5 292 7 292 7 L250 7 C200 7 167 26 167 127 L166 128 L166 128 Z " />
<glyph glyph-name="O" unicode="O" horiz-adv-x="889" d="M428 -6 C267 -6 159 146 159 375 C159 604 270 756 437 756 C610 756 726 604 726 375 C726 146 607 -6 428 -6 L428 -6 Z M50 375 C50 144 201 -10 427 -10 C672 -10 835 144 835 375 C835 606 676 760 437 760 C205 760 50 606 50 375 L50 375 Z " />
<glyph glyph-name="P" unicode="P" horiz-adv-x="671" d="M218 0 L265 0 L318 0 C318 0 328 2 344 4 C360 6 370 8 370 8 L328 8 C290 8 265 18 265 73 L265 345 L323 345 C520 345 652 405 652 539 C652 666 543 750 381 750 L265 750 L191 750 L170 750 L118 750 C118 750 107 748 91 746 C76 744 65 742 65 742 L107 742 C145 742 170 732 170 677 L170 73 C170 18 145 8 107 8 L65 8 C65 8 76 6 91 4 C107 2 118 0 118 0 L170 0 L218 0 L218 0 Z M265 365 L265 677 L265 734 L357 734 C480 734 563 662 563 555 C563 424 467 365 323 365 L265 365 L265 365 Z " />
<glyph glyph-name="Q" unicode="Q" horiz-adv-x="884" d="M1224 -54 L1223 -52 C1194 -77 1061 -94 891 -94 C710 -94 524 -61 411 -9 C417 -10 422 -10 427 -10 C672 -10 835 144 835 375 C835 606 676 760 437 760 C205 760 50 606 50 375 C50 211 184 86 302 27 L301 27 C495 -81 728 -153 881 -153 C1016 -153 1154 -113 1225 -54 L1224 -54 L1224 -54 Z M429 -6 C416 -6 400 -2 382 6 C381 6 380 6 379 6 L378 6 C288 48 160 185 160 374 C160 603 271 755 438 755 C611 755 727 603 727 374 C727 145 608 -7 429 -7 L429 -6 L429 -6 Z " />
<glyph glyph-name="R" unicode="R" horiz-adv-x="828" d="M819 0 L819 7 C724 7 718 9 678 68 C578 212 504 320 474 364 C579 384 644 440 644 538 C644 665 539 750 381 750 L241 750 L168 750 L94 750 C94 750 83 748 68 746 C52 744 41 742 41 742 L84 742 C121 742 146 732 146 677 L146 73 C146 18 121 8 84 8 L41 8 C41 8 52 6 68 4 C83 2 94 0 94 0 L194 0 L294 0 C294 0 304 2 320 4 C336 6 346 8 346 8 L304 8 C266 8 241 18 241 73 L241 356 L376 356 C396 320 468 211 567 68 C612 3 622 0 819 0 L819 0 Z M241 731 L353 731 C465 731 539 661 539 557 C539 435 476 380 381 380 L241 380 L241 677 L241 731 L241 731 Z " />
<glyph glyph-name="S" unicode="S" horiz-adv-x="581" d="M346 743 C417 715 479 629 494 568 C497 555 499 546 499 546 C499 546 499 555 500 568 C501 580 501 589 501 589 L501 644 L501 645 L501 702 C501 702 501 713 500 730 C499 748 499 759 499 759 C499 759 497 748 494 730 C490 709 470 694 446 708 C401 741 338 761 269 761 C146 761 65 683 65 565 C65 471 139 381 281 327 C403 280 466 221 466 167 C466 65 404 -4 310 -4 C263 -4 216 13 175 43 C120 84 70 171 58 224 C55 237 53 246 53 246 C53 246 52 237 51 224 C51 212 50 203 50 203 L50 148 L50 139 L50 75 C50 75 51 61 51 39 C52 17 53 3 53 3 C53 3 55 17 58 39 C61 66 91 80 129 51 L130 51 C180 13 244 -9 310 -9 C449 -9 541 73 541 195 C541 287 472 374 338 425 C207 475 140 541 140 601 C140 695 191 757 269 757 C291 757 313 754 334 748 L333 748 C335 748 337 748 339 747 C345 745 351 743 357 741 L346 743 L346 743 Z M348 744 L336 748 C337 748 338 748 339 748 C342 747 345 746 348 745 L348 744 L348 744 Z " />
<glyph glyph-name="T" unicode="T" horiz-adv-x="806" d="M25 625 L40 664 C54 701 79 726 163 726 L356 726 L356 68 C356 18 331 8 293 8 L251 8 C251 8 261 6 277 4 C293 2 303 0 303 0 L403 0 L503 0 C503 0 514 2 529 4 C545 6 556 8 556 8 L513 8 C476 8 451 18 451 68 L451 726 L644 726 C728 726 753 701 766 664 L782 621 C782 621 780 632 776 648 C772 664 770 675 770 675 C765 689 758 708 753 722 C752 724 751 726 750 728 L750 751 L742 751 C740 758 738 765 736 771 C735 771 732 775 728 781 C724 787 721 791 720 791 L727 774 C732 760 719 751 635 751 L451 751 L356 751 L171 751 C88 751 75 760 80 774 L86 791 C86 791 83 787 78 781 C74 775 71 771 71 771 C69 765 67 758 65 751 L56 751 L56 727 L56 727 C56 726 56 725 56 724 C50 710 44 691 38 677 C38 677 36 666 32 650 C30 640 28 632 27 627 L25 625 L25 625 Z M27 627 C26 625 26 624 26 624 L27 627 L27 627 Z " />
<glyph glyph-name="U" unicode="U" horiz-adv-x="791" d="M677 98 L677 677 L677 750 L603 750 L529 750 C529 750 519 748 503 746 C487 744 477 742 477 742 L519 742 C557 742 582 732 582 677 L582 194 C542 108 450 51 353 51 C265 51 206 121 206 226 L206 677 L206 750 L133 750 L59 750 C59 750 48 748 33 746 C17 744 6 742 6 742 L49 742 C86 742 111 732 111 677 L111 226 C111 85 193 -10 315 -10 C430 -10 536 55 582 152 L582 98 L582 0 L597 0 L781 49 L781 53 C694 48 677 54 677 98 L677 98 Z " />
<glyph glyph-name="V" unicode="V" horiz-adv-x="839" d="M93 702 L339 120 L395 -10 L414 -10 L681 622 L681 622 C681 623 681 624 681 625 L696 661 C728 729 754 743 783 743 L825 743 C825 743 819 745 809 747 C799 749 793 751 793 751 L734 751 L696 751 L678 751 L563 751 C563 751 557 749 547 747 C537 745 531 743 531 743 L570 743 C644 743 685 724 645 623 L645 623 L394 -9 L445 121 L235 623 L235 623 C192 724 233 743 307 743 L346 743 C346 743 339 745 330 747 C320 749 313 751 313 751 L181 751 L178 751 L72 751 L42 751 C42 751 36 749 26 747 C16 745 10 743 10 743 L67 743 C72 743 78 737 92 703 L93 702 L93 702 Z " />
<glyph glyph-name="W" unicode="W" horiz-adv-x="1167" d="M509 702 L590 500 L590 500 L431 121 L225 635 C193 725 226 742 284 742 L323 742 C323 742 317 744 307 746 C297 748 291 750 291 750 L178 750 L168 750 L74 750 L44 750 C44 750 38 748 28 746 C18 744 12 742 12 742 L69 742 C73 742 82 728 109 663 L324 120 L376 -10 L401 -10 L606 461 L736 138 L796 -10 L821 -10 L1021 622 L1022 622 C1052 723 1080 742 1113 742 L1155 742 C1155 742 1148 744 1139 746 C1129 748 1122 750 1122 750 L1062 750 L1023 750 L1007 750 L891 750 C891 750 884 748 875 746 C865 744 858 742 858 742 L898 742 C969 742 1011 724 987 633 L839 137 L839 138 L632 665 C611 729 645 741 703 741 L743 741 C743 741 736 743 726 745 C717 747 710 749 710 749 L598 749 L569 749 L488 749 L428 749 C428 749 422 747 412 745 C402 743 396 741 396 741 L438 741 C470 741 494 735 507 701 L509 702 L509 702 Z " />
<glyph glyph-name="X" unicode="X" horiz-adv-x="823" d="M644 128 L644 128 L445 415 L693 705 C725 734 747 742 767 742 L809 742 C809 742 802 744 793 746 C783 748 776 750 776 750 L731 750 L688 750 L681 750 L585 750 C585 750 579 748 569 746 C559 744 553 742 553 742 L589 742 C645 742 666 721 585 612 L585 612 L441 419 L291 634 C230 724 250 741 298 741 L335 741 C335 741 328 743 318 745 C309 747 302 749 302 749 L210 749 L181 749 L97 749 L60 749 C60 749 54 747 44 745 C34 743 28 741 28 741 L74 741 C91 741 116 722 186 621 L186 621 L373 353 L185 108 L183 107 C118 23 81 7 44 7 L1 7 C1 7 8 5 18 3 C27 1 34 -1 34 -1 L101 -1 L139 -1 L162 -1 L291 -1 C291 -1 298 1 307 3 C317 5 324 7 324 7 L287 7 C208 7 165 23 215 102 L385 334 L550 98 C597 22 576 7 531 7 L494 7 C494 7 501 5 511 3 C520 1 527 -1 527 -1 L619 -1 L653 -1 L732 -1 L780 -1 C780 -1 786 1 796 3 C806 5 812 7 812 7 L770 7 C744 7 714 26 643 127 L644 128 L644 128 Z " />
<glyph glyph-name="Y" unicode="Y" horiz-adv-x="765" d="M260 622 L260 622 C194 723 208 742 247 742 L284 742 C284 742 278 744 268 746 C258 748 252 750 252 750 L179 750 L146 750 L67 750 L39 750 C39 750 33 748 23 746 C13 744 7 742 7 742 L64 742 C69 742 84 723 149 622 L150 622 L343 322 L343 68 C343 18 318 8 280 8 L238 8 C238 8 248 6 264 4 C280 2 290 0 290 0 L390 0 L490 0 C490 0 501 2 517 4 C532 6 543 8 543 8 L500 8 C463 8 438 18 438 68 L438 338 L610 635 C663 725 690 742 715 742 L757 742 C757 742 751 744 741 746 C731 748 725 750 725 750 L677 750 L669 750 L661 750 L597 750 C597 750 590 748 581 746 C571 744 564 742 564 742 L602 742 C638 742 654 727 613 652 L438 343 L260 622 L260 622 Z " />
<glyph glyph-name="Z" unicode="Z" horiz-adv-x="683" d="M497 28 L497 28 L143 22 L641 730 L641 750 L548 750 L228 750 L70 750 C68 734 65 712 62 695 C60 679 57 657 55 641 C55 641 54 624 54 598 C53 571 52 554 52 554 L59 593 C71 672 103 724 224 724 L224 724 L533 728 L25 20 L25 0 L128 0 L490 0 L637 0 L650 52 L663 104 C663 104 665 120 669 143 C673 167 675 183 675 183 L662 138 C642 72 608 28 497 28 L497 28 Z " />
<glyph glyph-name="bracketleft" unicode="&#x5b;" horiz-adv-x="294" d="M135 725 L345 725 L345 750 L135 750 L105 750 L105 -195 L135 -195 L345 -195 L345 -170 L135 -170 L135 725 L135 725 Z " />
<glyph glyph-name="backslash" unicode="&#x5c;" horiz-adv-x="347" d="M27 770 L287 -80 L337 -80 L77 770 L27 770 L27 770 Z " />
<glyph glyph-name="bracketright" unicode="&#x5d;" horiz-adv-x="297" d="M158 725 L158 -170 L-52 -170 L-52 -195 L158 -195 L188 -195 L188 750 L158 750 L-52 750 L-52 725 L158 725 L158 725 Z " />
<glyph glyph-name="underscore" unicode="&#x5f;" horiz-adv-x="525" d="M5 -50 L5 -97 L521 -97 L521 -50 L5 -50 L5 -50 Z " />
<glyph glyph-name="a" unicode="a" horiz-adv-x="544" d="M555 102 L540 109 C535 77 513 56 486 56 C453 56 431 74 431 102 L431 355 C431 462 369 510 277 510 C150 510 65 414 65 360 C65 324 84 300 114 300 C140 300 158 325 158 343 C158 363 138 382 138 403 C138 440 192 506 273 506 C317 506 347 469 347 386 L347 268 C103 224 45 200 45 88 C45 29 94 -10 169 -10 C228 -10 290 16 348 82 C356 30 395 -4 451 -4 C502 -4 544 39 555 103 L555 102 L555 102 Z M347 266 L346 103 C346 97 346 91 347 85 C312 49 265 35 214 35 C164 35 130 60 130 97 C130 211 172 233 347 264 L347 266 L347 266 Z " />
<glyph glyph-name="b" unicode="b" horiz-adv-x="694" d="M155 0 L160 0 L189 65 L189 65 C227 20 308 -10 392 -10 C546 -10 649 95 649 253 C649 404 548 505 397 505 C353 505 291 472 240 422 L240 684 L240 747 L225 747 L112 715 C112 715 104 711 91 705 C78 699 70 695 70 695 L112 707 C138 715 155 711 155 664 L155 195 L155 0 L155 0 Z M240 410 C283 451 335 479 371 479 C481 479 554 384 554 242 C554 98 490 1 395 1 C331 1 269 29 240 70 L240 195 L240 410 L240 410 Z " />
<glyph glyph-name="c" unicode="c" horiz-adv-x="539" d="M509 128 L498 133 C473 79 404 42 326 42 C208 42 130 134 130 273 C130 404 202 491 309 491 C362 491 411 457 430 405 C439 380 456 363 472 363 C507 363 524 380 515 405 C491 468 411 510 314 510 C151 510 42 400 42 236 C42 88 143 -10 296 -10 C387 -10 473 45 509 128 L509 128 Z " />
<glyph glyph-name="d" unicode="d" horiz-adv-x="624" d="M627 35 L588 26 C562 20 545 31 545 115 L545 668 L545 747 L530 747 L417 715 C417 715 409 711 396 705 C383 699 375 695 375 695 L417 707 C443 715 460 709 460 648 L460 467 C422 493 368 510 310 510 C136 510 46 406 46 251 C46 97 141 -5 283 -5 C356 -5 426 23 460 66 L460 -10 L475 -10 L587 18 C587 18 596 22 609 27 C616 31 622 34 626 35 L627 35 L627 35 Z M626 35 C628 36 629 36 629 36 L626 35 L626 35 Z M459 96 C427 56 372 30 317 30 C206 30 132 128 132 274 C132 401 196 485 319 485 C374 485 430 444 459 394 L459 98 L459 96 L459 96 Z " />
<glyph glyph-name="e" unicode="e" horiz-adv-x="578" d="M138 340 L454 340 L525 340 L548 340 C526 462 439 510 320 510 C153 510 41 399 41 231 C41 87 142 -10 294 -10 C408 -10 505 47 536 132 L525 136 C506 82 422 46 315 46 C204 46 130 134 130 266 C130 293 133 318 138 341 L138 340 L138 340 Z M518 366 C520 366 522 366 524 366 L518 366 L518 366 Z M448 365 L143 361 C169 442 231 492 314 492 C376 492 426 456 448 365 L448 365 Z " />
<glyph glyph-name="f" unicode="f" horiz-adv-x="393" d="M205 455 L383 455 L383 500 L205 500 C205 637 248 729 331 729 C404 729 411 635 472 635 C499 635 517 653 517 680 C517 725 455 755 361 755 C202 755 120 653 120 500 L26 465 L26 455 L120 455 L120 23 C120 10 103 8 77 8 L35 8 C35 8 43 6 56 4 C69 2 77 0 77 0 L162 0 L247 0 C247 0 256 2 269 4 C281 6 290 8 290 8 L247 8 C222 8 205 10 205 23 L205 455 L205 455 Z " />
<glyph glyph-name="g" unicode="g" horiz-adv-x="551" d="M160 350 C160 434 204 490 271 490 C337 490 381 434 381 350 C381 265 337 208 271 208 C204 208 160 265 160 350 L160 350 Z M166 1 C173 0 180 0 187 0 L309 0 C408 0 446 -35 446 -88 C446 -162 382 -211 286 -211 C184 -211 116 -157 116 -75 C116 -43 135 -15 165 0 L166 1 L166 1 Z M145 3 C84 -16 44 -54 44 -96 C44 -177 138 -231 280 -231 C421 -231 515 -166 515 -69 C515 22 459 83 316 83 L190 83 C138 84 103 102 103 129 C103 164 170 187 270 187 C387 187 465 252 465 349 C465 368 462 386 456 402 C475 436 502 459 527 459 C535 459 541 447 541 429 C541 411 557 399 581 399 C601 399 615 415 615 439 C615 472 594 494 562 494 C517 494 473 465 448 420 C419 475 355 509 270 509 C152 509 74 445 74 349 C74 276 118 221 190 198 C106 185 54 150 54 103 C54 51 89 14 145 2 L145 3 L145 3 Z " />
<glyph glyph-name="h" unicode="h" horiz-adv-x="680" d="M476 23 C476 10 459 8 433 8 L391 8 C391 8 399 6 412 4 C425 2 433 0 433 0 L518 0 L603 0 C603 0 612 2 625 4 C637 6 646 8 646 8 L603 8 C578 8 561 10 561 23 L561 330 C561 438 512 510 417 510 C349 510 262 460 201 385 L201 684 L201 747 L186 747 L73 715 C73 715 65 711 52 705 C39 699 31 695 31 695 L73 707 C99 715 116 711 116 664 L116 23 C116 10 99 8 73 8 L31 8 C31 8 39 6 52 4 C65 2 73 0 73 0 L158 0 L243 0 C243 0 252 2 265 4 C277 6 286 8 286 8 L243 8 C218 8 201 10 201 23 L201 381 C235 422 302 450 368 450 C439 450 476 402 476 330 L476 23 L476 23 Z " />
<glyph glyph-name="i" unicode="i" horiz-adv-x="319" d="M167 615 C200 615 222 637 222 670 C222 703 200 725 167 725 C134 725 112 703 112 670 C112 637 134 615 167 615 L167 615 Z M210 23 L210 437 L210 500 L195 500 L82 468 C82 468 74 464 61 458 C48 452 40 448 40 448 L82 460 C108 467 125 463 125 417 L125 23 C125 10 112 8 92 8 L50 8 C50 8 57 6 69 4 C80 2 87 0 87 0 L167 0 L247 0 C247 0 255 2 266 4 C277 6 285 8 285 8 L242 8 C223 8 210 10 210 23 L210 23 Z " />
<glyph glyph-name="j" unicode="j" horiz-adv-x="289" d="M157 615 C190 615 212 637 212 670 C212 703 190 725 157 725 C124 725 102 703 102 670 C102 637 124 615 157 615 L157 615 Z M115 417 L115 50 C115 -33 94 -101 63 -119 C31 -119 -8 -100 -40 -100 C-67 -100 -85 -116 -85 -140 C-85 -169 -61 -187 -25 -185 C-18 -184 24 -162 80 -130 C152 -89 200 -17 200 50 L200 437 L200 500 L185 500 L72 468 C72 468 64 464 51 458 C38 452 30 448 30 448 L72 460 C98 467 115 463 115 417 L115 417 Z " />
<glyph glyph-name="k" unicode="k" horiz-adv-x="659" d="M518 0 L593 0 L608 0 C608 0 615 2 625 4 C634 6 641 8 641 8 L585 8 L575 19 C574 20 573 21 572 23 L571 23 L299 313 L535 476 L536 477 C554 490 561 492 565 492 L623 492 C623 492 616 494 606 496 C597 498 590 500 590 500 L569 500 L527 500 L482 500 L375 500 C375 500 368 498 358 496 C349 494 342 492 342 492 L373 492 C454 492 478 471 329 363 L209 280 L209 684 L209 747 L194 747 L81 715 C81 715 73 711 60 705 C47 699 39 695 39 695 L81 707 C107 715 124 711 124 664 L124 23 C124 10 111 8 91 8 L49 8 C49 8 56 6 68 4 C79 2 86 0 86 0 L166 0 L246 0 C246 0 254 2 265 4 C276 6 284 8 284 8 L241 8 C222 8 209 10 209 23 L209 280 L459 21 C468 10 454 8 430 8 L394 8 C394 8 401 6 410 4 C420 2 427 0 427 0 L479 0 L518 0 L518 0 Z " />
<glyph glyph-name="l" unicode="l" horiz-adv-x="309" d="M200 23 L200 684 L200 747 L185 747 L72 715 C72 715 64 711 51 705 C38 699 30 695 30 695 L72 707 C98 715 115 711 115 664 L115 23 C115 10 100 8 77 8 L35 8 C35 8 43 6 55 4 C67 2 75 0 75 0 L157 0 L240 0 C240 0 248 2 260 4 C272 6 280 8 280 8 L237 8 C215 8 200 10 200 23 L200 23 Z " />
<glyph glyph-name="m" unicode="m" horiz-adv-x="983" d="M528 390 L528 388 C514 463 469 510 381 510 C327 510 253 462 194 390 L194 437 L194 500 L179 500 L66 459 C66 459 58 454 45 447 C32 440 24 436 24 436 L66 451 C92 460 109 458 109 411 L109 43 C109 14 92 8 66 8 L24 8 C24 8 32 6 45 4 C58 2 66 0 66 0 L148 0 L229 0 C229 0 236 2 246 4 C257 6 264 8 264 8 L221 8 C205 8 194 14 194 43 L194 386 C224 422 285 447 346 447 C419 447 448 400 448 330 L448 43 C448 14 435 8 416 8 L373 8 C373 8 381 6 392 4 C403 2 411 0 411 0 L488 0 L566 0 C566 0 572 2 582 4 C592 6 598 8 598 8 L556 8 C542 8 533 14 533 43 L533 330 C533 350 532 369 529 386 C560 422 623 447 686 447 C760 447 789 400 789 330 L789 43 C789 14 776 8 757 8 L714 8 C714 8 722 6 733 4 C744 2 752 0 752 0 L834 0 L917 0 C917 0 925 2 938 4 C951 6 959 8 959 8 L917 8 C891 8 874 14 874 43 L874 330 C874 438 831 510 721 510 C665 510 589 462 529 390 L528 390 L528 390 Z " />
<glyph glyph-name="n" unicode="n" horiz-adv-x="643" d="M448 23 C448 10 433 8 411 8 L368 8 C368 8 376 6 388 4 C400 2 408 0 408 0 L491 0 L573 0 C573 0 581 2 593 4 C605 6 613 8 613 8 L571 8 C548 8 533 10 533 23 L533 322 C533 435 481 510 381 510 C332 510 258 458 194 381 L194 437 L194 500 L179 500 L66 459 C66 459 58 454 45 447 C32 440 24 436 24 436 L66 451 C92 460 109 458 109 411 L109 23 C109 10 94 8 71 8 L29 8 C29 8 37 6 49 4 C61 2 69 0 69 0 L151 0 L234 0 C234 0 242 2 254 4 C266 6 274 8 274 8 L231 8 C209 8 194 10 194 23 L194 369 C244 429 309 470 357 470 C417 470 448 411 448 322 L448 23 L448 23 Z " />
<glyph glyph-name="o" unicode="o" horiz-adv-x="640" d="M318 -6 C208 -6 134 96 134 250 C134 404 208 506 318 506 C428 506 501 404 501 250 C501 96 428 -6 318 -6 L318 -6 Z M41 250 C41 94 152 -10 318 -10 C484 -10 595 94 595 250 C595 406 484 510 318 510 C152 510 41 406 41 250 L41 250 Z " />
<glyph glyph-name="p" unicode="p" horiz-adv-x="654" d="M195 440 L195 500 L180 500 L67 459 C67 459 59 454 46 447 C33 440 25 436 25 436 L67 451 C93 460 110 458 110 411 L110 -175 C110 -206 93 -212 67 -212 L25 -212 C25 -212 33 -214 46 -216 C59 -218 67 -220 67 -220 L152 -220 L237 -220 C237 -220 246 -218 259 -216 C271 -214 280 -212 280 -212 L237 -212 C212 -212 195 -206 195 -175 L195 91 C233 33 296 -5 361 -5 C510 -5 609 115 609 257 C609 409 510 510 361 510 C293 510 229 483 196 440 L195 440 L195 440 Z M196 101 L196 406 C227 448 276 475 323 475 C440 475 518 377 518 230 C518 105 455 -2 361 -2 C297 -2 233 39 196 101 L196 101 Z " />
<glyph glyph-name="q" unicode="q" horiz-adv-x="657" d="M527 -197 L527 390 L527 440 L527 500 L522 500 L494 440 C453 482 381 510 314 510 C136 510 44 406 44 251 C44 97 139 -5 280 -5 C356 -5 417 18 442 54 L442 -197 C442 -210 425 -212 399 -212 L357 -212 C357 -212 365 -214 378 -216 C391 -218 399 -220 399 -220 L484 -220 L569 -220 C569 -220 578 -218 590 -216 C603 -214 612 -212 612 -212 L569 -212 C544 -212 527 -210 527 -197 L527 -197 Z M442 390 L442 84 C420 51 373 30 316 30 C206 30 132 128 132 275 C132 404 192 491 309 491 C356 491 409 451 442 390 L442 390 Z " />
<glyph glyph-name="r" unicode="r" horiz-adv-x="487" d="M200 386 L200 437 L200 500 L185 500 L72 459 C72 459 64 454 51 447 C38 440 30 436 30 436 L72 451 C98 460 115 458 115 411 L115 23 C115 10 102 8 82 8 L40 8 C40 8 47 6 59 4 C70 2 77 0 77 0 L160 0 L242 0 C242 0 251 2 264 4 C276 6 285 8 285 8 L242 8 C217 8 200 10 200 23 L200 379 C231 434 281 470 327 470 C356 470 376 456 376 435 C376 405 396 385 426 385 C456 385 476 405 476 435 C476 480 432 510 366 510 C306 510 240 461 199 386 L200 386 L200 386 Z " />
<glyph glyph-name="s" unicode="s" horiz-adv-x="471" d="M293 495 L287 496 C324 481 356 452 373 415 L376 416 C384 399 388 382 388 366 L388 350 C388 350 390 357 392 366 C394 376 396 383 396 383 L396 426 L396 433 L396 483 C396 483 394 488 392 497 C390 505 388 510 388 510 L388 481 C388 472 368 471 337 485 C307 501 269 511 229 511 C133 511 70 459 70 381 C70 309 124 247 229 219 C312 196 355 154 355 107 C355 39 312 -6 247 -6 C187 -6 125 38 94 105 L91 104 C83 122 79 139 79 154 L79 170 C79 170 77 164 75 154 C73 144 71 138 71 138 L71 95 L71 52 C71 52 73 44 75 31 C77 18 79 10 79 10 L79 31 C79 38 112 31 161 9 L163 9 C189 -2 218 -8 248 -8 C353 -8 422 48 422 132 C422 199 369 257 267 284 C177 309 131 357 131 411 C131 470 170 509 230 509 C250 509 269 505 287 498 L230 509 C253 509 274 504 293 496 L293 495 L293 495 Z " />
<glyph glyph-name="t" unicode="t" horiz-adv-x="397" d="M352 500 L184 500 L184 620 L178 620 L34 466 L34 456 L99 456 L99 160 C99 38 157 -10 243 -10 C307 -10 364 32 388 96 L377 100 C362 58 319 30 269 30 C216 30 181 61 182 141 L184 455 L352 455 L352 500 L352 500 Z " />
<glyph glyph-name="u" unicode="u" horiz-adv-x="635" d="M613 35 L573 26 C548 20 531 28 531 95 L531 477 L531 500 L472 500 L413 500 C413 500 406 498 396 496 C386 494 380 492 380 492 L422 492 C436 492 446 490 446 477 L446 129 C421 81 360 49 289 49 C222 49 178 95 178 165 L178 477 L178 500 L119 500 L60 500 C60 500 53 498 43 496 C33 494 27 492 27 492 L69 492 C83 492 93 490 93 477 L93 165 C93 60 155 -10 249 -10 C333 -10 411 43 446 124 L446 78 L446 -10 L461 -10 L573 18 C573 18 582 22 595 27 C603 31 609 34 613 35 L613 35 Z M613 35 C615 36 616 36 616 36 L613 35 L613 35 Z " />
<glyph glyph-name="v" unicode="v" horiz-adv-x="594" d="M80 466 L269 -10 L294 -10 L482 446 L482 446 C497 485 517 492 544 492 L586 492 C586 492 580 494 570 496 C560 498 554 500 554 500 L504 500 L478 500 L465 500 L403 500 C403 500 396 498 386 496 C377 494 370 492 370 492 L410 492 C438 492 456 488 452 468 L268 -10 L309 97 L172 466 L172 466 C163 488 172 492 190 492 L234 492 C234 492 227 494 218 496 C208 498 201 500 201 500 L159 500 L116 500 L66 500 L31 500 C31 500 25 498 15 496 C5 494 -1 492 -1 492 L49 492 C61 492 71 488 79 466 L80 466 L80 466 Z " />
<glyph glyph-name="w" unicode="w" horiz-adv-x="924" d="M397 473 L444 350 L297 -10 L322 -10 L459 309 L580 -10 L605 -10 L801 455 C816 486 835 492 860 492 L902 492 C902 492 895 494 886 496 C876 498 869 500 869 500 L820 500 L794 500 L780 500 L718 500 C718 500 711 498 701 496 C692 494 685 492 685 492 L724 492 C754 492 773 488 769 469 L623 96 L489 481 C487 489 490 491 495 491 L549 491 C549 491 542 493 533 495 C523 497 516 499 516 499 L483 499 L437 499 L388 499 L357 499 C357 499 351 497 341 495 C331 493 325 491 325 491 L381 491 C387 491 392 488 398 472 L397 473 L397 473 Z M104 476 L298 -11 L341 95 L197 481 C195 489 198 491 203 491 L257 491 C257 491 250 493 240 495 C231 497 224 499 224 499 L191 499 L145 499 L96 499 L65 499 C65 499 59 497 49 495 C39 493 33 491 33 491 L89 491 C94 491 99 489 105 477 L104 476 L104 476 Z " />
<glyph glyph-name="x" unicode="x" horiz-adv-x="622" d="M113 52 L113 52 C84 15 66 8 49 8 L3 8 C3 8 9 6 19 4 C29 2 35 0 35 0 L72 0 L107 0 L111 0 L178 0 C178 0 185 2 195 4 C204 6 211 8 211 8 L174 8 C143 8 125 13 140 39 L273 218 L402 43 C421 14 412 8 393 8 L354 8 C354 8 360 6 370 4 C380 2 386 0 386 0 L434 0 L475 0 L538 0 L564 0 C564 0 571 2 581 4 C590 6 597 8 597 8 L540 8 C536 8 530 12 515 30 L333 277 L466 447 L467 447 C494 484 511 491 530 491 L576 491 C576 491 570 493 560 495 C550 497 544 499 544 499 L507 499 L477 499 L468 499 L411 499 C411 499 404 497 394 495 C385 493 378 491 378 491 L415 491 C441 491 455 485 435 456 L318 297 L200 456 C181 485 190 491 209 491 L248 491 C248 491 242 493 232 495 C222 497 216 499 216 499 L168 499 L131 499 L64 499 L47 499 C47 499 41 497 31 495 C21 493 15 491 15 491 L70 491 L259 235 L113 52 L113 52 Z " />
<glyph glyph-name="y" unicode="y" horiz-adv-x="614" d="M81 466 L284 -10 L233 -140 C227 -155 215 -165 203 -165 C182 -165 174 -135 154 -135 C125 -135 106 -152 106 -177 C106 -209 126 -230 156 -230 C195 -230 233 -203 248 -163 L309 -10 L505 455 C520 486 539 492 564 492 L606 492 C606 492 599 494 590 496 C580 498 573 500 573 500 L524 500 L498 500 L485 500 L423 500 C423 500 416 498 406 496 C397 494 390 492 390 492 L429 492 C461 492 480 487 470 462 L470 462 L284 -10 L326 97 L174 467 C165 488 174 492 191 492 L235 492 C235 492 228 494 219 496 C209 498 202 500 202 500 L160 500 L117 500 L67 500 L33 500 C33 500 26 498 16 496 C7 494 0 492 0 492 L51 492 C62 492 72 488 81 466 L81 466 Z " />
<glyph glyph-name="z" unicode="z" horiz-adv-x="506" d="M108 538 C107 536 105 533 103 529 C99 523 96 519 96 519 C95 513 93 506 91 499 L84 499 L84 474 C84 473 84 472 84 471 C80 456 75 437 71 422 C71 422 69 412 65 397 C61 382 58 372 58 372 L77 415 C92 447 117 469 190 472 L198 472 C200 472 202 472 205 472 L205 472 L366 476 L42 19 L42 -1 L132 -1 L382 -1 L463 -1 C465 10 467 26 469 37 C470 48 472 64 474 75 L479 100 C482 115 484 125 483 125 L467 83 C456 53 433 32 358 26 L147 21 L467 478 L467 498 L381 498 L111 498 C106 498 100 502 101 508 L108 538 L108 538 Z M109 536 L109 538 C109 538 109 537 108 536 L109 536 L109 536 Z " />
<glyph glyph-name="bar" unicode="&#x7c;" horiz-adv-x="186" d="M60 797 L60 -250 L126 -250 L126 797 L60 797 L60 797 Z " />
<glyph glyph-name="exclamdown" unicode="&#xa1;" horiz-adv-x="244" d="M122 505 C86 505 62 481 62 445 C62 409 86 385 122 385 C158 385 182 409 182 445 C182 481 158 505 122 505 L122 505 Z M122 -255 C170 -255 180 -213 174 -150 L130 290 L114 290 L70 -150 C63 -213 73 -255 122 -255 L122 -255 Z " />
<glyph glyph-name="cent" unicode="&#xa2;" horiz-adv-x="539" d="M284 575 L284 509 C138 496 42 390 42 236 C42 92 138 -5 284 -10 L284 -75 L314 -75 L314 -9 C398 -2 475 51 509 129 L498 134 C473 80 404 43 326 43 C322 43 318 43 314 43 L314 492 C365 490 412 457 430 407 C439 382 456 365 472 365 C507 365 524 382 515 407 C491 470 411 512 314 512 L314 577 L284 575 L284 575 Z M284 48 C190 67 130 153 130 275 C130 396 191 479 284 492 L284 48 L284 48 Z " />
<glyph glyph-name="questiondown" unicode="&#xbf;" horiz-adv-x="299" d="M174 505 C138 505 114 481 114 445 C114 409 138 385 174 385 C210 385 234 409 234 445 C234 481 210 505 174 505 L174 505 Z M175 290 L174 140 C82 140 49 106 15 56 C-4 30 -15 -15 -15 -55 C-15 -178 52 -260 154 -260 C202 -260 234 -235 234 -197 C234 -172 216 -155 189 -155 C168 -155 144 -170 124 -170 C56 -170 10 -120 10 -45 C10 -30 20 -6 34 15 C52 42 77 60 202 60 L190 290 L175 290 L175 290 Z " />
<glyph glyph-name="Agrave" unicode="&#xc0;" horiz-adv-x="808" d="M670 128 L669 128 L467 720 L450 770 L440 770 C421 743 394 723 372 720 L375 710 L375 710 L194 147 C155 30 111 7 57 7 L14 7 C14 7 21 5 31 3 C40 1 47 -1 47 -1 L147 -1 L151 -1 L165 -1 L284 -1 C284 -1 290 1 300 3 C310 5 316 7 316 7 L276 7 C203 7 162 31 202 157 L202 157 L246 294 L516 294 L574 123 C606 26 575 8 520 8 L481 8 C481 8 487 6 497 4 C507 2 513 0 513 0 L616 0 L644 0 L715 0 L775 0 C775 0 782 2 791 4 C801 6 808 8 808 8 L765 8 C733 8 706 27 672 128 L670 128 L670 128 Z M321 971 C290 1011 267 1038 260 1038 C237 1038 218 1019 218 996 C218 988 244 964 282 932 L424 812 L435 823 L321 971 L321 971 Z M248 299 L379 706 L516 299 L248 299 L248 299 Z " />
<glyph glyph-name="Aacute" unicode="&#xc1;" horiz-adv-x="808" d="M427 812 L569 932 C608 965 633 989 633 996 C633 1019 614 1038 591 1038 C585 1038 562 1011 530 971 L417 823 L427 812 L427 812 Z M670 128 L669 128 L467 720 L450 770 L440 770 C421 743 394 723 372 720 L375 710 L375 710 L194 147 C155 30 111 7 57 7 L14 7 C14 7 21 5 31 3 C40 1 47 -1 47 -1 L147 -1 L151 -1 L165 -1 L284 -1 C284 -1 290 1 300 3 C310 5 316 7 316 7 L276 7 C203 7 162 31 202 157 L202 157 L246 294 L516 294 L574 123 C606 26 575 8 520 8 L481 8 C481 8 487 6 497 4 C507 2 513 0 513 0 L616 0 L644 0 L715 0 L775 0 C775 0 782 2 791 4 C801 6 808 8 808 8 L765 8 C733 8 706 27 672 128 L670 128 L670 128 Z M248 299 L379 706 L516 299 L248 299 L248 299 Z " />
<glyph glyph-name="Acircumflex" unicode="&#xc2;" horiz-adv-x="808" d="M670 128 L669 128 L467 720 L450 770 L440 770 C421 743 394 723 372 720 L375 710 L375 710 L194 147 C155 30 111 7 57 7 L14 7 C14 7 21 5 31 3 C40 1 47 -1 47 -1 L147 -1 L151 -1 L165 -1 L284 -1 C284 -1 290 1 300 3 C310 5 316 7 316 7 L276 7 C203 7 162 31 202 157 L202 157 L246 294 L516 294 L574 123 C606 26 575 8 520 8 L481 8 C481 8 487 6 497 4 C507 2 513 0 513 0 L616 0 L644 0 L715 0 L775 0 C775 0 782 2 791 4 C801 6 808 8 808 8 L765 8 C733 8 706 27 672 128 L670 128 L670 128 Z M421 945 L562 806 L573 816 L452 1005 C446 1014 431 1035 422 1035 C412 1035 398 1014 392 1005 L270 816 L281 806 L421 945 L421 945 Z M248 299 L379 706 L516 299 L248 299 L248 299 Z " />
<glyph glyph-name="Atilde" unicode="&#xc3;" horiz-adv-x="808" d="M254 870 C254 906 275 930 307 930 C373 930 441 865 508 865 C555 865 587 913 587 985 L585 985 C585 949 562 925 528 925 C461 925 393 990 326 990 C282 990 252 942 252 870 L254 870 L254 870 Z M670 128 L669 128 L467 720 L450 770 L440 770 C421 743 394 723 372 720 L375 710 L375 710 L194 147 C155 30 111 7 57 7 L14 7 C14 7 21 5 31 3 C40 1 47 -1 47 -1 L147 -1 L151 -1 L165 -1 L284 -1 C284 -1 290 1 300 3 C310 5 316 7 316 7 L276 7 C203 7 162 31 202 157 L202 157 L246 294 L516 294 L574 123 C606 26 575 8 520 8 L481 8 C481 8 487 6 497 4 C507 2 513 0 513 0 L616 0 L644 0 L715 0 L775 0 C775 0 782 2 791 4 C801 6 808 8 808 8 L765 8 C733 8 706 27 672 128 L670 128 L670 128 Z M248 299 L379 706 L516 299 L248 299 L248 299 Z " />
<glyph glyph-name="Adieresis" unicode="&#xc4;" horiz-adv-x="808" d="M497 865 C530 865 552 887 552 920 C552 953 530 975 497 975 C464 975 442 953 442 920 C442 887 464 865 497 865 L497 865 Z M342 865 C375 865 397 887 397 920 C397 953 375 975 342 975 C309 975 287 953 287 920 C287 887 309 865 342 865 L342 865 Z M670 128 L669 128 L467 720 L450 770 L440 770 C421 743 394 723 372 720 L375 710 L375 710 L194 147 C155 30 111 7 57 7 L14 7 C14 7 21 5 31 3 C40 1 47 -1 47 -1 L147 -1 L151 -1 L165 -1 L284 -1 C284 -1 290 1 300 3 C310 5 316 7 316 7 L276 7 C203 7 162 31 202 157 L202 157 L246 294 L516 294 L574 123 C606 26 575 8 520 8 L481 8 C481 8 487 6 497 4 C507 2 513 0 513 0 L616 0 L644 0 L715 0 L775 0 C775 0 782 2 791 4 C801 6 808 8 808 8 L765 8 C733 8 706 27 672 128 L670 128 L670 128 Z M248 299 L379 706 L516 299 L248 299 L248 299 Z " />
<glyph glyph-name="Aring" unicode="&#xc5;" horiz-adv-x="808" d="M420 830 C380 830 347 865 347 905 C347 950 376 980 420 980 C463 980 492 950 492 905 C492 865 459 830 420 830 L420 830 Z M322 905 C322 854 367 810 420 810 C472 810 517 854 517 905 C517 962 478 1000 420 1000 C361 1000 322 962 322 905 L322 905 Z M670 128 L669 128 L467 720 L450 770 L440 770 C421 743 394 723 372 720 L375 710 L375 710 L194 147 C155 30 111 7 57 7 L14 7 C14 7 21 5 31 3 C40 1 47 -1 47 -1 L147 -1 L151 -1 L165 -1 L284 -1 C284 -1 290 1 300 3 C310 5 316 7 316 7 L276 7 C203 7 162 31 202 157 L202 157 L246 294 L516 294 L574 123 C606 26 575 8 520 8 L481 8 C481 8 487 6 497 4 C507 2 513 0 513 0 L616 0 L644 0 L715 0 L775 0 C775 0 782 2 791 4 C801 6 808 8 808 8 L765 8 C733 8 706 27 672 128 L670 128 L670 128 Z M248 299 L379 706 L516 299 L248 299 L248 299 Z " />
<glyph glyph-name="Egrave" unicode="&#xc8;" horiz-adv-x="680" d="M264 971 C233 1011 210 1038 203 1038 C180 1038 161 1019 161 996 C161 988 186 964 225 932 L367 812 L377 823 L264 971 L264 971 Z M500 0 L608 0 C609 10 611 23 612 33 C614 43 616 56 617 66 L617 97 C618 116 618 128 618 128 L612 86 C605 36 584 3 500 3 L293 3 C246 3 241 23 241 52 L241 73 L241 385 L415 385 C499 385 515 346 515 287 L515 245 C515 245 517 259 519 280 C521 301 523 315 523 315 L523 385 L523 387 L523 388 L523 458 C523 458 521 472 519 493 C517 514 515 528 515 528 L515 486 C515 427 499 388 415 388 L241 388 L241 677 L241 747 L475 747 C576 747 578 709 582 652 L584 622 C584 622 585 634 586 653 C587 672 587 684 587 684 C587 694 586 707 585 717 C584 727 584 740 583 750 L475 750 L241 750 L168 750 L146 750 L94 750 C94 750 83 748 68 746 C52 744 41 742 41 742 L84 742 C121 742 146 732 146 677 L146 73 C146 18 121 8 84 8 L41 8 C41 8 52 6 68 4 C83 2 94 0 94 0 L146 0 L168 0 L241 0 L500 0 L500 0 Z " />
<glyph glyph-name="Eacute" unicode="&#xc9;" horiz-adv-x="680" d="M372 812 L514 932 C552 965 578 989 578 996 C578 1019 559 1038 536 1038 C530 1038 507 1011 475 971 L361 823 L372 812 L372 812 Z M500 0 L608 0 C609 10 611 23 612 33 C614 43 616 56 617 66 L617 97 C618 116 618 128 618 128 L612 86 C605 36 584 3 500 3 L293 3 C246 3 241 23 241 52 L241 73 L241 385 L415 385 C499 385 515 346 515 287 L515 245 C515 245 517 259 519 280 C521 301 523 315 523 315 L523 385 L523 387 L523 388 L523 458 C523 458 521 472 519 493 C517 514 515 528 515 528 L515 486 C515 427 499 388 415 388 L241 388 L241 677 L241 747 L475 747 C576 747 578 709 582 652 L584 622 C584 622 585 634 586 653 C587 672 587 684 587 684 C587 694 586 707 585 717 C584 727 584 740 583 750 L475 750 L241 750 L168 750 L146 750 L94 750 C94 750 83 748 68 746 C52 744 41 742 41 742 L84 742 C121 742 146 732 146 677 L146 73 C146 18 121 8 84 8 L41 8 C41 8 52 6 68 4 C83 2 94 0 94 0 L146 0 L168 0 L241 0 L500 0 L500 0 Z " />
<glyph glyph-name="Ecircumflex" unicode="&#xca;" horiz-adv-x="680" d="M364 945 L505 806 L516 816 L395 1005 C389 1014 374 1035 364 1035 C355 1035 340 1014 335 1005 L213 816 L224 806 L364 945 L364 945 Z M500 0 L608 0 C609 10 611 23 612 33 C614 43 616 56 617 66 L617 97 C618 116 618 128 618 128 L612 86 C605 36 584 3 500 3 L293 3 C246 3 241 23 241 52 L241 73 L241 385 L415 385 C499 385 515 346 515 287 L515 245 C515 245 517 259 519 280 C521 301 523 315 523 315 L523 385 L523 387 L523 388 L523 458 C523 458 521 472 519 493 C517 514 515 528 515 528 L515 486 C515 427 499 388 415 388 L241 388 L241 677 L241 747 L475 747 C576 747 578 709 582 652 L584 622 C584 622 585 634 586 653 C587 672 587 684 587 684 C587 694 586 707 585 717 C584 727 584 740 583 750 L475 750 L241 750 L168 750 L146 750 L94 750 C94 750 83 748 68 746 C52 744 41 742 41 742 L84 742 C121 742 146 732 146 677 L146 73 C146 18 121 8 84 8 L41 8 C41 8 52 6 68 4 C83 2 94 0 94 0 L146 0 L168 0 L241 0 L500 0 L500 0 Z " />
<glyph glyph-name="Edieresis" unicode="&#xcb;" horiz-adv-x="680" d="M442 865 C475 865 497 887 497 920 C497 953 475 975 442 975 C409 975 387 953 387 920 C387 887 409 865 442 865 L442 865 Z M287 865 C320 865 342 887 342 920 C342 953 320 975 287 975 C254 975 232 953 232 920 C232 887 254 865 287 865 L287 865 Z M500 0 L608 0 C609 10 611 23 612 33 C614 43 616 56 617 66 L617 97 C618 116 618 128 618 128 L612 86 C605 36 584 3 500 3 L293 3 C246 3 241 23 241 52 L241 73 L241 385 L415 385 C499 385 515 346 515 287 L515 245 C515 245 517 259 519 280 C521 301 523 315 523 315 L523 385 L523 387 L523 388 L523 458 C523 458 521 472 519 493 C517 514 515 528 515 528 L515 486 C515 427 499 388 415 388 L241 388 L241 677 L241 747 L475 747 C576 747 578 709 582 652 L584 622 C584 622 585 634 586 653 C587 672 587 684 587 684 C587 694 586 707 585 717 C584 727 584 740 583 750 L475 750 L241 750 L168 750 L146 750 L94 750 C94 750 83 748 68 746 C52 744 41 742 41 742 L84 742 C121 742 146 732 146 677 L146 73 C146 18 121 8 84 8 L41 8 C41 8 52 6 68 4 C83 2 94 0 94 0 L146 0 L168 0 L241 0 L500 0 L500 0 Z " />
<glyph glyph-name="Igrave" unicode="&#xcc;" horiz-adv-x="382" d="M89 971 C59 1011 36 1038 29 1038 C6 1038 -14 1019 -14 996 C-14 988 12 964 50 932 L192 812 L203 823 L89 971 L89 971 Z M238 68 L238 682 C238 732 263 742 300 742 L343 742 C343 742 332 744 316 746 C301 748 290 750 290 750 L190 750 L90 750 C90 750 80 748 64 746 C48 744 38 742 38 742 L80 742 C118 742 143 732 143 682 L143 68 C143 18 118 8 80 8 L38 8 C38 8 48 6 64 4 C80 2 90 0 90 0 L190 0 L290 0 C290 0 301 2 316 4 C332 6 343 8 343 8 L300 8 C263 8 238 18 238 68 L238 68 Z " />
<glyph glyph-name="Iacute" unicode="&#xcd;" horiz-adv-x="382" d="M198 812 L340 932 C378 965 404 989 404 996 C404 1019 384 1038 361 1038 C355 1038 332 1011 301 971 L187 823 L198 812 L198 812 Z M238 68 L238 682 C238 732 263 742 300 742 L343 742 C343 742 332 744 316 746 C301 748 290 750 290 750 L190 750 L90 750 C90 750 80 748 64 746 C48 744 38 742 38 742 L80 742 C118 742 143 732 143 682 L143 68 C143 18 118 8 80 8 L38 8 C38 8 48 6 64 4 C80 2 90 0 90 0 L190 0 L290 0 C290 0 301 2 316 4 C332 6 343 8 343 8 L300 8 C263 8 238 18 238 68 L238 68 Z " />
<glyph glyph-name="Icircumflex" unicode="&#xce;" horiz-adv-x="382" d="M190 945 L330 806 L342 816 L220 1005 C214 1014 199 1035 190 1035 C180 1035 166 1014 160 1005 L38 816 L50 806 L190 945 L190 945 Z M238 68 L238 682 C238 732 263 742 300 742 L343 742 C343 742 332 744 316 746 C301 748 290 750 290 750 L190 750 L90 750 C90 750 80 748 64 746 C48 744 38 742 38 742 L80 742 C118 742 143 732 143 682 L143 68 C143 18 118 8 80 8 L38 8 C38 8 48 6 64 4 C80 2 90 0 90 0 L190 0 L290 0 C290 0 301 2 316 4 C332 6 343 8 343 8 L300 8 C263 8 238 18 238 68 L238 68 Z " />
<glyph glyph-name="Idieresis" unicode="&#xcf;" horiz-adv-x="382" d="M267 865 C300 865 322 887 322 920 C322 953 300 975 267 975 C234 975 212 953 212 920 C212 887 234 865 267 865 L267 865 Z M113 865 C146 865 168 887 168 920 C168 953 146 975 113 975 C80 975 58 953 58 920 C58 887 80 865 113 865 L113 865 Z M238 68 L238 682 C238 732 263 742 300 742 L343 742 C343 742 332 744 316 746 C301 748 290 750 290 750 L190 750 L90 750 C90 750 80 748 64 746 C48 744 38 742 38 742 L80 742 C118 742 143 732 143 682 L143 68 C143 18 118 8 80 8 L38 8 C38 8 48 6 64 4 C80 2 90 0 90 0 L190 0 L290 0 C290 0 301 2 316 4 C332 6 343 8 343 8 L300 8 C263 8 238 18 238 68 L238 68 Z " />
<glyph glyph-name="Ntilde" unicode="&#xd1;" horiz-adv-x="821" d="M242 870 C242 906 263 930 294 930 C361 930 429 865 496 865 C543 865 575 913 575 985 L573 985 C573 949 550 925 516 925 C449 925 381 990 314 990 C270 990 240 942 240 870 L242 870 L242 870 Z M166 128 L165 128 L163 626 L546 135 L651 0 L670 0 L676 642 L676 642 L676 642 L676 646 C677 726 710 741 759 741 L801 741 C801 741 788 743 770 745 C751 747 738 749 738 749 L677 749 L662 749 L648 749 L586 749 C586 749 574 747 555 745 C536 743 524 741 524 741 L566 741 C612 741 644 727 649 657 L651 155 L622 191 L186 749 L164 749 L140 749 L114 749 L68 749 L42 749 C42 749 35 747 25 745 C16 743 9 741 9 741 L66 741 C71 741 78 735 101 706 L101 706 L140 657 L139 137 L139 137 C139 28 106 7 56 7 L14 7 C14 7 20 5 30 3 C40 1 46 -1 46 -1 L139 -1 L153 -1 L167 -1 L260 -1 C260 -1 266 1 276 3 C286 5 292 7 292 7 L250 7 C200 7 167 26 167 127 L166 128 L166 128 Z " />
<glyph glyph-name="Ograve" unicode="&#xd2;" horiz-adv-x="889" d="M428 -6 C267 -6 159 146 159 375 C159 604 270 756 437 756 C610 756 726 604 726 375 C726 146 607 -6 428 -6 L428 -6 Z M50 375 C50 144 201 -10 427 -10 C672 -10 835 144 835 375 C835 606 676 760 437 760 C205 760 50 606 50 375 L50 375 Z M337 971 C306 1011 283 1038 276 1038 C253 1038 234 1019 234 996 C234 988 259 964 298 932 L440 812 L450 823 L337 971 L337 971 Z " />
<glyph glyph-name="Oacute" unicode="&#xd3;" horiz-adv-x="889" d="M445 812 L587 932 C625 965 651 989 651 996 C651 1019 632 1038 609 1038 C603 1038 580 1011 548 971 L434 823 L445 812 L445 812 Z M428 -6 C267 -6 159 146 159 375 C159 604 270 756 437 756 C610 756 726 604 726 375 C726 146 607 -6 428 -6 L428 -6 Z M50 375 C50 144 201 -10 427 -10 C672 -10 835 144 835 375 C835 606 676 760 437 760 C205 760 50 606 50 375 L50 375 Z " />
<glyph glyph-name="Ocircumflex" unicode="&#xd4;" horiz-adv-x="889" d="M428 -6 C267 -6 159 146 159 375 C159 604 270 756 437 756 C610 756 726 604 726 375 C726 146 607 -6 428 -6 L428 -6 Z M50 375 C50 144 201 -10 427 -10 C672 -10 835 144 835 375 C835 606 676 760 437 760 C205 760 50 606 50 375 L50 375 Z M437 945 L578 806 L589 816 L467 1005 C462 1014 447 1035 437 1035 C428 1035 413 1014 408 1005 L285 816 L297 806 L437 945 L437 945 Z " />
<glyph glyph-name="Otilde" unicode="&#xd5;" horiz-adv-x="889" d="M272 870 C272 906 293 930 324 930 C391 930 459 865 526 865 C573 865 605 913 605 985 L603 985 C603 949 580 925 545 925 C479 925 411 990 344 990 C300 990 270 942 270 870 L272 870 L272 870 Z M428 -6 C267 -6 159 146 159 375 C159 604 270 756 437 756 C610 756 726 604 726 375 C726 146 607 -6 428 -6 L428 -6 Z M50 375 C50 144 201 -10 427 -10 C672 -10 835 144 835 375 C835 606 676 760 437 760 C205 760 50 606 50 375 L50 375 Z " />
<glyph glyph-name="Odieresis" unicode="&#xd6;" horiz-adv-x="889" d="M515 865 C548 865 570 887 570 920 C570 953 548 975 515 975 C482 975 460 953 460 920 C460 887 482 865 515 865 L515 865 Z M360 865 C393 865 415 887 415 920 C415 953 393 975 360 975 C327 975 305 953 305 920 C305 887 327 865 360 865 L360 865 Z M428 -6 C267 -6 159 146 159 375 C159 604 270 756 437 756 C610 756 726 604 726 375 C726 146 607 -6 428 -6 L428 -6 Z M50 375 C50 144 201 -10 427 -10 C672 -10 835 144 835 375 C835 606 676 760 437 760 C205 760 50 606 50 375 L50 375 Z " />
<glyph glyph-name="Oslash" unicode="&#xd8;" horiz-adv-x="889" d="M52 -12 L158 92 C224 27 317 -10 428 -10 C673 -10 836 144 836 375 C836 489 797 584 729 651 L838 758 L834 762 L725 655 C655 722 556 760 437 760 C205 760 50 606 50 375 C50 259 88 163 154 96 L48 -8 L52 -12 L52 -12 Z M428 -6 C332 -6 255 48 208 141 L678 602 C709 541 726 464 726 376 C726 147 607 -5 428 -5 L428 -6 L428 -6 Z M205 147 C175 209 158 287 158 377 C158 606 269 758 436 758 C540 758 624 703 674 609 L205 147 L205 147 Z " />
<glyph glyph-name="Ugrave" unicode="&#xd9;" horiz-adv-x="791" d="M293 971 C263 1011 240 1038 233 1038 C210 1038 190 1019 190 996 C190 988 216 964 254 932 L396 812 L407 823 L293 971 L293 971 Z M677 98 L677 677 L677 750 L603 750 L529 750 C529 750 519 748 503 746 C487 744 477 742 477 742 L519 742 C557 742 582 732 582 677 L582 194 C542 108 450 51 353 51 C265 51 206 121 206 226 L206 677 L206 750 L133 750 L59 750 C59 750 48 748 33 746 C17 744 6 742 6 742 L49 742 C86 742 111 732 111 677 L111 226 C111 85 193 -10 315 -10 C430 -10 536 55 582 152 L582 98 L582 0 L597 0 L781 49 L781 53 C694 48 677 54 677 98 L677 98 Z " />
<glyph glyph-name="Uacute" unicode="&#xda;" horiz-adv-x="791" d="M402 812 L544 932 C582 965 608 989 608 996 C608 1019 588 1038 565 1038 C559 1038 536 1011 505 971 L391 823 L402 812 L402 812 Z M677 98 L677 677 L677 750 L603 750 L529 750 C529 750 519 748 503 746 C487 744 477 742 477 742 L519 742 C557 742 582 732 582 677 L582 194 C542 108 450 51 353 51 C265 51 206 121 206 226 L206 677 L206 750 L133 750 L59 750 C59 750 48 748 33 746 C17 744 6 742 6 742 L49 742 C86 742 111 732 111 677 L111 226 C111 85 193 -10 315 -10 C430 -10 536 55 582 152 L582 98 L582 0 L597 0 L781 49 L781 53 C694 48 677 54 677 98 L677 98 Z " />
<glyph glyph-name="Ucircumflex" unicode="&#xdb;" horiz-adv-x="791" d="M394 945 L534 806 L546 816 L424 1005 C418 1014 403 1035 394 1035 C384 1035 370 1014 364 1005 L242 816 L254 806 L394 945 L394 945 Z M677 98 L677 677 L677 750 L603 750 L529 750 C529 750 519 748 503 746 C487 744 477 742 477 742 L519 742 C557 742 582 732 582 677 L582 194 C542 108 450 51 353 51 C265 51 206 121 206 226 L206 677 L206 750 L133 750 L59 750 C59 750 48 748 33 746 C17 744 6 742 6 742 L49 742 C86 742 111 732 111 677 L111 226 C111 85 193 -10 315 -10 C430 -10 536 55 582 152 L582 98 L582 0 L597 0 L781 49 L781 53 C694 48 677 54 677 98 L677 98 Z " />
<glyph glyph-name="Udieresis" unicode="&#xdc;" horiz-adv-x="791" d="M471 865 C504 865 526 887 526 920 C526 953 504 975 471 975 C438 975 416 953 416 920 C416 887 438 865 471 865 L471 865 Z M317 865 C350 865 372 887 372 920 C372 953 350 975 317 975 C284 975 262 953 262 920 C262 887 284 865 317 865 L317 865 Z M677 98 L677 677 L677 750 L603 750 L529 750 C529 750 519 748 503 746 C487 744 477 742 477 742 L519 742 C557 742 582 732 582 677 L582 194 C542 108 450 51 353 51 C265 51 206 121 206 226 L206 677 L206 750 L133 750 L59 750 C59 750 48 748 33 746 C17 744 6 742 6 742 L49 742 C86 742 111 732 111 677 L111 226 C111 85 193 -10 315 -10 C430 -10 536 55 582 152 L582 98 L582 0 L597 0 L781 49 L781 53 C694 48 677 54 677 98 L677 98 Z " />
<glyph glyph-name="Yacute" unicode="&#xdd;" horiz-adv-x="765" d="M398 812 L540 932 C578 965 604 989 604 996 C604 1019 585 1038 562 1038 C556 1038 533 1011 501 971 L387 823 L398 812 L398 812 Z M260 622 L260 622 C194 723 208 742 247 742 L284 742 C284 742 278 744 268 746 C258 748 252 750 252 750 L179 750 L146 750 L67 750 L39 750 C39 750 33 748 23 746 C13 744 7 742 7 742 L64 742 C69 742 84 723 149 622 L150 622 L343 322 L343 68 C343 18 318 8 280 8 L238 8 C238 8 248 6 264 4 C280 2 290 0 290 0 L390 0 L490 0 C490 0 501 2 517 4 C532 6 543 8 543 8 L500 8 C463 8 438 18 438 68 L438 338 L610 635 C663 725 690 742 715 742 L757 742 C757 742 751 744 741 746 C731 748 725 750 725 750 L677 750 L669 750 L661 750 L597 750 C597 750 590 748 581 746 C571 744 564 742 564 742 L602 742 C638 742 654 727 613 652 L438 343 L260 622 L260 622 Z " />
<glyph glyph-name="agrave" unicode="&#xe0;" horiz-adv-x="589" d="M186 721 C156 761 133 788 126 788 C103 788 83 769 83 746 C83 738 109 714 147 682 L289 562 L300 573 L186 721 L186 721 Z M592 35 L553 26 C527 20 510 31 510 115 L510 450 L510 510 L500 510 L437 460 C403 490 351 510 287 510 C128 510 46 406 46 251 C46 97 133 -5 263 -5 C328 -5 392 23 426 66 L426 -10 L441 -10 L553 18 C553 18 562 22 575 27 C582 31 588 34 592 35 L592 35 Z M592 35 C594 36 595 36 595 36 L592 35 L592 35 Z M425 96 C394 56 345 30 299 30 C200 30 134 128 134 274 C134 401 190 485 298 485 C364 485 411 448 426 399 L426 98 L425 96 L425 96 Z " />
<glyph glyph-name="aacute" unicode="&#xe1;" horiz-adv-x="589" d="M295 562 L437 682 C475 715 501 739 501 746 C501 769 481 788 458 788 C453 788 430 761 398 721 L284 573 L295 562 L295 562 Z M592 35 L553 26 C527 20 510 31 510 115 L510 450 L510 510 L500 510 L437 460 C403 490 351 510 287 510 C128 510 46 406 46 251 C46 97 133 -5 263 -5 C328 -5 392 23 426 66 L426 -10 L441 -10 L553 18 C553 18 562 22 575 27 C582 31 588 34 592 35 L592 35 Z M592 35 C594 36 595 36 595 36 L592 35 L592 35 Z M425 96 C394 56 345 30 299 30 C200 30 134 128 134 274 C134 401 190 485 298 485 C364 485 411 448 426 399 L426 98 L425 96 L425 96 Z " />
<glyph glyph-name="acircumflex" unicode="&#xe2;" horiz-adv-x="589" d="M287 695 L428 556 L439 566 L317 755 C311 764 297 785 287 785 C278 785 263 764 257 755 L135 566 L147 556 L287 695 L287 695 Z M592 35 L553 26 C527 20 510 31 510 115 L510 450 L510 510 L500 510 L437 460 C403 490 351 510 287 510 C128 510 46 406 46 251 C46 97 133 -5 263 -5 C328 -5 392 23 426 66 L426 -10 L441 -10 L553 18 C553 18 562 22 575 27 C582 31 588 34 592 35 L592 35 Z M592 35 C594 36 595 36 595 36 L592 35 L592 35 Z M425 96 C394 56 345 30 299 30 C200 30 134 128 134 274 C134 401 190 485 298 485 C364 485 411 448 426 399 L426 98 L425 96 L425 96 Z " />
<glyph glyph-name="atilde" unicode="&#xe3;" horiz-adv-x="589" d="M122 620 C122 656 143 680 174 680 C241 680 309 615 376 615 C423 615 455 663 455 735 L453 735 C453 699 430 675 395 675 C329 675 260 740 194 740 C149 740 120 692 120 620 L122 620 L122 620 Z M592 35 L553 26 C527 20 510 31 510 115 L510 450 L510 510 L500 510 L437 460 C403 490 351 510 287 510 C128 510 46 406 46 251 C46 97 133 -5 263 -5 C328 -5 392 23 426 66 L426 -10 L441 -10 L553 18 C553 18 562 22 575 27 C582 31 588 34 592 35 L592 35 Z M592 35 C594 36 595 36 595 36 L592 35 L592 35 Z M425 96 C394 56 345 30 299 30 C200 30 134 128 134 274 C134 401 190 485 298 485 C364 485 411 448 426 399 L426 98 L425 96 L425 96 Z " />
<glyph glyph-name="adieresis" unicode="&#xe4;" horiz-adv-x="589" d="M364 615 C397 615 419 637 419 670 C419 703 397 725 364 725 C331 725 309 703 309 670 C309 637 331 615 364 615 L364 615 Z M210 615 C243 615 265 637 265 670 C265 703 243 725 210 725 C177 725 155 703 155 670 C155 637 177 615 210 615 L210 615 Z M592 35 L553 26 C527 20 510 31 510 115 L510 450 L510 510 L500 510 L437 460 C403 490 351 510 287 510 C128 510 46 406 46 251 C46 97 133 -5 263 -5 C328 -5 392 23 426 66 L426 -10 L441 -10 L553 18 C553 18 562 22 575 27 C582 31 588 34 592 35 L592 35 Z M592 35 C594 36 595 36 595 36 L592 35 L592 35 Z M425 96 C394 56 345 30 299 30 C200 30 134 128 134 274 C134 401 190 485 298 485 C364 485 411 448 426 399 L426 98 L425 96 L425 96 Z " />
<glyph glyph-name="aring" unicode="&#xe5;" horiz-adv-x="589" d="M287 580 C248 580 215 615 215 655 C215 700 244 730 287 730 C331 730 360 700 360 655 C360 615 326 580 287 580 L287 580 Z M190 655 C190 604 235 560 287 560 C340 560 385 604 385 655 C385 712 346 750 287 750 C229 750 190 712 190 655 L190 655 Z M592 35 L553 26 C527 20 510 31 510 115 L510 450 L510 510 L500 510 L437 460 C403 490 351 510 287 510 C128 510 46 406 46 251 C46 97 133 -5 263 -5 C328 -5 392 23 426 66 L426 -10 L441 -10 L553 18 C553 18 562 22 575 27 C582 31 588 34 592 35 L592 35 Z M592 35 C594 36 595 36 595 36 L592 35 L592 35 Z M425 96 C394 56 345 30 299 30 C200 30 134 128 134 274 C134 401 190 485 298 485 C364 485 411 448 426 399 L426 98 L425 96 L425 96 Z " />
<glyph glyph-name="egrave" unicode="&#xe8;" horiz-adv-x="578" d="M219 721 C189 761 166 788 159 788 C136 788 116 769 116 746 C116 738 142 714 180 682 L322 562 L333 573 L219 721 L219 721 Z M138 340 L454 340 L525 340 L548 340 C526 462 439 510 320 510 C153 510 41 399 41 231 C41 87 142 -10 294 -10 C408 -10 505 47 536 132 L525 136 C506 82 422 46 315 46 C204 46 130 134 130 266 C130 293 133 318 138 341 L138 340 L138 340 Z M518 366 C520 366 522 366 524 366 L518 366 L518 366 Z M448 365 L143 361 C169 442 231 492 314 492 C376 492 426 456 448 365 L448 365 Z " />
<glyph glyph-name="eacute" unicode="&#xe9;" horiz-adv-x="578" d="M328 562 L470 682 C508 715 534 739 534 746 C534 769 514 788 491 788 C485 788 462 761 431 721 L317 573 L328 562 L328 562 Z M138 340 L454 340 L525 340 L548 340 C526 462 439 510 320 510 C153 510 41 399 41 231 C41 87 142 -10 294 -10 C408 -10 505 47 536 132 L525 136 C506 82 422 46 315 46 C204 46 130 134 130 266 C130 293 133 318 138 341 L138 340 L138 340 Z M518 366 C520 366 522 366 524 366 L518 366 L518 366 Z M448 365 L143 361 C169 442 231 492 314 492 C376 492 426 456 448 365 L448 365 Z " />
<glyph glyph-name="ecircumflex" unicode="&#xea;" horiz-adv-x="578" d="M320 695 L460 556 L472 566 L350 755 C344 764 329 785 320 785 C310 785 296 764 290 755 L168 566 L180 556 L320 695 L320 695 Z M138 340 L454 340 L525 340 L548 340 C526 462 439 510 320 510 C153 510 41 399 41 231 C41 87 142 -10 294 -10 C408 -10 505 47 536 132 L525 136 C506 82 422 46 315 46 C204 46 130 134 130 266 C130 293 133 318 138 341 L138 340 L138 340 Z M518 366 C520 366 522 366 524 366 L518 366 L518 366 Z M448 365 L143 361 C169 442 231 492 314 492 C376 492 426 456 448 365 L448 365 Z " />
<glyph glyph-name="edieresis" unicode="&#xeb;" horiz-adv-x="578" d="M397 615 C430 615 452 637 452 670 C452 703 430 725 397 725 C364 725 342 703 342 670 C342 637 364 615 397 615 L397 615 Z M243 615 C276 615 298 637 298 670 C298 703 276 725 243 725 C210 725 188 703 188 670 C188 637 210 615 243 615 L243 615 Z M138 340 L454 340 L525 340 L548 340 C526 462 439 510 320 510 C153 510 41 399 41 231 C41 87 142 -10 294 -10 C408 -10 505 47 536 132 L525 136 C506 82 422 46 315 46 C204 46 130 134 130 266 C130 293 133 318 138 341 L138 340 L138 340 Z M518 366 C520 366 522 366 524 366 L518 366 L518 366 Z M448 365 L143 361 C169 442 231 492 314 492 C376 492 426 456 448 365 L448 365 Z " />
<glyph glyph-name="igrave" unicode="&#xec;" horiz-adv-x="309" d="M56 721 C26 761 3 788 -4 788 C-27 788 -47 769 -47 746 C-47 738 -21 714 18 682 L160 562 L170 573 L56 721 L56 721 Z M200 23 L200 396 L200 500 L185 500 L34 445 L34 441 C102 444 115 439 115 396 L115 23 C115 10 100 8 77 8 L35 8 C35 8 43 6 55 4 C67 2 75 0 75 0 L158 0 L241 0 C241 0 249 2 262 4 C275 6 283 8 283 8 L240 8 C216 8 200 10 200 23 L200 23 Z " />
<glyph glyph-name="iacute" unicode="&#xed;" horiz-adv-x="309" d="M56 721 C26 761 3 788 -4 788 C-27 788 -47 769 -47 746 C-47 738 -21 714 18 682 L160 562 L170 573 L56 721 L56 721 Z M200 23 L200 396 L200 500 L185 500 L34 445 L34 441 C102 444 115 439 115 396 L115 23 C115 10 100 8 77 8 L35 8 C35 8 43 6 55 4 C67 2 75 0 75 0 L158 0 L241 0 C241 0 249 2 262 4 C275 6 283 8 283 8 L240 8 C216 8 200 10 200 23 L200 23 Z " />
<glyph glyph-name="icircumflex" unicode="&#xee;" horiz-adv-x="309" d="M157 695 L298 556 L309 566 L187 755 C182 764 167 785 157 785 C148 785 133 764 127 755 L5 566 L17 556 L157 695 L157 695 Z M200 23 L200 396 L200 500 L185 500 L34 445 L34 441 C102 444 115 439 115 396 L115 23 C115 10 100 8 77 8 L35 8 C35 8 43 6 55 4 C67 2 75 0 75 0 L158 0 L241 0 C241 0 249 2 262 4 C275 6 283 8 283 8 L240 8 C216 8 200 10 200 23 L200 23 Z " />
<glyph glyph-name="idieresis" unicode="&#xef;" horiz-adv-x="309" d="M235 615 C268 615 290 637 290 670 C290 703 268 725 235 725 C202 725 180 703 180 670 C180 637 202 615 235 615 L235 615 Z M80 615 C113 615 135 637 135 670 C135 703 113 725 80 725 C47 725 25 703 25 670 C25 637 47 615 80 615 L80 615 Z M200 23 L200 396 L200 500 L185 500 L34 445 L34 441 C102 444 115 439 115 396 L115 23 C115 10 100 8 77 8 L35 8 C35 8 43 6 55 4 C67 2 75 0 75 0 L158 0 L241 0 C241 0 249 2 262 4 C275 6 283 8 283 8 L240 8 C216 8 200 10 200 23 L200 23 Z " />
<glyph glyph-name="ntilde" unicode="&#xf1;" horiz-adv-x="643" d="M156 620 C156 656 177 680 208 680 C275 680 343 615 410 615 C457 615 489 663 489 735 L486 735 C486 699 463 675 429 675 C362 675 294 740 228 740 C183 740 153 692 153 620 L156 620 L156 620 Z M448 23 C448 10 433 8 411 8 L368 8 C368 8 376 6 388 4 C400 2 408 0 408 0 L491 0 L573 0 C573 0 581 2 593 4 C605 6 613 8 613 8 L571 8 C548 8 533 10 533 23 L533 322 C533 435 481 510 381 510 C332 510 258 458 194 381 L194 437 L194 500 L179 500 L66 459 C66 459 58 454 45 447 C32 440 24 436 24 436 L66 451 C92 460 109 458 109 411 L109 23 C109 10 94 8 71 8 L29 8 C29 8 37 6 49 4 C61 2 69 0 69 0 L151 0 L234 0 C234 0 242 2 254 4 C266 6 274 8 274 8 L231 8 C209 8 194 10 194 23 L194 369 C244 429 309 470 357 470 C417 470 448 411 448 322 L448 23 L448 23 Z " />
<glyph glyph-name="ograve" unicode="&#xf2;" horiz-adv-x="640" d="M318 -6 C208 -6 134 96 134 250 C134 404 208 506 318 506 C428 506 501 404 501 250 C501 96 428 -6 318 -6 L318 -6 Z M41 250 C41 94 152 -10 318 -10 C484 -10 595 94 595 250 C595 406 484 510 318 510 C152 510 41 406 41 250 L41 250 Z M217 721 C187 761 164 788 157 788 C134 788 114 769 114 746 C114 738 140 714 178 682 L320 562 L331 573 L217 721 L217 721 Z " />
<glyph glyph-name="oacute" unicode="&#xf3;" horiz-adv-x="640" d="M326 562 L468 682 C506 715 532 739 532 746 C532 769 512 788 489 788 C483 788 460 761 429 721 L315 573 L326 562 L326 562 Z M318 -6 C208 -6 134 96 134 250 C134 404 208 506 318 506 C428 506 501 404 501 250 C501 96 428 -6 318 -6 L318 -6 Z M41 250 C41 94 152 -10 318 -10 C484 -10 595 94 595 250 C595 406 484 510 318 510 C152 510 41 406 41 250 L41 250 Z " />
<glyph glyph-name="ocircumflex" unicode="&#xf4;" horiz-adv-x="640" d="M318 -6 C208 -6 134 96 134 250 C134 404 208 506 318 506 C428 506 501 404 501 250 C501 96 428 -6 318 -6 L318 -6 Z M41 250 C41 94 152 -10 318 -10 C484 -10 595 94 595 250 C595 406 484 510 318 510 C152 510 41 406 41 250 L41 250 Z M318 695 L458 556 L470 566 L348 755 C342 764 327 785 318 785 C308 785 294 764 288 755 L166 566 L178 556 L318 695 L318 695 Z " />
<glyph glyph-name="otilde" unicode="&#xf5;" horiz-adv-x="640" d="M153 620 C153 656 174 680 205 680 C272 680 340 615 407 615 C454 615 486 663 486 735 L483 735 C483 699 460 675 426 675 C359 675 291 740 224 740 C180 740 150 692 150 620 L153 620 L153 620 Z M318 -6 C208 -6 134 96 134 250 C134 404 208 506 318 506 C428 506 501 404 501 250 C501 96 428 -6 318 -6 L318 -6 Z M41 250 C41 94 152 -10 318 -10 C484 -10 595 94 595 250 C595 406 484 510 318 510 C152 510 41 406 41 250 L41 250 Z " />
<glyph glyph-name="odieresis" unicode="&#xf6;" horiz-adv-x="640" d="M395 615 C428 615 450 637 450 670 C450 703 428 725 395 725 C362 725 340 703 340 670 C340 637 362 615 395 615 L395 615 Z M241 615 C274 615 296 637 296 670 C296 703 274 725 241 725 C208 725 186 703 186 670 C186 637 208 615 241 615 L241 615 Z M318 -6 C208 -6 134 96 134 250 C134 404 208 506 318 506 C428 506 501 404 501 250 C501 96 428 -6 318 -6 L318 -6 Z M41 250 C41 94 152 -10 318 -10 C484 -10 595 94 595 250 C595 406 484 510 318 510 C152 510 41 406 41 250 L41 250 Z " />
<glyph glyph-name="oslash" unicode="&#xf8;" horiz-adv-x="640" d="M42 -12 L119 60 C167 15 236 -10 318 -10 C484 -10 595 94 595 250 C595 327 568 391 521 436 L597 507 L594 511 L517 439 C469 484 400 509 318 509 C152 509 41 405 41 249 C41 172 68 108 115 63 L39 -8 L42 -12 L42 -12 Z M318 -6 C249 -6 194 34 163 102 L474 394 C491 354 500 305 500 250 C500 96 427 -6 317 -6 L318 -6 L318 -6 Z M160 106 C143 146 133 195 133 250 C133 404 207 506 317 506 C386 506 440 466 471 398 L160 106 L160 106 Z " />
<glyph glyph-name="ugrave" unicode="&#xf9;" horiz-adv-x="635" d="M211 721 C181 761 158 788 150 788 C128 788 108 769 108 746 C108 738 134 714 172 682 L314 562 L325 573 L211 721 L211 721 Z M613 35 L573 26 C548 20 531 28 531 95 L531 477 L531 500 L472 500 L413 500 C413 500 406 498 396 496 C386 494 380 492 380 492 L422 492 C436 492 446 490 446 477 L446 129 C421 81 360 49 289 49 C222 49 178 95 178 165 L178 477 L178 500 L119 500 L60 500 C60 500 53 498 43 496 C33 494 27 492 27 492 L69 492 C83 492 93 490 93 477 L93 165 C93 60 155 -10 249 -10 C333 -10 411 43 446 124 L446 78 L446 -10 L461 -10 L573 18 C573 18 582 22 595 27 C603 31 609 34 613 35 L613 35 Z M613 35 C615 36 616 36 616 36 L613 35 L613 35 Z " />
<glyph glyph-name="uacute" unicode="&#xfa;" horiz-adv-x="635" d="M319 562 L461 682 C500 715 526 739 526 746 C526 769 506 788 483 788 C477 788 454 761 423 721 L309 573 L319 562 L319 562 Z M613 35 L573 26 C548 20 531 28 531 95 L531 477 L531 500 L472 500 L413 500 C413 500 406 498 396 496 C386 494 380 492 380 492 L422 492 C436 492 446 490 446 477 L446 129 C421 81 360 49 289 49 C222 49 178 95 178 165 L178 477 L178 500 L119 500 L60 500 C60 500 53 498 43 496 C33 494 27 492 27 492 L69 492 C83 492 93 490 93 477 L93 165 C93 60 155 -10 249 -10 C333 -10 411 43 446 124 L446 78 L446 -10 L461 -10 L573 18 C573 18 582 22 595 27 C603 31 609 34 613 35 L613 35 Z M613 35 C615 36 616 36 616 36 L613 35 L613 35 Z " />
<glyph glyph-name="ucircumflex" unicode="&#xfb;" horiz-adv-x="635" d="M312 695 L452 556 L464 566 L342 755 C336 764 321 785 312 785 C302 785 288 764 282 755 L160 566 L171 556 L312 695 L312 695 Z M613 35 L573 26 C548 20 531 28 531 95 L531 477 L531 500 L472 500 L413 500 C413 500 406 498 396 496 C386 494 380 492 380 492 L422 492 C436 492 446 490 446 477 L446 129 C421 81 360 49 289 49 C222 49 178 95 178 165 L178 477 L178 500 L119 500 L60 500 C60 500 53 498 43 496 C33 494 27 492 27 492 L69 492 C83 492 93 490 93 477 L93 165 C93 60 155 -10 249 -10 C333 -10 411 43 446 124 L446 78 L446 -10 L461 -10 L573 18 C573 18 582 22 595 27 C603 31 609 34 613 35 L613 35 Z M613 35 C615 36 616 36 616 36 L613 35 L613 35 Z " />
<glyph glyph-name="udieresis" unicode="&#xfc;" horiz-adv-x="635" d="M389 615 C422 615 444 637 444 670 C444 703 422 725 389 725 C356 725 334 703 334 670 C334 637 356 615 389 615 L389 615 Z M234 615 C267 615 289 637 289 670 C289 703 267 725 234 725 C201 725 179 703 179 670 C179 637 201 615 234 615 L234 615 Z M613 35 L573 26 C548 20 531 28 531 95 L531 477 L531 500 L472 500 L413 500 C413 500 406 498 396 496 C386 494 380 492 380 492 L422 492 C436 492 446 490 446 477 L446 129 C421 81 360 49 289 49 C222 49 178 95 178 165 L178 477 L178 500 L119 500 L60 500 C60 500 53 498 43 496 C33 494 27 492 27 492 L69 492 C83 492 93 490 93 477 L93 165 C93 60 155 -10 249 -10 C333 -10 411 43 446 124 L446 78 L446 -10 L461 -10 L573 18 C573 18 582 22 595 27 C603 31 609 34 613 35 L613 35 Z M613 35 C615 36 616 36 616 36 L613 35 L613 35 Z " />
<glyph glyph-name="ydieresis" unicode="&#xff;" horiz-adv-x="614" d="M400 615 C433 615 455 637 455 670 C455 703 433 725 400 725 C367 725 345 703 345 670 C345 637 367 615 400 615 L400 615 Z M245 615 C278 615 300 637 300 670 C300 703 278 725 245 725 C212 725 190 703 190 670 C190 637 212 615 245 615 L245 615 Z M81 466 L284 -10 L233 -140 C227 -155 215 -165 203 -165 C182 -165 174 -135 154 -135 C125 -135 106 -152 106 -177 C106 -209 126 -230 156 -230 C195 -230 233 -203 248 -163 L309 -10 L505 455 C520 486 539 492 564 492 L606 492 C606 492 599 494 590 496 C580 498 573 500 573 500 L524 500 L498 500 L485 500 L423 500 C423 500 416 498 406 496 C397 494 390 492 390 492 L429 492 C461 492 480 487 470 462 L470 462 L284 -10 L326 97 L174 467 C165 488 174 492 191 492 L235 492 C235 492 228 494 219 496 C209 498 202 500 202 500 L160 500 L117 500 L67 500 L33 500 C33 500 26 498 16 496 C7 494 0 492 0 492 L51 492 C62 492 72 488 81 466 L81 466 Z " />
<glyph glyph-name="Amacron" unicode="&#x100;" horiz-adv-x="808" d="M246 895 L593 895 L593 954 L246 954 L246 895 L246 895 Z M670 128 L669 128 L467 720 L450 770 L440 770 C421 743 394 723 372 720 L375 710 L375 710 L194 147 C155 30 111 7 57 7 L14 7 C14 7 21 5 31 3 C40 1 47 -1 47 -1 L147 -1 L151 -1 L165 -1 L284 -1 C284 -1 290 1 300 3 C310 5 316 7 316 7 L276 7 C203 7 162 31 202 157 L202 157 L246 294 L516 294 L574 123 C606 26 575 8 520 8 L481 8 C481 8 487 6 497 4 C507 2 513 0 513 0 L616 0 L644 0 L715 0 L775 0 C775 0 782 2 791 4 C801 6 808 8 808 8 L765 8 C733 8 706 27 672 128 L670 128 L670 128 Z M248 299 L379 706 L516 299 L248 299 L248 299 Z " />
<glyph glyph-name="amacron" unicode="&#x101;" horiz-adv-x="589" d="M114 645 L461 645 L461 704 L114 704 L114 645 L114 645 Z M592 35 L553 26 C527 20 510 31 510 115 L510 450 L510 510 L500 510 L437 460 C403 490 351 510 287 510 C128 510 46 406 46 251 C46 97 133 -5 263 -5 C328 -5 392 23 426 66 L426 -10 L441 -10 L553 18 C553 18 562 22 575 27 C582 31 588 34 592 35 L592 35 Z M592 35 C594 36 595 36 595 36 L592 35 L592 35 Z M425 96 C394 56 345 30 299 30 C200 30 134 128 134 274 C134 401 190 485 298 485 C364 485 411 448 426 399 L426 98 L425 96 L425 96 Z " />
<glyph glyph-name="Abreve" unicode="&#x102;" horiz-adv-x="808" d="M268 994 C275 920 335 870 420 870 C504 870 565 919 571 992 L553 995 C550 956 497 930 420 930 C343 930 289 957 286 997 L268 994 L268 994 Z M670 128 L669 128 L467 720 L450 770 L440 770 C421 743 394 723 372 720 L375 710 L375 710 L194 147 C155 30 111 7 57 7 L14 7 C14 7 21 5 31 3 C40 1 47 -1 47 -1 L147 -1 L151 -1 L165 -1 L284 -1 C284 -1 290 1 300 3 C310 5 316 7 316 7 L276 7 C203 7 162 31 202 157 L202 157 L246 294 L516 294 L574 123 C606 26 575 8 520 8 L481 8 C481 8 487 6 497 4 C507 2 513 0 513 0 L616 0 L644 0 L715 0 L775 0 C775 0 782 2 791 4 C801 6 808 8 808 8 L765 8 C733 8 706 27 672 128 L670 128 L670 128 Z M248 299 L379 706 L516 299 L248 299 L248 299 Z " />
<glyph glyph-name="abreve" unicode="&#x103;" horiz-adv-x="589" d="M135 744 C142 670 202 620 287 620 C372 620 432 669 439 742 L421 745 C417 706 364 680 287 680 C210 680 157 707 153 747 L135 744 L135 744 Z M592 35 L553 26 C527 20 510 31 510 115 L510 450 L510 510 L500 510 L437 460 C403 490 351 510 287 510 C128 510 46 406 46 251 C46 97 133 -5 263 -5 C328 -5 392 23 426 66 L426 -10 L441 -10 L553 18 C553 18 562 22 575 27 C582 31 588 34 592 35 L592 35 Z M592 35 C594 36 595 36 595 36 L592 35 L592 35 Z M425 96 C394 56 345 30 299 30 C200 30 134 128 134 274 C134 401 190 485 298 485 C364 485 411 448 426 399 L426 98 L425 96 L425 96 Z " />
<glyph glyph-name="Cacute" unicode="&#x106;" horiz-adv-x="774" d="M439 812 L581 932 C619 965 645 989 645 996 C645 1019 626 1038 603 1038 C597 1038 574 1011 542 971 L428 823 L439 812 L439 812 Z M642 711 L642 711 C593 742 529 760 432 760 C204 760 52 606 52 375 C52 144 200 -10 421 -10 C519 -10 590 10 646 44 C686 64 717 52 723 30 C728 12 731 0 731 0 L731 30 L731 59 L731 119 L731 120 L731 181 C731 181 730 189 730 202 C729 215 728 223 728 223 C728 223 726 215 723 202 C712 155 656 73 592 36 L592 36 C544 8 489 -8 423 -8 C263 -8 156 145 156 374 C156 603 267 755 434 755 C494 755 541 743 581 722 C651 684 712 599 724 547 C727 534 729 526 729 526 C729 526 729 534 730 547 C731 560 731 568 731 568 L731 628 L731 630 L731 687 C731 687 731 699 730 716 C729 733 729 745 729 745 C729 745 727 733 724 716 C720 694 686 684 643 711 L642 711 L642 711 Z " />
<glyph glyph-name="Ccircumflex" unicode="&#x108;" horiz-adv-x="774" d="M642 711 L642 711 C593 742 529 760 432 760 C204 760 52 606 52 375 C52 144 200 -10 421 -10 C519 -10 590 10 646 44 C686 64 717 52 723 30 C728 12 731 0 731 0 L731 30 L731 59 L731 119 L731 120 L731 181 C731 181 730 189 730 202 C729 215 728 223 728 223 C728 223 726 215 723 202 C712 155 656 73 592 36 L592 36 C544 8 489 -8 423 -8 C263 -8 156 145 156 374 C156 603 267 755 434 755 C494 755 541 743 581 722 C651 684 712 599 724 547 C727 534 729 526 729 526 C729 526 729 534 730 547 C731 560 731 568 731 568 L731 628 L731 630 L731 687 C731 687 731 699 730 716 C729 733 729 745 729 745 C729 745 727 733 724 716 C720 694 686 684 643 711 L642 711 L642 711 Z M432 945 L573 806 L584 816 L462 1005 C457 1014 442 1035 432 1035 C423 1035 408 1014 403 1005 L280 816 L292 806 L432 945 L432 945 Z " />
<glyph glyph-name="Cdot" unicode="&#x10a;" horiz-adv-x="774" d="M431 865 C464 865 486 887 486 920 C486 953 464 975 431 975 C398 975 376 953 376 920 C376 887 398 865 431 865 L431 865 Z M642 711 L642 711 C593 742 529 760 432 760 C204 760 52 606 52 375 C52 144 200 -10 421 -10 C519 -10 590 10 646 44 C686 64 717 52 723 30 C728 12 731 0 731 0 L731 30 L731 59 L731 119 L731 120 L731 181 C731 181 730 189 730 202 C729 215 728 223 728 223 C728 223 726 215 723 202 C712 155 656 73 592 36 L592 36 C544 8 489 -8 423 -8 C263 -8 156 145 156 374 C156 603 267 755 434 755 C494 755 541 743 581 722 C651 684 712 599 724 547 C727 534 729 526 729 526 C729 526 729 534 730 547 C731 560 731 568 731 568 L731 628 L731 630 L731 687 C731 687 731 699 730 716 C729 733 729 745 729 745 C729 745 727 733 724 716 C720 694 686 684 643 711 L642 711 L642 711 Z " />
<glyph glyph-name="cdot" unicode="&#x10b;" horiz-adv-x="539" d="M314 615 C347 615 369 637 369 670 C369 703 347 725 314 725 C281 725 259 703 259 670 C259 637 281 615 314 615 L314 615 Z M509 128 L498 133 C473 79 404 42 326 42 C208 42 130 134 130 273 C130 404 202 491 309 491 C362 491 411 457 430 405 C439 380 456 363 472 363 C507 363 524 380 515 405 C491 468 411 510 314 510 C151 510 42 400 42 236 C42 88 143 -10 296 -10 C387 -10 473 45 509 128 L509 128 Z " />
<glyph glyph-name="Ccaron" unicode="&#x10c;" horiz-adv-x="774" d="M642 711 L642 711 C593 742 529 760 432 760 C204 760 52 606 52 375 C52 144 200 -10 421 -10 C519 -10 590 10 646 44 C686 64 717 52 723 30 C728 12 731 0 731 0 L731 30 L731 59 L731 119 L731 120 L731 181 C731 181 730 189 730 202 C729 215 728 223 728 223 C728 223 726 215 723 202 C712 155 656 73 592 36 L592 36 C544 8 489 -8 423 -8 C263 -8 156 145 156 374 C156 603 267 755 434 755 C494 755 541 743 581 722 C651 684 712 599 724 547 C727 534 729 526 729 526 C729 526 729 534 730 547 C731 560 731 568 731 568 L731 628 L731 630 L731 687 C731 687 731 699 730 716 C729 733 729 745 729 745 C729 745 727 733 724 716 C720 694 686 684 643 711 L642 711 L642 711 Z M432 905 L573 1044 L584 1034 L462 845 C457 836 442 815 432 815 C423 815 408 836 403 845 L280 1034 L292 1044 L432 905 L432 905 Z " />
<glyph glyph-name="ccaron" unicode="&#x10d;" horiz-adv-x="539" d="M509 128 L498 133 C473 79 404 42 326 42 C208 42 130 134 130 273 C130 404 202 491 309 491 C362 491 411 457 430 405 C439 380 456 363 472 363 C507 363 524 380 515 405 C491 468 411 510 314 510 C151 510 42 400 42 236 C42 88 143 -10 296 -10 C387 -10 473 45 509 128 L509 128 Z M314 655 L454 794 L466 784 L344 595 C338 586 323 565 314 565 C304 565 290 586 284 595 L162 784 L174 794 L314 655 L314 655 Z " />
<glyph glyph-name="Dcaron" unicode="&#x10e;" horiz-adv-x="886" d="M437 905 L577 1044 L589 1034 L467 845 C461 836 446 815 437 815 C427 815 413 836 407 845 L285 1034 L296 1044 L437 905 L437 905 Z M146 677 L146 73 C146 18 121 8 84 8 L41 8 C41 8 52 6 68 4 C83 2 94 0 94 0 L146 0 L168 0 L241 0 L334 0 C633 0 832 127 832 375 C832 600 678 750 380 750 L241 750 L168 750 L146 750 L94 750 C94 750 83 748 68 746 C52 744 41 742 41 742 L84 742 C121 742 146 732 146 677 L146 677 Z M241 747 L369 747 C605 747 727 598 727 375 C727 129 568 3 330 3 C250 3 241 23 241 52 L241 73 L241 677 L241 747 L241 747 Z " />
<glyph glyph-name="dcaron" unicode="&#x10f;" horiz-adv-x="624" d="M646 638 C662 678 673 720 673 743 C673 752 658 755 635 755 C617 755 606 693 602 648 L591 536 L606 533 L646 638 L646 638 Z M627 35 L588 26 C562 20 545 31 545 115 L545 668 L545 747 L530 747 L417 715 C417 715 409 711 396 705 C383 699 375 695 375 695 L417 707 C443 715 460 709 460 648 L460 467 C422 493 368 510 310 510 C136 510 46 406 46 251 C46 97 141 -5 283 -5 C356 -5 426 23 460 66 L460 -10 L475 -10 L587 18 C587 18 596 22 609 27 C616 31 622 34 626 35 L627 35 L627 35 Z M626 35 C628 36 629 36 629 36 L626 35 L626 35 Z M459 96 C427 56 372 30 317 30 C206 30 132 128 132 274 C132 401 196 485 319 485 C374 485 430 444 459 394 L459 98 L459 96 L459 96 Z " />
<glyph glyph-name="Emacron" unicode="&#x112;" horiz-adv-x="680" d="M191 895 L538 895 L538 954 L191 954 L191 895 L191 895 Z M500 0 L608 0 C609 10 611 23 612 33 C614 43 616 56 617 66 L617 97 C618 116 618 128 618 128 L612 86 C605 36 584 3 500 3 L293 3 C246 3 241 23 241 52 L241 73 L241 385 L415 385 C499 385 515 346 515 287 L515 245 C515 245 517 259 519 280 C521 301 523 315 523 315 L523 385 L523 387 L523 388 L523 458 C523 458 521 472 519 493 C517 514 515 528 515 528 L515 486 C515 427 499 388 415 388 L241 388 L241 677 L241 747 L475 747 C576 747 578 709 582 652 L584 622 C584 622 585 634 586 653 C587 672 587 684 587 684 C587 694 586 707 585 717 C584 727 584 740 583 750 L475 750 L241 750 L168 750 L146 750 L94 750 C94 750 83 748 68 746 C52 744 41 742 41 742 L84 742 C121 742 146 732 146 677 L146 73 C146 18 121 8 84 8 L41 8 C41 8 52 6 68 4 C83 2 94 0 94 0 L146 0 L168 0 L241 0 L500 0 L500 0 Z " />
<glyph glyph-name="emacron" unicode="&#x113;" horiz-adv-x="578" d="M146 645 L493 645 L493 704 L146 704 L146 645 L146 645 Z M138 340 L454 340 L525 340 L548 340 C526 462 439 510 320 510 C153 510 41 399 41 231 C41 87 142 -10 294 -10 C408 -10 505 47 536 132 L525 136 C506 82 422 46 315 46 C204 46 130 134 130 266 C130 293 133 318 138 341 L138 340 L138 340 Z M518 366 C520 366 522 366 524 366 L518 366 L518 366 Z M448 365 L143 361 C169 442 231 492 314 492 C376 492 426 456 448 365 L448 365 Z " />
<glyph glyph-name="Ebreve" unicode="&#x114;" horiz-adv-x="680" d="M213 994 C219 920 280 870 364 870 C449 870 509 919 516 992 L498 995 C495 956 442 930 364 930 C287 930 234 957 231 997 L213 994 L213 994 Z M500 0 L608 0 C609 10 611 23 612 33 C614 43 616 56 617 66 L617 97 C618 116 618 128 618 128 L612 86 C605 36 584 3 500 3 L293 3 C246 3 241 23 241 52 L241 73 L241 385 L415 385 C499 385 515 346 515 287 L515 245 C515 245 517 259 519 280 C521 301 523 315 523 315 L523 385 L523 387 L523 388 L523 458 C523 458 521 472 519 493 C517 514 515 528 515 528 L515 486 C515 427 499 388 415 388 L241 388 L241 677 L241 747 L475 747 C576 747 578 709 582 652 L584 622 C584 622 585 634 586 653 C587 672 587 684 587 684 C587 694 586 707 585 717 C584 727 584 740 583 750 L475 750 L241 750 L168 750 L146 750 L94 750 C94 750 83 748 68 746 C52 744 41 742 41 742 L84 742 C121 742 146 732 146 677 L146 73 C146 18 121 8 84 8 L41 8 C41 8 52 6 68 4 C83 2 94 0 94 0 L146 0 L168 0 L241 0 L500 0 L500 0 Z " />
<glyph glyph-name="ebreve" unicode="&#x115;" horiz-adv-x="578" d="M168 744 C175 670 235 620 320 620 C405 620 465 669 472 742 L454 745 C450 706 397 680 320 680 C243 680 190 707 186 747 L168 744 L168 744 Z M138 340 L454 340 L525 340 L548 340 C526 462 439 510 320 510 C153 510 41 399 41 231 C41 87 142 -10 294 -10 C408 -10 505 47 536 132 L525 136 C506 82 422 46 315 46 C204 46 130 134 130 266 C130 293 133 318 138 341 L138 340 L138 340 Z M518 366 C520 366 522 366 524 366 L518 366 L518 366 Z M448 365 L143 361 C169 442 231 492 314 492 C376 492 426 456 448 365 L448 365 Z " />
<glyph glyph-name="Edot" unicode="&#x116;" horiz-adv-x="680" d="M364 865 C397 865 419 887 419 920 C419 953 397 975 364 975 C331 975 309 953 309 920 C309 887 331 865 364 865 L364 865 Z M500 0 L608 0 C609 10 611 23 612 33 C614 43 616 56 617 66 L617 97 C618 116 618 128 618 128 L612 86 C605 36 584 3 500 3 L293 3 C246 3 241 23 241 52 L241 73 L241 385 L415 385 C499 385 515 346 515 287 L515 245 C515 245 517 259 519 280 C521 301 523 315 523 315 L523 385 L523 387 L523 388 L523 458 C523 458 521 472 519 493 C517 514 515 528 515 528 L515 486 C515 427 499 388 415 388 L241 388 L241 677 L241 747 L475 747 C576 747 578 709 582 652 L584 622 C584 622 585 634 586 653 C587 672 587 684 587 684 C587 694 586 707 585 717 C584 727 584 740 583 750 L475 750 L241 750 L168 750 L146 750 L94 750 C94 750 83 748 68 746 C52 744 41 742 41 742 L84 742 C121 742 146 732 146 677 L146 73 C146 18 121 8 84 8 L41 8 C41 8 52 6 68 4 C83 2 94 0 94 0 L146 0 L168 0 L241 0 L500 0 L500 0 Z " />
<glyph glyph-name="edot" unicode="&#x117;" horiz-adv-x="578" d="M320 615 C353 615 375 637 375 670 C375 703 353 725 320 725 C287 725 265 703 265 670 C265 637 287 615 320 615 L320 615 Z M138 340 L454 340 L525 340 L548 340 C526 462 439 510 320 510 C153 510 41 399 41 231 C41 87 142 -10 294 -10 C408 -10 505 47 536 132 L525 136 C506 82 422 46 315 46 C204 46 130 134 130 266 C130 293 133 318 138 341 L138 340 L138 340 Z M518 366 C520 366 522 366 524 366 L518 366 L518 366 Z M448 365 L143 361 C169 442 231 492 314 492 C376 492 426 456 448 365 L448 365 Z " />
<glyph glyph-name="Ecaron" unicode="&#x11a;" horiz-adv-x="680" d="M364 905 L505 1044 L516 1034 L395 845 C389 836 374 815 364 815 C355 815 340 836 335 845 L213 1034 L224 1044 L364 905 L364 905 Z M500 0 L608 0 C609 10 611 23 612 33 C614 43 616 56 617 66 L617 97 C618 116 618 128 618 128 L612 86 C605 36 584 3 500 3 L293 3 C246 3 241 23 241 52 L241 73 L241 385 L415 385 C499 385 515 346 515 287 L515 245 C515 245 517 259 519 280 C521 301 523 315 523 315 L523 385 L523 387 L523 388 L523 458 C523 458 521 472 519 493 C517 514 515 528 515 528 L515 486 C515 427 499 388 415 388 L241 388 L241 677 L241 747 L475 747 C576 747 578 709 582 652 L584 622 C584 622 585 634 586 653 C587 672 587 684 587 684 C587 694 586 707 585 717 C584 727 584 740 583 750 L475 750 L241 750 L168 750 L146 750 L94 750 C94 750 83 748 68 746 C52 744 41 742 41 742 L84 742 C121 742 146 732 146 677 L146 73 C146 18 121 8 84 8 L41 8 C41 8 52 6 68 4 C83 2 94 0 94 0 L146 0 L168 0 L241 0 L500 0 L500 0 Z " />
<glyph glyph-name="ecaron" unicode="&#x11b;" horiz-adv-x="578" d="M320 655 L460 794 L472 784 L350 595 C344 586 329 565 320 565 C310 565 296 586 290 595 L168 784 L180 794 L320 655 L320 655 Z M138 340 L454 340 L525 340 L548 340 C526 462 439 510 320 510 C153 510 41 399 41 231 C41 87 142 -10 294 -10 C408 -10 505 47 536 132 L525 136 C506 82 422 46 315 46 C204 46 130 134 130 266 C130 293 133 318 138 341 L138 340 L138 340 Z M518 366 C520 366 522 366 524 366 L518 366 L518 366 Z M448 365 L143 361 C169 442 231 492 314 492 C376 492 426 456 448 365 L448 365 Z " />
<glyph glyph-name="Gcircumflex" unicode="&#x11c;" horiz-adv-x="855" d="M642 711 L642 711 C593 742 529 760 432 760 C204 760 52 606 52 375 C52 144 202 -10 427 -10 C542 -10 630 5 706 30 L714 32 L714 33 C739 42 763 52 786 63 L785 66 C765 57 742 48 714 41 L714 258 C714 308 731 318 757 318 L799 318 C799 318 791 320 778 322 C765 324 757 326 757 326 L663 326 L569 326 C569 326 559 324 544 322 C529 320 519 318 519 318 L562 318 C596 318 619 308 619 258 L621 23 L621 23 L620 120 C620 57 548 15 440 14 L461 14 C453 14 444 14 435 14 L440 14 C438 14 436 14 434 14 C267 14 155 159 155 376 C155 605 266 757 433 757 C493 757 540 745 580 724 C650 686 711 601 723 549 C726 536 728 528 728 528 C728 528 728 536 729 549 C730 562 730 570 730 570 L730 630 L730 632 L730 689 C730 689 730 701 729 718 C728 735 728 747 728 747 C728 747 726 735 723 718 C719 696 685 686 642 713 L642 711 L642 711 Z M431 947 L572 808 L583 818 L461 1007 C456 1016 441 1037 431 1037 C422 1037 407 1016 402 1007 L279 818 L291 808 L431 947 L431 947 Z " />
<glyph glyph-name="Gbreve" unicode="&#x11e;" horiz-adv-x="855" d="M280 994 C286 920 347 870 431 870 C516 870 576 919 583 992 L565 995 C562 956 509 930 431 930 C354 930 301 957 297 997 L280 994 L280 994 Z M642 711 L642 711 C593 742 529 760 432 760 C204 760 52 606 52 375 C52 144 202 -10 427 -10 C542 -10 630 5 706 30 L714 32 L714 33 C739 42 763 52 786 63 L785 66 C765 57 742 48 714 41 L714 258 C714 308 731 318 757 318 L799 318 C799 318 791 320 778 322 C765 324 757 326 757 326 L663 326 L569 326 C569 326 559 324 544 322 C529 320 519 318 519 318 L562 318 C596 318 619 308 619 258 L621 23 L621 23 L620 120 C620 57 548 15 440 14 L461 14 C453 14 444 14 435 14 L440 14 C438 14 436 14 434 14 C267 14 155 159 155 376 C155 605 266 757 433 757 C493 757 540 745 580 724 C650 686 711 601 723 549 C726 536 728 528 728 528 C728 528 728 536 729 549 C730 562 730 570 730 570 L730 630 L730 632 L730 689 C730 689 730 701 729 718 C728 735 728 747 728 747 C728 747 726 735 723 718 C719 696 685 686 642 713 L642 711 L642 711 Z " />
<glyph glyph-name="gbreve" unicode="&#x11f;" horiz-adv-x="551" d="M119 744 C126 670 186 620 271 620 C355 620 416 669 422 742 L404 745 C401 706 348 680 271 680 C194 680 140 707 137 747 L119 744 L119 744 Z M160 350 C160 434 204 490 271 490 C337 490 381 434 381 350 C381 265 337 208 271 208 C204 208 160 265 160 350 L160 350 Z M166 1 C173 0 180 0 187 0 L309 0 C408 0 446 -35 446 -88 C446 -162 382 -211 286 -211 C184 -211 116 -157 116 -75 C116 -43 135 -15 165 0 L166 1 L166 1 Z M145 3 C84 -16 44 -54 44 -96 C44 -177 138 -231 280 -231 C421 -231 515 -166 515 -69 C515 22 459 83 316 83 L190 83 C138 84 103 102 103 129 C103 164 170 187 270 187 C387 187 465 252 465 349 C465 368 462 386 456 402 C475 436 502 459 527 459 C535 459 541 447 541 429 C541 411 557 399 581 399 C601 399 615 415 615 439 C615 472 594 494 562 494 C517 494 473 465 448 420 C419 475 355 509 270 509 C152 509 74 445 74 349 C74 276 118 221 190 198 C106 185 54 150 54 103 C54 51 89 14 145 2 L145 3 L145 3 Z " />
<glyph glyph-name="Gdot" unicode="&#x120;" horiz-adv-x="855" d="M431 865 C464 865 486 887 486 920 C486 953 464 975 431 975 C398 975 376 953 376 920 C376 887 398 865 431 865 L431 865 Z M642 711 L642 711 C593 742 529 760 432 760 C204 760 52 606 52 375 C52 144 202 -10 427 -10 C542 -10 630 5 706 30 L714 32 L714 33 C739 42 763 52 786 63 L785 66 C765 57 742 48 714 41 L714 258 C714 308 731 318 757 318 L799 318 C799 318 791 320 778 322 C765 324 757 326 757 326 L663 326 L569 326 C569 326 559 324 544 322 C529 320 519 318 519 318 L562 318 C596 318 619 308 619 258 L621 23 L621 23 L620 120 C620 57 548 15 440 14 L461 14 C453 14 444 14 435 14 L440 14 C438 14 436 14 434 14 C267 14 155 159 155 376 C155 605 266 757 433 757 C493 757 540 745 580 724 C650 686 711 601 723 549 C726 536 728 528 728 528 C728 528 728 536 729 549 C730 562 730 570 730 570 L730 630 L730 632 L730 689 C730 689 730 701 729 718 C728 735 728 747 728 747 C728 747 726 735 723 718 C719 696 685 686 642 713 L642 711 L642 711 Z " />
<glyph glyph-name="gdot" unicode="&#x121;" horiz-adv-x="551" d="M271 615 C304 615 326 637 326 670 C326 703 304 725 271 725 C238 725 216 703 216 670 C216 637 238 615 271 615 L271 615 Z M160 350 C160 434 204 490 271 490 C337 490 381 434 381 350 C381 265 337 208 271 208 C204 208 160 265 160 350 L160 350 Z M166 1 C173 0 180 0 187 0 L309 0 C408 0 446 -35 446 -88 C446 -162 382 -211 286 -211 C184 -211 116 -157 116 -75 C116 -43 135 -15 165 0 L166 1 L166 1 Z M145 3 C84 -16 44 -54 44 -96 C44 -177 138 -231 280 -231 C421 -231 515 -166 515 -69 C515 22 459 83 316 83 L190 83 C138 84 103 102 103 129 C103 164 170 187 270 187 C387 187 465 252 465 349 C465 368 462 386 456 402 C475 436 502 459 527 459 C535 459 541 447 541 429 C541 411 557 399 581 399 C601 399 615 415 615 439 C615 472 594 494 562 494 C517 494 473 465 448 420 C419 475 355 509 270 509 C152 509 74 445 74 349 C74 276 118 221 190 198 C106 185 54 150 54 103 C54 51 89 14 145 2 L145 3 L145 3 Z " />
<glyph glyph-name="Hcircumflex" unicode="&#x124;" horiz-adv-x="892" d="M465 945 L605 806 L617 816 L495 1005 C489 1014 474 1035 465 1035 C456 1035 441 1014 435 1005 L313 816 L325 806 L465 945 L465 945 Z M748 68 L748 682 C748 732 773 742 811 742 L853 742 C853 742 842 744 827 746 C811 748 800 750 800 750 L700 750 L600 750 C600 750 590 748 574 746 C558 744 548 742 548 742 L590 742 C628 742 653 732 653 682 L653 385 L277 385 L277 682 C277 732 302 742 340 742 L382 742 C382 742 372 744 356 746 C340 748 330 750 330 750 L230 750 L130 750 C130 750 119 748 104 746 C88 744 77 742 77 742 L120 742 C157 742 182 732 182 682 L182 68 C182 18 157 8 120 8 L77 8 C77 8 88 6 104 4 C119 2 130 0 130 0 L230 0 L330 0 C330 0 340 2 356 4 C372 6 382 8 382 8 L340 8 C302 8 277 18 277 68 L277 381 L653 381 L653 68 C653 18 628 8 590 8 L548 8 C548 8 558 6 574 4 C590 2 600 0 600 0 L700 0 L800 0 C800 0 811 2 827 4 C842 6 853 8 853 8 L811 8 C773 8 748 18 748 68 L748 68 Z " />
<glyph glyph-name="Itilde" unicode="&#x128;" horiz-adv-x="382" d="M25 870 C25 906 46 930 77 930 C144 930 212 865 279 865 C326 865 358 913 358 985 L355 985 C355 949 332 925 298 925 C231 925 163 990 96 990 C52 990 22 942 22 870 L25 870 L25 870 Z M238 68 L238 682 C238 732 263 742 300 742 L343 742 C343 742 332 744 316 746 C301 748 290 750 290 750 L190 750 L90 750 C90 750 80 748 64 746 C48 744 38 742 38 742 L80 742 C118 742 143 732 143 682 L143 68 C143 18 118 8 80 8 L38 8 C38 8 48 6 64 4 C80 2 90 0 90 0 L190 0 L290 0 C290 0 301 2 316 4 C332 6 343 8 343 8 L300 8 C263 8 238 18 238 68 L238 68 Z " />
<glyph glyph-name="itilde" unicode="&#x129;" horiz-adv-x="309" d="M-8 620 C-8 656 13 680 44 680 C111 680 179 615 246 615 C293 615 325 663 325 735 L323 735 C323 699 300 675 265 675 C199 675 130 740 64 740 C19 740 -10 692 -10 620 L-8 620 L-8 620 Z M200 23 L200 396 L200 500 L185 500 L34 445 L34 441 C102 444 115 439 115 396 L115 23 C115 10 100 8 77 8 L35 8 C35 8 43 6 55 4 C67 2 75 0 75 0 L158 0 L241 0 C241 0 249 2 262 4 C275 6 283 8 283 8 L240 8 C216 8 200 10 200 23 L200 23 Z " />
<glyph glyph-name="Imacron" unicode="&#x12a;" horiz-adv-x="382" d="M16 895 L364 895 L364 954 L16 954 L16 895 L16 895 Z M238 68 L238 682 C238 732 263 742 300 742 L343 742 C343 742 332 744 316 746 C301 748 290 750 290 750 L190 750 L90 750 C90 750 80 748 64 746 C48 744 38 742 38 742 L80 742 C118 742 143 732 143 682 L143 68 C143 18 118 8 80 8 L38 8 C38 8 48 6 64 4 C80 2 90 0 90 0 L190 0 L290 0 C290 0 301 2 316 4 C332 6 343 8 343 8 L300 8 C263 8 238 18 238 68 L238 68 Z " />
<glyph glyph-name="imacron" unicode="&#x12b;" horiz-adv-x="309" d="M-16 645 L331 645 L331 704 L-16 704 L-16 645 L-16 645 Z M200 23 L200 396 L200 500 L185 500 L34 445 L34 441 C102 444 115 439 115 396 L115 23 C115 10 100 8 77 8 L35 8 C35 8 43 6 55 4 C67 2 75 0 75 0 L158 0 L241 0 C241 0 249 2 262 4 C275 6 283 8 283 8 L240 8 C216 8 200 10 200 23 L200 23 Z " />
<glyph glyph-name="Ibreve" unicode="&#x12c;" horiz-adv-x="382" d="M38 994 C45 920 105 870 190 870 C275 870 335 919 342 992 L324 995 C320 956 267 930 190 930 C113 930 60 957 56 997 L38 994 L38 994 Z M238 68 L238 682 C238 732 263 742 300 742 L343 742 C343 742 332 744 316 746 C301 748 290 750 290 750 L190 750 L90 750 C90 750 80 748 64 746 C48 744 38 742 38 742 L80 742 C118 742 143 732 143 682 L143 68 C143 18 118 8 80 8 L38 8 C38 8 48 6 64 4 C80 2 90 0 90 0 L190 0 L290 0 C290 0 301 2 316 4 C332 6 343 8 343 8 L300 8 C263 8 238 18 238 68 L238 68 Z " />
<glyph glyph-name="ibreve" unicode="&#x12d;" horiz-adv-x="309" d="M6 744 C12 670 73 620 157 620 C242 620 302 669 309 742 L291 745 C287 706 234 680 157 680 C80 680 27 707 23 747 L6 744 L6 744 Z M200 23 L200 396 L200 500 L185 500 L34 445 L34 441 C102 444 115 439 115 396 L115 23 C115 10 100 8 77 8 L35 8 C35 8 43 6 55 4 C67 2 75 0 75 0 L158 0 L241 0 C241 0 249 2 262 4 C275 6 283 8 283 8 L240 8 C216 8 200 10 200 23 L200 23 Z " />
<glyph glyph-name="Idot" unicode="&#x130;" horiz-adv-x="382" d="M190 865 C223 865 245 887 245 920 C245 953 223 975 190 975 C157 975 135 953 135 920 C135 887 157 865 190 865 L190 865 Z M238 68 L238 682 C238 732 263 742 300 742 L343 742 C343 742 332 744 316 746 C301 748 290 750 290 750 L190 750 L90 750 C90 750 80 748 64 746 C48 744 38 742 38 742 L80 742 C118 742 143 732 143 682 L143 68 C143 18 118 8 80 8 L38 8 C38 8 48 6 64 4 C80 2 90 0 90 0 L190 0 L290 0 C290 0 301 2 316 4 C332 6 343 8 343 8 L300 8 C263 8 238 18 238 68 L238 68 Z " />
<glyph glyph-name="dotlessi" unicode="&#x131;" horiz-adv-x="309" d="M200 23 L200 396 L200 500 L185 500 L34 445 L34 441 C102 444 115 439 115 396 L115 23 C115 10 100 8 77 8 L35 8 C35 8 43 6 55 4 C67 2 75 0 75 0 L158 0 L241 0 C241 0 249 2 262 4 C275 6 283 8 283 8 L240 8 C216 8 200 10 200 23 L200 23 Z " />
<glyph glyph-name="Jcircumflex" unicode="&#x134;" horiz-adv-x="382" d="M190 945 L330 806 L342 816 L220 1005 C214 1014 199 1035 190 1035 C180 1035 166 1014 160 1005 L38 816 L50 806 L190 945 L190 945 Z M143 682 L142 -68 C142 -191 68 -215 14 -215 C-34 -215 -13 -135 -61 -135 C-88 -135 -106 -153 -106 -180 C-106 -204 -59 -220 10 -220 C106 -220 238 -167 238 112 L238 682 C238 732 263 742 300 742 L343 742 C343 742 332 744 316 746 C301 748 290 750 290 750 L190 750 L90 750 C90 750 80 748 64 746 C48 744 38 742 38 742 L80 742 C118 742 143 732 143 682 L143 682 Z " />
<glyph glyph-name="Lacute" unicode="&#x139;" horiz-adv-x="686" d="M198 812 L340 932 C378 965 404 989 404 996 C404 1019 384 1038 361 1038 C355 1038 332 1011 301 971 L187 823 L198 812 L198 812 Z M612 16 L612 16 C615 27 618 39 620 49 C624 63 630 83 633 97 C634 97 637 114 641 139 C645 164 648 181 648 181 L637 139 C617 65 578 16 439 16 L289 16 C243 16 238 30 238 52 L238 73 L238 677 C238 732 263 742 300 742 L343 742 C343 742 332 744 316 746 C301 748 290 750 290 750 L238 750 L190 750 L143 750 L90 750 C90 750 80 748 64 746 C48 744 38 742 38 742 L80 742 C118 742 143 732 143 677 L143 73 C143 18 118 8 80 8 L38 8 C38 8 48 6 64 4 C80 2 90 0 90 0 L143 0 L164 0 L238 0 L435 0 L607 0 L612 0 L612 16 L612 16 Z " />
<glyph glyph-name="Lcaron" unicode="&#x13d;" horiz-adv-x="686" d="M612 16 L612 16 C615 27 618 39 620 49 C624 63 630 83 633 97 C634 97 637 114 641 139 C645 164 648 181 648 181 L637 139 C617 65 578 16 439 16 L289 16 C243 16 238 30 238 52 L238 73 L238 677 C238 732 263 742 300 742 L343 742 C343 742 332 744 316 746 C301 748 290 750 290 750 L238 750 L190 750 L143 750 L90 750 C90 750 80 748 64 746 C48 744 38 742 38 742 L80 742 C118 742 143 732 143 677 L143 73 C143 18 118 8 80 8 L38 8 C38 8 48 6 64 4 C80 2 90 0 90 0 L143 0 L164 0 L238 0 L435 0 L607 0 L612 0 L612 16 L612 16 Z M439 691 C455 731 466 773 466 795 C466 804 451 808 427 808 C410 808 399 745 395 700 L384 589 L399 586 L439 691 L439 691 Z " />
<glyph glyph-name="lcaron" unicode="&#x13e;" horiz-adv-x="309" d="M301 638 C317 678 328 720 328 743 C328 752 313 755 290 755 C272 755 261 693 257 648 L246 536 L261 533 L301 638 L301 638 Z M200 23 L200 684 L200 747 L185 747 L72 715 C72 715 64 711 51 705 C38 699 30 695 30 695 L72 707 C98 715 115 711 115 664 L115 23 C115 10 100 8 77 8 L35 8 C35 8 43 6 55 4 C67 2 75 0 75 0 L157 0 L240 0 C240 0 248 2 260 4 C272 6 280 8 280 8 L237 8 C215 8 200 10 200 23 L200 23 Z " />
<glyph glyph-name="Nacute" unicode="&#x143;" horiz-adv-x="821" d="M315 812 L457 932 C495 965 521 989 521 996 C521 1019 502 1038 479 1038 C473 1038 450 1011 418 971 L304 823 L315 812 L315 812 Z M166 128 L165 128 L163 626 L546 135 L651 0 L670 0 L676 642 L676 642 L676 642 L676 646 C677 726 710 741 759 741 L801 741 C801 741 788 743 770 745 C751 747 738 749 738 749 L677 749 L662 749 L648 749 L586 749 C586 749 574 747 555 745 C536 743 524 741 524 741 L566 741 C612 741 644 727 649 657 L651 155 L622 191 L186 749 L164 749 L140 749 L114 749 L68 749 L42 749 C42 749 35 747 25 745 C16 743 9 741 9 741 L66 741 C71 741 78 735 101 706 L101 706 L140 657 L139 137 L139 137 C139 28 106 7 56 7 L14 7 C14 7 20 5 30 3 C40 1 46 -1 46 -1 L139 -1 L153 -1 L167 -1 L260 -1 C260 -1 266 1 276 3 C286 5 292 7 292 7 L250 7 C200 7 167 26 167 127 L166 128 L166 128 Z " />
<glyph glyph-name="Ncaron" unicode="&#x147;" horiz-adv-x="821" d="M166 128 L165 128 L163 626 L546 135 L651 0 L670 0 L676 642 L676 642 L676 642 L676 646 C677 726 710 741 759 741 L801 741 C801 741 788 743 770 745 C751 747 738 749 738 749 L677 749 L662 749 L648 749 L586 749 C586 749 574 747 555 745 C536 743 524 741 524 741 L566 741 C612 741 644 727 649 657 L651 155 L622 191 L186 749 L164 749 L140 749 L114 749 L68 749 L42 749 C42 749 35 747 25 745 C16 743 9 741 9 741 L66 741 C71 741 78 735 101 706 L101 706 L140 657 L139 137 L139 137 C139 28 106 7 56 7 L14 7 C14 7 20 5 30 3 C40 1 46 -1 46 -1 L139 -1 L153 -1 L167 -1 L260 -1 C260 -1 266 1 276 3 C286 5 292 7 292 7 L250 7 C200 7 167 26 167 127 L166 128 L166 128 Z M408 904 L549 1043 L560 1033 L439 844 C433 835 418 814 408 814 C399 814 384 835 379 844 L257 1033 L268 1043 L408 904 L408 904 Z " />
<glyph glyph-name="ncaron" unicode="&#x148;" horiz-adv-x="643" d="M321 655 L462 794 L473 784 L351 595 C345 586 331 565 321 565 C312 565 297 586 291 595 L169 784 L181 794 L321 655 L321 655 Z M448 23 C448 10 433 8 411 8 L368 8 C368 8 376 6 388 4 C400 2 408 0 408 0 L491 0 L573 0 C573 0 581 2 593 4 C605 6 613 8 613 8 L571 8 C548 8 533 10 533 23 L533 322 C533 435 481 510 381 510 C332 510 258 458 194 381 L194 437 L194 500 L179 500 L66 459 C66 459 58 454 45 447 C32 440 24 436 24 436 L66 451 C92 460 109 458 109 411 L109 23 C109 10 94 8 71 8 L29 8 C29 8 37 6 49 4 C61 2 69 0 69 0 L151 0 L234 0 C234 0 242 2 254 4 C266 6 274 8 274 8 L231 8 C209 8 194 10 194 23 L194 369 C244 429 309 470 357 470 C417 470 448 411 448 322 L448 23 L448 23 Z " />
<glyph glyph-name="Omacron" unicode="&#x14c;" horiz-adv-x="889" d="M264 895 L611 895 L611 954 L264 954 L264 895 L264 895 Z M428 -6 C267 -6 159 146 159 375 C159 604 270 756 437 756 C610 756 726 604 726 375 C726 146 607 -6 428 -6 L428 -6 Z M50 375 C50 144 201 -10 427 -10 C672 -10 835 144 835 375 C835 606 676 760 437 760 C205 760 50 606 50 375 L50 375 Z " />
<glyph glyph-name="omacron" unicode="&#x14d;" horiz-adv-x="640" d="M144 645 L491 645 L491 704 L144 704 L144 645 L144 645 Z M318 -6 C208 -6 134 96 134 250 C134 404 208 506 318 506 C428 506 501 404 501 250 C501 96 428 -6 318 -6 L318 -6 Z M41 250 C41 94 152 -10 318 -10 C484 -10 595 94 595 250 C595 406 484 510 318 510 C152 510 41 406 41 250 L41 250 Z " />
<glyph glyph-name="Obreve" unicode="&#x14e;" horiz-adv-x="889" d="M286 994 C292 920 353 870 437 870 C522 870 582 919 589 992 L571 995 C568 956 515 930 437 930 C360 930 307 957 303 997 L286 994 L286 994 Z M428 -6 C267 -6 159 146 159 375 C159 604 270 756 437 756 C610 756 726 604 726 375 C726 146 607 -6 428 -6 L428 -6 Z M50 375 C50 144 201 -10 427 -10 C672 -10 835 144 835 375 C835 606 676 760 437 760 C205 760 50 606 50 375 L50 375 Z " />
<glyph glyph-name="obreve" unicode="&#x14f;" horiz-adv-x="640" d="M166 744 C173 670 233 620 318 620 C403 620 463 669 470 742 L452 745 C448 706 395 680 318 680 C241 680 188 707 184 747 L166 744 L166 744 Z M318 -6 C208 -6 134 96 134 250 C134 404 208 506 318 506 C428 506 501 404 501 250 C501 96 428 -6 318 -6 L318 -6 Z M41 250 C41 94 152 -10 318 -10 C484 -10 595 94 595 250 C595 406 484 510 318 510 C152 510 41 406 41 250 L41 250 Z " />
<glyph glyph-name="Racute" unicode="&#x154;" horiz-adv-x="828" d="M350 812 L492 932 C531 965 556 989 556 996 C556 1019 537 1038 514 1038 C508 1038 485 1011 453 971 L340 823 L350 812 L350 812 Z M819 0 L819 7 C724 7 718 9 678 68 C578 212 504 320 474 364 C579 384 644 440 644 538 C644 665 539 750 381 750 L241 750 L168 750 L94 750 C94 750 83 748 68 746 C52 744 41 742 41 742 L84 742 C121 742 146 732 146 677 L146 73 C146 18 121 8 84 8 L41 8 C41 8 52 6 68 4 C83 2 94 0 94 0 L194 0 L294 0 C294 0 304 2 320 4 C336 6 346 8 346 8 L304 8 C266 8 241 18 241 73 L241 356 L376 356 C396 320 468 211 567 68 C612 3 622 0 819 0 L819 0 Z M241 731 L353 731 C465 731 539 661 539 557 C539 435 476 380 381 380 L241 380 L241 677 L241 731 L241 731 Z " />
<glyph glyph-name="Rcaron" unicode="&#x158;" horiz-adv-x="828" d="M819 0 L819 7 C724 7 718 9 678 68 C578 212 504 320 474 364 C579 384 644 440 644 538 C644 665 539 750 381 750 L241 750 L168 750 L94 750 C94 750 83 748 68 746 C52 744 41 742 41 742 L84 742 C121 742 146 732 146 677 L146 73 C146 18 121 8 84 8 L41 8 C41 8 52 6 68 4 C83 2 94 0 94 0 L194 0 L294 0 C294 0 304 2 320 4 C336 6 346 8 346 8 L304 8 C266 8 241 18 241 73 L241 356 L376 356 C396 320 468 211 567 68 C612 3 622 0 819 0 L819 0 Z M343 905 L483 1044 L495 1034 L373 845 C367 836 352 815 343 815 C333 815 319 836 313 845 L191 1034 L202 1044 L343 905 L343 905 Z M241 731 L353 731 C465 731 539 661 539 557 C539 435 476 380 381 380 L241 380 L241 677 L241 731 L241 731 Z " />
<glyph glyph-name="rcaron" unicode="&#x159;" horiz-adv-x="487" d="M288 655 L429 794 L440 784 L319 595 C313 586 298 565 289 565 C279 565 264 586 259 595 L137 784 L148 794 L288 655 L288 655 Z M200 386 L200 437 L200 500 L185 500 L72 459 C72 459 64 454 51 447 C38 440 30 436 30 436 L72 451 C98 460 115 458 115 411 L115 23 C115 10 102 8 82 8 L40 8 C40 8 47 6 59 4 C70 2 77 0 77 0 L160 0 L242 0 C242 0 251 2 264 4 C276 6 285 8 285 8 L242 8 C217 8 200 10 200 23 L200 379 C231 434 281 470 327 470 C356 470 376 456 376 435 C376 405 396 385 426 385 C456 385 476 405 476 435 C476 480 432 510 366 510 C306 510 240 461 199 386 L200 386 L200 386 Z " />
<glyph glyph-name="Sacute" unicode="&#x15a;" horiz-adv-x="581" d="M297 812 L439 932 C477 965 503 989 503 996 C503 1019 483 1038 461 1038 C455 1038 432 1011 400 971 L286 823 L297 812 L297 812 Z M346 743 C417 715 479 629 494 568 C497 555 499 546 499 546 C499 546 499 555 500 568 C501 580 501 589 501 589 L501 644 L501 645 L501 702 C501 702 501 713 500 730 C499 748 499 759 499 759 C499 759 497 748 494 730 C490 709 470 694 446 708 C401 741 338 761 269 761 C146 761 65 683 65 565 C65 471 139 381 281 327 C403 280 466 221 466 167 C466 65 404 -4 310 -4 C263 -4 216 13 175 43 C120 84 70 171 58 224 C55 237 53 246 53 246 C53 246 52 237 51 224 C51 212 50 203 50 203 L50 148 L50 139 L50 75 C50 75 51 61 51 39 C52 17 53 3 53 3 C53 3 55 17 58 39 C61 66 91 80 129 51 L130 51 C180 13 244 -9 310 -9 C449 -9 541 73 541 195 C541 287 472 374 338 425 C207 475 140 541 140 601 C140 695 191 757 269 757 C291 757 313 754 334 748 L333 748 C335 748 337 748 339 747 C345 745 351 743 357 741 L346 743 L346 743 Z M348 744 L336 748 C337 748 338 748 339 748 C342 747 345 746 348 745 L348 744 L348 744 Z " />
<glyph glyph-name="Scircumflex" unicode="&#x15c;" horiz-adv-x="581" d="M289 945 L430 806 L441 816 L319 1005 C314 1014 299 1035 289 1035 C280 1035 265 1014 259 1005 L137 816 L149 806 L289 945 L289 945 Z M346 743 C417 715 479 629 494 568 C497 555 499 546 499 546 C499 546 499 555 500 568 C501 580 501 589 501 589 L501 644 L501 645 L501 702 C501 702 501 713 500 730 C499 748 499 759 499 759 C499 759 497 748 494 730 C490 709 470 694 446 708 C401 741 338 761 269 761 C146 761 65 683 65 565 C65 471 139 381 281 327 C403 280 466 221 466 167 C466 65 404 -4 310 -4 C263 -4 216 13 175 43 C120 84 70 171 58 224 C55 237 53 246 53 246 C53 246 52 237 51 224 C51 212 50 203 50 203 L50 148 L50 139 L50 75 C50 75 51 61 51 39 C52 17 53 3 53 3 C53 3 55 17 58 39 C61 66 91 80 129 51 L130 51 C180 13 244 -9 310 -9 C449 -9 541 73 541 195 C541 287 472 374 338 425 C207 475 140 541 140 601 C140 695 191 757 269 757 C291 757 313 754 334 748 L333 748 C335 748 337 748 339 747 C345 745 351 743 357 741 L346 743 L346 743 Z M348 744 L336 748 C337 748 338 748 339 748 C342 747 345 746 348 745 L348 744 L348 744 Z " />
<glyph glyph-name="Scaron" unicode="&#x160;" horiz-adv-x="581" d="M289 905 L430 1044 L441 1034 L319 845 C314 836 299 815 289 815 C280 815 265 836 259 845 L137 1034 L149 1044 L289 905 L289 905 Z M346 743 C417 715 479 629 494 568 C497 555 499 546 499 546 C499 546 499 555 500 568 C501 580 501 589 501 589 L501 644 L501 645 L501 702 C501 702 501 713 500 730 C499 748 499 759 499 759 C499 759 497 748 494 730 C490 709 470 694 446 708 C401 741 338 761 269 761 C146 761 65 683 65 565 C65 471 139 381 281 327 C403 280 466 221 466 167 C466 65 404 -4 310 -4 C263 -4 216 13 175 43 C120 84 70 171 58 224 C55 237 53 246 53 246 C53 246 52 237 51 224 C51 212 50 203 50 203 L50 148 L50 139 L50 75 C50 75 51 61 51 39 C52 17 53 3 53 3 C53 3 55 17 58 39 C61 66 91 80 129 51 L130 51 C180 13 244 -9 310 -9 C449 -9 541 73 541 195 C541 287 472 374 338 425 C207 475 140 541 140 601 C140 695 191 757 269 757 C291 757 313 754 334 748 L333 748 C335 748 337 748 339 747 C345 745 351 743 357 741 L346 743 L346 743 Z M348 744 L336 748 C337 748 338 748 339 748 C342 747 345 746 348 745 L348 744 L348 744 Z " />
<glyph glyph-name="scaron" unicode="&#x161;" horiz-adv-x="471" d="M247 655 L388 794 L399 784 L278 595 C272 586 257 565 247 565 C238 565 223 586 218 595 L96 784 L107 794 L247 655 L247 655 Z M293 495 L287 496 C324 481 356 452 373 415 L376 416 C384 399 388 382 388 366 L388 350 C388 350 390 357 392 366 C394 376 396 383 396 383 L396 426 L396 433 L396 483 C396 483 394 488 392 497 C390 505 388 510 388 510 L388 481 C388 472 368 471 337 485 C307 501 269 511 229 511 C133 511 70 459 70 381 C70 309 124 247 229 219 C312 196 355 154 355 107 C355 39 312 -6 247 -6 C187 -6 125 38 94 105 L91 104 C83 122 79 139 79 154 L79 170 C79 170 77 164 75 154 C73 144 71 138 71 138 L71 95 L71 52 C71 52 73 44 75 31 C77 18 79 10 79 10 L79 31 C79 38 112 31 161 9 L163 9 C189 -2 218 -8 248 -8 C353 -8 422 48 422 132 C422 199 369 257 267 284 C177 309 131 357 131 411 C131 470 170 509 230 509 C250 509 269 505 287 498 L230 509 C253 509 274 504 293 496 L293 495 L293 495 Z " />
<glyph glyph-name="Tcaron" unicode="&#x164;" horiz-adv-x="806" d="M403 905 L544 1044 L555 1034 L433 845 C427 836 413 815 403 815 C394 815 379 836 373 845 L251 1034 L263 1044 L403 905 L403 905 Z M25 625 L40 664 C54 701 79 726 163 726 L356 726 L356 68 C356 18 331 8 293 8 L251 8 C251 8 261 6 277 4 C293 2 303 0 303 0 L403 0 L503 0 C503 0 514 2 529 4 C545 6 556 8 556 8 L513 8 C476 8 451 18 451 68 L451 726 L644 726 C728 726 753 701 766 664 L782 621 C782 621 780 632 776 648 C772 664 770 675 770 675 C765 689 758 708 753 722 C752 724 751 726 750 728 L750 751 L742 751 C740 758 738 765 736 771 C735 771 732 775 728 781 C724 787 721 791 720 791 L727 774 C732 760 719 751 635 751 L451 751 L356 751 L171 751 C88 751 75 760 80 774 L86 791 C86 791 83 787 78 781 C74 775 71 771 71 771 C69 765 67 758 65 751 L56 751 L56 727 L56 727 C56 726 56 725 56 724 C50 710 44 691 38 677 C38 677 36 666 32 650 C30 640 28 632 27 627 L25 625 L25 625 Z M27 627 C26 625 26 624 26 624 L27 627 L27 627 Z " />
<glyph glyph-name="tcaron" unicode="&#x165;" horiz-adv-x="397" d="M352 500 L184 500 L184 620 L178 620 L34 466 L34 456 L99 456 L99 160 C99 38 157 -10 243 -10 C307 -10 364 32 388 96 L377 100 C362 58 319 30 269 30 C216 30 181 61 182 141 L184 455 L352 455 L352 500 L352 500 Z M459 638 C475 678 486 720 486 743 C486 752 471 755 448 755 C430 755 419 693 415 648 L404 536 L419 533 L459 638 L459 638 Z " />
<glyph glyph-name="Utilde" unicode="&#x168;" horiz-adv-x="791" d="M229 870 C229 906 250 930 281 930 C348 930 416 865 483 865 C530 865 562 913 562 985 L559 985 C559 949 536 925 502 925 C435 925 367 990 300 990 C256 990 226 942 226 870 L229 870 L229 870 Z M677 98 L677 677 L677 750 L603 750 L529 750 C529 750 519 748 503 746 C487 744 477 742 477 742 L519 742 C557 742 582 732 582 677 L582 194 C542 108 450 51 353 51 C265 51 206 121 206 226 L206 677 L206 750 L133 750 L59 750 C59 750 48 748 33 746 C17 744 6 742 6 742 L49 742 C86 742 111 732 111 677 L111 226 C111 85 193 -10 315 -10 C430 -10 536 55 582 152 L582 98 L582 0 L597 0 L781 49 L781 53 C694 48 677 54 677 98 L677 98 Z " />
<glyph glyph-name="utilde" unicode="&#x169;" horiz-adv-x="635" d="M146 620 C146 656 167 680 199 680 C266 680 334 615 400 615 C448 615 479 663 479 735 L477 735 C477 699 454 675 420 675 C353 675 285 740 218 740 C174 740 144 692 144 620 L146 620 L146 620 Z M613 35 L573 26 C548 20 531 28 531 95 L531 477 L531 500 L472 500 L413 500 C413 500 406 498 396 496 C386 494 380 492 380 492 L422 492 C436 492 446 490 446 477 L446 129 C421 81 360 49 289 49 C222 49 178 95 178 165 L178 477 L178 500 L119 500 L60 500 C60 500 53 498 43 496 C33 494 27 492 27 492 L69 492 C83 492 93 490 93 477 L93 165 C93 60 155 -10 249 -10 C333 -10 411 43 446 124 L446 78 L446 -10 L461 -10 L573 18 C573 18 582 22 595 27 C603 31 609 34 613 35 L613 35 Z M613 35 C615 36 616 36 616 36 L613 35 L613 35 Z " />
<glyph glyph-name="Umacron" unicode="&#x16a;" horiz-adv-x="791" d="M220 895 L567 895 L567 954 L220 954 L220 895 L220 895 Z M677 98 L677 677 L677 750 L603 750 L529 750 C529 750 519 748 503 746 C487 744 477 742 477 742 L519 742 C557 742 582 732 582 677 L582 194 C542 108 450 51 353 51 C265 51 206 121 206 226 L206 677 L206 750 L133 750 L59 750 C59 750 48 748 33 746 C17 744 6 742 6 742 L49 742 C86 742 111 732 111 677 L111 226 C111 85 193 -10 315 -10 C430 -10 536 55 582 152 L582 98 L582 0 L597 0 L781 49 L781 53 C694 48 677 54 677 98 L677 98 Z " />
<glyph glyph-name="umacron" unicode="&#x16b;" horiz-adv-x="635" d="M138 645 L485 645 L485 704 L138 704 L138 645 L138 645 Z M613 35 L573 26 C548 20 531 28 531 95 L531 477 L531 500 L472 500 L413 500 C413 500 406 498 396 496 C386 494 380 492 380 492 L422 492 C436 492 446 490 446 477 L446 129 C421 81 360 49 289 49 C222 49 178 95 178 165 L178 477 L178 500 L119 500 L60 500 C60 500 53 498 43 496 C33 494 27 492 27 492 L69 492 C83 492 93 490 93 477 L93 165 C93 60 155 -10 249 -10 C333 -10 411 43 446 124 L446 78 L446 -10 L461 -10 L573 18 C573 18 582 22 595 27 C603 31 609 34 613 35 L613 35 Z M613 35 C615 36 616 36 616 36 L613 35 L613 35 Z " />
<glyph glyph-name="Ubreve" unicode="&#x16c;" horiz-adv-x="791" d="M242 994 C249 920 309 870 394 870 C479 870 539 919 546 992 L528 995 C524 956 471 930 394 930 C317 930 264 957 260 997 L242 994 L242 994 Z M677 98 L677 677 L677 750 L603 750 L529 750 C529 750 519 748 503 746 C487 744 477 742 477 742 L519 742 C557 742 582 732 582 677 L582 194 C542 108 450 51 353 51 C265 51 206 121 206 226 L206 677 L206 750 L133 750 L59 750 C59 750 48 748 33 746 C17 744 6 742 6 742 L49 742 C86 742 111 732 111 677 L111 226 C111 85 193 -10 315 -10 C430 -10 536 55 582 152 L582 98 L582 0 L597 0 L781 49 L781 53 C694 48 677 54 677 98 L677 98 Z " />
<glyph glyph-name="ubreve" unicode="&#x16d;" horiz-adv-x="635" d="M160 744 C167 670 227 620 312 620 C397 620 457 669 463 742 L446 745 C442 706 389 680 312 680 C235 680 182 707 178 747 L160 744 L160 744 Z M613 35 L573 26 C548 20 531 28 531 95 L531 477 L531 500 L472 500 L413 500 C413 500 406 498 396 496 C386 494 380 492 380 492 L422 492 C436 492 446 490 446 477 L446 129 C421 81 360 49 289 49 C222 49 178 95 178 165 L178 477 L178 500 L119 500 L60 500 C60 500 53 498 43 496 C33 494 27 492 27 492 L69 492 C83 492 93 490 93 477 L93 165 C93 60 155 -10 249 -10 C333 -10 411 43 446 124 L446 78 L446 -10 L461 -10 L573 18 C573 18 582 22 595 27 C603 31 609 34 613 35 L613 35 Z M613 35 C615 36 616 36 616 36 L613 35 L613 35 Z " />
<glyph glyph-name="Uring" unicode="&#x16e;" horiz-adv-x="791" d="M394 830 C355 830 321 865 321 905 C321 950 350 980 394 980 C437 980 466 950 466 905 C466 865 433 830 394 830 L394 830 Z M296 905 C296 854 341 810 394 810 C446 810 491 854 491 905 C491 962 452 1000 394 1000 C335 1000 296 962 296 905 L296 905 Z M677 98 L677 677 L677 750 L603 750 L529 750 C529 750 519 748 503 746 C487 744 477 742 477 742 L519 742 C557 742 582 732 582 677 L582 194 C542 108 450 51 353 51 C265 51 206 121 206 226 L206 677 L206 750 L133 750 L59 750 C59 750 48 748 33 746 C17 744 6 742 6 742 L49 742 C86 742 111 732 111 677 L111 226 C111 85 193 -10 315 -10 C430 -10 536 55 582 152 L582 98 L582 0 L597 0 L781 49 L781 53 C694 48 677 54 677 98 L677 98 Z " />
<glyph glyph-name="uring" unicode="&#x16f;" horiz-adv-x="635" d="M312 580 C272 580 239 615 239 655 C239 700 268 730 312 730 C355 730 384 700 384 655 C384 615 351 580 312 580 L312 580 Z M214 655 C214 604 259 560 312 560 C364 560 409 604 409 655 C409 712 370 750 312 750 C253 750 214 712 214 655 L214 655 Z M613 35 L573 26 C548 20 531 28 531 95 L531 477 L531 500 L472 500 L413 500 C413 500 406 498 396 496 C386 494 380 492 380 492 L422 492 C436 492 446 490 446 477 L446 129 C421 81 360 49 289 49 C222 49 178 95 178 165 L178 477 L178 500 L119 500 L60 500 C60 500 53 498 43 496 C33 494 27 492 27 492 L69 492 C83 492 93 490 93 477 L93 165 C93 60 155 -10 249 -10 C333 -10 411 43 446 124 L446 78 L446 -10 L461 -10 L573 18 C573 18 582 22 595 27 C603 31 609 34 613 35 L613 35 Z M613 35 C615 36 616 36 616 36 L613 35 L613 35 Z " />
<glyph glyph-name="Wcircumflex" unicode="&#x174;" horiz-adv-x="1167" d="M568 945 L708 806 L720 816 L598 1005 C592 1014 578 1035 568 1035 C559 1035 544 1014 538 1005 L416 816 L428 806 L568 945 L568 945 Z M509 702 L590 500 L590 500 L431 121 L225 635 C193 725 226 742 284 742 L323 742 C323 742 317 744 307 746 C297 748 291 750 291 750 L178 750 L168 750 L74 750 L44 750 C44 750 38 748 28 746 C18 744 12 742 12 742 L69 742 C73 742 82 728 109 663 L324 120 L376 -10 L401 -10 L606 461 L736 138 L796 -10 L821 -10 L1021 622 L1022 622 C1052 723 1080 742 1113 742 L1155 742 C1155 742 1148 744 1139 746 C1129 748 1122 750 1122 750 L1062 750 L1023 750 L1007 750 L891 750 C891 750 884 748 875 746 C865 744 858 742 858 742 L898 742 C969 742 1011 724 987 633 L839 137 L839 138 L632 665 C611 729 645 741 703 741 L743 741 C743 741 736 743 726 745 C717 747 710 749 710 749 L598 749 L569 749 L488 749 L428 749 C428 749 422 747 412 745 C402 743 396 741 396 741 L438 741 C470 741 494 735 507 701 L509 702 L509 702 Z " />
<glyph glyph-name="Ycircumflex" unicode="&#x176;" horiz-adv-x="765" d="M390 945 L531 806 L542 816 L420 1005 C415 1014 400 1035 390 1035 C381 1035 366 1014 360 1005 L238 816 L250 806 L390 945 L390 945 Z M260 622 L260 622 C194 723 208 742 247 742 L284 742 C284 742 278 744 268 746 C258 748 252 750 252 750 L179 750 L146 750 L67 750 L39 750 C39 750 33 748 23 746 C13 744 7 742 7 742 L64 742 C69 742 84 723 149 622 L150 622 L343 322 L343 68 C343 18 318 8 280 8 L238 8 C238 8 248 6 264 4 C280 2 290 0 290 0 L390 0 L490 0 C490 0 501 2 517 4 C532 6 543 8 543 8 L500 8 C463 8 438 18 438 68 L438 338 L610 635 C663 725 690 742 715 742 L757 742 C757 742 751 744 741 746 C731 748 725 750 725 750 L677 750 L669 750 L661 750 L597 750 C597 750 590 748 581 746 C571 744 564 742 564 742 L602 742 C638 742 654 727 613 652 L438 343 L260 622 L260 622 Z " />
<glyph glyph-name="Ydieresis" unicode="&#x178;" horiz-adv-x="765" d="M468 865 C501 865 523 887 523 920 C523 953 501 975 468 975 C435 975 413 953 413 920 C413 887 435 865 468 865 L468 865 Z M313 865 C346 865 368 887 368 920 C368 953 346 975 313 975 C280 975 258 953 258 920 C258 887 280 865 313 865 L313 865 Z M260 622 L260 622 C194 723 208 742 247 742 L284 742 C284 742 278 744 268 746 C258 748 252 750 252 750 L179 750 L146 750 L67 750 L39 750 C39 750 33 748 23 746 C13 744 7 742 7 742 L64 742 C69 742 84 723 149 622 L150 622 L343 322 L343 68 C343 18 318 8 280 8 L238 8 C238 8 248 6 264 4 C280 2 290 0 290 0 L390 0 L490 0 C490 0 501 2 517 4 C532 6 543 8 543 8 L500 8 C463 8 438 18 438 68 L438 338 L610 635 C663 725 690 742 715 742 L757 742 C757 742 751 744 741 746 C731 748 725 750 725 750 L677 750 L669 750 L661 750 L597 750 C597 750 590 748 581 746 C571 744 564 742 564 742 L602 742 C638 742 654 727 613 652 L438 343 L260 622 L260 622 Z " />
<glyph glyph-name="Zacute" unicode="&#x179;" horiz-adv-x="683" d="M363 812 L505 932 C544 965 569 989 569 996 C569 1019 550 1038 527 1038 C521 1038 498 1011 467 971 L353 823 L363 812 L363 812 Z M497 28 L497 28 L143 22 L641 730 L641 750 L548 750 L228 750 L70 750 C68 734 65 712 62 695 C60 679 57 657 55 641 C55 641 54 624 54 598 C53 571 52 554 52 554 L59 593 C71 672 103 724 224 724 L224 724 L533 728 L25 20 L25 0 L128 0 L490 0 L637 0 L650 52 L663 104 C663 104 665 120 669 143 C673 167 675 183 675 183 L662 138 C642 72 608 28 497 28 L497 28 Z " />
<glyph glyph-name="Zdot" unicode="&#x17b;" horiz-adv-x="683" d="M356 865 C389 865 411 887 411 920 C411 953 389 975 356 975 C323 975 301 953 301 920 C301 887 323 865 356 865 L356 865 Z M497 28 L497 28 L143 22 L641 730 L641 750 L548 750 L228 750 L70 750 C68 734 65 712 62 695 C60 679 57 657 55 641 C55 641 54 624 54 598 C53 571 52 554 52 554 L59 593 C71 672 103 724 224 724 L224 724 L533 728 L25 20 L25 0 L128 0 L490 0 L637 0 L650 52 L663 104 C663 104 665 120 669 143 C673 167 675 183 675 183 L662 138 C642 72 608 28 497 28 L497 28 Z " />
<glyph glyph-name="zdot" unicode="&#x17c;" horiz-adv-x="506" d="M275 615 C308 615 330 637 330 670 C330 703 308 725 275 725 C242 725 220 703 220 670 C220 637 242 615 275 615 L275 615 Z M108 538 C107 536 105 533 103 529 C99 523 96 519 96 519 C95 513 93 506 91 499 L84 499 L84 474 C84 473 84 472 84 471 C80 456 75 437 71 422 C71 422 69 412 65 397 C61 382 58 372 58 372 L77 415 C92 447 117 469 190 472 L198 472 C200 472 202 472 205 472 L205 472 L366 476 L42 19 L42 -1 L132 -1 L382 -1 L463 -1 C465 10 467 26 469 37 C470 48 472 64 474 75 L479 100 C482 115 484 125 483 125 L467 83 C456 53 433 32 358 26 L147 21 L467 478 L467 498 L381 498 L111 498 C106 498 100 502 101 508 L108 538 L108 538 Z M109 536 L109 538 C109 538 109 537 108 536 L109 536 L109 536 Z " />
<glyph glyph-name="Zcaron" unicode="&#x17d;" horiz-adv-x="683" d="M497 28 L497 28 L143 22 L641 730 L641 750 L548 750 L228 750 L70 750 C68 734 65 712 62 695 C60 679 57 657 55 641 C55 641 54 624 54 598 C53 571 52 554 52 554 L59 593 C71 672 103 724 224 724 L224 724 L533 728 L25 20 L25 0 L128 0 L490 0 L637 0 L650 52 L663 104 C663 104 665 120 669 143 C673 167 675 183 675 183 L662 138 C642 72 608 28 497 28 L497 28 Z M356 905 L496 1044 L508 1034 L386 845 C380 836 365 815 356 815 C346 815 332 836 326 845 L204 1034 L215 1044 L356 905 L356 905 Z " />
<glyph glyph-name="zcaron" unicode="&#x17e;" horiz-adv-x="506" d="M274 655 L415 794 L426 784 L305 595 C299 586 284 565 275 565 C265 565 250 586 245 595 L123 784 L134 794 L274 655 L274 655 Z M108 538 C107 536 105 533 103 529 C99 523 96 519 96 519 C95 513 93 506 91 499 L84 499 L84 474 C84 473 84 472 84 471 C80 456 75 437 71 422 C71 422 69 412 65 397 C61 382 58 372 58 372 L77 415 C92 447 117 469 190 472 L198 472 C200 472 202 472 205 472 L205 472 L366 476 L42 19 L42 -1 L132 -1 L382 -1 L463 -1 C465 10 467 26 469 37 C470 48 472 64 474 75 L479 100 C482 115 484 125 483 125 L467 83 C456 53 433 32 358 26 L147 21 L467 478 L467 498 L381 498 L111 498 C106 498 100 502 101 508 L108 538 L108 538 Z M109 536 L109 538 C109 538 109 537 108 536 L109 536 L109 536 Z " />
<glyph glyph-name="oogonek" unicode="&#x1eb;" horiz-adv-x="787" d="M1040 -54 L1039 -53 C1010 -77 899 -94 761 -94 C627 -94 472 -61 362 -9 C368 -10 374 -10 379 -10 C593 -10 736 111 736 292 C736 472 597 593 389 593 C187 593 52 472 52 292 C52 168 159 72 258 24 C448 -79 645 -148 751 -148 C857 -148 972 -111 1039 -55 L1040 -54 L1040 -54 Z M380 -8 C368 -8 353 -4 337 3 C335 4 333 5 331 6 L328 7 C251 43 148 148 148 292 C148 471 244 590 387 590 C537 590 637 471 637 292 C637 112 534 -7 379 -7 L380 -8 L380 -8 Z " />
<glyph glyph-name="Adotabove" unicode="&#x226;" horiz-adv-x="808" d="M420 865 C453 865 475 887 475 920 C475 953 453 975 420 975 C387 975 365 953 365 920 C365 887 387 865 420 865 L420 865 Z M670 128 L669 128 L467 720 L450 770 L440 770 C421 743 394 723 372 720 L375 710 L375 710 L194 147 C155 30 111 7 57 7 L14 7 C14 7 21 5 31 3 C40 1 47 -1 47 -1 L147 -1 L151 -1 L165 -1 L284 -1 C284 -1 290 1 300 3 C310 5 316 7 316 7 L276 7 C203 7 162 31 202 157 L202 157 L246 294 L516 294 L574 123 C606 26 575 8 520 8 L481 8 C481 8 487 6 497 4 C507 2 513 0 513 0 L616 0 L644 0 L715 0 L775 0 C775 0 782 2 791 4 C801 6 808 8 808 8 L765 8 C733 8 706 27 672 128 L670 128 L670 128 Z M248 299 L379 706 L516 299 L248 299 L248 299 Z " />
<glyph glyph-name="G_sc" unicode="&#x262;" horiz-adv-x="759" d="M547 563 L547 563 C508 582 457 593 382 593 C185 593 54 472 54 292 C54 111 185 -10 382 -10 C455 -10 519 1 579 19 L620 28 L620 33 C644 42 668 52 692 63 L691 64 C670 54 647 45 621 37 L621 185 C621 235 638 245 664 245 L706 245 C706 245 697 247 685 249 C672 251 663 253 663 253 L574 253 L485 253 C485 253 475 251 460 249 C445 247 435 245 435 245 L478 245 C512 245 535 235 535 185 L536 101 C534 47 476 11 390 11 C246 11 150 123 150 292 C150 471 244 590 384 590 C425 590 459 584 488 573 C557 545 617 465 629 409 C632 397 634 388 634 388 C634 388 635 397 636 409 C637 422 637 431 637 431 L637 489 L637 490 L637 548 C637 548 637 555 636 566 C635 576 634 583 634 583 C634 583 632 572 629 555 C627 542 594 542 549 563 L547 563 L547 563 Z " />
<glyph glyph-name="I_sc" unicode="&#x26a;" horiz-adv-x="377" d="M233 68 L233 516 C233 566 258 576 295 576 L338 576 C338 576 327 577 312 579 C296 582 285 583 285 583 L190 583 L95 583 C95 583 84 582 69 579 C53 577 42 576 42 576 L85 576 C122 576 147 566 147 516 L147 68 C147 18 122 8 85 8 L42 8 C42 8 53 6 69 4 C84 2 95 0 95 0 L190 0 L285 0 C285 0 296 2 312 4 C327 6 338 8 338 8 L295 8 C258 8 233 18 233 68 L233 68 Z " />
<glyph glyph-name="N_sc" unicode="&#x274;" horiz-adv-x="730" d="M164 128 L163 128 L161 479 L482 94 L561 -1 L578 -1 L584 475 L584 475 C583 559 616 575 666 575 L709 575 C709 575 696 576 677 578 C659 581 646 582 646 582 L585 582 L572 582 L559 582 L497 582 C497 582 485 581 466 578 C447 576 435 575 435 575 L477 575 C523 575 555 561 560 492 L561 102 L534 136 L180 583 L160 583 L139 583 L114 583 L74 583 L48 583 C48 583 41 582 32 579 C22 577 15 576 15 576 L73 576 C76 576 81 572 95 557 L139 505 L138 137 L138 137 C138 28 105 7 55 7 L13 7 C13 7 19 5 29 3 C39 1 45 -1 45 -1 L138 -1 L150 -1 L163 -1 L256 -1 C256 -1 262 1 272 3 C282 5 288 7 288 7 L246 7 C196 7 162 26 163 127 L164 128 L164 128 Z " />
<glyph glyph-name="R_sc" unicode="&#x280;" horiz-adv-x="700" d="M691 0 L691 7 C611 7 607 9 573 53 C490 162 427 245 400 281 C492 297 549 341 549 418 C549 517 455 583 314 583 L234 583 L165 583 L96 583 C96 583 86 582 70 579 C54 577 44 576 44 576 L86 576 C124 576 149 566 149 511 L149 73 C149 18 124 8 86 8 L44 8 C44 8 54 6 70 4 C86 2 96 0 96 0 L191 0 L287 0 C287 0 297 2 313 4 C329 6 339 8 339 8 L297 8 C259 8 234 18 234 73 L234 274 L311 274 C330 244 390 161 473 52 C511 1 520 -1 691 -1 L691 0 L691 0 Z M234 565 L289 565 C389 565 455 513 455 434 C455 338 399 295 314 295 L234 295 L234 510 L234 565 L234 565 Z " />
<glyph glyph-name="Y_sc" unicode="&#x28f;" horiz-adv-x="669" d="M241 478 C189 560 203 576 239 576 L276 576 C276 576 269 577 259 579 C250 582 243 583 243 583 L171 583 L143 583 L70 583 L43 583 C43 583 36 582 26 579 C17 577 10 576 10 576 L67 576 C71 576 83 562 129 496 L299 248 L299 68 C299 18 274 8 236 8 L194 8 C194 8 205 6 220 4 C236 2 247 0 247 0 L342 0 L437 0 C437 0 448 2 463 4 C479 6 490 8 490 8 L447 8 C410 8 385 18 385 68 L385 262 L526 493 C571 562 596 576 618 576 L660 576 C660 576 654 577 644 579 C634 582 628 583 628 583 L580 583 L573 583 L564 583 L501 583 C501 583 494 582 485 579 C475 577 468 576 468 576 L506 576 C542 576 557 560 510 479 L383 267 L241 478 L241 478 Z " />
<glyph glyph-name="B_sc" unicode="&#x299;" horiz-adv-x="611" d="M234 581 L298 581 C432 581 463 522 463 435 C463 354 411 301 334 301 L234 301 L234 511 L234 581 L234 581 Z M383 301 C484 314 548 368 548 444 C548 527 501 583 303 583 L234 583 L165 583 L96 583 C96 583 86 582 70 579 C54 577 44 576 44 576 L86 576 C124 576 149 566 149 511 L149 73 C149 18 124 8 86 8 L44 8 C44 8 54 6 70 4 C86 2 96 0 96 0 L165 0 L234 0 L354 0 C485 0 572 29 572 150 C572 240 497 300 383 301 L383 301 Z M335 298 L371 298 C435 298 478 239 478 150 C478 31 427 3 351 3 L301 3 C261 3 234 23 234 52 L234 73 L234 298 L335 298 L335 298 Z " />
<glyph glyph-name="H_sc" unicode="&#x29c;" horiz-adv-x="801" d="M657 68 L657 516 C657 566 682 576 719 576 L762 576 C762 576 751 577 736 579 C720 582 709 583 709 583 L614 583 L519 583 C519 583 508 582 493 579 C477 577 466 576 466 576 L509 576 C546 576 571 566 571 516 L571 300 L270 300 L270 516 C270 566 295 576 333 576 L375 576 C375 576 365 577 349 579 C333 582 323 583 323 583 L227 583 L132 583 C132 583 122 582 106 579 C90 577 80 576 80 576 L122 576 C160 576 185 566 185 516 L185 68 C185 18 160 8 122 8 L80 8 C80 8 90 6 106 4 C122 2 132 0 132 0 L227 0 L323 0 C323 0 333 2 349 4 C365 6 375 8 375 8 L333 8 C295 8 270 18 270 68 L270 296 L571 296 L571 68 C571 18 546 8 509 8 L466 8 C466 8 477 6 493 4 C508 2 519 0 519 0 L614 0 L709 0 C709 0 720 2 736 4 C751 6 762 8 762 8 L719 8 C682 8 657 18 657 68 L657 68 Z " />
<glyph glyph-name="L_sc" unicode="&#x29f;" horiz-adv-x="595" d="M556 176 L545 137 C525 64 486 15 347 15 L285 15 C238 15 233 30 233 52 L233 73 L233 511 C233 566 258 576 295 576 L338 576 C338 576 327 577 312 579 C296 582 285 583 285 583 L233 583 L190 583 L147 583 L95 583 C95 583 84 582 69 579 C53 577 42 576 42 576 L85 576 C122 576 147 566 147 511 L147 73 C147 18 122 8 85 8 L42 8 C42 8 53 6 69 4 C84 2 95 0 95 0 L147 0 L164 0 L233 0 L344 0 L516 0 L520 0 L520 14 C523 25 526 37 529 47 C533 61 538 80 542 94 C542 94 545 111 549 136 C552 154 554 168 555 175 L556 176 L556 176 Z M555 175 C556 178 556 180 556 180 L555 175 L555 175 Z " />
<glyph glyph-name="A_sc" unicode="&#x1d00;" horiz-adv-x="720" d="M578 128 L578 128 L418 562 L403 603 L394 603 C379 582 355 565 333 562 L337 552 L336 552 L226 233 L226 233 L226 232 L200 158 L200 158 C157 32 112 8 56 8 L14 8 C14 8 20 6 30 4 C40 2 46 0 46 0 L146 0 L150 0 L164 0 L282 0 C282 0 289 2 299 4 C308 6 315 8 315 8 L275 8 C204 8 163 30 200 145 L229 229 L453 229 L492 122 C525 27 495 9 440 9 L400 9 C400 9 407 7 417 5 C426 3 433 1 433 1 L535 1 L559 1 L625 1 L685 1 C685 1 691 3 701 5 C711 7 717 9 717 9 L675 9 C643 9 615 28 578 129 L578 128 L578 128 Z M230 234 L338 550 L451 234 L230 234 L230 234 Z " />
<glyph glyph-name="C_sc" unicode="&#x1d04;" horiz-adv-x="679" d="M547 563 L547 563 C508 582 457 593 382 593 C185 593 54 472 54 292 C54 111 181 -10 373 -10 C445 -10 500 1 543 21 L543 21 C586 41 622 26 628 3 C633 -14 636 -26 636 -26 L636 3 L636 33 L636 93 L636 152 C636 152 635 161 635 174 C634 186 633 195 633 195 C633 195 631 186 628 174 C616 124 560 45 497 17 L497 17 C462 2 422 -7 374 -7 C239 -7 149 112 149 292 C149 471 243 590 383 590 C424 590 458 584 487 573 C556 545 616 465 628 409 C631 397 633 388 633 388 C633 388 634 397 635 409 C636 422 636 431 636 431 L636 489 L636 490 L636 548 C636 548 636 555 635 566 C634 576 633 583 633 583 C633 583 631 572 628 555 C626 542 593 542 548 563 L547 563 L547 563 Z " />
<glyph glyph-name="D_sc" unicode="&#x1d05;" horiz-adv-x="790" d="M149 511 L149 73 C149 18 124 8 86 8 L44 8 C44 8 54 6 70 4 C86 2 96 0 96 0 L149 0 L165 0 L234 0 L299 0 C561 0 735 99 735 292 C735 466 598 583 331 583 L234 583 L165 583 L149 583 L96 583 C96 583 86 582 70 579 C54 577 44 576 44 576 L86 576 C124 576 149 566 149 511 L149 511 Z M234 581 L321 581 C532 581 641 465 641 292 C641 101 503 3 295 3 C240 3 234 23 234 52 L234 73 L234 511 L234 581 L234 581 Z " />
<glyph glyph-name="E_sc" unicode="&#x1d07;" horiz-adv-x="603" d="M423 0 L531 0 C532 10 534 23 536 33 C537 42 539 55 540 65 C540 65 540 78 541 96 L541 128 L535 85 C528 36 507 3 424 3 L286 3 C239 3 234 23 234 52 L234 73 L234 299 L338 299 C422 299 438 260 438 202 L438 159 C438 159 440 173 442 194 C444 215 446 229 446 229 L446 299 L446 301 L446 302 L446 372 C446 372 444 386 442 407 C440 428 438 442 438 442 L438 400 C438 341 422 302 338 302 L234 302 L234 511 L234 581 L399 581 C499 581 501 543 505 486 L507 456 C507 456 508 468 509 487 C510 506 511 518 511 518 C510 528 509 541 508 551 C508 560 507 574 506 583 L398 583 L234 583 L165 583 L149 583 L96 583 C96 583 86 582 70 579 C54 577 44 576 44 576 L86 576 C124 576 149 566 149 511 L149 73 C149 18 124 8 86 8 L44 8 C44 8 54 6 70 4 C86 2 96 0 96 0 L149 0 L165 0 L234 0 L423 0 L423 0 Z " />
<glyph glyph-name="J_sc" unicode="&#x1d0a;" horiz-adv-x="377" d="M147 516 L147 -59 C147 -190 81 -215 34 -215 C-9 -215 10 -143 -34 -143 C-58 -143 -74 -159 -74 -184 C-74 -206 -32 -220 31 -220 C116 -220 233 -168 233 103 L233 516 C233 566 258 576 295 576 L338 576 C338 576 327 577 312 579 C296 582 285 583 285 583 L190 583 L95 583 C95 583 84 582 69 579 C53 577 42 576 42 576 L85 576 C122 576 147 566 147 516 L147 516 Z " />
<glyph glyph-name="K_sc" unicode="&#x1d0b;" horiz-adv-x="704" d="M553 73 L553 73 L303 344 L470 520 C518 566 547 576 574 576 L617 576 C617 576 610 577 600 579 C591 582 584 583 584 583 L529 583 L496 583 L486 583 L389 583 C389 583 382 582 373 579 C363 577 356 576 356 576 L392 576 C447 576 470 559 393 469 L234 292 L234 523 C234 568 259 576 297 576 L339 576 C339 576 329 577 313 579 C297 582 287 583 287 583 L234 583 L191 583 L149 583 L96 583 C96 583 86 582 70 579 C54 577 44 576 44 576 L86 576 C124 576 149 568 149 523 L149 60 C149 16 124 8 86 8 L44 8 C44 8 54 6 70 4 C86 2 96 0 96 0 L149 0 L191 0 L234 0 L287 0 C287 0 297 2 313 4 C329 6 339 8 339 8 L297 8 C259 8 234 16 234 60 L234 292 L513 0 L589 0 L620 0 L665 0 C665 0 672 2 681 4 C691 6 698 8 698 8 L647 8 C628 8 584 40 553 73 L553 73 Z " />
<glyph glyph-name="M_sc" unicode="&#x1d0d;" horiz-adv-x="839" d="M740 73 L740 73 L725 427 L726 426 C722 552 746 576 782 576 L824 576 C824 576 818 577 808 579 C798 582 792 583 792 583 L719 583 L715 583 L668 583 L638 583 L455 114 L235 583 L176 583 L155 583 L149 583 L133 583 L64 583 C64 583 57 582 47 579 C38 577 31 576 31 576 L73 576 C104 576 130 569 153 535 L138 137 L138 137 C134 28 100 7 50 7 L8 7 C8 7 14 5 24 3 C34 1 40 -1 40 -1 L133 -1 L148 -1 L162 -1 L255 -1 C255 -1 261 1 271 3 C281 5 287 7 287 7 L245 7 C197 7 165 25 165 117 L174 496 L355 113 L410 -1 L431 -1 L640 514 L655 61 C653 16 628 7 592 7 L550 7 C550 7 560 5 576 3 C592 1 602 -1 602 -1 L657 -1 L697 -1 L743 -1 L792 -1 C792 -1 803 1 818 3 C834 5 845 7 845 7 L802 7 C766 7 742 17 740 72 L740 73 L740 73 Z " />
<glyph glyph-name="O_sc" unicode="&#x1d0f;" horiz-adv-x="792" d="M381 -7 C242 -7 150 112 150 292 C150 471 246 590 389 590 C539 590 639 471 639 292 C639 112 536 -7 381 -7 L381 -7 Z M53 292 C53 111 184 -10 380 -10 C594 -10 737 111 737 292 C737 472 598 593 390 593 C188 593 53 472 53 292 L53 292 Z " />
<glyph glyph-name="P_sc" unicode="&#x1d18;" horiz-adv-x="550" d="M213 0 L256 0 L308 0 C308 0 319 2 334 4 C350 6 361 8 361 8 L318 8 C281 8 256 18 256 73 L256 266 L296 266 C437 266 531 313 531 419 C531 517 453 583 336 583 L256 583 L187 583 L170 583 L118 583 C118 583 107 582 91 579 C76 577 65 576 65 576 L107 576 C145 576 170 566 170 511 L170 73 C170 18 145 8 107 8 L65 8 C65 8 76 6 91 4 C107 2 118 0 118 0 L170 0 L213 0 L213 0 Z M256 284 L256 511 L256 569 L315 569 C396 569 450 515 450 433 C450 330 388 284 296 284 L256 284 L256 284 Z " />
<glyph glyph-name="T_sc" unicode="&#x1d1b;" horiz-adv-x="736" d="M25 461 L40 499 C54 537 79 562 163 562 L326 562 L326 68 C326 18 301 8 263 8 L221 8 C221 8 231 6 247 4 C263 2 273 0 273 0 L368 0 L464 0 C464 0 474 2 490 4 C506 6 516 8 516 8 L474 8 C436 8 411 18 411 68 L411 562 L574 562 C658 562 683 537 697 499 L712 457 C712 457 710 468 707 484 C703 500 701 511 701 511 C696 525 689 543 684 557 C683 559 682 561 681 563 L681 583 L673 583 C670 590 667 597 665 603 C665 603 662 607 657 613 C653 619 650 623 650 623 L656 606 C661 592 648 583 564 583 L409 583 L324 583 L168 583 C85 583 72 592 77 606 L83 623 C83 623 80 619 75 613 C71 607 68 603 68 603 C66 597 63 590 60 583 L52 583 L52 563 C51 561 50 559 49 557 C44 543 37 525 32 511 C32 511 30 500 26 484 C24 473 22 465 21 461 L25 461 L25 461 Z M21 461 C20 459 20 458 20 458 L21 461 L21 461 Z " />
<glyph glyph-name="U_sc" unicode="&#x1d1c;" horiz-adv-x="690" d="M576 98 L576 511 L576 583 L507 583 L438 583 C438 583 427 582 411 579 C396 577 385 576 385 576 L427 576 C465 576 490 566 490 511 L490 170 C455 95 376 45 292 45 C236 45 199 109 199 205 L199 511 L199 583 L130 583 L61 583 C61 583 51 582 35 579 C19 577 9 576 9 576 L51 576 C89 576 114 566 114 511 L114 205 C114 76 172 -10 258 -10 C358 -10 450 47 490 132 L490 98 L490 0 L504 0 L680 49 L680 53 C593 48 576 54 576 98 L576 98 Z " />
<glyph glyph-name="V_sc" unicode="&#x1d20;" horiz-adv-x="741" d="M87 558 L288 124 L350 -10 L367 -10 L597 494 C631 562 657 576 686 576 L728 576 C728 576 722 577 712 579 C702 582 696 583 696 583 L637 583 L603 583 L583 583 L470 583 C470 583 464 582 454 579 C444 577 438 576 438 576 L477 576 C550 576 591 557 548 456 L549 456 L350 -10 L407 124 L238 456 L239 456 C192 557 230 576 300 576 L339 576 C339 576 332 577 322 579 C313 582 306 583 306 583 L176 583 L174 583 L75 583 L46 583 C46 583 40 582 30 579 C20 577 14 576 14 576 L71 576 C75 576 79 573 87 558 L87 558 Z " />
<glyph glyph-name="W_sc" unicode="&#x1d21;" horiz-adv-x="1017" d="M439 546 L508 389 L386 109 L223 470 C188 559 220 576 278 576 L317 576 C317 576 310 577 300 579 C291 582 284 583 284 583 L172 583 L166 583 L77 583 L48 583 C48 583 42 582 32 579 C22 577 16 576 16 576 L73 576 C77 576 84 566 103 524 L284 108 L335 -10 L357 -10 L524 355 L625 124 L684 -10 L706 -10 L881 489 C910 561 935 576 964 576 L1006 576 C1006 576 1000 577 990 579 C980 582 974 583 974 583 L914 583 L879 583 L860 583 L746 583 C746 583 740 582 730 579 C720 577 714 576 714 576 L753 576 C827 576 870 557 837 456 L837 456 L728 124 L728 124 L566 486 L567 486 C534 562 569 576 630 576 L668 576 C668 576 662 577 652 579 C642 582 636 583 636 583 L523 583 L501 583 L424 583 L365 583 C365 583 359 582 349 579 C339 577 333 576 333 576 L375 576 C404 576 426 571 440 545 L439 546 L439 546 Z " />
<glyph glyph-name="Z_sc" unicode="&#x1d22;" horiz-adv-x="614" d="M426 25 L426 25 L134 20 L572 565 L572 583 L488 583 L228 583 L70 583 C68 568 65 546 63 530 C60 514 57 493 55 477 C55 477 55 460 54 434 C53 407 53 390 53 390 L59 430 C71 508 103 560 224 560 L224 560 L472 563 L25 17 L25 -1 L118 -1 L420 -1 L568 -1 C572 14 577 34 580 49 C584 64 589 84 593 100 C593 100 596 116 599 139 C603 163 605 179 605 179 L592 134 C572 68 537 24 426 24 L426 25 L426 25 Z " />
<glyph glyph-name="Wgrave" unicode="&#x1e80;" horiz-adv-x="1167" d="M467 971 C437 1011 414 1038 407 1038 C384 1038 364 1019 364 996 C364 988 390 964 428 932 L570 812 L581 823 L467 971 L467 971 Z M509 702 L590 500 L590 500 L431 121 L225 635 C193 725 226 742 284 742 L323 742 C323 742 317 744 307 746 C297 748 291 750 291 750 L178 750 L168 750 L74 750 L44 750 C44 750 38 748 28 746 C18 744 12 742 12 742 L69 742 C73 742 82 728 109 663 L324 120 L376 -10 L401 -10 L606 461 L736 138 L796 -10 L821 -10 L1021 622 L1022 622 C1052 723 1080 742 1113 742 L1155 742 C1155 742 1148 744 1139 746 C1129 748 1122 750 1122 750 L1062 750 L1023 750 L1007 750 L891 750 C891 750 884 748 875 746 C865 744 858 742 858 742 L898 742 C969 742 1011 724 987 633 L839 137 L839 138 L632 665 C611 729 645 741 703 741 L743 741 C743 741 736 743 726 745 C717 747 710 749 710 749 L598 749 L569 749 L488 749 L428 749 C428 749 422 747 412 745 C402 743 396 741 396 741 L438 741 C470 741 494 735 507 701 L509 702 L509 702 Z " />
<glyph glyph-name="Wacute" unicode="&#x1e82;" horiz-adv-x="1167" d="M576 812 L718 932 C756 965 782 989 782 996 C782 1019 762 1038 739 1038 C733 1038 710 1011 679 971 L565 823 L576 812 L576 812 Z M509 702 L590 500 L590 500 L431 121 L225 635 C193 725 226 742 284 742 L323 742 C323 742 317 744 307 746 C297 748 291 750 291 750 L178 750 L168 750 L74 750 L44 750 C44 750 38 748 28 746 C18 744 12 742 12 742 L69 742 C73 742 82 728 109 663 L324 120 L376 -10 L401 -10 L606 461 L736 138 L796 -10 L821 -10 L1021 622 L1022 622 C1052 723 1080 742 1113 742 L1155 742 C1155 742 1148 744 1139 746 C1129 748 1122 750 1122 750 L1062 750 L1023 750 L1007 750 L891 750 C891 750 884 748 875 746 C865 744 858 742 858 742 L898 742 C969 742 1011 724 987 633 L839 137 L839 138 L632 665 C611 729 645 741 703 741 L743 741 C743 741 736 743 726 745 C717 747 710 749 710 749 L598 749 L569 749 L488 749 L428 749 C428 749 422 747 412 745 C402 743 396 741 396 741 L438 741 C470 741 494 735 507 701 L509 702 L509 702 Z " />
<glyph glyph-name="Wdieresis" unicode="&#x1e84;" horiz-adv-x="1167" d="M645 865 C678 865 700 887 700 920 C700 953 678 975 645 975 C612 975 590 953 590 920 C590 887 612 865 645 865 L645 865 Z M491 865 C524 865 546 887 546 920 C546 953 524 975 491 975 C458 975 436 953 436 920 C436 887 458 865 491 865 L491 865 Z M509 702 L590 500 L590 500 L431 121 L225 635 C193 725 226 742 284 742 L323 742 C323 742 317 744 307 746 C297 748 291 750 291 750 L178 750 L168 750 L74 750 L44 750 C44 750 38 748 28 746 C18 744 12 742 12 742 L69 742 C73 742 82 728 109 663 L324 120 L376 -10 L401 -10 L606 461 L736 138 L796 -10 L821 -10 L1021 622 L1022 622 C1052 723 1080 742 1113 742 L1155 742 C1155 742 1148 744 1139 746 C1129 748 1122 750 1122 750 L1062 750 L1023 750 L1007 750 L891 750 C891 750 884 748 875 746 C865 744 858 742 858 742 L898 742 C969 742 1011 724 987 633 L839 137 L839 138 L632 665 C611 729 645 741 703 741 L743 741 C743 741 736 743 726 745 C717 747 710 749 710 749 L598 749 L569 749 L488 749 L428 749 C428 749 422 747 412 745 C402 743 396 741 396 741 L438 741 C470 741 494 735 507 701 L509 702 L509 702 Z " />
<glyph glyph-name="Etilde" unicode="&#x1ebc;" horiz-adv-x="680" d="M199 870 C199 906 220 930 251 930 C318 930 386 865 453 865 C500 865 532 913 532 985 L530 985 C530 949 507 925 473 925 C406 925 338 990 271 990 C227 990 197 942 197 870 L199 870 L199 870 Z M500 0 L608 0 C609 10 611 23 612 33 C614 43 616 56 617 66 L617 97 C618 116 618 128 618 128 L612 86 C605 36 584 3 500 3 L293 3 C246 3 241 23 241 52 L241 73 L241 385 L415 385 C499 385 515 346 515 287 L515 245 C515 245 517 259 519 280 C521 301 523 315 523 315 L523 385 L523 387 L523 388 L523 458 C523 458 521 472 519 493 C517 514 515 528 515 528 L515 486 C515 427 499 388 415 388 L241 388 L241 677 L241 747 L475 747 C576 747 578 709 582 652 L584 622 C584 622 585 634 586 653 C587 672 587 684 587 684 C587 694 586 707 585 717 C584 727 584 740 583 750 L475 750 L241 750 L168 750 L146 750 L94 750 C94 750 83 748 68 746 C52 744 41 742 41 742 L84 742 C121 742 146 732 146 677 L146 73 C146 18 121 8 84 8 L41 8 C41 8 52 6 68 4 C83 2 94 0 94 0 L146 0 L168 0 L241 0 L500 0 L500 0 Z " />
<glyph glyph-name="Ygrave" unicode="&#x1ef2;" horiz-adv-x="765" d="M289 971 C259 1011 236 1038 229 1038 C206 1038 187 1019 187 996 C187 988 212 964 251 932 L393 812 L403 823 L289 971 L289 971 Z M260 622 L260 622 C194 723 208 742 247 742 L284 742 C284 742 278 744 268 746 C258 748 252 750 252 750 L179 750 L146 750 L67 750 L39 750 C39 750 33 748 23 746 C13 744 7 742 7 742 L64 742 C69 742 84 723 149 622 L150 622 L343 322 L343 68 C343 18 318 8 280 8 L238 8 C238 8 248 6 264 4 C280 2 290 0 290 0 L390 0 L490 0 C490 0 501 2 517 4 C532 6 543 8 543 8 L500 8 C463 8 438 18 438 68 L438 338 L610 635 C663 725 690 742 715 742 L757 742 C757 742 751 744 741 746 C731 748 725 750 725 750 L677 750 L669 750 L661 750 L597 750 C597 750 590 748 581 746 C571 744 564 742 564 742 L602 742 C638 742 654 727 613 652 L438 343 L260 622 L260 622 Z " />
<glyph glyph-name="quoteleft" unicode="&#x2018;" horiz-adv-x="668" d="" />
<glyph glyph-name="quoteright" unicode="&#x2019;" horiz-adv-x="136" d="" />
<glyph glyph-name="quotedblleft" unicode="&#x201c;" horiz-adv-x="668" d="M217 640 C207 640 199 636 193 628 C193 629 193 630 193 631 C193 675 218 723 257 750 L247 761 C199 727 167 669 167 615 C167 583 187 561 217 561 C241 561 257 577 257 601 C257 625 241 641 217 641 L217 640 L217 640 Z " />
<glyph glyph-name="quotedblright" unicode="&#x201d;" horiz-adv-x="668" d="M241 692 C240 649 216 601 181 572 L192 561 C237 599 267 659 267 712 C267 741 247 761 217 761 C193 761 177 745 177 721 C177 697 193 681 217 681 C227 681 235 685 241 693 L241 692 L241 692 Z " />
<glyph glyph-name="Euro" unicode="&#x20ac;" horiz-adv-x="824" d="M692 711 L692 711 C643 742 579 760 482 760 C284 760 143 643 110 461 L65 461 L56 400 L103 400 C103 392 103 384 103 376 C103 368 103 360 103 352 L56 352 L47 291 L109 291 C141 109 278 -8 470 -8 C568 -8 639 12 695 46 C735 66 766 54 772 32 C777 14 780 2 780 2 L780 32 L780 61 L780 121 L780 122 L780 183 C780 183 779 191 779 204 C778 217 777 225 777 225 C777 225 775 217 772 204 C761 157 705 75 641 38 L641 38 C593 10 538 -6 472 -6 C333 -6 234 110 210 290 L533 290 L541 351 L205 351 C205 359 205 367 205 375 C205 383 205 391 205 399 L541 399 L550 460 L211 460 C235 640 338 755 483 755 C543 755 590 743 630 722 C700 684 761 599 773 547 C776 534 778 526 778 526 C778 526 778 534 779 547 C780 560 780 568 780 568 L780 628 L780 630 L780 687 C780 687 780 699 779 716 C778 733 778 745 778 745 C778 745 776 733 773 716 C769 694 735 684 692 711 L692 711 Z " />
<glyph glyph-name="F_sc" unicode="&#xa730;" horiz-adv-x="578" d="M510 460 C510 465 511 475 512 488 C512 507 513 520 513 520 C512 530 511 542 510 552 C509 561 508 574 507 583 L399 583 L235 583 L166 583 L150 583 L97 583 C97 583 87 582 71 579 C55 577 45 576 45 576 L87 576 C125 576 150 566 150 511 L150 73 C150 18 125 8 87 8 L45 8 C45 8 55 6 71 4 C87 2 97 0 97 0 L150 0 L192 0 L235 0 L288 0 C288 0 298 2 314 4 C330 6 340 8 340 8 L298 8 C260 8 235 18 235 73 L235 296 L364 296 C416 286 429 251 431 202 L433 154 C433 154 434 169 435 191 C436 212 437 227 437 227 L437 296 L437 299 L437 370 C437 370 436 384 435 406 C434 427 433 441 433 441 L431 393 C429 337 411 299 329 299 L235 299 L235 511 L235 581 L320 581 C470 581 502 548 507 498 L510 460 L510 460 Z M511 460 L511 456 C511 456 511 458 511 461 L511 460 L511 460 Z " />
<glyph glyph-name="S_sc" unicode="&#xa731;" horiz-adv-x="510" d="M369 562 L368 562 C333 581 287 592 238 592 C135 592 67 530 67 437 C67 366 128 294 246 246 C350 205 403 160 403 125 C403 46 350 -7 271 -7 C242 -7 213 0 186 12 L187 12 C127 39 71 129 57 188 C54 201 52 209 52 209 C52 209 52 201 51 188 C50 175 50 167 50 167 L50 113 L50 104 L50 40 C50 40 50 26 51 4 C52 -18 52 -32 52 -32 C52 -32 54 -18 57 4 C61 31 93 48 133 25 L134 25 C173 2 220 -11 270 -11 C390 -11 470 53 470 150 C470 220 411 289 296 335 C188 378 133 428 133 470 C133 541 175 589 237 589 C263 589 288 584 311 575 L289 580 C353 555 407 483 420 425 C423 413 425 404 425 404 C425 404 426 413 427 425 C427 438 428 447 428 447 L428 501 L428 502 L428 558 C428 558 427 565 427 576 C426 586 425 593 425 593 C425 593 423 582 420 565 C418 551 396 546 367 562 L369 562 L369 562 Z M289 580 L252 589 C264 588 276 585 288 580 L289 580 L289 580 Z " />
<glyph glyph-name="X_sc" unicode="&#xf078;" horiz-adv-x="727" d="M543 128 L542 128 L396 325 L600 545 C630 569 651 576 670 576 L713 576 C713 576 706 577 696 579 C687 582 680 583 680 583 L635 583 L596 583 L587 583 L494 583 C494 583 487 582 477 579 C468 577 461 576 461 576 L497 576 C551 576 572 557 498 460 L394 330 L300 457 L301 457 C226 558 245 577 294 577 L331 577 C331 577 325 578 315 580 C305 583 299 584 299 584 L206 584 L183 584 L105 584 L68 584 C68 584 62 583 52 580 C42 578 36 577 36 577 L82 577 C96 577 117 563 168 498 L333 275 L194 109 L194 109 C124 25 86 9 48 9 L6 9 C6 9 12 7 22 5 C32 3 38 1 38 1 L104 1 L139 1 L165 1 L291 1 C291 1 298 3 307 5 C317 7 324 9 324 9 L287 9 C204 9 162 27 231 118 L241 130 C243 133 245 136 248 139 L247 139 L343 261 L441 129 L441 129 C516 28 497 9 447 9 L411 9 C411 9 417 7 427 5 C437 3 443 1 443 1 L536 1 L564 1 L637 1 L684 1 C684 1 691 3 700 5 C710 7 717 9 717 9 L674 9 C648 9 617 28 543 129 L543 128 L543 128 Z " />
</font>
</svg>
