<?xml version="1.0" encoding="UTF-8"?>
<svg xmlns="http://www.w3.org/2000/svg" xmlns:xlink="http://www.w3.org/1999/xlink" version="1.2" >
<font id="Sharis Bold">
<font-face  font-family="Sharis" units-per-em="1024" ascent="975" descent="-300" font-style="normal" font-weight="700" font-stretch="normal" cap-height="750" x-height="500" underline-position="-125" underline-thickness="50" />
<missing-glyph  horiz-adv-x="650" d="" />
<glyph glyph-name="NULL" d="" />
<glyph glyph-name="CR" unicode="&#xd;" horiz-adv-x="256" d="" />
<glyph glyph-name="space" unicode="&#x20;" horiz-adv-x="289" d="" />
<glyph glyph-name="exclam" unicode="&#x21;" horiz-adv-x="280" d="M140 -5 C188 -5 220 27 220 75 C220 123 188 155 140 155 C92 155 60 123 60 75 C60 27 92 -5 140 -5 L140 -5 Z M140 755 C72 755 60 706 70 632 L130 210 L151 210 L211 632 C221 706 209 755 140 755 L140 755 Z " />
<glyph glyph-name="quotedbl" unicode="&#x22;" horiz-adv-x="356" d="M736 750 C700 750 695 732 703 705 L743 560 L757 560 L797 705 C805 732 800 750 764 750 L736 750 L736 750 Z " />
<glyph glyph-name="numbersign" unicode="&#x23;" horiz-adv-x="575" d="M418 656 L395 504 L227 504 L250 656 L243 656 L220 504 L71 504 L59 416 L206 416 L180 244 L28 244 L16 156 L167 156 L143 0 L150 0 L174 156 L342 156 L318 0 L325 0 L349 156 L495 156 L507 244 L362 244 L388 416 L543 416 L556 504 L402 504 L425 656 L418 656 L418 656 Z M213 416 L381 416 L355 244 L187 244 L213 416 L213 416 Z " />
<glyph glyph-name="dollar" unicode="&#x24;" horiz-adv-x="585" d="M309 825 L309 759 C299 760 288 760 277 760 C274 760 271 760 268 760 L268 825 L228 825 L228 756 C124 738 58 661 58 553 C58 459 115 373 228 321 L228 11 C215 17 203 24 191 32 L191 32 C166 49 142 74 121 101 C107 120 95 141 85 163 L82 162 C69 186 59 209 55 227 C52 240 50 248 50 248 C50 248 50 240 49 227 C48 214 48 206 48 206 L48 146 L48 139 L48 73 C48 73 48 59 49 37 C50 15 50 1 50 1 C50 1 52 15 55 37 C59 63 89 77 127 48 L128 48 C158 26 193 9 230 -1 L230 -75 L270 -75 L270 -8 C281 -9 292 -10 303 -10 C306 -10 309 -10 312 -10 L312 -75 L352 -75 L352 -7 C472 10 549 91 549 205 C549 300 482 388 352 439 L352 742 L352 742 C397 723 438 683 466 641 C468 637 470 633 472 629 L473 630 C487 608 497 586 501 566 C504 553 506 545 506 545 C506 545 507 553 508 566 C508 579 509 587 509 587 L509 646 L509 647 L509 705 C509 705 508 716 508 734 C507 751 506 762 506 762 C506 762 504 751 501 734 C498 711 477 696 452 713 L452 713 C424 733 389 748 350 756 L350 828 L309 825 L309 825 Z M270 309 C284 304 297 299 309 294 L309 1 C306 1 303 1 300 1 C289 1 278 2 267 4 L270 309 L270 309 Z M347 275 C409 241 441 205 441 173 C441 91 405 30 347 9 L347 275 L347 275 Z M267 478 L267 760 C270 760 273 760 276 760 C287 760 298 759 309 757 L309 459 C295 465 282 471 270 478 L267 478 L267 478 Z M230 502 C183 535 160 572 160 607 C160 676 187 728 230 749 L230 502 L230 502 Z " />
<glyph glyph-name="ampersand" unicode="&#x26;" horiz-adv-x="339" d="M344 467 C444 502 508 558 508 610 C508 700 431 760 315 760 C209 760 139 694 139 595 C139 544 171 495 221 434 C107 391 32 298 32 196 C32 73 117 -10 245 -10 C330 -10 417 34 497 111 L522 82 C569 27 640 -10 700 -10 C772 -10 828 52 839 145 L819 152 C814 111 786 84 748 84 C702 84 652 107 622 142 L574 198 C636 280 691 383 734 501 L707 501 C667 390 612 296 550 227 L361 448 C355 455 349 462 344 469 L344 467 L344 467 Z M332 484 C276 552 240 604 240 657 C240 704 270 735 315 735 C374 735 413 688 413 619 C413 561 381 509 332 484 L332 484 Z M464 151 C414 117 362 98 311 98 C215 98 152 152 152 232 C152 317 183 388 232 421 C241 410 250 399 260 388 L464 151 L464 151 Z " />
<glyph glyph-name="quotesingle" unicode="&#x27;" horiz-adv-x="218" d="" />
<glyph glyph-name="parenleft" unicode="&#x28;" horiz-adv-x="573" d="M320 760 C163 654 59 460 59 273 C59 95 161 -100 313 -214 L320 -201 C213 -120 141 70 141 273 C141 482 215 671 327 747 L320 760 L320 760 Z " />
<glyph glyph-name="parenright" unicode="&#x29;" horiz-adv-x="573" d="M23 747 C135 674 209 485 209 273 C209 58 137 -131 30 -201 L37 -214 C189 -116 291 79 291 273 C291 464 187 659 30 760 L23 747 L23 747 Z " />
<glyph glyph-name="asterisk" unicode="&#x2a;" horiz-adv-x="300" d="M150 630 L185 750 C191 771 177 785 150 785 C123 785 109 771 115 750 L150 630 L150 630 Z M150 630 L236 540 C252 524 271 529 284 552 C298 576 293 595 271 600 L150 630 L150 630 Z M150 630 L64 720 C48 736 29 731 16 707 C2 684 7 665 29 660 L150 630 L150 630 Z M150 630 L271 660 C293 665 298 684 284 707 C271 731 252 736 236 720 L150 630 L150 630 Z M150 630 L29 600 C7 595 2 576 16 552 C29 529 48 524 64 540 L150 630 L150 630 Z M150 630 L115 510 C109 489 123 475 150 475 C177 475 191 489 185 510 L150 630 L150 630 Z " />
<glyph glyph-name="plus" unicode="&#x2b;" horiz-adv-x="651" d="M281 476 L281 291 L100 291 L100 209 L281 209 L281 24 L370 24 L370 209 L551 209 L551 291 L370 291 L370 476 L281 476 L281 476 Z " />
<glyph glyph-name="comma" unicode="&#x2c;" horiz-adv-x="259" d="M170 27 C172 18 173 8 173 -3 C173 -66 129 -108 64 -108 L64 -112 C139 -112 189 -63 189 10 C189 69 166 109 131 114 C128 114 125 114 122 114 C86 114 62 90 62 54 C62 18 86 -6 122 -6 C143 -6 159 6 167 26 L170 27 L170 27 Z " />
<glyph glyph-name="hyphen" unicode="&#x2d;" horiz-adv-x="461" d="M80 240 L381 240 L381 330 L80 330 L80 240 L80 240 Z " />
<glyph glyph-name="period" unicode="&#x2e;" horiz-adv-x="195" d="M125 -5 C173 -5 205 27 205 75 C205 123 173 155 125 155 C77 155 45 123 45 75 C45 27 77 -5 125 -5 L125 -5 Z " />
<glyph glyph-name="slash" unicode="&#x2f;" horiz-adv-x="397" d="M300 770 L18 -80 L86 -80 L368 770 L300 770 L300 770 Z " />
<glyph glyph-name="zero" unicode="0" horiz-adv-x="613" d="M305 37 C192 37 96 122 96 250 C96 365 180 463 305 463 C418 463 514 378 514 250 C514 135 430 37 305 37 L305 37 Z M41 250 C41 94 162 -10 305 -10 C463 -10 569 110 569 250 C569 406 448 510 305 510 C147 510 41 390 41 250 L41 250 Z " />
<glyph glyph-name="one" unicode="1" horiz-adv-x="395" d="M255 23 L255 477 C255 490 278 492 313 492 L355 492 C355 492 345 494 330 496 C315 498 305 500 305 500 L198 500 L90 500 C90 500 80 498 65 496 C50 494 40 492 40 492 L82 492 C117 492 140 490 140 477 L140 23 C140 10 117 8 82 8 L40 8 C40 8 50 6 65 4 C80 2 90 0 90 0 L198 0 L305 0 C305 0 315 2 330 4 C345 6 355 8 355 8 L313 8 C278 8 255 10 255 23 L255 23 Z " />
<glyph glyph-name="two" unicode="2" horiz-adv-x="584" d="M66 289 C82 369 150 423 237 423 C317 423 370 382 370 320 C370 203 214 101 30 20 L30 0 L335 0 L402 0 L466 0 C475 14 486 31 496 47 L531 102 L531 102 C537 112 543 122 548 131 C548 131 551 138 556 149 C560 160 563 167 563 167 L537 125 C528 111 504 102 412 102 L239 102 C384 182 485 266 485 346 C485 444 410 509 296 509 C169 509 67 423 42 293 L66 289 L66 289 Z " />
<glyph glyph-name="three" unicode="3" horiz-adv-x="488" d="M16 -209 L20 -232 C277 -205 448 -106 448 15 C448 119 367 200 246 218 C352 276 417 333 417 387 C417 461 345 510 236 510 C127 510 40 447 18 352 L43 345 C54 395 113 429 190 429 C252 429 294 396 294 348 C294 280 217 221 103 173 L103 150 C237 131 326 64 326 -18 C326 -113 202 -190 15 -209 L16 -209 L16 -209 Z " />
<glyph glyph-name="four" unicode="4" horiz-adv-x="679" d="M655 2 C657 17 659 33 661 46 C664 68 669 98 671 120 C672 120 671 127 670 137 C669 146 668 153 668 153 L662 111 C661 97 642 88 549 88 L446 88 L446 340 L446 530 L431 530 L15 20 L15 0 L52 0 L331 0 L331 -220 L446 -220 L446 0 L587 0 C637 0 646 -5 645 -13 L639 -55 C639 -55 642 -49 645 -41 C649 -33 651 -27 651 -27 C652 -19 653 -10 654 0 L654 0 L655 2 L655 2 Z M123 88 L330 340 L330 88 L124 88 L123 88 L123 88 Z " />
<glyph glyph-name="five" unicode="5" horiz-adv-x="473" d="M61 -235 C291 -207 444 -92 444 53 C444 192 304 285 95 285 L82 285 L105 397 L376 400 L380 420 C383 434 386 449 388 461 L391 476 L396 501 L396 501 L399 521 C399 521 399 525 397 531 C396 537 395 541 395 541 L392 524 C390 510 372 501 288 501 L85 501 L22 183 L42 165 L84 165 C241 165 345 105 345 15 C345 -101 231 -192 60 -213 L61 -235 L61 -235 Z " />
<glyph glyph-name="six" unicode="6" horiz-adv-x="600" d="M581 750 C258 750 42 568 42 295 C42 112 146 -10 302 -10 C449 -10 546 89 546 238 C546 372 454 461 316 461 C256 461 207 437 176 395 C226 603 378 733 587 733 L581 750 L581 750 Z M158 234 C158 367 221 456 316 456 C386 456 433 371 433 245 C433 95 381 -5 303 -5 C216 -5 158 91 158 234 L158 234 Z " />
<glyph glyph-name="seven" unicode="7" horiz-adv-x="471" d="M133 500 C67 500 56 505 60 513 L72 540 C72 540 69 536 64 530 C58 524 55 520 55 520 C45 498 33 470 23 448 C13 426 1 398 -9 376 C-9 376 -10 369 -12 360 C-14 350 -16 343 -16 343 L-1 376 C7 395 21 408 63 408 L420 408 L434 431 L105 -220 L193 -220 L466 485 L466 500 L464 500 L133 500 L133 500 Z " />
<glyph glyph-name="eight" unicode="8" horiz-adv-x="572" d="M208 365 C223 358 238 351 254 345 C368 302 444 253 444 144 C444 54 379 -6 282 -6 C193 -6 133 66 133 174 C133 256 162 326 208 366 L208 365 L208 365 Z M194 374 C95 327 33 252 33 175 C33 65 133 -9 282 -9 C432 -9 532 73 532 196 C532 316 465 379 358 428 C450 472 508 537 508 602 C508 698 417 763 280 763 C148 763 59 690 59 580 C59 493 111 422 194 375 L194 374 L194 374 Z M343 435 C327 442 311 448 294 454 C208 487 151 547 151 622 C151 704 203 758 280 758 C358 758 410 691 410 590 C410 526 384 470 342 435 L343 435 L343 435 Z " />
<glyph glyph-name="nine" unicode="9" horiz-adv-x="600" d="M19 -250 C343 -250 559 -68 558 205 C559 388 454 510 298 510 C152 510 54 411 54 262 C54 128 146 39 284 39 C345 39 394 63 426 105 C375 -103 223 -233 15 -233 L19 -250 L19 -250 Z M444 266 C444 133 381 44 286 44 C216 44 169 129 169 255 C169 405 221 505 299 505 C386 505 444 409 444 266 L444 266 Z " />
<glyph glyph-name="colon" unicode="&#x3a;" horiz-adv-x="135" d="M125 385 C173 385 205 417 205 465 C205 513 173 545 125 545 C77 545 45 513 45 465 C45 417 77 385 125 385 L125 385 Z M125 -5 C173 -5 205 27 205 75 C205 123 173 155 125 155 C77 155 45 123 45 75 C45 27 77 -5 125 -5 L125 -5 Z " />
<glyph glyph-name="semicolon" unicode="&#x3b;" horiz-adv-x="259" d="M125 385 C173 385 205 417 205 465 C205 513 173 545 125 545 C77 545 45 513 45 465 C45 417 77 385 125 385 L125 385 Z M170 27 C172 18 173 8 173 -3 C173 -66 129 -108 64 -108 L64 -112 C139 -112 189 -63 189 10 C189 69 166 109 131 114 C128 114 125 114 122 114 C86 114 62 90 62 54 C62 18 86 -6 122 -6 C143 -6 159 6 167 26 L170 27 L170 27 Z " />
<glyph glyph-name="equal" unicode="&#x3d;" horiz-adv-x="569" d="M88 226 L88 174 L499 174 L499 226 L88 226 L88 226 Z M88 326 L88 274 L499 274 L499 326 L88 326 L88 326 Z " />
<glyph glyph-name="question" unicode="&#x3f;" horiz-adv-x="295" d="M125 -5 C173 -5 205 27 205 75 C205 123 173 155 125 155 C77 155 45 123 45 75 C45 27 77 -5 125 -5 L125 -5 Z M127 240 L125 360 C225 360 257 391 288 437 C307 464 319 512 319 557 C319 679 249 760 145 760 C80 760 37 726 37 675 C37 641 62 618 99 618 C127 618 159 638 187 638 C246 638 285 600 285 543 C285 532 276 512 263 492 C242 461 215 440 97 440 L107 240 L127 240 L127 240 Z " />
<glyph glyph-name="at" unicode="&#x40;" horiz-adv-x="1224" d="M1086 0 C1021 -140 840 -234 635 -234 C341 -234 145 -37 145 259 C145 555 332 752 613 752 C893 752 1080 588 1080 343 C1080 143 1008 10 901 10 C823 10 791 86 819 200 L889 480 L781 480 L764 412 C743 460 690 490 618 490 C424 490 294 369 294 188 C294 77 371 4 487 4 C580 4 659 42 703 103 C715 21 778 -29 879 -29 C1053 -29 1169 120 1169 344 C1169 609 946 785 612 785 C278 785 55 575 55 260 C55 -55 286 -265 634 -265 C853 -265 1049 -159 1123 1 L1086 0 L1086 0 Z M749 356 L710 201 C690 122 624 69 546 69 C469 69 418 126 418 211 C418 360 497 459 615 459 C695 459 748 418 748 356 L749 356 L749 356 Z " />
<glyph glyph-name="A" unicode="A" horiz-adv-x="835" d="M696 128 L696 128 L489 709 L467 770 L454 770 C432 738 394 714 360 709 L364 698 L240 299 L240 299 L240 298 L196 158 L196 158 C156 32 112 8 56 8 L14 8 C14 8 20 6 30 4 C40 2 46 0 46 0 L147 0 L152 0 L166 0 L285 0 C285 0 291 2 301 4 C311 6 317 8 317 8 L277 8 C204 8 162 32 201 158 L201 158 L243 294 L505 294 L569 110 C595 24 565 7 512 7 L472 7 C472 7 478 5 488 3 C498 1 504 -1 504 -1 L607 -1 L653 -1 L742 -1 L802 -1 C802 -1 808 1 818 3 C828 5 834 7 834 7 L792 7 C760 7 731 26 697 127 L696 128 L696 128 Z M244 298 L366 693 L503 298 L244 298 L244 298 Z " />
<glyph glyph-name="B" unicode="B" horiz-adv-x="765" d="M266 746 L357 746 C523 746 562 671 562 557 C562 455 483 387 365 387 L266 387 L266 677 L266 746 L266 746 Z M437 386 C591 402 690 472 690 571 C690 678 628 750 365 750 L266 750 L176 750 L85 750 C85 750 75 748 59 746 C43 744 33 742 33 742 L75 742 C113 742 138 732 138 677 L138 73 C138 18 113 8 75 8 L33 8 C33 8 43 6 59 4 C75 2 85 0 85 0 L176 0 L266 0 L386 0 C590 0 725 37 725 193 C725 305 611 380 437 387 L437 386 L437 386 Z M367 384 L399 384 C510 384 584 308 584 194 C584 41 503 5 382 5 L332 5 C292 5 266 24 266 53 L266 74 L266 384 L367 384 L367 384 Z " />
<glyph glyph-name="C" unicode="C" horiz-adv-x="802" d="M611 39 L611 39 C564 10 511 -6 447 -6 C289 -6 183 146 183 375 C183 603 293 755 458 755 C530 755 583 735 630 701 C692 655 741 585 751 541 C754 528 756 519 756 519 C756 519 757 528 758 541 C758 553 759 562 759 562 L759 625 L759 631 L759 688 C759 688 758 700 758 717 C757 734 756 746 756 746 C756 746 754 734 751 717 C747 695 716 684 676 708 C626 740 560 759 456 759 C208 759 42 605 42 374 C42 143 203 -11 445 -11 C546 -11 619 9 675 43 C714 62 746 49 752 27 C757 9 760 -3 760 -3 L760 27 L760 57 L760 116 L760 121 L760 185 C760 185 759 193 758 206 C758 219 757 227 757 227 C757 227 755 219 752 206 C742 161 682 79 611 37 L611 39 L611 39 Z " />
<glyph glyph-name="D" unicode="D" horiz-adv-x="920" d="M138 677 L138 73 C138 18 113 8 75 8 L33 8 C33 8 43 6 59 4 C75 2 85 0 85 0 L138 0 L176 0 L266 0 L359 0 C663 0 866 127 866 375 C866 600 709 750 405 750 L266 750 L176 750 L138 750 L85 750 C85 750 75 748 59 746 C43 744 33 742 33 742 L75 742 C113 742 138 732 138 677 L138 677 Z M266 746 L390 746 C611 746 725 598 725 375 C725 130 576 4 353 4 C275 4 266 23 266 52 L266 73 L266 677 L266 746 L266 746 Z " />
<glyph glyph-name="E" unicode="E" horiz-adv-x="705" d="M525 0 L633 0 C634 10 636 24 637 33 C639 43 641 57 642 67 C642 67 643 79 643 98 L643 129 L637 87 C630 37 610 4 526 4 L318 4 C271 4 266 23 266 52 L266 73 L266 385 L440 385 C524 385 540 346 540 287 L540 245 C540 245 542 259 544 280 C546 301 548 315 548 315 L548 385 L548 387 L548 390 L548 460 C548 460 546 474 544 495 C542 516 540 530 540 530 L540 487 C540 429 524 390 440 390 L266 390 L266 677 L266 746 L500 746 C601 746 603 708 607 651 L609 621 C609 621 610 633 611 652 C612 671 613 683 612 683 C612 693 611 707 610 717 C610 726 609 740 608 750 L500 750 L266 750 L176 750 L138 750 L85 750 C85 750 75 748 59 746 C43 744 33 742 33 742 L75 742 C113 742 138 732 138 677 L138 73 C138 18 113 8 75 8 L33 8 C33 8 43 6 59 4 C75 2 85 0 85 0 L138 0 L176 0 L266 0 L525 0 L525 0 Z " />
<glyph glyph-name="F" unicode="F" horiz-adv-x="680" d="M474 380 C519 368 530 334 532 288 L533 240 C533 240 534 255 536 276 C537 298 538 313 538 313 L538 380 L538 384 L538 385 L538 455 C538 455 537 469 536 490 C534 511 533 525 533 525 L532 478 C529 422 512 385 430 385 L266 385 L266 677 L266 747 L420 747 C571 747 603 714 608 664 L611 622 C611 622 612 635 612 654 C613 672 614 685 613 685 C613 695 612 708 611 718 C610 727 609 740 608 750 L500 750 L266 750 L176 750 L138 750 L85 750 C85 750 75 748 59 746 C43 744 33 742 33 742 L75 742 C113 742 138 732 138 677 L138 73 C138 18 113 8 75 8 L33 8 C33 8 43 6 59 4 C75 2 85 0 85 0 L138 0 L202 0 L266 0 L319 0 C319 0 329 2 345 4 C361 6 371 8 371 8 L329 8 C291 8 266 18 266 73 L266 380 L474 380 L474 380 Z " />
<glyph glyph-name="G" unicode="G" horiz-adv-x="886" d="M616 257 L617 145 C614 70 554 21 465 21 C296 21 183 163 183 375 C183 603 293 755 458 755 C530 755 583 735 630 701 C692 655 741 585 751 541 C754 528 756 519 756 519 C756 519 757 528 758 541 C758 553 759 562 759 562 L759 625 L759 631 L759 688 C759 688 758 700 758 717 C757 734 756 746 756 746 C756 746 754 734 751 717 C747 695 716 684 676 708 C626 740 560 759 456 759 C208 759 42 605 42 374 C42 143 206 -11 453 -11 C570 -11 659 5 735 30 L744 32 L744 33 C768 41 791 50 813 60 L811 63 C793 55 771 48 743 42 L743 256 C743 306 760 316 786 316 L828 316 C828 316 820 318 807 320 C794 322 786 324 786 324 L675 324 L565 324 C565 324 555 322 540 320 C525 318 515 316 515 316 L557 316 C592 316 615 306 615 256 L616 257 L616 257 Z " />
<glyph glyph-name="H" unicode="H" horiz-adv-x="926" d="M781 68 L781 682 C781 732 806 742 844 742 L886 742 C886 742 876 744 860 746 C844 748 834 750 834 750 L717 750 L600 750 C600 750 590 748 574 746 C558 744 548 742 548 742 L590 742 C628 742 653 732 653 682 L653 386 L302 386 L302 682 C302 732 327 742 365 742 L407 742 C407 742 397 744 381 746 C365 748 355 750 355 750 L238 750 L121 750 C121 750 111 748 95 746 C79 744 69 742 69 742 L111 742 C149 742 174 732 174 682 L174 68 C174 18 149 8 111 8 L69 8 C69 8 79 6 95 4 C111 2 121 0 121 0 L238 0 L355 0 C355 0 365 2 381 4 C397 6 407 8 407 8 L365 8 C327 8 302 18 302 68 L302 380 L653 380 L653 68 C653 18 628 8 590 8 L548 8 C548 8 558 6 574 4 C590 2 600 0 600 0 L717 0 L834 0 C834 0 844 2 860 4 C876 6 886 8 886 8 L844 8 C806 8 781 18 781 68 L781 68 Z " />
<glyph glyph-name="I" unicode="I" horiz-adv-x="399" d="M254 68 L254 682 C254 732 279 742 317 742 L359 742 C359 742 349 744 333 746 C317 748 307 750 307 750 L190 750 L73 750 C73 750 63 748 47 746 C31 744 21 742 21 742 L63 742 C101 742 126 732 126 682 L126 68 C126 18 101 8 63 8 L21 8 C21 8 31 6 47 4 C63 2 73 0 73 0 L190 0 L307 0 C307 0 317 2 333 4 C349 6 359 8 359 8 L317 8 C279 8 254 18 254 68 L254 68 Z " />
<glyph glyph-name="J" unicode="J" horiz-adv-x="399" d="M126 682 L125 -99 C125 -195 52 -213 -2 -213 C-67 -213 -38 -105 -103 -105 C-140 -105 -164 -129 -164 -166 C-164 -198 -101 -220 -6 -220 C103 -220 255 -162 255 143 L254 682 C254 732 279 742 317 742 L359 742 C359 742 349 744 333 746 C317 748 307 750 307 750 L190 750 L73 750 C73 750 63 748 47 746 C31 744 21 742 21 742 L63 742 C101 742 126 732 126 682 L126 682 Z " />
<glyph glyph-name="K" unicode="K" horiz-adv-x="857" d="M708 73 L707 73 L372 450 L564 652 L564 652 C566 654 568 656 570 658 L591 680 C643 732 674 742 704 742 L746 742 C746 742 739 744 730 746 C720 748 713 750 713 750 L658 750 L605 750 L497 750 C497 750 491 748 481 746 C471 744 465 742 465 742 L500 742 C555 742 578 726 509 644 L266 376 L266 691 C266 735 291 743 329 743 L371 743 C371 743 361 745 345 747 C329 749 319 751 319 751 L266 751 L202 751 L138 751 L85 751 C85 751 75 749 59 747 C43 745 33 743 33 743 L75 743 C113 743 138 735 138 691 L138 61 C138 17 113 9 75 9 L33 9 C33 9 43 7 59 5 C75 3 85 1 85 1 L138 1 L202 1 L266 1 L319 1 C319 1 329 3 345 5 C361 7 371 9 371 9 L329 9 C291 9 266 17 266 61 L266 376 L599 1 L708 1 L772 1 L818 1 C818 1 824 3 834 5 C844 7 850 9 850 9 L800 9 C779 9 737 41 708 74 L708 73 L708 73 Z " />
<glyph glyph-name="L" unicode="L" horiz-adv-x="703" d="M456 22 L628 22 L628 20 C631 31 634 42 636 51 C640 67 646 87 650 103 C650 103 653 120 658 145 C662 170 665 187 665 187 L654 145 C634 71 595 22 456 22 L456 22 Z M456 22 L306 22 C259 22 254 34 254 52 L254 73 L254 677 C254 732 279 742 317 742 L359 742 C359 742 349 744 333 746 C317 748 307 750 307 750 L254 750 L190 750 L126 750 L73 750 C73 750 63 748 47 746 C31 744 21 742 21 742 L63 742 C101 742 126 732 126 677 L126 73 C126 18 101 8 63 8 L21 8 C21 8 31 6 47 4 C63 2 73 0 73 0 L126 0 L164 0 L254 0 L450 0 L623 0 L456 22 L456 22 Z " />
<glyph glyph-name="M" unicode="M" horiz-adv-x="964" d="M176 128 L176 128 L183 628 L387 163 L458 0 L491 0 L727 636 L741 73 L741 73 C743 18 717 8 679 8 L636 8 C636 8 647 6 663 4 C678 2 689 0 689 0 L743 0 L805 0 L872 0 L922 0 C922 0 932 2 948 4 C964 6 974 8 974 8 L932 8 C898 8 875 16 870 59 L852 606 C851 719 875 741 910 741 L952 741 C952 741 945 743 936 745 C926 747 919 749 919 749 L847 749 L822 749 L770 749 L725 749 L517 162 L285 749 L186 749 L173 749 L154 749 L131 749 L62 749 C62 749 55 747 45 745 C36 743 29 741 29 741 L71 741 C104 741 131 734 153 697 L136 137 L136 137 C133 28 99 7 49 7 L7 7 C7 7 13 5 23 3 C33 1 39 -1 39 -1 L132 -1 L154 -1 L177 -1 L269 -1 C269 -1 276 1 285 3 C295 5 302 7 302 7 L260 7 C209 7 176 26 179 127 L176 128 L176 128 Z " />
<glyph glyph-name="N" unicode="N" horiz-adv-x="837" d="M199 750 L169 750 L137 750 L106 750 L40 750 L14 750 C14 750 7 748 -3 746 C-12 744 -19 742 -19 742 L38 742 C43 742 51 736 75 707 L75 707 L136 632 L135 116 C130 26 98 8 52 8 L9 8 C9 8 16 6 26 4 C35 2 42 0 42 0 L134 0 L154 0 L173 0 L265 0 C265 0 272 2 282 4 C291 6 298 8 298 8 L256 8 C208 8 176 25 173 113 L170 591 L506 182 L657 -1 L682 -1 L691 641 L691 641 C690 725 723 741 773 741 L816 741 C816 741 803 743 784 745 C766 747 753 749 753 749 L692 749 L672 749 L653 749 L591 749 C591 749 579 747 560 745 C541 743 529 741 529 741 L571 741 C617 741 649 727 653 655 L655 203 L606 262 L199 750 L199 750 Z " />
<glyph glyph-name="O" unicode="O" horiz-adv-x="928" d="M443 -5 C289 -5 187 147 187 375 C187 603 293 755 451 755 C616 755 726 603 726 375 C726 147 613 -5 443 -5 L443 -5 Z M40 375 C40 144 201 -10 442 -10 C701 -10 873 144 873 375 C873 606 705 760 452 760 C205 760 40 606 40 375 L40 375 Z " />
<glyph glyph-name="P" unicode="P" horiz-adv-x="713" d="M234 0 L299 0 L351 0 C351 0 362 2 377 4 C393 6 404 8 404 8 L361 8 C324 8 299 18 299 73 L299 338 L356 338 C558 338 693 400 693 538 C693 665 581 750 414 750 L299 750 L208 750 L170 750 L118 750 C118 750 107 748 91 746 C76 744 65 742 65 742 L107 742 C145 742 170 732 170 677 L170 73 C170 18 145 8 107 8 L65 8 C65 8 76 6 91 4 C107 2 118 0 118 0 L170 0 L234 0 L234 0 Z M299 365 L299 677 L299 728 L382 728 C496 728 573 660 573 559 C573 425 486 365 356 365 L299 365 L299 365 Z " />
<glyph glyph-name="Q" unicode="Q" horiz-adv-x="923" d="M1262 -53 L1261 -51 C1231 -76 1092 -93 914 -93 C732 -93 549 -61 431 -10 C434 -10 437 -10 440 -10 C699 -10 871 144 871 375 C871 606 703 760 450 760 C203 760 38 606 38 375 C38 232 146 119 257 53 L257 53 C486 -83 742 -174 899 -174 C1030 -174 1175 -126 1261 -53 L1262 -53 L1262 -53 Z M442 -5 C427 -5 407 1 386 13 C382 15 379 17 376 19 L376 19 C292 70 187 200 187 375 C187 603 293 755 451 755 C616 755 726 603 726 375 C726 147 613 -5 443 -5 L442 -5 L442 -5 Z " />
<glyph glyph-name="R" unicode="R" horiz-adv-x="890" d="M881 0 L881 10 C785 10 779 12 736 68 C626 207 543 313 506 360 C612 383 678 440 678 536 C678 664 558 749 379 749 L266 749 L176 749 L85 749 C85 749 75 747 59 745 C43 743 33 741 33 741 L75 741 C113 741 138 731 138 676 L138 72 C138 17 113 7 75 7 L33 7 C33 7 43 5 59 3 C75 1 85 -1 85 -1 L202 -1 L319 -1 C319 -1 329 1 345 3 C361 5 371 7 371 7 L329 7 C291 7 266 17 266 72 L266 347 L374 347 C399 308 478 204 585 68 C636 3 648 0 881 0 L881 0 Z M266 724 L340 724 C458 724 536 659 536 562 C536 436 473 380 379 380 L266 380 L266 677 L266 724 L266 724 Z " />
<glyph glyph-name="S" unicode="S" horiz-adv-x="585" d="M451 710 L451 710 C406 741 344 760 277 760 C146 760 59 677 59 553 C59 450 128 357 263 308 C382 265 443 213 443 168 C443 65 386 -4 301 -4 C264 -4 226 9 191 33 L191 33 C166 50 142 75 121 102 C107 121 95 142 85 164 L82 163 C69 187 59 210 55 228 C52 241 50 249 50 249 C50 249 50 241 49 228 C48 215 48 207 48 207 L48 147 L48 140 L48 74 C48 74 48 60 49 38 C50 16 50 2 50 2 C50 2 52 16 55 38 C59 64 89 78 127 49 L128 49 C176 12 237 -9 301 -9 C448 -9 546 77 546 206 C546 303 476 393 340 443 C220 486 159 546 159 603 C159 695 206 756 277 756 C302 756 327 751 350 742 C395 723 436 683 464 641 C466 637 468 633 470 629 L471 630 C485 608 495 586 499 566 C502 553 504 545 504 545 C504 545 505 553 506 566 C506 579 507 587 507 587 L507 646 L507 647 L507 705 C507 705 506 716 506 734 C505 751 504 762 504 762 C504 762 502 751 499 734 C496 711 475 696 450 713 L451 710 L451 710 Z M338 748 L329 751 C332 750 335 749 338 748 L338 748 Z " />
<glyph glyph-name="T" unicode="T" horiz-adv-x="806" d="M25 617 L40 655 C54 693 79 718 163 718 L339 718 L339 68 C339 18 314 8 276 8 L234 8 C234 8 244 6 260 4 C276 2 286 0 286 0 L403 0 L520 0 C520 0 530 2 546 4 C562 6 572 8 572 8 L530 8 C492 8 467 18 467 68 L467 718 L644 718 C728 718 753 693 766 655 L782 613 C782 613 780 624 776 640 C772 655 770 666 770 666 C764 682 757 702 751 718 L751 750 L740 750 C738 757 736 764 734 770 C733 770 730 774 726 780 C722 786 719 790 718 790 L725 773 C730 759 717 750 633 750 L468 750 L340 750 L175 750 C92 750 79 759 84 773 L90 790 C90 790 87 786 82 780 C78 774 75 770 75 770 C73 764 71 757 68 750 L56 750 L56 718 C50 702 43 682 37 666 C37 666 35 655 31 640 C29 629 27 621 26 617 L25 617 L25 617 Z M26 617 C25 615 25 614 25 614 L26 617 L26 617 Z " />
<glyph glyph-name="U" unicode="U" horiz-adv-x="841" d="M727 98 L727 677 L727 750 L636 750 L546 750 C546 750 535 748 520 746 C504 744 493 742 493 742 L536 742 C573 742 598 732 598 677 L598 206 C562 126 478 73 389 73 C294 73 231 134 231 226 L231 677 L231 750 L141 750 L50 750 C50 750 40 748 24 746 C8 744 -2 742 -2 742 L40 742 C78 742 103 732 103 677 L103 226 C103 85 197 -10 338 -10 C450 -10 554 53 598 148 L598 98 L598 0 L619 0 L831 49 L831 53 C744 48 727 54 727 98 L727 98 Z " />
<glyph glyph-name="V" unicode="V" horiz-adv-x="878" d="M85 702 L335 162 L415 -10 L441 -10 L718 622 L718 622 C718 623 718 624 718 625 L735 664 C767 729 794 743 823 743 L865 743 C865 743 859 745 849 747 C839 749 833 751 833 751 L774 751 L722 751 L711 751 L590 751 C590 751 583 749 573 747 C564 745 557 743 557 743 L596 743 C665 743 705 726 677 641 L484 164 L262 640 C228 727 267 744 336 744 L375 744 C375 744 368 746 359 748 C349 750 342 752 342 752 L210 752 L188 752 L62 752 L33 752 C33 752 27 750 17 748 C7 746 1 744 1 744 L58 744 C63 744 69 738 84 704 L85 702 L85 702 Z " />
<glyph glyph-name="W" unicode="W" horiz-adv-x="1205" d="M501 702 L594 500 L593 500 L466 162 L263 622 L263 622 C218 723 250 742 312 742 L351 742 C351 742 345 744 335 746 C325 748 319 750 319 750 L206 750 L177 750 L65 750 L36 750 C36 750 29 748 19 746 C10 744 3 742 3 742 L60 742 C65 742 77 723 121 622 L122 622 L325 162 L401 -10 L435 -10 L618 449 L738 187 L828 -10 L862 -10 L1060 622 L1060 622 C1060 623 1060 624 1060 625 L1067 648 C1093 726 1119 742 1150 742 L1192 742 C1192 742 1185 744 1176 746 C1166 748 1159 750 1159 750 L1099 750 L1047 750 L1037 750 L914 750 C914 750 908 748 898 746 C888 744 882 742 882 742 L922 742 C994 742 1038 724 1012 627 L885 187 L885 187 L672 652 L672 652 C638 728 672 742 734 742 L772 742 C772 742 766 744 756 746 C746 748 740 750 740 750 L627 750 L580 750 L479 750 L420 750 C420 750 413 748 403 746 C394 744 387 742 387 742 L429 742 C461 742 485 736 500 702 L501 702 L501 702 Z " />
<glyph glyph-name="X" unicode="X" horiz-adv-x="856" d="M221 104 L384 323 L532 115 C593 25 574 8 527 8 L490 8 C490 8 496 6 506 4 C516 2 522 0 522 0 L615 0 L669 0 L768 0 L815 0 C815 0 821 2 831 4 C841 6 847 8 847 8 L805 8 C781 8 753 24 694 103 L464 425 L618 593 L618 593 L618 593 L729 714 C757 736 778 742 797 742 L840 742 C840 742 833 744 823 746 C814 748 807 750 807 750 L762 750 L704 750 L601 750 C601 750 595 748 585 746 C575 744 569 742 569 742 L605 742 C660 742 681 722 604 620 L457 431 L321 621 L321 621 C249 722 268 741 317 741 L354 741 C354 741 348 743 338 745 C328 747 322 749 322 749 L229 749 L181 749 L78 749 L41 749 C41 749 34 747 24 745 C15 743 8 741 8 741 L54 741 C71 741 97 722 169 621 L169 621 L366 345 L176 107 L176 107 C110 23 72 7 34 7 L-8 7 C-8 7 -2 5 8 3 C18 1 24 -1 24 -1 L90 -1 L142 -1 L159 -1 L294 -1 C294 -1 301 1 311 3 C320 5 327 7 327 7 L290 7 C211 7 168 23 219 103 L221 104 L221 104 Z " />
<glyph glyph-name="Y" unicode="Y" horiz-adv-x="797" d="M279 641 C227 725 241 742 276 742 L314 742 C314 742 307 744 297 746 C288 748 281 750 281 750 L209 750 L155 750 L57 750 L30 750 C30 750 23 748 13 746 C4 744 -3 742 -3 742 L54 742 C59 742 75 723 141 622 L142 622 L344 316 L344 68 C344 18 319 8 281 8 L239 8 C239 8 249 6 265 4 C281 2 291 0 291 0 L408 0 L525 0 C525 0 535 2 551 4 C567 6 577 8 577 8 L535 8 C497 8 472 18 472 68 L472 337 L642 635 C695 725 722 742 746 742 L789 742 C789 742 782 744 773 746 C763 748 756 750 756 750 L708 750 L699 750 L691 750 L626 750 C626 750 620 748 610 746 C600 744 594 742 594 742 L632 742 C668 742 683 726 641 647 L470 343 L279 641 L279 641 Z " />
<glyph glyph-name="Z" unicode="Z" horiz-adv-x="683" d="M164 0 L490 0 L637 0 C641 17 647 39 651 57 C656 74 661 96 666 113 C665 113 668 129 672 153 C675 176 678 192 678 192 L664 148 C646 89 617 48 533 39 L184 31 L641 723 L641 750 L516 750 L228 750 L70 750 C67 732 64 708 62 691 C59 673 56 649 53 632 C53 632 53 615 52 588 C52 562 51 545 51 545 L57 584 C69 659 98 710 205 715 L496 721 L25 28 L25 1 L164 0 L164 0 Z " />
<glyph glyph-name="bracketleft" unicode="&#x5b;" horiz-adv-x="302" d="M142 716 L352 716 L352 750 L142 750 L102 750 L102 -195 L142 -195 L352 -195 L352 -161 L142 -161 L142 716 L142 716 Z " />
<glyph glyph-name="backslash" unicode="&#x5c;" horiz-adv-x="355" d="M18 770 L278 -80 L346 -80 L86 770 L18 770 L18 770 Z " />
<glyph glyph-name="bracketright" unicode="&#x5d;" horiz-adv-x="305" d="M155 716 L155 -161 L-55 -161 L-55 -195 L155 -195 L195 -195 L195 750 L155 750 L-55 750 L-55 716 L155 716 L155 716 Z " />
<glyph glyph-name="underscore" unicode="&#x5f;" horiz-adv-x="525" d="M5 -50 L5 -114 L521 -114 L521 -50 L5 -50 L5 -50 Z " />
<glyph glyph-name="a" unicode="a" horiz-adv-x="545" d="M556 123 L538 131 C532 99 510 77 483 77 C452 77 431 94 431 120 L431 353 C431 461 368 510 274 510 C144 510 57 414 57 360 C57 312 86 280 129 280 C163 280 185 313 185 337 C185 357 165 375 165 399 C165 437 207 503 270 503 C298 503 317 469 317 394 L317 267 C91 227 38 204 38 94 C38 32 87 -10 161 -10 C210 -10 265 15 322 80 C336 28 378 -5 436 -5 C494 -5 542 46 556 123 L556 123 Z M317 263 L316 120 C316 108 317 96 320 85 C294 61 259 51 221 51 C180 51 153 73 153 106 C153 218 184 239 316 263 L317 263 L317 263 Z " />
<glyph glyph-name="b" unicode="b" horiz-adv-x="725" d="M147 0 L154 0 L198 65 L198 65 C220 20 301 -10 400 -10 C568 -10 680 95 680 253 C680 404 576 505 421 505 C372 505 310 476 262 430 L262 684 L262 747 L242 747 L105 708 C105 708 96 704 84 698 C71 692 62 688 62 688 L105 700 C130 708 147 704 147 657 L147 195 L147 0 L147 0 Z M262 413 C300 448 348 470 386 470 C485 470 551 378 551 240 C551 99 492 5 404 5 C333 5 277 31 262 70 L262 195 L262 413 L262 413 Z " />
<glyph glyph-name="c" unicode="c" horiz-adv-x="565" d="M535 128 L519 135 C499 90 436 60 360 60 C238 60 156 147 156 277 C156 401 226 484 331 484 C371 484 410 452 427 405 C440 371 463 348 484 348 C532 348 555 371 542 405 C519 468 437 510 337 510 C155 510 33 400 33 234 C33 88 147 -10 319 -10 C412 -10 498 45 535 128 L535 128 Z " />
<glyph glyph-name="d" unicode="d" horiz-adv-x="624" d="M626 41 L587 32 C562 26 545 38 545 121 L545 668 L545 747 L524 747 L387 708 C387 708 379 704 366 698 C353 692 345 688 345 688 L387 700 C413 708 430 701 430 641 L430 481 C392 499 342 510 287 510 C123 510 39 406 39 249 C39 97 128 -5 262 -5 C331 -5 397 22 430 63 L430 -9 L450 -9 L587 25 C587 25 596 29 608 34 C616 38 623 41 627 42 L626 41 L626 41 Z M627 42 C629 43 630 43 630 43 L627 42 L627 42 Z M430 397 L430 103 C401 67 354 44 310 44 C218 44 156 139 156 282 C156 399 205 478 301 478 C351 478 403 442 430 397 L430 397 Z " />
<glyph glyph-name="e" unicode="e" horiz-adv-x="578" d="M160 340 L421 340 L517 340 L548 340 C527 462 437 510 317 510 C146 510 33 397 33 228 C33 85 136 -10 291 -10 C407 -10 505 46 535 131 L521 136 C506 94 425 66 318 66 C220 66 154 150 154 275 C154 298 156 320 160 340 L160 340 Z M503 374 C507 374 511 374 516 374 L503 374 L503 374 Z M413 372 L166 367 C189 439 240 483 308 483 C354 483 392 451 412 371 L413 372 L413 372 Z " />
<glyph glyph-name="f" unicode="f" horiz-adv-x="415" d="M227 439 L406 439 L406 500 L227 500 C227 631 266 719 343 719 C414 719 435 635 495 635 C522 635 540 653 540 680 C540 725 477 755 383 755 C204 755 112 653 112 500 L26 453 L26 439 L112 439 L112 23 C112 10 95 8 70 8 L27 8 C27 8 36 6 49 4 C61 2 70 0 70 0 L170 0 L270 0 C270 0 278 2 291 4 C304 6 312 8 312 8 L270 8 C244 8 227 10 227 23 L227 439 L227 439 Z " />
<glyph glyph-name="g" unicode="g" horiz-adv-x="551" d="M182 350 C182 430 216 483 267 483 C317 483 351 430 351 350 C351 269 317 215 267 215 C216 215 182 269 182 350 L182 350 Z M161 -14 C168 -15 175 -15 182 -15 L304 -15 C388 -15 421 -43 421 -86 C421 -157 366 -204 284 -204 C194 -204 134 -150 134 -70 C134 -47 144 -27 161 -14 L161 -14 Z M132 -8 C75 -26 38 -60 38 -97 C38 -177 134 -230 277 -230 C420 -230 515 -161 515 -59 C515 36 459 99 315 99 L187 99 C145 100 117 115 117 137 C117 168 177 188 266 188 C385 188 465 253 465 350 C465 369 462 387 456 403 C474 430 495 447 512 447 C514 447 515 439 515 426 C515 402 536 386 568 386 C596 386 615 408 615 440 C615 473 593 495 560 495 C514 495 470 468 444 427 C413 479 349 510 266 510 C146 510 66 446 66 350 C66 281 106 228 172 203 C96 187 49 150 49 101 C49 46 81 5 132 -10 L132 -8 L132 -8 Z " />
<glyph glyph-name="h" unicode="h" horiz-adv-x="725" d="M491 23 C491 10 474 8 448 8 L406 8 C406 8 414 6 427 4 C440 2 448 0 448 0 L548 0 L648 0 C648 0 657 2 670 4 C682 6 691 8 691 8 L648 8 C623 8 606 10 606 23 L606 300 C606 426 554 510 453 510 C373 510 281 463 223 393 L223 684 L223 747 L203 747 L66 708 C66 708 57 704 45 698 C32 692 23 688 23 688 L66 700 C91 708 108 704 108 657 L108 23 C108 10 91 8 66 8 L23 8 C23 8 32 6 45 4 C57 2 66 0 66 0 L166 0 L266 0 C266 0 274 2 287 4 C300 6 308 8 308 8 L266 8 C240 8 223 10 223 23 L223 387 C244 412 310 429 387 429 C456 429 491 377 491 300 L491 23 L491 23 Z " />
<glyph glyph-name="i" unicode="i" horiz-adv-x="342" d="M175 615 C219 615 249 645 249 689 C249 734 219 764 175 764 C130 764 100 734 100 689 C100 645 130 615 175 615 L175 615 Z M232 23 L232 437 L232 500 L212 500 L75 461 C75 461 66 457 54 451 C41 445 32 441 32 441 L75 453 C100 460 117 456 117 410 L117 23 C117 10 104 8 85 8 L42 8 C42 8 50 6 61 4 C72 2 80 0 80 0 L175 0 L270 0 C270 0 277 2 289 4 C300 6 307 8 307 8 L265 8 C245 8 232 10 232 23 L232 23 Z " />
<glyph glyph-name="j" unicode="j" horiz-adv-x="312" d="M165 615 C209 615 239 645 239 689 C239 734 209 764 165 764 C120 764 90 734 90 689 C90 645 120 615 165 615 L165 615 Z M107 410 L107 68 C107 -22 84 -95 50 -115 C20 -115 -18 -100 -48 -100 C-75 -100 -93 -116 -93 -140 C-93 -169 -69 -187 -33 -185 C-26 -184 16 -162 72 -130 C162 -78 222 1 222 68 L222 437 L222 500 L202 500 L65 461 C65 461 56 457 44 451 C31 445 22 441 22 441 L65 453 C90 460 107 456 107 410 L107 410 Z " />
<glyph glyph-name="k" unicode="k" horiz-adv-x="731" d="M570 0 L666 0 L681 0 C681 0 687 2 697 4 C707 6 713 8 713 8 L658 8 L646 21 C645 22 644 23 643 24 L643 24 L354 323 L603 482 C618 492 624 494 628 494 L686 494 C686 494 679 496 669 498 C660 500 653 502 653 502 L633 502 L576 502 L538 502 L424 502 C424 502 417 500 407 498 C398 496 391 494 391 494 L421 494 C500 494 523 474 372 372 L232 282 L232 686 L232 749 L212 749 L75 710 C75 710 66 706 54 700 C41 694 32 690 32 690 L75 702 C100 710 117 706 117 659 L117 25 C117 12 104 10 85 10 L42 10 C42 10 50 8 61 6 C72 4 80 2 80 2 L175 2 L270 2 C270 2 277 4 289 6 C300 8 307 10 307 10 L265 10 C245 10 232 12 232 25 L232 282 L491 24 C502 12 488 10 464 10 L428 10 C428 10 434 8 444 6 C454 4 460 2 460 2 L513 2 L570 0 L570 0 Z " />
<glyph glyph-name="l" unicode="l" horiz-adv-x="332" d="M222 23 L222 684 L222 747 L202 747 L65 708 C65 708 56 704 44 698 C31 692 22 688 22 688 L65 700 C90 708 107 704 107 657 L107 23 C107 10 92 8 70 8 L27 8 C27 8 35 6 47 4 C59 2 67 0 67 0 L165 0 L262 0 C262 0 270 2 282 4 C294 6 302 8 302 8 L260 8 C237 8 222 10 222 23 L222 23 Z " />
<glyph glyph-name="m" unicode="m" horiz-adv-x="1020" d="M557 398 L557 392 C573 412 633 425 707 425 C771 425 796 375 796 300 L796 43 C796 14 783 8 763 8 L721 8 C721 8 728 6 739 4 C751 2 758 0 758 0 L856 0 L953 0 C953 0 962 2 974 4 C987 6 996 8 996 8 L953 8 C928 8 911 14 911 43 L911 300 C911 426 867 510 754 510 C691 510 612 465 557 398 L557 398 Z M448 43 C448 14 435 8 416 8 L373 8 C373 8 381 6 392 4 C403 2 411 0 411 0 L503 0 L596 0 C596 0 602 2 612 4 C622 6 628 8 628 8 L586 8 C572 8 563 14 563 43 L563 300 C563 426 519 510 407 510 C348 510 272 465 216 398 L216 437 L216 500 L196 500 L59 450 C59 450 50 445 38 438 C25 431 16 427 16 427 L59 442 C84 451 101 449 101 402 L101 43 C101 14 84 8 59 8 L16 8 C16 8 25 6 38 4 C50 2 59 0 59 0 L155 0 L251 0 C251 0 258 2 269 4 C279 6 286 8 286 8 L244 8 C227 8 216 14 216 43 L216 392 C233 412 290 425 360 425 C423 425 448 375 448 300 L448 43 L448 43 Z " />
<glyph glyph-name="n" unicode="n" horiz-adv-x="673" d="M448 23 C448 10 433 8 411 8 L368 8 C368 8 376 6 388 4 C400 2 408 0 408 0 L506 0 L603 0 C603 0 611 2 623 4 C635 6 643 8 643 8 L601 8 C578 8 563 10 563 23 L563 292 C563 423 510 510 407 510 C352 510 276 461 216 388 L216 437 L216 500 L196 500 L59 450 C59 450 50 445 38 438 C25 431 16 427 16 427 L59 442 C84 451 101 449 101 402 L101 23 C101 10 86 8 64 8 L21 8 C21 8 29 6 41 4 C53 2 61 0 61 0 L159 0 L256 0 C256 0 264 2 276 4 C288 6 296 8 296 8 L254 8 C231 8 216 10 216 23 L216 372 C258 423 322 457 375 457 C423 457 448 391 448 292 L448 23 L448 23 Z " />
<glyph glyph-name="o" unicode="o" horiz-adv-x="640" d="M314 -5 C221 -5 159 97 159 250 C159 403 221 505 314 505 C406 505 468 403 468 250 C468 97 406 -5 314 -5 L314 -5 Z M32 250 C32 94 145 -10 314 -10 C483 -10 595 94 595 250 C595 406 483 510 314 510 C145 510 32 406 32 250 L32 250 Z " />
<glyph glyph-name="p" unicode="p" horiz-adv-x="685" d="M217 443 L217 500 L197 500 L60 450 C60 450 51 445 39 438 C26 431 17 427 17 427 L60 442 C85 451 102 449 102 402 L102 -175 C102 -206 85 -212 60 -212 L17 -212 C17 -212 26 -214 39 -216 C51 -218 60 -220 60 -220 L160 -220 L260 -220 C260 -220 268 -218 281 -216 C294 -214 302 -212 302 -212 L260 -212 C234 -212 217 -206 217 -175 L217 84 C255 30 320 -4 386 -4 C539 -4 640 117 640 260 C640 411 539 511 386 511 C316 511 251 485 216 444 L217 443 L217 443 Z M216 96 L216 398 C246 437 290 462 332 462 C441 462 513 366 513 223 C513 102 461 -1 384 -1 C318 -1 253 37 216 96 L216 96 Z " />
<glyph glyph-name="q" unicode="q" horiz-adv-x="657" d="M526 -197 L526 390 L526 440 L526 500 L520 500 L482 440 C452 482 381 510 304 510 C127 510 36 406 36 249 C36 97 126 -5 262 -5 C329 -5 385 15 411 48 L411 -197 C411 -210 394 -212 369 -212 L326 -212 C326 -212 335 -214 348 -216 C360 -218 369 -220 369 -220 L469 -220 L569 -220 C569 -220 577 -218 590 -216 C603 -214 611 -212 611 -212 L569 -212 C543 -212 526 -210 526 -197 L526 -197 Z M411 390 L411 87 C391 59 354 42 311 42 C218 42 156 137 156 280 C156 402 204 483 298 483 C337 483 383 445 412 389 L411 390 L411 390 Z " />
<glyph glyph-name="r" unicode="r" horiz-adv-x="536" d="M222 390 L222 437 L222 500 L202 500 L65 450 C65 450 56 445 44 438 C31 431 22 427 22 427 L65 442 C90 451 107 449 107 402 L107 23 C107 10 94 8 75 8 L32 8 C32 8 40 6 51 4 C62 2 70 0 70 0 L167 0 L265 0 C265 0 273 2 286 4 C299 6 307 8 307 8 L265 8 C239 8 222 10 222 23 L222 380 C251 426 296 456 337 456 C370 456 392 442 392 421 C392 381 419 354 460 354 C500 354 527 381 527 421 C527 475 473 510 391 510 C331 510 265 463 223 390 L222 390 L222 390 Z " />
<glyph glyph-name="s" unicode="s" horiz-adv-x="474" d="M294 496 L280 498 C318 484 352 453 371 411 L381 416 C389 399 394 381 394 364 L394 347 C394 347 395 354 398 364 C400 373 402 380 402 380 L402 427 L402 432 L402 484 C402 484 400 489 398 497 C395 505 394 510 394 510 L394 481 C394 473 374 472 344 486 C314 502 277 511 237 511 C134 511 65 456 65 373 C65 297 115 233 213 207 C294 185 336 147 336 106 C336 40 297 -5 238 -5 C230 -5 222 -4 214 -2 L215 -2 C214 -2 213 -2 212 -2 C169 10 127 50 101 106 L91 102 C82 121 77 140 77 156 L77 172 C77 172 75 165 73 156 C71 146 69 139 69 139 L69 95 L69 93 L69 50 C69 50 71 42 73 29 C75 16 77 8 77 8 L77 29 C77 35 106 29 151 11 C177 -2 207 -9 238 -9 C350 -9 425 50 425 139 C425 207 370 267 264 295 C186 315 146 361 146 413 C146 469 182 507 237 507 C252 507 267 504 281 499 L238 507 C259 507 278 503 295 496 L294 496 L294 496 Z " />
<glyph glyph-name="t" unicode="t" horiz-adv-x="431" d="M382 500 L214 500 L214 620 L206 620 L34 449 L34 439 L99 439 L99 186 C99 45 163 -10 260 -10 C343 -10 408 43 421 122 L407 125 C398 76 354 44 295 44 C244 44 210 77 211 161 L214 439 L382 439 L382 500 L382 500 Z " />
<glyph glyph-name="u" unicode="u" horiz-adv-x="665" d="M643 41 L603 32 C578 26 561 34 561 101 L561 477 L561 500 L487 500 L413 500 C413 500 406 498 396 496 C386 494 380 492 380 492 L422 492 C436 492 446 490 446 477 L446 131 C424 94 369 70 303 70 C241 70 200 108 200 165 L200 477 L200 500 L126 500 L52 500 C52 500 45 498 36 496 C26 494 19 492 19 492 L61 492 C76 492 85 490 85 477 L85 165 C85 60 151 -10 249 -10 C333 -10 411 42 446 123 L446 77 L446 -11 L466 -11 L603 23 C603 23 612 27 625 32 C633 36 639 39 643 40 L643 41 L643 41 Z M643 40 C645 41 646 41 646 41 L643 40 L643 40 Z " />
<glyph glyph-name="v" unicode="v" horiz-adv-x="629" d="M74 466 L288 -10 L322 -10 L520 455 C535 486 555 492 580 492 L622 492 C622 492 615 494 606 496 C596 498 589 500 589 500 L540 500 L507 500 L487 500 L425 500 C425 500 418 498 409 496 C399 494 392 492 392 492 L432 492 C460 492 478 488 475 469 L345 134 L200 466 L200 466 C190 488 199 492 217 492 L260 492 C260 492 254 494 244 496 C234 498 228 500 228 500 L185 500 L127 500 L60 500 L26 500 C26 500 19 498 9 496 C0 494 -7 492 -7 492 L44 492 C55 492 65 488 75 466 L74 466 L74 466 Z " />
<glyph glyph-name="w" unicode="w" horiz-adv-x="983" d="M406 476 L462 349 L369 132 L210 473 L210 473 C202 489 205 492 210 492 L263 492 C263 492 257 494 247 496 C237 498 231 500 231 500 L197 500 L135 500 L69 500 L39 500 C39 500 32 498 23 496 C13 494 6 492 6 492 L62 492 C68 492 74 489 81 473 L82 473 L308 -10 L342 -10 L483 300 L621 -10 L655 -10 L861 456 C876 486 895 492 918 492 L960 492 C960 492 954 494 944 496 C934 498 928 500 928 500 L879 500 L845 500 L825 500 L762 500 C762 500 756 498 746 496 C736 494 730 492 730 492 L769 492 C801 492 820 488 811 466 L811 466 L678 134 L531 481 C529 490 532 492 537 492 L590 492 C590 492 583 494 574 496 C564 498 557 500 557 500 L524 500 L461 500 L395 500 L365 500 C365 500 359 498 349 496 C339 494 333 492 333 492 L389 492 C395 492 400 489 406 476 L406 476 Z " />
<glyph glyph-name="x" unicode="x" horiz-adv-x="653" d="M153 52 L153 52 L271 211 L398 41 C415 14 406 8 387 8 L348 8 C348 8 354 6 364 4 C374 2 380 0 380 0 L428 0 L488 0 L569 0 L595 0 C595 0 602 2 612 4 C621 6 628 8 628 8 L571 8 C567 8 561 13 544 34 L366 274 L504 449 L504 449 C505 450 506 451 507 452 L515 462 C537 488 553 493 569 493 L615 493 C615 493 608 495 599 497 C589 499 582 501 582 501 L546 501 L509 501 L493 501 L436 501 C436 501 429 499 419 497 C410 495 403 493 403 493 L440 493 C469 493 483 486 457 452 L457 452 L347 301 L226 463 C211 488 220 493 238 493 L278 493 C278 493 271 495 261 497 C252 499 245 501 245 501 L198 501 L143 501 L57 501 L40 501 C40 501 34 499 24 497 C14 495 8 493 8 493 L63 493 L84 464 C85 462 86 460 87 458 L87 458 L253 235 L93 39 C69 13 53 8 38 8 L-8 8 C-8 8 -2 6 8 4 C18 2 24 0 24 0 L60 0 L102 0 L113 0 L181 0 C181 0 187 2 197 4 C207 6 213 8 213 8 L177 8 C140 8 122 15 152 52 L153 52 L153 52 Z " />
<glyph glyph-name="y" unicode="y" horiz-adv-x="649" d="M75 466 L303 -10 L251 -140 C245 -155 233 -165 221 -165 C193 -165 183 -124 155 -124 C116 -124 90 -147 90 -182 C90 -224 117 -253 157 -253 C207 -253 253 -220 272 -171 L337 -10 L536 446 L536 446 C551 485 572 492 598 492 L641 492 C641 492 634 494 625 496 C615 498 608 500 608 500 L559 500 L526 500 L506 500 L444 500 C444 500 437 498 428 496 C418 494 411 492 411 492 L451 492 C481 492 500 487 493 465 L304 -10 L361 134 L201 466 L202 466 C191 488 200 492 217 492 L260 492 C260 492 254 494 244 496 C234 498 228 500 228 500 L185 500 L127 500 L60 500 L26 500 C26 500 19 498 9 496 C0 494 -7 492 -7 492 L44 492 C55 492 65 488 76 466 L75 466 L75 466 Z " />
<glyph glyph-name="z" unicode="z" horiz-adv-x="506" d="M108 538 C107 536 105 533 103 529 C99 523 96 519 96 519 C94 513 92 506 90 499 L83 499 L83 474 C82 471 81 468 80 466 C76 450 70 429 66 413 C66 413 63 403 59 388 C55 373 52 363 52 363 L72 405 C85 434 106 455 160 461 L328 467 L40 26 L40 -1 L161 -1 L349 -1 L461 -1 C463 12 465 29 467 42 C469 55 471 72 473 85 L478 110 L483 135 L467 92 C456 63 433 42 360 36 L181 30 L466 471 L466 498 L349 498 L110 498 C105 498 99 502 100 508 L108 538 L108 538 Z M108 536 L108 538 C108 538 108 537 107 536 L108 536 L108 536 Z " />
<glyph glyph-name="bar" unicode="&#x7c;" horiz-adv-x="209" d="M60 797 L60 -250 L149 -250 L149 797 L60 797 L60 797 Z " />
<glyph glyph-name="exclamdown" unicode="&#xa1;" horiz-adv-x="280" d="M140 505 C93 505 61 473 60 425 C61 377 93 345 140 345 C189 345 221 377 220 425 C221 473 189 505 140 505 L140 505 Z M140 -255 C208 -255 221 -206 211 -132 L151 290 L130 290 L70 -132 C60 -206 72 -255 140 -255 L140 -255 Z " />
<glyph glyph-name="cent" unicode="&#xa2;" horiz-adv-x="565" d="M302 575 L302 509 C140 496 33 390 33 235 C33 94 140 -2 302 -8 L302 -73 L343 -73 L343 -7 C427 2 502 54 536 130 L520 137 C500 92 437 62 361 62 C355 62 349 62 343 62 L343 484 C379 478 412 448 427 406 C440 372 463 349 484 349 C532 349 555 372 542 406 C519 468 440 510 343 512 L343 577 L302 575 L302 575 Z M302 69 C213 92 156 170 156 278 C156 390 213 469 302 483 L302 69 L302 69 Z " />
<glyph glyph-name="questiondown" unicode="&#xbf;" horiz-adv-x="295" d="M170 505 C122 505 90 473 90 425 C90 377 122 345 170 345 C218 345 250 377 250 425 C250 473 218 505 170 505 L170 505 Z M168 260 L170 140 C70 140 38 109 7 63 C-12 36 -24 -12 -24 -57 C-24 -179 46 -260 150 -260 C215 -260 258 -226 258 -175 C258 -141 233 -118 196 -118 C169 -118 136 -138 108 -138 C49 -138 10 -100 10 -43 C10 -32 19 -12 32 8 C53 39 80 60 198 60 L188 260 L168 260 L168 260 Z " />
<glyph glyph-name="Agrave" unicode="&#xc0;" horiz-adv-x="835" d="M696 128 L696 128 L489 709 L467 770 L454 770 C432 738 394 714 360 709 L364 698 L240 299 L240 299 L240 298 L196 158 L196 158 C156 32 112 8 56 8 L14 8 C14 8 20 6 30 4 C40 2 46 0 46 0 L147 0 L152 0 L166 0 L285 0 C285 0 291 2 301 4 C311 6 317 8 317 8 L277 8 C204 8 162 32 201 158 L201 158 L243 294 L505 294 L569 110 C595 24 565 7 512 7 L472 7 C472 7 478 5 488 3 C498 1 504 -1 504 -1 L607 -1 L653 -1 L742 -1 L802 -1 C802 -1 808 1 818 3 C828 5 834 7 834 7 L792 7 C760 7 731 26 697 127 L696 128 L696 128 Z M335 980 C309 1019 289 1045 280 1045 C249 1045 223 1018 223 987 C223 978 247 956 282 928 L427 810 L441 825 L335 980 L335 980 Z M244 298 L366 693 L503 298 L244 298 L244 298 Z " />
<glyph glyph-name="Aacute" unicode="&#xc1;" horiz-adv-x="835" d="M433 811 L578 929 C613 958 637 981 637 988 C637 1019 610 1046 579 1046 C573 1046 552 1020 525 981 L419 826 L433 811 L433 811 Z M696 128 L696 128 L489 709 L467 770 L454 770 C432 738 394 714 360 709 L364 698 L240 299 L240 299 L240 298 L196 158 L196 158 C156 32 112 8 56 8 L14 8 C14 8 20 6 30 4 C40 2 46 0 46 0 L147 0 L152 0 L166 0 L285 0 C285 0 291 2 301 4 C311 6 317 8 317 8 L277 8 C204 8 162 32 201 158 L201 158 L243 294 L505 294 L569 110 C595 24 565 7 512 7 L472 7 C472 7 478 5 488 3 C498 1 504 -1 504 -1 L607 -1 L653 -1 L742 -1 L802 -1 C802 -1 808 1 818 3 C828 5 834 7 834 7 L792 7 C760 7 731 26 697 127 L696 128 L696 128 Z M244 298 L366 693 L503 298 L244 298 L244 298 Z " />
<glyph glyph-name="Acircumflex" unicode="&#xc2;" horiz-adv-x="835" d="M696 128 L696 128 L489 709 L467 770 L454 770 C432 738 394 714 360 709 L364 698 L240 299 L240 299 L240 298 L196 158 L196 158 C156 32 112 8 56 8 L14 8 C14 8 20 6 30 4 C40 2 46 0 46 0 L147 0 L152 0 L166 0 L285 0 C285 0 291 2 301 4 C311 6 317 8 317 8 L277 8 C204 8 162 32 201 158 L201 158 L243 294 L505 294 L569 110 C595 24 565 7 512 7 L472 7 C472 7 478 5 488 3 C498 1 504 -1 504 -1 L607 -1 L653 -1 L742 -1 L802 -1 C802 -1 808 1 818 3 C828 5 834 7 834 7 L792 7 C760 7 731 26 697 127 L696 128 L696 128 Z M426 920 L564 804 L580 817 L466 995 C458 1007 439 1036 425 1036 C412 1036 393 1008 385 995 L271 817 L287 804 L426 920 L426 920 Z M244 298 L366 693 L503 298 L244 298 L244 298 Z " />
<glyph glyph-name="Atilde" unicode="&#xc3;" horiz-adv-x="835" d="M259 870 C259 903 279 925 310 925 C375 925 441 860 506 860 C558 860 593 916 593 1001 L590 1001 C590 965 567 941 533 941 C467 941 401 1006 336 1006 C288 1006 256 952 256 870 L259 870 L259 870 Z M696 128 L696 128 L489 709 L467 770 L454 770 C432 738 394 714 360 709 L364 698 L240 299 L240 299 L240 298 L196 158 L196 158 C156 32 112 8 56 8 L14 8 C14 8 20 6 30 4 C40 2 46 0 46 0 L147 0 L152 0 L166 0 L285 0 C285 0 291 2 301 4 C311 6 317 8 317 8 L277 8 C204 8 162 32 201 158 L201 158 L243 294 L505 294 L569 110 C595 24 565 7 512 7 L472 7 C472 7 478 5 488 3 C498 1 504 -1 504 -1 L607 -1 L653 -1 L742 -1 L802 -1 C802 -1 808 1 818 3 C828 5 834 7 834 7 L792 7 C760 7 731 26 697 127 L696 128 L696 128 Z M244 298 L366 693 L503 298 L244 298 L244 298 Z " />
<glyph glyph-name="Adieresis" unicode="&#xc4;" horiz-adv-x="835" d="M508 865 C552 865 582 895 582 939 C582 984 552 1014 508 1014 C463 1014 433 984 433 939 C433 895 463 865 508 865 L508 865 Z M341 865 C385 865 415 895 415 939 C415 984 385 1014 341 1014 C297 1014 267 984 267 939 C267 895 297 865 341 865 L341 865 Z M696 128 L696 128 L489 709 L467 770 L454 770 C432 738 394 714 360 709 L364 698 L240 299 L240 299 L240 298 L196 158 L196 158 C156 32 112 8 56 8 L14 8 C14 8 20 6 30 4 C40 2 46 0 46 0 L147 0 L152 0 L166 0 L285 0 C285 0 291 2 301 4 C311 6 317 8 317 8 L277 8 C204 8 162 32 201 158 L201 158 L243 294 L505 294 L569 110 C595 24 565 7 512 7 L472 7 C472 7 478 5 488 3 C498 1 504 -1 504 -1 L607 -1 L653 -1 L742 -1 L802 -1 C802 -1 808 1 818 3 C828 5 834 7 834 7 L792 7 C760 7 731 26 697 127 L696 128 L696 128 Z M244 298 L366 693 L503 298 L244 298 L244 298 Z " />
<glyph glyph-name="Aring" unicode="&#xc5;" horiz-adv-x="835" d="M424 837 C390 837 360 868 360 905 C360 946 386 973 424 973 C463 973 489 946 489 905 C489 868 459 837 424 837 L424 837 Z M326 905 C326 854 371 810 424 810 C478 810 523 854 523 905 C523 962 484 1000 424 1000 C365 1000 326 962 326 905 L326 905 Z M696 128 L696 128 L489 709 L467 770 L454 770 C432 738 394 714 360 709 L364 698 L240 299 L240 299 L240 298 L196 158 L196 158 C156 32 112 8 56 8 L14 8 C14 8 20 6 30 4 C40 2 46 0 46 0 L147 0 L152 0 L166 0 L285 0 C285 0 291 2 301 4 C311 6 317 8 317 8 L277 8 C204 8 162 32 201 158 L201 158 L243 294 L505 294 L569 110 C595 24 565 7 512 7 L472 7 C472 7 478 5 488 3 C498 1 504 -1 504 -1 L607 -1 L653 -1 L742 -1 L802 -1 C802 -1 808 1 818 3 C828 5 834 7 834 7 L792 7 C760 7 731 26 697 127 L696 128 L696 128 Z M244 298 L366 693 L503 298 L244 298 L244 298 Z " />
<glyph glyph-name="Egrave" unicode="&#xc8;" horiz-adv-x="705" d="M282 981 C256 1020 236 1046 228 1046 C197 1046 170 1019 170 988 C170 979 194 957 230 929 L374 811 L389 826 L282 981 L282 981 Z M525 0 L633 0 C634 10 636 24 637 33 C639 43 641 57 642 67 C642 67 643 79 643 98 L643 129 L637 87 C630 37 610 4 526 4 L318 4 C271 4 266 23 266 52 L266 73 L266 385 L440 385 C524 385 540 346 540 287 L540 245 C540 245 542 259 544 280 C546 301 548 315 548 315 L548 385 L548 387 L548 390 L548 460 C548 460 546 474 544 495 C542 516 540 530 540 530 L540 487 C540 429 524 390 440 390 L266 390 L266 677 L266 746 L500 746 C601 746 603 708 607 651 L609 621 C609 621 610 633 611 652 C612 671 613 683 612 683 C612 693 611 707 610 717 C610 726 609 740 608 750 L500 750 L266 750 L176 750 L138 750 L85 750 C85 750 75 748 59 746 C43 744 33 742 33 742 L75 742 C113 742 138 732 138 677 L138 73 C138 18 113 8 75 8 L33 8 C33 8 43 6 59 4 C75 2 85 0 85 0 L138 0 L176 0 L266 0 L525 0 L525 0 Z " />
<glyph glyph-name="Eacute" unicode="&#xc9;" horiz-adv-x="705" d="M381 811 L526 929 C561 958 585 981 585 988 C585 1019 559 1046 528 1046 C521 1046 500 1020 473 981 L367 826 L381 811 L381 811 Z M525 0 L633 0 C634 10 636 24 637 33 C639 43 641 57 642 67 C642 67 643 79 643 98 L643 129 L637 87 C630 37 610 4 526 4 L318 4 C271 4 266 23 266 52 L266 73 L266 385 L440 385 C524 385 540 346 540 287 L540 245 C540 245 542 259 544 280 C546 301 548 315 548 315 L548 385 L548 387 L548 390 L548 460 C548 460 546 474 544 495 C542 516 540 530 540 530 L540 487 C540 429 524 390 440 390 L266 390 L266 677 L266 746 L500 746 C601 746 603 708 607 651 L609 621 C609 621 610 633 611 652 C612 671 613 683 612 683 C612 693 611 707 610 717 C610 726 609 740 608 750 L500 750 L266 750 L176 750 L138 750 L85 750 C85 750 75 748 59 746 C43 744 33 742 33 742 L75 742 C113 742 138 732 138 677 L138 73 C138 18 113 8 75 8 L33 8 C33 8 43 6 59 4 C75 2 85 0 85 0 L138 0 L176 0 L266 0 L525 0 L525 0 Z " />
<glyph glyph-name="Ecircumflex" unicode="&#xca;" horiz-adv-x="705" d="M373 922 L512 805 L527 818 L414 996 C406 1008 386 1037 373 1037 C359 1037 340 1009 332 996 L218 818 L234 805 L373 922 L373 922 Z M525 0 L633 0 C634 10 636 24 637 33 C639 43 641 57 642 67 C642 67 643 79 643 98 L643 129 L637 87 C630 37 610 4 526 4 L318 4 C271 4 266 23 266 52 L266 73 L266 385 L440 385 C524 385 540 346 540 287 L540 245 C540 245 542 259 544 280 C546 301 548 315 548 315 L548 385 L548 387 L548 390 L548 460 C548 460 546 474 544 495 C542 516 540 530 540 530 L540 487 C540 429 524 390 440 390 L266 390 L266 677 L266 746 L500 746 C601 746 603 708 607 651 L609 621 C609 621 610 633 611 652 C612 671 613 683 612 683 C612 693 611 707 610 717 C610 726 609 740 608 750 L500 750 L266 750 L176 750 L138 750 L85 750 C85 750 75 748 59 746 C43 744 33 742 33 742 L75 742 C113 742 138 732 138 677 L138 73 C138 18 113 8 75 8 L33 8 C33 8 43 6 59 4 C75 2 85 0 85 0 L138 0 L176 0 L266 0 L525 0 L525 0 Z " />
<glyph glyph-name="Edieresis" unicode="&#xcb;" horiz-adv-x="705" d="M456 865 C501 865 531 895 531 939 C531 984 501 1014 456 1014 C412 1014 382 984 382 939 C382 895 412 865 456 865 L456 865 Z M289 865 C334 865 364 895 364 939 C364 984 334 1014 289 1014 C245 1014 215 984 215 939 C215 895 245 865 289 865 L289 865 Z M525 0 L633 0 C634 10 636 24 637 33 C639 43 641 57 642 67 C642 67 643 79 643 98 L643 129 L637 87 C630 37 610 4 526 4 L318 4 C271 4 266 23 266 52 L266 73 L266 385 L440 385 C524 385 540 346 540 287 L540 245 C540 245 542 259 544 280 C546 301 548 315 548 315 L548 385 L548 387 L548 390 L548 460 C548 460 546 474 544 495 C542 516 540 530 540 530 L540 487 C540 429 524 390 440 390 L266 390 L266 677 L266 746 L500 746 C601 746 603 708 607 651 L609 621 C609 621 610 633 611 652 C612 671 613 683 612 683 C612 693 611 707 610 717 C610 726 609 740 608 750 L500 750 L266 750 L176 750 L138 750 L85 750 C85 750 75 748 59 746 C43 744 33 742 33 742 L75 742 C113 742 138 732 138 677 L138 73 C138 18 113 8 75 8 L33 8 C33 8 43 6 59 4 C75 2 85 0 85 0 L138 0 L176 0 L266 0 L525 0 L525 0 Z " />
<glyph glyph-name="Igrave" unicode="&#xcc;" horiz-adv-x="399" d="M99 981 C74 1020 54 1046 45 1046 C14 1046 -12 1019 -12 988 C-12 979 12 957 47 929 L191 811 L206 826 L99 981 L99 981 Z M254 68 L254 682 C254 732 279 742 317 742 L359 742 C359 742 349 744 333 746 C317 748 307 750 307 750 L190 750 L73 750 C73 750 63 748 47 746 C31 744 21 742 21 742 L63 742 C101 742 126 732 126 682 L126 68 C126 18 101 8 63 8 L21 8 C21 8 31 6 47 4 C63 2 73 0 73 0 L190 0 L307 0 C307 0 317 2 333 4 C349 6 359 8 359 8 L317 8 C279 8 254 18 254 68 L254 68 Z " />
<glyph glyph-name="Iacute" unicode="&#xcd;" horiz-adv-x="399" d="M199 811 L343 929 C378 958 402 981 402 988 C402 1019 376 1046 345 1046 C338 1046 317 1020 291 981 L184 826 L199 811 L199 811 Z M254 68 L254 682 C254 732 279 742 317 742 L359 742 C359 742 349 744 333 746 C317 748 307 750 307 750 L190 750 L73 750 C73 750 63 748 47 746 C31 744 21 742 21 742 L63 742 C101 742 126 732 126 682 L126 68 C126 18 101 8 63 8 L21 8 C21 8 31 6 47 4 C63 2 73 0 73 0 L190 0 L307 0 C307 0 317 2 333 4 C349 6 359 8 359 8 L317 8 C279 8 254 18 254 68 L254 68 Z " />
<glyph glyph-name="Icircumflex" unicode="&#xce;" horiz-adv-x="399" d="M190 922 L329 805 L344 818 L231 996 C223 1008 203 1037 190 1037 C177 1037 158 1009 150 996 L36 818 L51 805 L190 922 L190 922 Z M254 68 L254 682 C254 732 279 742 317 742 L359 742 C359 742 349 744 333 746 C317 748 307 750 307 750 L190 750 L73 750 C73 750 63 748 47 746 C31 744 21 742 21 742 L63 742 C101 742 126 732 126 682 L126 68 C126 18 101 8 63 8 L21 8 C21 8 31 6 47 4 C63 2 73 0 73 0 L190 0 L307 0 C307 0 317 2 333 4 C349 6 359 8 359 8 L317 8 C279 8 254 18 254 68 L254 68 Z " />
<glyph glyph-name="Idieresis" unicode="&#xcf;" horiz-adv-x="399" d="M273 865 C318 865 348 895 348 939 C348 984 318 1014 273 1014 C229 1014 199 984 199 939 C199 895 229 865 273 865 L273 865 Z M107 865 C151 865 181 895 181 939 C181 984 151 1014 107 1014 C62 1014 32 984 32 939 C32 895 62 865 107 865 L107 865 Z M254 68 L254 682 C254 732 279 742 317 742 L359 742 C359 742 349 744 333 746 C317 748 307 750 307 750 L190 750 L73 750 C73 750 63 748 47 746 C31 744 21 742 21 742 L63 742 C101 742 126 732 126 682 L126 68 C126 18 101 8 63 8 L21 8 C21 8 31 6 47 4 C63 2 73 0 73 0 L190 0 L307 0 C307 0 317 2 333 4 C349 6 359 8 359 8 L317 8 C279 8 254 18 254 68 L254 68 Z " />
<glyph glyph-name="Ntilde" unicode="&#xd1;" horiz-adv-x="837" d="M249 870 C249 903 269 925 299 925 C364 925 430 860 495 860 C547 860 582 916 582 1001 L579 1001 C579 965 556 941 522 941 C457 941 391 1006 325 1006 C277 1006 245 952 245 870 L249 870 L249 870 Z M199 750 L169 750 L137 750 L106 750 L40 750 L14 750 C14 750 7 748 -3 746 C-12 744 -19 742 -19 742 L38 742 C43 742 51 736 75 707 L75 707 L136 632 L135 116 C130 26 98 8 52 8 L9 8 C9 8 16 6 26 4 C35 2 42 0 42 0 L134 0 L154 0 L173 0 L265 0 C265 0 272 2 282 4 C291 6 298 8 298 8 L256 8 C208 8 176 25 173 113 L170 591 L506 182 L657 -1 L682 -1 L691 641 L691 641 C690 725 723 741 773 741 L816 741 C816 741 803 743 784 745 C766 747 753 749 753 749 L692 749 L672 749 L653 749 L591 749 C591 749 579 747 560 745 C541 743 529 741 529 741 L571 741 C617 741 649 727 653 655 L655 203 L606 262 L199 750 L199 750 Z " />
<glyph glyph-name="Ograve" unicode="&#xd2;" horiz-adv-x="928" d="M443 -5 C289 -5 187 147 187 375 C187 603 293 755 451 755 C616 755 726 603 726 375 C726 147 613 -5 443 -5 L443 -5 Z M40 375 C40 144 201 -10 442 -10 C701 -10 873 144 873 375 C873 606 705 760 452 760 C205 760 40 606 40 375 L40 375 Z M361 981 C335 1020 315 1046 307 1046 C276 1046 249 1019 249 988 C249 979 273 957 309 929 L453 811 L468 826 L361 981 L361 981 Z " />
<glyph glyph-name="Oacute" unicode="&#xd3;" horiz-adv-x="928" d="M460 811 L605 929 C640 958 664 981 664 988 C664 1019 638 1046 607 1046 C600 1046 579 1020 552 981 L446 826 L460 811 L460 811 Z M443 -5 C289 -5 187 147 187 375 C187 603 293 755 451 755 C616 755 726 603 726 375 C726 147 613 -5 443 -5 L443 -5 Z M40 375 C40 144 201 -10 442 -10 C701 -10 873 144 873 375 C873 606 705 760 452 760 C205 760 40 606 40 375 L40 375 Z " />
<glyph glyph-name="Ocircumflex" unicode="&#xd4;" horiz-adv-x="928" d="M443 -5 C289 -5 187 147 187 375 C187 603 293 755 451 755 C616 755 726 603 726 375 C726 147 613 -5 443 -5 L443 -5 Z M40 375 C40 144 201 -10 442 -10 C701 -10 873 144 873 375 C873 606 705 760 452 760 C205 760 40 606 40 375 L40 375 Z M452 922 L591 805 L606 818 L492 996 C485 1008 465 1037 452 1037 C438 1037 419 1009 411 996 L297 818 L313 805 L452 922 L452 922 Z " />
<glyph glyph-name="Otilde" unicode="&#xd5;" horiz-adv-x="928" d="M287 870 C287 903 307 925 337 925 C402 925 468 860 534 860 C585 860 620 916 620 1001 L617 1001 C617 965 594 941 560 941 C495 941 429 1006 363 1006 C316 1006 284 952 284 870 L287 870 L287 870 Z M443 -5 C289 -5 187 147 187 375 C187 603 293 755 451 755 C616 755 726 603 726 375 C726 147 613 -5 443 -5 L443 -5 Z M40 375 C40 144 201 -10 442 -10 C701 -10 873 144 873 375 C873 606 705 760 452 760 C205 760 40 606 40 375 L40 375 Z " />
<glyph glyph-name="Odieresis" unicode="&#xd6;" horiz-adv-x="928" d="M535 865 C580 865 610 895 610 939 C610 984 580 1014 535 1014 C491 1014 461 984 461 939 C461 895 491 865 535 865 L535 865 Z M368 865 C413 865 443 895 443 939 C443 984 413 1014 368 1014 C324 1014 294 984 294 939 C294 895 324 865 368 865 L368 865 Z M443 -5 C289 -5 187 147 187 375 C187 603 293 755 451 755 C616 755 726 603 726 375 C726 147 613 -5 443 -5 L443 -5 Z M40 375 C40 144 201 -10 442 -10 C701 -10 873 144 873 375 C873 606 705 760 452 760 C205 760 40 606 40 375 L40 375 Z " />
<glyph glyph-name="Oslash" unicode="&#xd8;" horiz-adv-x="928" d="M43 -13 L156 91 C226 27 325 -10 443 -10 C702 -10 874 144 874 375 C874 489 833 584 762 651 L877 757 L871 763 L756 656 C683 722 579 760 454 760 C207 760 42 606 42 375 C42 260 82 164 152 97 L40 -7 L43 -13 L43 -13 Z M446 -5 C349 -5 273 55 230 156 L691 583 C716 525 729 455 729 375 C729 147 616 -5 446 -5 L446 -5 Z M226 165 C203 223 190 294 190 375 C190 603 296 755 454 755 C559 755 641 694 687 591 L226 165 L226 165 Z " />
<glyph glyph-name="Ugrave" unicode="&#xd9;" horiz-adv-x="841" d="M324 981 C298 1020 278 1046 270 1046 C239 1046 213 1019 213 988 C213 979 237 957 272 929 L416 811 L431 826 L324 981 L324 981 Z M727 98 L727 677 L727 750 L636 750 L546 750 C546 750 535 748 520 746 C504 744 493 742 493 742 L536 742 C573 742 598 732 598 677 L598 206 C562 126 478 73 389 73 C294 73 231 134 231 226 L231 677 L231 750 L141 750 L50 750 C50 750 40 748 24 746 C8 744 -2 742 -2 742 L40 742 C78 742 103 732 103 677 L103 226 C103 85 197 -10 338 -10 C450 -10 554 53 598 148 L598 98 L598 0 L619 0 L831 49 L831 53 C744 48 727 54 727 98 L727 98 Z " />
<glyph glyph-name="Uacute" unicode="&#xda;" horiz-adv-x="841" d="M424 811 L568 929 C603 958 627 981 627 988 C627 1019 601 1046 570 1046 C563 1046 542 1020 515 981 L409 826 L424 811 L424 811 Z M727 98 L727 677 L727 750 L636 750 L546 750 C546 750 535 748 520 746 C504 744 493 742 493 742 L536 742 C573 742 598 732 598 677 L598 206 C562 126 478 73 389 73 C294 73 231 134 231 226 L231 677 L231 750 L141 750 L50 750 C50 750 40 748 24 746 C8 744 -2 742 -2 742 L40 742 C78 742 103 732 103 677 L103 226 C103 85 197 -10 338 -10 C450 -10 554 53 598 148 L598 98 L598 0 L619 0 L831 49 L831 53 C744 48 727 54 727 98 L727 98 Z " />
<glyph glyph-name="Ucircumflex" unicode="&#xdb;" horiz-adv-x="841" d="M415 922 L554 805 L569 818 L456 996 C448 1008 428 1037 415 1037 C401 1037 382 1009 375 996 L261 818 L276 805 L415 922 L415 922 Z M727 98 L727 677 L727 750 L636 750 L546 750 C546 750 535 748 520 746 C504 744 493 742 493 742 L536 742 C573 742 598 732 598 677 L598 206 C562 126 478 73 389 73 C294 73 231 134 231 226 L231 677 L231 750 L141 750 L50 750 C50 750 40 748 24 746 C8 744 -2 742 -2 742 L40 742 C78 742 103 732 103 677 L103 226 C103 85 197 -10 338 -10 C450 -10 554 53 598 148 L598 98 L598 0 L619 0 L831 49 L831 53 C744 48 727 54 727 98 L727 98 Z " />
<glyph glyph-name="Udieresis" unicode="&#xdc;" horiz-adv-x="841" d="M498 865 C543 865 573 895 573 939 C573 984 543 1014 498 1014 C454 1014 424 984 424 939 C424 895 454 865 498 865 L498 865 Z M331 865 C376 865 406 895 406 939 C406 984 376 1014 331 1014 C287 1014 257 984 257 939 C257 895 287 865 331 865 L331 865 Z M727 98 L727 677 L727 750 L636 750 L546 750 C546 750 535 748 520 746 C504 744 493 742 493 742 L536 742 C573 742 598 732 598 677 L598 206 C562 126 478 73 389 73 C294 73 231 134 231 226 L231 677 L231 750 L141 750 L50 750 C50 750 40 748 24 746 C8 744 -2 742 -2 742 L40 742 C78 742 103 732 103 677 L103 226 C103 85 197 -10 338 -10 C450 -10 554 53 598 148 L598 98 L598 0 L619 0 L831 49 L831 53 C744 48 727 54 727 98 L727 98 Z " />
<glyph glyph-name="Yacute" unicode="&#xdd;" horiz-adv-x="797" d="M416 811 L561 929 C596 958 620 981 620 988 C620 1019 594 1046 563 1046 C556 1046 535 1020 508 981 L402 826 L416 811 L416 811 Z M279 641 C227 725 241 742 276 742 L314 742 C314 742 307 744 297 746 C288 748 281 750 281 750 L209 750 L155 750 L57 750 L30 750 C30 750 23 748 13 746 C4 744 -3 742 -3 742 L54 742 C59 742 75 723 141 622 L142 622 L344 316 L344 68 C344 18 319 8 281 8 L239 8 C239 8 249 6 265 4 C281 2 291 0 291 0 L408 0 L525 0 C525 0 535 2 551 4 C567 6 577 8 577 8 L535 8 C497 8 472 18 472 68 L472 337 L642 635 C695 725 722 742 746 742 L789 742 C789 742 782 744 773 746 C763 748 756 750 756 750 L708 750 L699 750 L691 750 L626 750 C626 750 620 748 610 746 C600 744 594 742 594 742 L632 742 C668 742 683 726 641 647 L470 343 L279 641 L279 641 Z " />
<glyph glyph-name="agrave" unicode="&#xe0;" horiz-adv-x="589" d="M174 731 C148 770 128 796 119 796 C88 796 62 769 62 738 C62 729 86 707 121 679 L266 561 L280 576 L174 731 L174 731 Z M591 41 L552 32 C527 26 510 38 510 121 L510 450 L510 510 L496 510 L419 464 C382 492 328 510 263 510 C115 510 38 406 38 249 C38 97 119 -5 241 -5 C301 -5 361 21 394 62 L394 -10 L414 -10 L551 24 C551 24 560 28 572 33 C580 37 587 40 591 41 L591 41 Z M591 41 C593 42 594 42 594 42 L591 41 L591 41 Z M394 401 L394 102 C366 66 325 43 290 43 C210 43 156 138 156 281 C156 398 197 477 278 477 C337 477 380 444 395 400 L394 401 L394 401 Z " />
<glyph glyph-name="aacute" unicode="&#xe1;" horiz-adv-x="589" d="M273 561 L418 679 C453 708 477 731 477 738 C477 769 450 796 419 796 C413 796 392 770 365 731 L259 576 L273 561 L273 561 Z M591 41 L552 32 C527 26 510 38 510 121 L510 450 L510 510 L496 510 L419 464 C382 492 328 510 263 510 C115 510 38 406 38 249 C38 97 119 -5 241 -5 C301 -5 361 21 394 62 L394 -10 L414 -10 L551 24 C551 24 560 28 572 33 C580 37 587 40 591 41 L591 41 Z M591 41 C593 42 594 42 594 42 L591 41 L591 41 Z M394 401 L394 102 C366 66 325 43 290 43 C210 43 156 138 156 281 C156 398 197 477 278 477 C337 477 380 444 395 400 L394 401 L394 401 Z " />
<glyph glyph-name="acircumflex" unicode="&#xe2;" horiz-adv-x="589" d="M265 671 L403 555 L419 568 L305 746 C297 758 278 787 264 787 C251 787 232 759 224 746 L110 568 L126 555 L265 671 L265 671 Z M591 41 L552 32 C527 26 510 38 510 121 L510 450 L510 510 L496 510 L419 464 C382 492 328 510 263 510 C115 510 38 406 38 249 C38 97 119 -5 241 -5 C301 -5 361 21 394 62 L394 -10 L414 -10 L551 24 C551 24 560 28 572 33 C580 37 587 40 591 41 L591 41 Z M591 41 C593 42 594 42 594 42 L591 41 L591 41 Z M394 401 L394 102 C366 66 325 43 290 43 C210 43 156 138 156 281 C156 398 197 477 278 477 C337 477 380 444 395 400 L394 401 L394 401 Z " />
<glyph glyph-name="atilde" unicode="&#xe3;" horiz-adv-x="589" d="M99 620 C99 653 119 675 150 675 C215 675 281 610 346 610 C398 610 433 666 433 751 L430 751 C430 715 407 691 373 691 C307 691 241 756 176 756 C128 756 96 702 96 620 L99 620 L99 620 Z M591 41 L552 32 C527 26 510 38 510 121 L510 450 L510 510 L496 510 L419 464 C382 492 328 510 263 510 C115 510 38 406 38 249 C38 97 119 -5 241 -5 C301 -5 361 21 394 62 L394 -10 L414 -10 L551 24 C551 24 560 28 572 33 C580 37 587 40 591 41 L591 41 Z M591 41 C593 42 594 42 594 42 L591 41 L591 41 Z M394 401 L394 102 C366 66 325 43 290 43 C210 43 156 138 156 281 C156 398 197 477 278 477 C337 477 380 444 395 400 L394 401 L394 401 Z " />
<glyph glyph-name="adieresis" unicode="&#xe4;" horiz-adv-x="589" d="M348 615 C392 615 422 645 422 689 C422 734 392 764 348 764 C303 764 273 734 273 689 C273 645 303 615 348 615 L348 615 Z M181 615 C225 615 255 645 255 689 C255 734 225 764 181 764 C137 764 107 734 107 689 C107 645 137 615 181 615 L181 615 Z M591 41 L552 32 C527 26 510 38 510 121 L510 450 L510 510 L496 510 L419 464 C382 492 328 510 263 510 C115 510 38 406 38 249 C38 97 119 -5 241 -5 C301 -5 361 21 394 62 L394 -10 L414 -10 L551 24 C551 24 560 28 572 33 C580 37 587 40 591 41 L591 41 Z M591 41 C593 42 594 42 594 42 L591 41 L591 41 Z M394 401 L394 102 C366 66 325 43 290 43 C210 43 156 138 156 281 C156 398 197 477 278 477 C337 477 380 444 395 400 L394 401 L394 401 Z " />
<glyph glyph-name="aring" unicode="&#xe5;" horiz-adv-x="589" d="M264 587 C230 587 200 618 200 655 C200 696 226 723 264 723 C303 723 329 696 329 655 C329 618 299 587 264 587 L264 587 Z M166 655 C166 604 211 560 264 560 C318 560 363 604 363 655 C363 712 324 750 264 750 C205 750 166 712 166 655 L166 655 Z M591 41 L552 32 C527 26 510 38 510 121 L510 450 L510 510 L496 510 L419 464 C382 492 328 510 263 510 C115 510 38 406 38 249 C38 97 119 -5 241 -5 C301 -5 361 21 394 62 L394 -10 L414 -10 L551 24 C551 24 560 28 572 33 C580 37 587 40 591 41 L591 41 Z M591 41 C593 42 594 42 594 42 L591 41 L591 41 Z M394 401 L394 102 C366 66 325 43 290 43 C210 43 156 138 156 281 C156 398 197 477 278 477 C337 477 380 444 395 400 L394 401 L394 401 Z " />
<glyph glyph-name="egrave" unicode="&#xe8;" horiz-adv-x="578" d="M226 731 C200 770 180 796 172 796 C141 796 114 769 114 738 C114 729 138 707 173 679 L318 561 L332 576 L226 731 L226 731 Z M160 340 L421 340 L517 340 L548 340 C527 462 437 510 317 510 C146 510 33 397 33 228 C33 85 136 -10 291 -10 C407 -10 505 46 535 131 L521 136 C506 94 425 66 318 66 C220 66 154 150 154 275 C154 298 156 320 160 340 L160 340 Z M503 374 C507 374 511 374 516 374 L503 374 L503 374 Z M413 372 L166 367 C189 439 240 483 308 483 C354 483 392 451 412 371 L413 372 L413 372 Z " />
<glyph glyph-name="eacute" unicode="&#xe9;" horiz-adv-x="578" d="M325 561 L470 679 C505 708 529 731 529 738 C529 769 503 796 472 796 C465 796 444 770 417 731 L311 576 L325 561 L325 561 Z M160 340 L421 340 L517 340 L548 340 C527 462 437 510 317 510 C146 510 33 397 33 228 C33 85 136 -10 291 -10 C407 -10 505 46 535 131 L521 136 C506 94 425 66 318 66 C220 66 154 150 154 275 C154 298 156 320 160 340 L160 340 Z M503 374 C507 374 511 374 516 374 L503 374 L503 374 Z M413 372 L166 367 C189 439 240 483 308 483 C354 483 392 451 412 371 L413 372 L413 372 Z " />
<glyph glyph-name="ecircumflex" unicode="&#xea;" horiz-adv-x="578" d="M317 671 L455 555 L471 568 L357 746 C349 758 330 787 317 787 C303 787 284 759 276 746 L162 568 L178 555 L317 671 L317 671 Z M160 340 L421 340 L517 340 L548 340 C527 462 437 510 317 510 C146 510 33 397 33 228 C33 85 136 -10 291 -10 C407 -10 505 46 535 131 L521 136 C506 94 425 66 318 66 C220 66 154 150 154 275 C154 298 156 320 160 340 L160 340 Z M503 374 C507 374 511 374 516 374 L503 374 L503 374 Z M413 372 L166 367 C189 439 240 483 308 483 C354 483 392 451 412 371 L413 372 L413 372 Z " />
<glyph glyph-name="edieresis" unicode="&#xeb;" horiz-adv-x="578" d="M400 615 C445 615 475 645 475 689 C475 734 445 764 400 764 C356 764 326 734 326 689 C326 645 356 615 400 615 L400 615 Z M233 615 C278 615 308 645 308 689 C308 734 278 764 233 764 C189 764 159 734 159 689 C159 645 189 615 233 615 L233 615 Z M160 340 L421 340 L517 340 L548 340 C527 462 437 510 317 510 C146 510 33 397 33 228 C33 85 136 -10 291 -10 C407 -10 505 46 535 131 L521 136 C506 94 425 66 318 66 C220 66 154 150 154 275 C154 298 156 320 160 340 L160 340 Z M503 374 C507 374 511 374 516 374 L503 374 L503 374 Z M413 372 L166 367 C189 439 240 483 308 483 C354 483 392 451 412 371 L413 372 L413 372 Z " />
<glyph glyph-name="igrave" unicode="&#xec;" horiz-adv-x="332" d="M74 731 C48 770 28 796 20 796 C-11 796 -38 769 -38 738 C-38 729 -14 707 22 679 L166 561 L181 576 L74 731 L74 731 Z M222 23 L222 396 L222 500 L202 500 L26 445 L26 441 C94 444 107 439 107 396 L107 23 C107 10 92 8 70 8 L27 8 C27 8 35 6 47 4 C59 2 67 0 67 0 L166 0 L264 0 C264 0 272 2 285 4 C297 6 305 8 305 8 L263 8 C238 8 222 10 222 23 L222 23 Z " />
<glyph glyph-name="iacute" unicode="&#xed;" horiz-adv-x="332" d="M74 731 C48 770 28 796 20 796 C-11 796 -38 769 -38 738 C-38 729 -14 707 22 679 L166 561 L181 576 L74 731 L74 731 Z M222 23 L222 396 L222 500 L202 500 L26 445 L26 441 C94 444 107 439 107 396 L107 23 C107 10 92 8 70 8 L27 8 C27 8 35 6 47 4 C59 2 67 0 67 0 L166 0 L264 0 C264 0 272 2 285 4 C297 6 305 8 305 8 L263 8 C238 8 222 10 222 23 L222 23 Z " />
<glyph glyph-name="icircumflex" unicode="&#xee;" horiz-adv-x="332" d="M165 672 L304 555 L319 568 L205 746 C198 758 178 787 165 787 C151 787 132 759 124 746 L10 568 L26 555 L165 672 L165 672 Z M222 23 L222 396 L222 500 L202 500 L26 445 L26 441 C94 444 107 439 107 396 L107 23 C107 10 92 8 70 8 L27 8 C27 8 35 6 47 4 C59 2 67 0 67 0 L166 0 L264 0 C264 0 272 2 285 4 C297 6 305 8 305 8 L263 8 C238 8 222 10 222 23 L222 23 Z " />
<glyph glyph-name="idieresis" unicode="&#xef;" horiz-adv-x="332" d="M248 615 C293 615 323 645 323 689 C323 734 293 764 248 764 C204 764 174 734 174 689 C174 645 204 615 248 615 L248 615 Z M81 615 C126 615 156 645 156 689 C156 734 126 764 81 764 C37 764 7 734 7 689 C7 645 37 615 81 615 L81 615 Z M222 23 L222 396 L222 500 L202 500 L26 445 L26 441 C94 444 107 439 107 396 L107 23 C107 10 92 8 70 8 L27 8 C27 8 35 6 47 4 C59 2 67 0 67 0 L166 0 L264 0 C264 0 272 2 285 4 C297 6 305 8 305 8 L263 8 C238 8 222 10 222 23 L222 23 Z " />
<glyph glyph-name="ntilde" unicode="&#xf1;" horiz-adv-x="673" d="M167 620 C167 653 187 675 218 675 C283 675 349 610 414 610 C466 610 501 666 501 751 L498 751 C498 715 475 691 440 691 C375 691 309 756 244 756 C196 756 164 702 164 620 L167 620 L167 620 Z M448 23 C448 10 433 8 411 8 L368 8 C368 8 376 6 388 4 C400 2 408 0 408 0 L506 0 L603 0 C603 0 611 2 623 4 C635 6 643 8 643 8 L601 8 C578 8 563 10 563 23 L563 292 C563 423 510 510 407 510 C352 510 276 461 216 388 L216 437 L216 500 L196 500 L59 450 C59 450 50 445 38 438 C25 431 16 427 16 427 L59 442 C84 451 101 449 101 402 L101 23 C101 10 86 8 64 8 L21 8 C21 8 29 6 41 4 C53 2 61 0 61 0 L159 0 L256 0 C256 0 264 2 276 4 C288 6 296 8 296 8 L254 8 C231 8 216 10 216 23 L216 372 C258 423 322 457 375 457 C423 457 448 391 448 292 L448 23 L448 23 Z " />
<glyph glyph-name="ograve" unicode="&#xf2;" horiz-adv-x="640" d="M314 -5 C221 -5 159 97 159 250 C159 403 221 505 314 505 C406 505 468 403 468 250 C468 97 406 -5 314 -5 L314 -5 Z M32 250 C32 94 145 -10 314 -10 C483 -10 595 94 595 250 C595 406 483 510 314 510 C145 510 32 406 32 250 L32 250 Z M223 731 C197 770 177 796 169 796 C138 796 111 769 111 738 C111 729 135 707 171 679 L315 561 L330 576 L223 731 L223 731 Z " />
<glyph glyph-name="oacute" unicode="&#xf3;" horiz-adv-x="640" d="M322 561 L467 679 C502 708 526 731 526 738 C526 769 500 796 469 796 C462 796 441 770 414 731 L308 576 L322 561 L322 561 Z M314 -5 C221 -5 159 97 159 250 C159 403 221 505 314 505 C406 505 468 403 468 250 C468 97 406 -5 314 -5 L314 -5 Z M32 250 C32 94 145 -10 314 -10 C483 -10 595 94 595 250 C595 406 483 510 314 510 C145 510 32 406 32 250 L32 250 Z " />
<glyph glyph-name="ocircumflex" unicode="&#xf4;" horiz-adv-x="640" d="M314 -5 C221 -5 159 97 159 250 C159 403 221 505 314 505 C406 505 468 403 468 250 C468 97 406 -5 314 -5 L314 -5 Z M32 250 C32 94 145 -10 314 -10 C483 -10 595 94 595 250 C595 406 483 510 314 510 C145 510 32 406 32 250 L32 250 Z M314 672 L453 555 L468 568 L355 746 C347 758 327 787 314 787 C300 787 281 759 273 746 L159 568 L175 555 L314 672 L314 672 Z " />
<glyph glyph-name="otilde" unicode="&#xf5;" horiz-adv-x="640" d="M149 620 C149 653 169 675 199 675 C264 675 330 610 396 610 C447 610 482 666 482 751 L479 751 C479 715 456 691 422 691 C357 691 291 756 225 756 C178 756 146 702 146 620 L149 620 L149 620 Z M314 -5 C221 -5 159 97 159 250 C159 403 221 505 314 505 C406 505 468 403 468 250 C468 97 406 -5 314 -5 L314 -5 Z M32 250 C32 94 145 -10 314 -10 C483 -10 595 94 595 250 C595 406 483 510 314 510 C145 510 32 406 32 250 L32 250 Z " />
<glyph glyph-name="odieresis" unicode="&#xf6;" horiz-adv-x="640" d="M397 615 C442 615 472 645 472 689 C472 734 442 764 397 764 C353 764 323 734 323 689 C323 645 353 615 397 615 L397 615 Z M230 615 C275 615 305 645 305 689 C305 734 275 764 230 764 C186 764 156 734 156 689 C156 645 186 615 230 615 L230 615 Z M314 -5 C221 -5 159 97 159 250 C159 403 221 505 314 505 C406 505 468 403 468 250 C468 97 406 -5 314 -5 L314 -5 Z M32 250 C32 94 145 -10 314 -10 C483 -10 595 94 595 250 C595 406 483 510 314 510 C145 510 32 406 32 250 L32 250 Z " />
<glyph glyph-name="oslash" unicode="&#xf8;" horiz-adv-x="640" d="M34 -12 L112 60 C161 16 231 -9 314 -9 C483 -9 595 95 595 251 C595 328 568 392 520 437 L597 508 L593 512 L516 441 C467 485 398 510 315 510 C146 510 33 406 33 250 C33 173 60 109 108 64 L31 -8 L34 -12 L34 -12 Z M315 -5 C252 -5 203 42 178 120 L453 374 C464 338 470 296 470 250 C470 97 408 -5 316 -5 L315 -5 L315 -5 Z M177 126 C166 162 160 204 160 250 C160 403 222 505 315 505 C377 505 426 458 451 380 L177 126 L177 126 Z " />
<glyph glyph-name="ugrave" unicode="&#xf9;" horiz-adv-x="665" d="M232 731 C207 770 187 796 178 796 C147 796 121 769 121 738 C121 729 145 707 180 679 L324 561 L339 576 L232 731 L232 731 Z M643 41 L603 32 C578 26 561 34 561 101 L561 477 L561 500 L487 500 L413 500 C413 500 406 498 396 496 C386 494 380 492 380 492 L422 492 C436 492 446 490 446 477 L446 131 C424 94 369 70 303 70 C241 70 200 108 200 165 L200 477 L200 500 L126 500 L52 500 C52 500 45 498 36 496 C26 494 19 492 19 492 L61 492 C76 492 85 490 85 477 L85 165 C85 60 151 -10 249 -10 C333 -10 411 42 446 123 L446 77 L446 -11 L466 -11 L603 23 C603 23 612 27 625 32 C633 36 639 39 643 40 L643 41 L643 41 Z M643 40 C645 41 646 41 646 41 L643 40 L643 40 Z " />
<glyph glyph-name="uacute" unicode="&#xfa;" horiz-adv-x="665" d="M332 561 L476 679 C511 708 535 731 535 738 C535 769 509 796 478 796 C471 796 450 770 424 731 L317 576 L332 561 L332 561 Z M643 41 L603 32 C578 26 561 34 561 101 L561 477 L561 500 L487 500 L413 500 C413 500 406 498 396 496 C386 494 380 492 380 492 L422 492 C436 492 446 490 446 477 L446 131 C424 94 369 70 303 70 C241 70 200 108 200 165 L200 477 L200 500 L126 500 L52 500 C52 500 45 498 36 496 C26 494 19 492 19 492 L61 492 C76 492 85 490 85 477 L85 165 C85 60 151 -10 249 -10 C333 -10 411 42 446 123 L446 77 L446 -11 L466 -11 L603 23 C603 23 612 27 625 32 C633 36 639 39 643 40 L643 41 L643 41 Z M643 40 C645 41 646 41 646 41 L643 40 L643 40 Z " />
<glyph glyph-name="ucircumflex" unicode="&#xfb;" horiz-adv-x="665" d="M323 672 L462 555 L477 568 L364 746 C356 758 336 787 323 787 C310 787 291 759 283 746 L169 568 L184 555 L323 672 L323 672 Z M643 41 L603 32 C578 26 561 34 561 101 L561 477 L561 500 L487 500 L413 500 C413 500 406 498 396 496 C386 494 380 492 380 492 L422 492 C436 492 446 490 446 477 L446 131 C424 94 369 70 303 70 C241 70 200 108 200 165 L200 477 L200 500 L126 500 L52 500 C52 500 45 498 36 496 C26 494 19 492 19 492 L61 492 C76 492 85 490 85 477 L85 165 C85 60 151 -10 249 -10 C333 -10 411 42 446 123 L446 77 L446 -11 L466 -11 L603 23 C603 23 612 27 625 32 C633 36 639 39 643 40 L643 41 L643 41 Z M643 40 C645 41 646 41 646 41 L643 40 L643 40 Z " />
<glyph glyph-name="udieresis" unicode="&#xfc;" horiz-adv-x="665" d="M407 615 C451 615 481 645 481 689 C481 734 451 764 407 764 C362 764 332 734 332 689 C332 645 362 615 407 615 L407 615 Z M240 615 C284 615 314 645 314 689 C314 734 284 764 240 764 C195 764 165 734 165 689 C165 645 195 615 240 615 L240 615 Z M643 41 L603 32 C578 26 561 34 561 101 L561 477 L561 500 L487 500 L413 500 C413 500 406 498 396 496 C386 494 380 492 380 492 L422 492 C436 492 446 490 446 477 L446 131 C424 94 369 70 303 70 C241 70 200 108 200 165 L200 477 L200 500 L126 500 L52 500 C52 500 45 498 36 496 C26 494 19 492 19 492 L61 492 C76 492 85 490 85 477 L85 165 C85 60 151 -10 249 -10 C333 -10 411 42 446 123 L446 77 L446 -11 L466 -11 L603 23 C603 23 612 27 625 32 C633 36 639 39 643 40 L643 41 L643 41 Z M643 40 C645 41 646 41 646 41 L643 40 L643 40 Z " />
<glyph glyph-name="ydieresis" unicode="&#xff;" horiz-adv-x="649" d="M429 615 C473 615 503 645 503 689 C503 734 473 764 429 764 C384 764 354 734 354 689 C354 645 384 615 429 615 L429 615 Z M262 615 C306 615 336 645 336 689 C336 734 306 764 262 764 C217 764 187 734 187 689 C187 645 217 615 262 615 L262 615 Z M75 466 L303 -10 L251 -140 C245 -155 233 -165 221 -165 C193 -165 183 -124 155 -124 C116 -124 90 -147 90 -182 C90 -224 117 -253 157 -253 C207 -253 253 -220 272 -171 L337 -10 L536 446 L536 446 C551 485 572 492 598 492 L641 492 C641 492 634 494 625 496 C615 498 608 500 608 500 L559 500 L526 500 L506 500 L444 500 C444 500 437 498 428 496 C418 494 411 492 411 492 L451 492 C481 492 500 487 493 465 L304 -10 L361 134 L201 466 L202 466 C191 488 200 492 217 492 L260 492 C260 492 254 494 244 496 C234 498 228 500 228 500 L185 500 L127 500 L60 500 L26 500 C26 500 19 498 9 496 C0 494 -7 492 -7 492 L44 492 C55 492 65 488 76 466 L75 466 L75 466 Z " />
<glyph glyph-name="Amacron" unicode="&#x100;" horiz-adv-x="835" d="M251 890 L598 890 L598 970 L251 970 L251 890 L251 890 Z M696 128 L696 128 L489 709 L467 770 L454 770 C432 738 394 714 360 709 L364 698 L240 299 L240 299 L240 298 L196 158 L196 158 C156 32 112 8 56 8 L14 8 C14 8 20 6 30 4 C40 2 46 0 46 0 L147 0 L152 0 L166 0 L285 0 C285 0 291 2 301 4 C311 6 317 8 317 8 L277 8 C204 8 162 32 201 158 L201 158 L243 294 L505 294 L569 110 C595 24 565 7 512 7 L472 7 C472 7 478 5 488 3 C498 1 504 -1 504 -1 L607 -1 L653 -1 L742 -1 L802 -1 C802 -1 808 1 818 3 C828 5 834 7 834 7 L792 7 C760 7 731 26 697 127 L696 128 L696 128 Z M244 298 L366 693 L503 298 L244 298 L244 298 Z " />
<glyph glyph-name="amacron" unicode="&#x101;" horiz-adv-x="589" d="M91 640 L438 640 L438 720 L91 720 L91 640 L91 640 Z M591 41 L552 32 C527 26 510 38 510 121 L510 450 L510 510 L496 510 L419 464 C382 492 328 510 263 510 C115 510 38 406 38 249 C38 97 119 -5 241 -5 C301 -5 361 21 394 62 L394 -10 L414 -10 L551 24 C551 24 560 28 572 33 C580 37 587 40 591 41 L591 41 Z M591 41 C593 42 594 42 594 42 L591 41 L591 41 Z M394 401 L394 102 C366 66 325 43 290 43 C210 43 156 138 156 281 C156 398 197 477 278 477 C337 477 380 444 395 400 L394 401 L394 401 Z " />
<glyph glyph-name="Abreve" unicode="&#x102;" horiz-adv-x="835" d="M264 994 C274 910 338 854 424 854 C511 854 575 909 585 992 L561 995 C557 959 502 935 424 935 C347 935 293 960 288 998 L264 994 L264 994 Z M696 128 L696 128 L489 709 L467 770 L454 770 C432 738 394 714 360 709 L364 698 L240 299 L240 299 L240 298 L196 158 L196 158 C156 32 112 8 56 8 L14 8 C14 8 20 6 30 4 C40 2 46 0 46 0 L147 0 L152 0 L166 0 L285 0 C285 0 291 2 301 4 C311 6 317 8 317 8 L277 8 C204 8 162 32 201 158 L201 158 L243 294 L505 294 L569 110 C595 24 565 7 512 7 L472 7 C472 7 478 5 488 3 C498 1 504 -1 504 -1 L607 -1 L653 -1 L742 -1 L802 -1 C802 -1 808 1 818 3 C828 5 834 7 834 7 L792 7 C760 7 731 26 697 127 L696 128 L696 128 Z M244 298 L366 693 L503 298 L244 298 L244 298 Z " />
<glyph glyph-name="abreve" unicode="&#x103;" horiz-adv-x="589" d="M104 744 C114 660 178 604 264 604 C351 604 415 659 425 742 L401 745 C397 709 342 685 264 685 C187 685 133 710 128 748 L104 744 L104 744 Z M591 41 L552 32 C527 26 510 38 510 121 L510 450 L510 510 L496 510 L419 464 C382 492 328 510 263 510 C115 510 38 406 38 249 C38 97 119 -5 241 -5 C301 -5 361 21 394 62 L394 -10 L414 -10 L551 24 C551 24 560 28 572 33 C580 37 587 40 591 41 L591 41 Z M591 41 C593 42 594 42 594 42 L591 41 L591 41 Z M394 401 L394 102 C366 66 325 43 290 43 C210 43 156 138 156 281 C156 398 197 477 278 477 C337 477 380 444 395 400 L394 401 L394 401 Z " />
<glyph glyph-name="Cacute" unicode="&#x106;" horiz-adv-x="802" d="M465 811 L609 929 C644 958 668 981 668 988 C668 1019 642 1046 611 1046 C604 1046 583 1020 557 981 L450 826 L465 811 L465 811 Z M611 39 L611 39 C564 10 511 -6 447 -6 C289 -6 183 146 183 375 C183 603 293 755 458 755 C530 755 583 735 630 701 C692 655 741 585 751 541 C754 528 756 519 756 519 C756 519 757 528 758 541 C758 553 759 562 759 562 L759 625 L759 631 L759 688 C759 688 758 700 758 717 C757 734 756 746 756 746 C756 746 754 734 751 717 C747 695 716 684 676 708 C626 740 560 759 456 759 C208 759 42 605 42 374 C42 143 203 -11 445 -11 C546 -11 619 9 675 43 C714 62 746 49 752 27 C757 9 760 -3 760 -3 L760 27 L760 57 L760 116 L760 121 L760 185 C760 185 759 193 758 206 C758 219 757 227 757 227 C757 227 755 219 752 206 C742 161 682 79 611 37 L611 39 L611 39 Z " />
<glyph glyph-name="Ccircumflex" unicode="&#x108;" horiz-adv-x="802" d="M611 39 L611 39 C564 10 511 -6 447 -6 C289 -6 183 146 183 375 C183 603 293 755 458 755 C530 755 583 735 630 701 C692 655 741 585 751 541 C754 528 756 519 756 519 C756 519 757 528 758 541 C758 553 759 562 759 562 L759 625 L759 631 L759 688 C759 688 758 700 758 717 C757 734 756 746 756 746 C756 746 754 734 751 717 C747 695 716 684 676 708 C626 740 560 759 456 759 C208 759 42 605 42 374 C42 143 203 -11 445 -11 C546 -11 619 9 675 43 C714 62 746 49 752 27 C757 9 760 -3 760 -3 L760 27 L760 57 L760 116 L760 121 L760 185 C760 185 759 193 758 206 C758 219 757 227 757 227 C757 227 755 219 752 206 C742 161 682 79 611 37 L611 39 L611 39 Z M456 920 L595 803 L610 816 L497 994 C489 1006 469 1035 456 1035 C443 1035 424 1007 416 994 L302 816 L317 803 L456 920 L456 920 Z " />
<glyph glyph-name="Cdot" unicode="&#x10a;" horiz-adv-x="802" d="M456 865 C500 865 530 895 530 939 C530 984 500 1014 456 1014 C412 1014 382 984 382 939 C382 895 412 865 456 865 L456 865 Z M611 39 L611 39 C564 10 511 -6 447 -6 C289 -6 183 146 183 375 C183 603 293 755 458 755 C530 755 583 735 630 701 C692 655 741 585 751 541 C754 528 756 519 756 519 C756 519 757 528 758 541 C758 553 759 562 759 562 L759 625 L759 631 L759 688 C759 688 758 700 758 717 C757 734 756 746 756 746 C756 746 754 734 751 717 C747 695 716 684 676 708 C626 740 560 759 456 759 C208 759 42 605 42 374 C42 143 203 -11 445 -11 C546 -11 619 9 675 43 C714 62 746 49 752 27 C757 9 760 -3 760 -3 L760 27 L760 57 L760 116 L760 121 L760 185 C760 185 759 193 758 206 C758 219 757 227 757 227 C757 227 755 219 752 206 C742 161 682 79 611 37 L611 39 L611 39 Z " />
<glyph glyph-name="cdot" unicode="&#x10b;" horiz-adv-x="565" d="M337 615 C382 615 412 645 412 689 C412 734 382 764 337 764 C293 764 263 734 263 689 C263 645 293 615 337 615 L337 615 Z M535 128 L519 135 C499 90 436 60 360 60 C238 60 156 147 156 277 C156 401 226 484 331 484 C371 484 410 452 427 405 C440 371 463 348 484 348 C532 348 555 371 542 405 C519 468 437 510 337 510 C155 510 33 400 33 234 C33 88 147 -10 319 -10 C412 -10 498 45 535 128 L535 128 Z " />
<glyph glyph-name="Ccaron" unicode="&#x10c;" horiz-adv-x="802" d="M611 39 L611 39 C564 10 511 -6 447 -6 C289 -6 183 146 183 375 C183 603 293 755 458 755 C530 755 583 735 630 701 C692 655 741 585 751 541 C754 528 756 519 756 519 C756 519 757 528 758 541 C758 553 759 562 759 562 L759 625 L759 631 L759 688 C759 688 758 700 758 717 C757 734 756 746 756 746 C756 746 754 734 751 717 C747 695 716 684 676 708 C626 740 560 759 456 759 C208 759 42 605 42 374 C42 143 203 -11 445 -11 C546 -11 619 9 675 43 C714 62 746 49 752 27 C757 9 760 -3 760 -3 L760 27 L760 57 L760 116 L760 121 L760 185 C760 185 759 193 758 206 C758 219 757 227 757 227 C757 227 755 219 752 206 C742 161 682 79 611 37 L611 39 L611 39 Z M456 926 L595 1043 L610 1030 L497 852 C489 840 469 811 456 811 C443 811 424 839 416 852 L302 1030 L317 1043 L456 926 L456 926 Z " />
<glyph glyph-name="ccaron" unicode="&#x10d;" horiz-adv-x="565" d="M535 128 L519 135 C499 90 436 60 360 60 C238 60 156 147 156 277 C156 401 226 484 331 484 C371 484 410 452 427 405 C440 371 463 348 484 348 C532 348 555 371 542 405 C519 468 437 510 337 510 C155 510 33 400 33 234 C33 88 147 -10 319 -10 C412 -10 498 45 535 128 L535 128 Z M338 679 L476 795 L492 782 L378 604 C370 592 351 563 337 563 C324 563 305 591 297 604 L183 782 L199 795 L338 679 L338 679 Z " />
<glyph glyph-name="Dcaron" unicode="&#x10e;" horiz-adv-x="920" d="M431 929 L570 1045 L586 1032 L472 854 C464 842 445 813 431 813 C418 813 399 841 391 854 L277 1032 L292 1045 L431 929 L431 929 Z M138 677 L138 73 C138 18 113 8 75 8 L33 8 C33 8 43 6 59 4 C75 2 85 0 85 0 L138 0 L176 0 L266 0 L359 0 C663 0 866 127 866 375 C866 600 709 750 405 750 L266 750 L176 750 L138 750 L85 750 C85 750 75 748 59 746 C43 744 33 742 33 742 L75 742 C113 742 138 732 138 677 L138 677 Z M266 746 L390 746 C611 746 725 598 725 375 C725 130 576 4 353 4 C275 4 266 23 266 52 L266 73 L266 677 L266 746 L266 746 Z " />
<glyph glyph-name="dcaron" unicode="&#x10f;" horiz-adv-x="624" d="M658 633 C676 671 688 712 688 738 C688 750 667 754 636 754 C613 754 602 691 598 646 L590 534 L610 530 L658 633 L658 633 Z M626 41 L587 32 C562 26 545 38 545 121 L545 668 L545 747 L524 747 L387 708 C387 708 379 704 366 698 C353 692 345 688 345 688 L387 700 C413 708 430 701 430 641 L430 481 C392 499 342 510 287 510 C123 510 39 406 39 249 C39 97 128 -5 262 -5 C331 -5 397 22 430 63 L430 -9 L450 -9 L587 25 C587 25 596 29 608 34 C616 38 623 41 627 42 L626 41 L626 41 Z M627 42 C629 43 630 43 630 43 L627 42 L627 42 Z M430 397 L430 103 C401 67 354 44 310 44 C218 44 156 139 156 282 C156 399 205 478 301 478 C351 478 403 442 430 397 L430 397 Z " />
<glyph glyph-name="Emacron" unicode="&#x112;" horiz-adv-x="705" d="M199 890 L546 890 L546 970 L199 970 L199 890 L199 890 Z M525 0 L633 0 C634 10 636 24 637 33 C639 43 641 57 642 67 C642 67 643 79 643 98 L643 129 L637 87 C630 37 610 4 526 4 L318 4 C271 4 266 23 266 52 L266 73 L266 385 L440 385 C524 385 540 346 540 287 L540 245 C540 245 542 259 544 280 C546 301 548 315 548 315 L548 385 L548 387 L548 390 L548 460 C548 460 546 474 544 495 C542 516 540 530 540 530 L540 487 C540 429 524 390 440 390 L266 390 L266 677 L266 746 L500 746 C601 746 603 708 607 651 L609 621 C609 621 610 633 611 652 C612 671 613 683 612 683 C612 693 611 707 610 717 C610 726 609 740 608 750 L500 750 L266 750 L176 750 L138 750 L85 750 C85 750 75 748 59 746 C43 744 33 742 33 742 L75 742 C113 742 138 732 138 677 L138 73 C138 18 113 8 75 8 L33 8 C33 8 43 6 59 4 C75 2 85 0 85 0 L138 0 L176 0 L266 0 L525 0 L525 0 Z " />
<glyph glyph-name="emacron" unicode="&#x113;" horiz-adv-x="578" d="M143 640 L490 640 L490 720 L143 720 L143 640 L143 640 Z M160 340 L421 340 L517 340 L548 340 C527 462 437 510 317 510 C146 510 33 397 33 228 C33 85 136 -10 291 -10 C407 -10 505 46 535 131 L521 136 C506 94 425 66 318 66 C220 66 154 150 154 275 C154 298 156 320 160 340 L160 340 Z M503 374 C507 374 511 374 516 374 L503 374 L503 374 Z M413 372 L166 367 C189 439 240 483 308 483 C354 483 392 451 412 371 L413 372 L413 372 Z " />
<glyph glyph-name="Ebreve" unicode="&#x114;" horiz-adv-x="705" d="M212 994 C222 910 287 854 373 854 C459 854 523 909 533 992 L509 995 C505 959 450 935 373 935 C296 935 241 960 237 998 L212 994 L212 994 Z M525 0 L633 0 C634 10 636 24 637 33 C639 43 641 57 642 67 C642 67 643 79 643 98 L643 129 L637 87 C630 37 610 4 526 4 L318 4 C271 4 266 23 266 52 L266 73 L266 385 L440 385 C524 385 540 346 540 287 L540 245 C540 245 542 259 544 280 C546 301 548 315 548 315 L548 385 L548 387 L548 390 L548 460 C548 460 546 474 544 495 C542 516 540 530 540 530 L540 487 C540 429 524 390 440 390 L266 390 L266 677 L266 746 L500 746 C601 746 603 708 607 651 L609 621 C609 621 610 633 611 652 C612 671 613 683 612 683 C612 693 611 707 610 717 C610 726 609 740 608 750 L500 750 L266 750 L176 750 L138 750 L85 750 C85 750 75 748 59 746 C43 744 33 742 33 742 L75 742 C113 742 138 732 138 677 L138 73 C138 18 113 8 75 8 L33 8 C33 8 43 6 59 4 C75 2 85 0 85 0 L138 0 L176 0 L266 0 L525 0 L525 0 Z " />
<glyph glyph-name="ebreve" unicode="&#x115;" horiz-adv-x="578" d="M156 744 C166 660 230 604 317 604 C403 604 467 659 477 742 L453 745 C449 709 394 685 317 685 C239 685 185 710 180 748 L156 744 L156 744 Z M160 340 L421 340 L517 340 L548 340 C527 462 437 510 317 510 C146 510 33 397 33 228 C33 85 136 -10 291 -10 C407 -10 505 46 535 131 L521 136 C506 94 425 66 318 66 C220 66 154 150 154 275 C154 298 156 320 160 340 L160 340 Z M503 374 C507 374 511 374 516 374 L503 374 L503 374 Z M413 372 L166 367 C189 439 240 483 308 483 C354 483 392 451 412 371 L413 372 L413 372 Z " />
<glyph glyph-name="Edot" unicode="&#x116;" horiz-adv-x="705" d="M373 865 C417 865 447 895 447 939 C447 984 417 1014 373 1014 C328 1014 298 984 298 939 C298 895 328 865 373 865 L373 865 Z M525 0 L633 0 C634 10 636 24 637 33 C639 43 641 57 642 67 C642 67 643 79 643 98 L643 129 L637 87 C630 37 610 4 526 4 L318 4 C271 4 266 23 266 52 L266 73 L266 385 L440 385 C524 385 540 346 540 287 L540 245 C540 245 542 259 544 280 C546 301 548 315 548 315 L548 385 L548 387 L548 390 L548 460 C548 460 546 474 544 495 C542 516 540 530 540 530 L540 487 C540 429 524 390 440 390 L266 390 L266 677 L266 746 L500 746 C601 746 603 708 607 651 L609 621 C609 621 610 633 611 652 C612 671 613 683 612 683 C612 693 611 707 610 717 C610 726 609 740 608 750 L500 750 L266 750 L176 750 L138 750 L85 750 C85 750 75 748 59 746 C43 744 33 742 33 742 L75 742 C113 742 138 732 138 677 L138 73 C138 18 113 8 75 8 L33 8 C33 8 43 6 59 4 C75 2 85 0 85 0 L138 0 L176 0 L266 0 L525 0 L525 0 Z " />
<glyph glyph-name="edot" unicode="&#x117;" horiz-adv-x="578" d="M317 615 C361 615 391 645 391 689 C391 734 361 764 317 764 C272 764 242 734 242 689 C242 645 272 615 317 615 L317 615 Z M160 340 L421 340 L517 340 L548 340 C527 462 437 510 317 510 C146 510 33 397 33 228 C33 85 136 -10 291 -10 C407 -10 505 46 535 131 L521 136 C506 94 425 66 318 66 C220 66 154 150 154 275 C154 298 156 320 160 340 L160 340 Z M503 374 C507 374 511 374 516 374 L503 374 L503 374 Z M413 372 L166 367 C189 439 240 483 308 483 C354 483 392 451 412 371 L413 372 L413 372 Z " />
<glyph glyph-name="Ecaron" unicode="&#x11a;" horiz-adv-x="705" d="M373 928 L512 1045 L527 1032 L414 854 C406 842 386 813 373 813 C359 813 340 841 332 854 L218 1032 L234 1045 L373 928 L373 928 Z M525 0 L633 0 C634 10 636 24 637 33 C639 43 641 57 642 67 C642 67 643 79 643 98 L643 129 L637 87 C630 37 610 4 526 4 L318 4 C271 4 266 23 266 52 L266 73 L266 385 L440 385 C524 385 540 346 540 287 L540 245 C540 245 542 259 544 280 C546 301 548 315 548 315 L548 385 L548 387 L548 390 L548 460 C548 460 546 474 544 495 C542 516 540 530 540 530 L540 487 C540 429 524 390 440 390 L266 390 L266 677 L266 746 L500 746 C601 746 603 708 607 651 L609 621 C609 621 610 633 611 652 C612 671 613 683 612 683 C612 693 611 707 610 717 C610 726 609 740 608 750 L500 750 L266 750 L176 750 L138 750 L85 750 C85 750 75 748 59 746 C43 744 33 742 33 742 L75 742 C113 742 138 732 138 677 L138 73 C138 18 113 8 75 8 L33 8 C33 8 43 6 59 4 C75 2 85 0 85 0 L138 0 L176 0 L266 0 L525 0 L525 0 Z " />
<glyph glyph-name="ecaron" unicode="&#x11b;" horiz-adv-x="578" d="M317 679 L455 795 L471 782 L357 604 C349 592 330 563 317 563 C303 563 284 591 276 604 L162 782 L178 795 L317 679 L317 679 Z M160 340 L421 340 L517 340 L548 340 C527 462 437 510 317 510 C146 510 33 397 33 228 C33 85 136 -10 291 -10 C407 -10 505 46 535 131 L521 136 C506 94 425 66 318 66 C220 66 154 150 154 275 C154 298 156 320 160 340 L160 340 Z M503 374 C507 374 511 374 516 374 L503 374 L503 374 Z M413 372 L166 367 C189 439 240 483 308 483 C354 483 392 451 412 371 L413 372 L413 372 Z " />
<glyph glyph-name="Gcircumflex" unicode="&#x11c;" horiz-adv-x="886" d="M456 922 L595 805 L610 818 L497 996 C489 1008 469 1037 456 1037 C443 1037 424 1009 416 996 L302 818 L317 805 L456 922 L456 922 Z M616 257 L617 145 C614 70 554 21 465 21 C296 21 183 163 183 375 C183 603 293 755 458 755 C530 755 583 735 630 701 C692 655 741 585 751 541 C754 528 756 519 756 519 C756 519 757 528 758 541 C758 553 759 562 759 562 L759 625 L759 631 L759 688 C759 688 758 700 758 717 C757 734 756 746 756 746 C756 746 754 734 751 717 C747 695 716 684 676 708 C626 740 560 759 456 759 C208 759 42 605 42 374 C42 143 206 -11 453 -11 C570 -11 659 5 735 31 L743 33 L743 34 C767 42 790 51 812 61 L810 64 C792 56 770 49 742 43 L742 257 C742 307 759 317 785 317 L827 317 C827 317 819 319 806 321 C793 323 785 325 785 325 L674 325 L564 325 C564 325 554 323 539 321 C524 319 514 317 514 317 L556 317 C591 317 614 307 614 257 L616 257 L616 257 Z " />
<glyph glyph-name="Gbreve" unicode="&#x11e;" horiz-adv-x="886" d="M296 994 C305 910 370 854 456 854 C542 854 607 909 616 992 L592 995 C588 959 533 935 456 935 C379 935 324 960 320 998 L296 994 L296 994 Z M616 257 L617 145 C614 70 554 21 465 21 C296 21 183 163 183 375 C183 603 293 755 458 755 C530 755 583 735 630 701 C692 655 741 585 751 541 C754 528 756 519 756 519 C756 519 757 528 758 541 C758 553 759 562 759 562 L759 625 L759 631 L759 688 C759 688 758 700 758 717 C757 734 756 746 756 746 C756 746 754 734 751 717 C747 695 716 684 676 708 C626 740 560 759 456 759 C208 759 42 605 42 374 C42 143 206 -11 453 -11 C570 -11 659 5 735 31 L743 33 L743 34 C767 42 790 51 812 61 L810 64 C792 56 770 49 742 43 L742 257 C742 307 759 317 785 317 L827 317 C827 317 819 319 806 321 C793 323 785 325 785 325 L674 325 L564 325 C564 325 554 323 539 321 C524 319 514 317 514 317 L556 317 C591 317 614 307 614 257 L616 257 L616 257 Z " />
<glyph glyph-name="gbreve" unicode="&#x11f;" horiz-adv-x="551" d="M106 744 C116 660 181 604 267 604 C353 604 417 659 427 742 L403 745 C399 709 344 685 267 685 C190 685 135 710 131 748 L106 744 L106 744 Z M182 350 C182 430 216 483 267 483 C317 483 351 430 351 350 C351 269 317 215 267 215 C216 215 182 269 182 350 L182 350 Z M161 -14 C168 -15 175 -15 182 -15 L304 -15 C388 -15 421 -43 421 -86 C421 -157 366 -204 284 -204 C194 -204 134 -150 134 -70 C134 -47 144 -27 161 -14 L161 -14 Z M132 -8 C75 -26 38 -60 38 -97 C38 -177 134 -230 277 -230 C420 -230 515 -161 515 -59 C515 36 459 99 315 99 L187 99 C145 100 117 115 117 137 C117 168 177 188 266 188 C385 188 465 253 465 350 C465 369 462 387 456 403 C474 430 495 447 512 447 C514 447 515 439 515 426 C515 402 536 386 568 386 C596 386 615 408 615 440 C615 473 593 495 560 495 C514 495 470 468 444 427 C413 479 349 510 266 510 C146 510 66 446 66 350 C66 281 106 228 172 203 C96 187 49 150 49 101 C49 46 81 5 132 -10 L132 -8 L132 -8 Z " />
<glyph glyph-name="Gdot" unicode="&#x120;" horiz-adv-x="886" d="M456 865 C500 865 530 895 530 939 C530 984 500 1014 456 1014 C412 1014 382 984 382 939 C382 895 412 865 456 865 L456 865 Z M616 257 L617 145 C614 70 554 21 465 21 C296 21 183 163 183 375 C183 603 293 755 458 755 C530 755 583 735 630 701 C692 655 741 585 751 541 C754 528 756 519 756 519 C756 519 757 528 758 541 C758 553 759 562 759 562 L759 625 L759 631 L759 688 C759 688 758 700 758 717 C757 734 756 746 756 746 C756 746 754 734 751 717 C747 695 716 684 676 708 C626 740 560 759 456 759 C208 759 42 605 42 374 C42 143 206 -11 453 -11 C570 -11 659 5 735 31 L743 33 L743 34 C767 42 790 51 812 61 L810 64 C792 56 770 49 742 43 L742 257 C742 307 759 317 785 317 L827 317 C827 317 819 319 806 321 C793 323 785 325 785 325 L674 325 L564 325 C564 325 554 323 539 321 C524 319 514 317 514 317 L556 317 C591 317 614 307 614 257 L616 257 L616 257 Z " />
<glyph glyph-name="gdot" unicode="&#x121;" horiz-adv-x="551" d="M267 615 C311 615 341 645 341 689 C341 734 311 764 267 764 C222 764 192 734 192 689 C192 645 222 615 267 615 L267 615 Z M182 350 C182 430 216 483 267 483 C317 483 351 430 351 350 C351 269 317 215 267 215 C216 215 182 269 182 350 L182 350 Z M161 -14 C168 -15 175 -15 182 -15 L304 -15 C388 -15 421 -43 421 -86 C421 -157 366 -204 284 -204 C194 -204 134 -150 134 -70 C134 -47 144 -27 161 -14 L161 -14 Z M132 -8 C75 -26 38 -60 38 -97 C38 -177 134 -230 277 -230 C420 -230 515 -161 515 -59 C515 36 459 99 315 99 L187 99 C145 100 117 115 117 137 C117 168 177 188 266 188 C385 188 465 253 465 350 C465 369 462 387 456 403 C474 430 495 447 512 447 C514 447 515 439 515 426 C515 402 536 386 568 386 C596 386 615 408 615 440 C615 473 593 495 560 495 C514 495 470 468 444 427 C413 479 349 510 266 510 C146 510 66 446 66 350 C66 281 106 228 172 203 C96 187 49 150 49 101 C49 46 81 5 132 -10 L132 -8 L132 -8 Z " />
<glyph glyph-name="Hcircumflex" unicode="&#x124;" horiz-adv-x="926" d="M478 921 L616 805 L632 818 L518 996 C510 1008 491 1037 478 1037 C464 1037 445 1009 437 996 L323 818 L339 805 L478 921 L478 921 Z M781 68 L781 682 C781 732 806 742 844 742 L886 742 C886 742 876 744 860 746 C844 748 834 750 834 750 L717 750 L600 750 C600 750 590 748 574 746 C558 744 548 742 548 742 L590 742 C628 742 653 732 653 682 L653 386 L302 386 L302 682 C302 732 327 742 365 742 L407 742 C407 742 397 744 381 746 C365 748 355 750 355 750 L238 750 L121 750 C121 750 111 748 95 746 C79 744 69 742 69 742 L111 742 C149 742 174 732 174 682 L174 68 C174 18 149 8 111 8 L69 8 C69 8 79 6 95 4 C111 2 121 0 121 0 L238 0 L355 0 C355 0 365 2 381 4 C397 6 407 8 407 8 L365 8 C327 8 302 18 302 68 L302 380 L653 380 L653 68 C653 18 628 8 590 8 L548 8 C548 8 558 6 574 4 C590 2 600 0 600 0 L717 0 L834 0 C834 0 844 2 860 4 C876 6 886 8 886 8 L844 8 C806 8 781 18 781 68 L781 68 Z " />
<glyph glyph-name="Itilde" unicode="&#x128;" horiz-adv-x="399" d="M25 870 C25 903 45 925 75 925 C141 925 207 860 272 860 C324 860 358 916 358 1001 L355 1001 C355 965 332 941 298 941 C233 941 167 1006 102 1006 C54 1006 22 952 22 870 L25 870 L25 870 Z M254 68 L254 682 C254 732 279 742 317 742 L359 742 C359 742 349 744 333 746 C317 748 307 750 307 750 L190 750 L73 750 C73 750 63 748 47 746 C31 744 21 742 21 742 L63 742 C101 742 126 732 126 682 L126 68 C126 18 101 8 63 8 L21 8 C21 8 31 6 47 4 C63 2 73 0 73 0 L190 0 L307 0 C307 0 317 2 333 4 C349 6 359 8 359 8 L317 8 C279 8 254 18 254 68 L254 68 Z " />
<glyph glyph-name="itilde" unicode="&#x129;" horiz-adv-x="332" d="M0 620 C0 653 20 675 50 675 C115 675 181 610 247 610 C298 610 333 666 333 751 L330 751 C330 715 307 691 273 691 C208 691 142 756 76 756 C29 756 -3 702 -3 620 L0 620 L0 620 Z M222 23 L222 396 L222 500 L202 500 L26 445 L26 441 C94 444 107 439 107 396 L107 23 C107 10 92 8 70 8 L27 8 C27 8 35 6 47 4 C59 2 67 0 67 0 L166 0 L264 0 C264 0 272 2 285 4 C297 6 305 8 305 8 L263 8 C238 8 222 10 222 23 L222 23 Z " />
<glyph glyph-name="Imacron" unicode="&#x12a;" horiz-adv-x="399" d="M16 890 L364 890 L364 970 L16 970 L16 890 L16 890 Z M254 68 L254 682 C254 732 279 742 317 742 L359 742 C359 742 349 744 333 746 C317 748 307 750 307 750 L190 750 L73 750 C73 750 63 748 47 746 C31 744 21 742 21 742 L63 742 C101 742 126 732 126 682 L126 68 C126 18 101 8 63 8 L21 8 C21 8 31 6 47 4 C63 2 73 0 73 0 L190 0 L307 0 C307 0 317 2 333 4 C349 6 359 8 359 8 L317 8 C279 8 254 18 254 68 L254 68 Z " />
<glyph glyph-name="imacron" unicode="&#x12b;" horiz-adv-x="332" d="M-9 640 L338 640 L338 720 L-9 720 L-9 640 L-9 640 Z M222 23 L222 396 L222 500 L202 500 L26 445 L26 441 C94 444 107 439 107 396 L107 23 C107 10 92 8 70 8 L27 8 C27 8 35 6 47 4 C59 2 67 0 67 0 L166 0 L264 0 C264 0 272 2 285 4 C297 6 305 8 305 8 L263 8 C238 8 222 10 222 23 L222 23 Z " />
<glyph glyph-name="Ibreve" unicode="&#x12c;" horiz-adv-x="399" d="M30 994 C39 910 104 854 190 854 C276 854 341 909 350 992 L326 995 C322 959 267 935 190 935 C113 935 58 960 54 998 L30 994 L30 994 Z M254 68 L254 682 C254 732 279 742 317 742 L359 742 C359 742 349 744 333 746 C317 748 307 750 307 750 L190 750 L73 750 C73 750 63 748 47 746 C31 744 21 742 21 742 L63 742 C101 742 126 732 126 682 L126 68 C126 18 101 8 63 8 L21 8 C21 8 31 6 47 4 C63 2 73 0 73 0 L190 0 L307 0 C307 0 317 2 333 4 C349 6 359 8 359 8 L317 8 C279 8 254 18 254 68 L254 68 Z " />
<glyph glyph-name="ibreve" unicode="&#x12d;" horiz-adv-x="332" d="M4 744 C14 660 79 604 165 604 C251 604 315 659 325 742 L301 745 C297 709 242 685 165 685 C88 685 33 710 29 748 L4 744 L4 744 Z M222 23 L222 396 L222 500 L202 500 L26 445 L26 441 C94 444 107 439 107 396 L107 23 C107 10 92 8 70 8 L27 8 C27 8 35 6 47 4 C59 2 67 0 67 0 L166 0 L264 0 C264 0 272 2 285 4 C297 6 305 8 305 8 L263 8 C238 8 222 10 222 23 L222 23 Z " />
<glyph glyph-name="Idot" unicode="&#x130;" horiz-adv-x="399" d="M190 865 C234 865 264 895 264 939 C264 984 234 1014 190 1014 C146 1014 116 984 116 939 C116 895 146 865 190 865 L190 865 Z M254 68 L254 682 C254 732 279 742 317 742 L359 742 C359 742 349 744 333 746 C317 748 307 750 307 750 L190 750 L73 750 C73 750 63 748 47 746 C31 744 21 742 21 742 L63 742 C101 742 126 732 126 682 L126 68 C126 18 101 8 63 8 L21 8 C21 8 31 6 47 4 C63 2 73 0 73 0 L190 0 L307 0 C307 0 317 2 333 4 C349 6 359 8 359 8 L317 8 C279 8 254 18 254 68 L254 68 Z " />
<glyph glyph-name="dotlessi" unicode="&#x131;" horiz-adv-x="332" d="M222 23 L222 396 L222 500 L202 500 L26 445 L26 441 C94 444 107 439 107 396 L107 23 C107 10 92 8 70 8 L27 8 C27 8 35 6 47 4 C59 2 67 0 67 0 L166 0 L264 0 C264 0 272 2 285 4 C297 6 305 8 305 8 L263 8 C238 8 222 10 222 23 L222 23 Z " />
<glyph glyph-name="Jcircumflex" unicode="&#x134;" horiz-adv-x="399" d="M190 922 L329 805 L344 818 L231 996 C223 1008 203 1037 190 1037 C177 1037 158 1009 150 996 L36 818 L51 805 L190 922 L190 922 Z M126 682 L125 -99 C125 -195 52 -213 -2 -213 C-67 -213 -38 -105 -103 -105 C-140 -105 -164 -129 -164 -166 C-164 -198 -101 -220 -6 -220 C103 -220 255 -162 255 143 L254 682 C254 732 279 742 317 742 L359 742 C359 742 349 744 333 746 C317 748 307 750 307 750 L190 750 L73 750 C73 750 63 748 47 746 C31 744 21 742 21 742 L63 742 C101 742 126 732 126 682 L126 682 Z " />
<glyph glyph-name="Lacute" unicode="&#x139;" horiz-adv-x="703" d="M199 811 L343 929 C378 958 402 981 402 988 C402 1019 376 1046 345 1046 C338 1046 317 1020 291 981 L184 826 L199 811 L199 811 Z M456 22 L628 22 L628 20 C631 31 634 42 636 51 C640 67 646 87 650 103 C650 103 653 120 658 145 C662 170 665 187 665 187 L654 145 C634 71 595 22 456 22 L456 22 Z M456 22 L306 22 C259 22 254 34 254 52 L254 73 L254 677 C254 732 279 742 317 742 L359 742 C359 742 349 744 333 746 C317 748 307 750 307 750 L254 750 L190 750 L126 750 L73 750 C73 750 63 748 47 746 C31 744 21 742 21 742 L63 742 C101 742 126 732 126 677 L126 73 C126 18 101 8 63 8 L21 8 C21 8 31 6 47 4 C63 2 73 0 73 0 L126 0 L164 0 L254 0 L450 0 L623 0 L456 22 L456 22 Z " />
<glyph glyph-name="Lcaron" unicode="&#x13d;" horiz-adv-x="703" d="M467 686 C485 723 497 765 497 790 C497 803 476 807 446 807 C422 807 411 744 408 699 L399 586 L419 583 L467 686 L467 686 Z M456 22 L628 22 L628 20 C631 31 634 42 636 51 C640 67 646 87 650 103 C650 103 653 120 658 145 C662 170 665 187 665 187 L654 145 C634 71 595 22 456 22 L456 22 Z M456 22 L306 22 C259 22 254 34 254 52 L254 73 L254 677 C254 732 279 742 317 742 L359 742 C359 742 349 744 333 746 C317 748 307 750 307 750 L254 750 L190 750 L126 750 L73 750 C73 750 63 748 47 746 C31 744 21 742 21 742 L63 742 C101 742 126 732 126 677 L126 73 C126 18 101 8 63 8 L21 8 C21 8 31 6 47 4 C63 2 73 0 73 0 L126 0 L164 0 L254 0 L450 0 L623 0 L456 22 L456 22 Z " />
<glyph glyph-name="lcaron" unicode="&#x13e;" horiz-adv-x="332" d="M335 633 C353 671 365 712 365 738 C365 750 344 754 314 754 C290 754 279 691 276 646 L267 534 L287 530 L335 633 L335 633 Z M222 23 L222 684 L222 747 L202 747 L65 708 C65 708 56 704 44 698 C31 692 22 688 22 688 L65 700 C90 708 107 704 107 657 L107 23 C107 10 92 8 70 8 L27 8 C27 8 35 6 47 4 C59 2 67 0 67 0 L165 0 L262 0 C262 0 270 2 282 4 C294 6 302 8 302 8 L260 8 C237 8 222 10 222 23 L222 23 Z " />
<glyph glyph-name="Nacute" unicode="&#x143;" horiz-adv-x="837" d="M322 811 L467 929 C502 958 526 981 526 988 C526 1019 500 1046 469 1046 C462 1046 441 1020 414 981 L308 826 L322 811 L322 811 Z M199 750 L169 750 L137 750 L106 750 L40 750 L14 750 C14 750 7 748 -3 746 C-12 744 -19 742 -19 742 L38 742 C43 742 51 736 75 707 L75 707 L136 632 L135 116 C130 26 98 8 52 8 L9 8 C9 8 16 6 26 4 C35 2 42 0 42 0 L134 0 L154 0 L173 0 L265 0 C265 0 272 2 282 4 C291 6 298 8 298 8 L256 8 C208 8 176 25 173 113 L170 591 L506 182 L657 -1 L682 -1 L691 641 L691 641 C690 725 723 741 773 741 L816 741 C816 741 803 743 784 745 C766 747 753 749 753 749 L692 749 L672 749 L653 749 L591 749 C591 749 579 747 560 745 C541 743 529 741 529 741 L571 741 C617 741 649 727 653 655 L655 203 L606 262 L199 750 L199 750 Z " />
<glyph glyph-name="Ncaron" unicode="&#x147;" horiz-adv-x="837" d="M414 929 L552 1045 L568 1032 L454 854 C446 842 427 813 414 813 C400 813 381 841 373 854 L259 1032 L275 1045 L414 929 L414 929 Z M199 750 L169 750 L137 750 L106 750 L40 750 L14 750 C14 750 7 748 -3 746 C-12 744 -19 742 -19 742 L38 742 C43 742 51 736 75 707 L75 707 L136 632 L135 116 C130 26 98 8 52 8 L9 8 C9 8 16 6 26 4 C35 2 42 0 42 0 L134 0 L154 0 L173 0 L265 0 C265 0 272 2 282 4 C291 6 298 8 298 8 L256 8 C208 8 176 25 173 113 L170 591 L506 182 L657 -1 L682 -1 L691 641 L691 641 C690 725 723 741 773 741 L816 741 C816 741 803 743 784 745 C766 747 753 749 753 749 L692 749 L672 749 L653 749 L591 749 C591 749 579 747 560 745 C541 743 529 741 529 741 L571 741 C617 741 649 727 653 655 L655 203 L606 262 L199 750 L199 750 Z " />
<glyph glyph-name="ncaron" unicode="&#x148;" horiz-adv-x="673" d="M333 679 L471 795 L487 782 L373 604 C365 592 346 563 332 563 C319 563 300 591 292 604 L178 782 L194 795 L333 679 L333 679 Z M448 23 C448 10 433 8 411 8 L368 8 C368 8 376 6 388 4 C400 2 408 0 408 0 L506 0 L603 0 C603 0 611 2 623 4 C635 6 643 8 643 8 L601 8 C578 8 563 10 563 23 L563 292 C563 423 510 510 407 510 C352 510 276 461 216 388 L216 437 L216 500 L196 500 L59 450 C59 450 50 445 38 438 C25 431 16 427 16 427 L59 442 C84 451 101 449 101 402 L101 23 C101 10 86 8 64 8 L21 8 C21 8 29 6 41 4 C53 2 61 0 61 0 L159 0 L256 0 C256 0 264 2 276 4 C288 6 296 8 296 8 L254 8 C231 8 216 10 216 23 L216 372 C258 423 322 457 375 457 C423 457 448 391 448 292 L448 23 L448 23 Z " />
<glyph glyph-name="Omacron" unicode="&#x14c;" horiz-adv-x="928" d="M278 890 L625 890 L625 970 L278 970 L278 890 L278 890 Z M443 -5 C289 -5 187 147 187 375 C187 603 293 755 451 755 C616 755 726 603 726 375 C726 147 613 -5 443 -5 L443 -5 Z M40 375 C40 144 201 -10 442 -10 C701 -10 873 144 873 375 C873 606 705 760 452 760 C205 760 40 606 40 375 L40 375 Z " />
<glyph glyph-name="omacron" unicode="&#x14d;" horiz-adv-x="640" d="M140 640 L487 640 L487 720 L140 720 L140 640 L140 640 Z M314 -5 C221 -5 159 97 159 250 C159 403 221 505 314 505 C406 505 468 403 468 250 C468 97 406 -5 314 -5 L314 -5 Z M32 250 C32 94 145 -10 314 -10 C483 -10 595 94 595 250 C595 406 483 510 314 510 C145 510 32 406 32 250 L32 250 Z " />
<glyph glyph-name="Obreve" unicode="&#x14e;" horiz-adv-x="928" d="M291 994 C301 910 366 854 452 854 C538 854 602 909 612 992 L588 995 C584 959 529 935 452 935 C375 935 320 960 316 998 L291 994 L291 994 Z M443 -5 C289 -5 187 147 187 375 C187 603 293 755 451 755 C616 755 726 603 726 375 C726 147 613 -5 443 -5 L443 -5 Z M40 375 C40 144 201 -10 442 -10 C701 -10 873 144 873 375 C873 606 705 760 452 760 C205 760 40 606 40 375 L40 375 Z " />
<glyph glyph-name="obreve" unicode="&#x14f;" horiz-adv-x="640" d="M153 744 C163 660 228 604 314 604 C400 604 464 659 474 742 L450 745 C446 709 391 685 314 685 C237 685 182 710 178 748 L153 744 L153 744 Z M314 -5 C221 -5 159 97 159 250 C159 403 221 505 314 505 C406 505 468 403 468 250 C468 97 406 -5 314 -5 L314 -5 Z M32 250 C32 94 145 -10 314 -10 C483 -10 595 94 595 250 C595 406 483 510 314 510 C145 510 32 406 32 250 L32 250 Z " />
<glyph glyph-name="Racute" unicode="&#x154;" horiz-adv-x="890" d="M346 811 L490 929 C526 958 550 981 550 988 C550 1019 523 1046 492 1046 C486 1046 465 1020 438 981 L331 826 L346 811 L346 811 Z M881 0 L881 10 C785 10 779 12 736 68 C626 207 543 313 506 360 C612 383 678 440 678 536 C678 664 558 749 379 749 L266 749 L176 749 L85 749 C85 749 75 747 59 745 C43 743 33 741 33 741 L75 741 C113 741 138 731 138 676 L138 72 C138 17 113 7 75 7 L33 7 C33 7 43 5 59 3 C75 1 85 -1 85 -1 L202 -1 L319 -1 C319 -1 329 1 345 3 C361 5 371 7 371 7 L329 7 C291 7 266 17 266 72 L266 347 L374 347 C399 308 478 204 585 68 C636 3 648 0 881 0 L881 0 Z M266 724 L340 724 C458 724 536 659 536 562 C536 436 473 380 379 380 L266 380 L266 677 L266 724 L266 724 Z " />
<glyph glyph-name="Rcaron" unicode="&#x158;" horiz-adv-x="890" d="M881 0 L881 10 C785 10 779 12 736 68 C626 207 543 313 506 360 C612 383 678 440 678 536 C678 664 558 749 379 749 L266 749 L176 749 L85 749 C85 749 75 747 59 745 C43 743 33 741 33 741 L75 741 C113 741 138 731 138 676 L138 72 C138 17 113 7 75 7 L33 7 C33 7 43 5 59 3 C75 1 85 -1 85 -1 L202 -1 L319 -1 C319 -1 329 1 345 3 C361 5 371 7 371 7 L329 7 C291 7 266 17 266 72 L266 347 L374 347 C399 308 478 204 585 68 C636 3 648 0 881 0 L881 0 Z M337 929 L476 1045 L491 1032 L378 854 C370 842 351 813 337 813 C324 813 305 841 297 854 L183 1032 L198 1045 L337 929 L337 929 Z M266 724 L340 724 C458 724 536 659 536 562 C536 436 473 380 379 380 L266 380 L266 677 L266 724 L266 724 Z " />
<glyph glyph-name="rcaron" unicode="&#x159;" horiz-adv-x="536" d="M307 679 L445 795 L461 782 L347 604 C339 592 320 563 307 563 C293 563 274 591 266 604 L152 782 L168 795 L307 679 L307 679 Z M222 390 L222 437 L222 500 L202 500 L65 450 C65 450 56 445 44 438 C31 431 22 427 22 427 L65 442 C90 451 107 449 107 402 L107 23 C107 10 94 8 75 8 L32 8 C32 8 40 6 51 4 C62 2 70 0 70 0 L167 0 L265 0 C265 0 273 2 286 4 C299 6 307 8 307 8 L265 8 C239 8 222 10 222 23 L222 380 C251 426 296 456 337 456 C370 456 392 442 392 421 C392 381 419 354 460 354 C500 354 527 381 527 421 C527 475 473 510 391 510 C331 510 265 463 223 390 L222 390 L222 390 Z " />
<glyph glyph-name="Sacute" unicode="&#x15a;" horiz-adv-x="585" d="M298 811 L442 929 C477 958 501 981 501 988 C501 1019 475 1046 444 1046 C437 1046 416 1020 390 981 L283 826 L298 811 L298 811 Z M451 710 L451 710 C406 741 344 760 277 760 C146 760 59 677 59 553 C59 450 128 357 263 308 C382 265 443 213 443 168 C443 65 386 -4 301 -4 C264 -4 226 9 191 33 L191 33 C166 50 142 75 121 102 C107 121 95 142 85 164 L82 163 C69 187 59 210 55 228 C52 241 50 249 50 249 C50 249 50 241 49 228 C48 215 48 207 48 207 L48 147 L48 140 L48 74 C48 74 48 60 49 38 C50 16 50 2 50 2 C50 2 52 16 55 38 C59 64 89 78 127 49 L128 49 C176 12 237 -9 301 -9 C448 -9 546 77 546 206 C546 303 476 393 340 443 C220 486 159 546 159 603 C159 695 206 756 277 756 C302 756 327 751 350 742 C395 723 436 683 464 641 C466 637 468 633 470 629 L471 630 C485 608 495 586 499 566 C502 553 504 545 504 545 C504 545 505 553 506 566 C506 579 507 587 507 587 L507 646 L507 647 L507 705 C507 705 506 716 506 734 C505 751 504 762 504 762 C504 762 502 751 499 734 C496 711 475 696 450 713 L451 710 L451 710 Z M338 748 L329 751 C332 750 335 749 338 748 L338 748 Z " />
<glyph glyph-name="Scircumflex" unicode="&#x15c;" horiz-adv-x="585" d="M451 710 L451 710 C406 741 344 760 277 760 C146 760 59 677 59 553 C59 450 128 357 263 308 C382 265 443 213 443 168 C443 65 386 -4 301 -4 C264 -4 226 9 191 33 L191 33 C166 50 142 75 121 102 C107 121 95 142 85 164 L82 163 C69 187 59 210 55 228 C52 241 50 249 50 249 C50 249 50 241 49 228 C48 215 48 207 48 207 L48 147 L48 140 L48 74 C48 74 48 60 49 38 C50 16 50 2 50 2 C50 2 52 16 55 38 C59 64 89 78 127 49 L128 49 C176 12 237 -9 301 -9 C448 -9 546 77 546 206 C546 303 476 393 340 443 C220 486 159 546 159 603 C159 695 206 756 277 756 C302 756 327 751 350 742 C395 723 436 683 464 641 C466 637 468 633 470 629 L471 630 C485 608 495 586 499 566 C502 553 504 545 504 545 C504 545 505 553 506 566 C506 579 507 587 507 587 L507 646 L507 647 L507 705 C507 705 506 716 506 734 C505 751 504 762 504 762 C504 762 502 751 499 734 C496 711 475 696 450 713 L451 710 L451 710 Z M288 925 L427 808 L442 821 L329 999 C321 1011 301 1040 288 1040 C275 1040 256 1012 248 999 L134 821 L149 808 L288 925 L288 925 Z M338 748 L329 751 C332 750 335 749 338 748 L338 748 Z " />
<glyph glyph-name="Scaron" unicode="&#x160;" horiz-adv-x="585" d="M451 710 L451 710 C406 741 344 760 277 760 C146 760 59 677 59 553 C59 450 128 357 263 308 C382 265 443 213 443 168 C443 65 386 -4 301 -4 C264 -4 226 9 191 33 L191 33 C166 50 142 75 121 102 C107 121 95 142 85 164 L82 163 C69 187 59 210 55 228 C52 241 50 249 50 249 C50 249 50 241 49 228 C48 215 48 207 48 207 L48 147 L48 140 L48 74 C48 74 48 60 49 38 C50 16 50 2 50 2 C50 2 52 16 55 38 C59 64 89 78 127 49 L128 49 C176 12 237 -9 301 -9 C448 -9 546 77 546 206 C546 303 476 393 340 443 C220 486 159 546 159 603 C159 695 206 756 277 756 C302 756 327 751 350 742 C395 723 436 683 464 641 C466 637 468 633 470 629 L471 630 C485 608 495 586 499 566 C502 553 504 545 504 545 C504 545 505 553 506 566 C506 579 507 587 507 587 L507 646 L507 647 L507 705 C507 705 506 716 506 734 C505 751 504 762 504 762 C504 762 502 751 499 734 C496 711 475 696 450 713 L451 710 L451 710 Z M288 931 L427 1048 L442 1035 L329 857 C321 845 301 816 288 816 C275 816 256 844 248 857 L134 1035 L149 1048 L288 931 L288 931 Z M338 748 L329 751 C332 750 335 749 338 748 L338 748 Z " />
<glyph glyph-name="scaron" unicode="&#x161;" horiz-adv-x="474" d="M239 679 L377 795 L393 782 L279 604 C271 592 252 563 238 563 C225 563 206 591 198 604 L84 782 L100 795 L239 679 L239 679 Z M294 496 L280 498 C318 484 352 453 371 411 L381 416 C389 399 394 381 394 364 L394 347 C394 347 395 354 398 364 C400 373 402 380 402 380 L402 427 L402 432 L402 484 C402 484 400 489 398 497 C395 505 394 510 394 510 L394 481 C394 473 374 472 344 486 C314 502 277 511 237 511 C134 511 65 456 65 373 C65 297 115 233 213 207 C294 185 336 147 336 106 C336 40 297 -5 238 -5 C230 -5 222 -4 214 -2 L215 -2 C214 -2 213 -2 212 -2 C169 10 127 50 101 106 L91 102 C82 121 77 140 77 156 L77 172 C77 172 75 165 73 156 C71 146 69 139 69 139 L69 95 L69 93 L69 50 C69 50 71 42 73 29 C75 16 77 8 77 8 L77 29 C77 35 106 29 151 11 C177 -2 207 -9 238 -9 C350 -9 425 50 425 139 C425 207 370 267 264 295 C186 315 146 361 146 413 C146 469 182 507 237 507 C252 507 267 504 281 499 L238 507 C259 507 278 503 295 496 L294 496 L294 496 Z " />
<glyph glyph-name="Tcaron" unicode="&#x164;" horiz-adv-x="806" d="M403 929 L542 1045 L558 1032 L444 854 C436 842 417 813 403 813 C390 813 371 841 363 854 L249 1032 L264 1045 L403 929 L403 929 Z M25 617 L40 655 C54 693 79 718 163 718 L339 718 L339 68 C339 18 314 8 276 8 L234 8 C234 8 244 6 260 4 C276 2 286 0 286 0 L403 0 L520 0 C520 0 530 2 546 4 C562 6 572 8 572 8 L530 8 C492 8 467 18 467 68 L467 718 L644 718 C728 718 753 693 766 655 L782 613 C782 613 780 624 776 640 C772 655 770 666 770 666 C764 682 757 702 751 718 L751 750 L740 750 C738 757 736 764 734 770 C733 770 730 774 726 780 C722 786 719 790 718 790 L725 773 C730 759 717 750 633 750 L468 750 L340 750 L175 750 C92 750 79 759 84 773 L90 790 C90 790 87 786 82 780 C78 774 75 770 75 770 C73 764 71 757 68 750 L56 750 L56 718 C50 702 43 682 37 666 C37 666 35 655 31 640 C29 629 27 621 26 617 L25 617 L25 617 Z M26 617 C25 615 25 614 25 614 L26 617 L26 617 Z " />
<glyph glyph-name="tcaron" unicode="&#x165;" horiz-adv-x="431" d="M382 500 L214 500 L214 620 L206 620 L34 449 L34 439 L99 439 L99 186 C99 45 163 -10 260 -10 C343 -10 408 43 421 122 L407 125 C398 76 354 44 295 44 C244 44 210 77 211 161 L214 439 L382 439 L382 500 L382 500 Z M505 633 C522 671 534 712 534 738 C534 750 514 754 483 754 C459 754 448 691 445 646 L436 534 L456 530 L505 633 L505 633 Z " />
<glyph glyph-name="Utilde" unicode="&#x168;" horiz-adv-x="841" d="M250 870 C250 903 270 925 300 925 C365 925 431 860 497 860 C548 860 583 916 583 1001 L580 1001 C580 965 557 941 523 941 C458 941 392 1006 327 1006 C279 1006 247 952 247 870 L250 870 L250 870 Z M727 98 L727 677 L727 750 L636 750 L546 750 C546 750 535 748 520 746 C504 744 493 742 493 742 L536 742 C573 742 598 732 598 677 L598 206 C562 126 478 73 389 73 C294 73 231 134 231 226 L231 677 L231 750 L141 750 L50 750 C50 750 40 748 24 746 C8 744 -2 742 -2 742 L40 742 C78 742 103 732 103 677 L103 226 C103 85 197 -10 338 -10 C450 -10 554 53 598 148 L598 98 L598 0 L619 0 L831 49 L831 53 C744 48 727 54 727 98 L727 98 Z " />
<glyph glyph-name="utilde" unicode="&#x169;" horiz-adv-x="665" d="M158 620 C158 653 178 675 208 675 C274 675 340 610 405 610 C457 610 491 666 491 751 L488 751 C488 715 465 691 431 691 C366 691 300 756 235 756 C187 756 155 702 155 620 L158 620 L158 620 Z M643 41 L603 32 C578 26 561 34 561 101 L561 477 L561 500 L487 500 L413 500 C413 500 406 498 396 496 C386 494 380 492 380 492 L422 492 C436 492 446 490 446 477 L446 131 C424 94 369 70 303 70 C241 70 200 108 200 165 L200 477 L200 500 L126 500 L52 500 C52 500 45 498 36 496 C26 494 19 492 19 492 L61 492 C76 492 85 490 85 477 L85 165 C85 60 151 -10 249 -10 C333 -10 411 42 446 123 L446 77 L446 -11 L466 -11 L603 23 C603 23 612 27 625 32 C633 36 639 39 643 40 L643 41 L643 41 Z M643 40 C645 41 646 41 646 41 L643 40 L643 40 Z " />
<glyph glyph-name="Umacron" unicode="&#x16a;" horiz-adv-x="841" d="M241 890 L588 890 L588 970 L241 970 L241 890 L241 890 Z M727 98 L727 677 L727 750 L636 750 L546 750 C546 750 535 748 520 746 C504 744 493 742 493 742 L536 742 C573 742 598 732 598 677 L598 206 C562 126 478 73 389 73 C294 73 231 134 231 226 L231 677 L231 750 L141 750 L50 750 C50 750 40 748 24 746 C8 744 -2 742 -2 742 L40 742 C78 742 103 732 103 677 L103 226 C103 85 197 -10 338 -10 C450 -10 554 53 598 148 L598 98 L598 0 L619 0 L831 49 L831 53 C744 48 727 54 727 98 L727 98 Z " />
<glyph glyph-name="umacron" unicode="&#x16b;" horiz-adv-x="665" d="M150 640 L497 640 L497 720 L150 720 L150 640 L150 640 Z M643 41 L603 32 C578 26 561 34 561 101 L561 477 L561 500 L487 500 L413 500 C413 500 406 498 396 496 C386 494 380 492 380 492 L422 492 C436 492 446 490 446 477 L446 131 C424 94 369 70 303 70 C241 70 200 108 200 165 L200 477 L200 500 L126 500 L52 500 C52 500 45 498 36 496 C26 494 19 492 19 492 L61 492 C76 492 85 490 85 477 L85 165 C85 60 151 -10 249 -10 C333 -10 411 42 446 123 L446 77 L446 -11 L466 -11 L603 23 C603 23 612 27 625 32 C633 36 639 39 643 40 L643 41 L643 41 Z M643 40 C645 41 646 41 646 41 L643 40 L643 40 Z " />
<glyph glyph-name="Ubreve" unicode="&#x16c;" horiz-adv-x="841" d="M255 994 C264 910 329 854 415 854 C501 854 566 909 575 992 L551 995 C547 959 492 935 415 935 C338 935 283 960 279 998 L255 994 L255 994 Z M727 98 L727 677 L727 750 L636 750 L546 750 C546 750 535 748 520 746 C504 744 493 742 493 742 L536 742 C573 742 598 732 598 677 L598 206 C562 126 478 73 389 73 C294 73 231 134 231 226 L231 677 L231 750 L141 750 L50 750 C50 750 40 748 24 746 C8 744 -2 742 -2 742 L40 742 C78 742 103 732 103 677 L103 226 C103 85 197 -10 338 -10 C450 -10 554 53 598 148 L598 98 L598 0 L619 0 L831 49 L831 53 C744 48 727 54 727 98 L727 98 Z " />
<glyph glyph-name="ubreve" unicode="&#x16d;" horiz-adv-x="665" d="M163 744 C172 660 237 604 323 604 C409 604 474 659 483 742 L459 745 C455 709 400 685 323 685 C246 685 191 710 187 748 L163 744 L163 744 Z M643 41 L603 32 C578 26 561 34 561 101 L561 477 L561 500 L487 500 L413 500 C413 500 406 498 396 496 C386 494 380 492 380 492 L422 492 C436 492 446 490 446 477 L446 131 C424 94 369 70 303 70 C241 70 200 108 200 165 L200 477 L200 500 L126 500 L52 500 C52 500 45 498 36 496 C26 494 19 492 19 492 L61 492 C76 492 85 490 85 477 L85 165 C85 60 151 -10 249 -10 C333 -10 411 42 446 123 L446 77 L446 -11 L466 -11 L603 23 C603 23 612 27 625 32 C633 36 639 39 643 40 L643 41 L643 41 Z M643 40 C645 41 646 41 646 41 L643 40 L643 40 Z " />
<glyph glyph-name="Uring" unicode="&#x16e;" horiz-adv-x="841" d="M415 837 C380 837 350 868 350 905 C350 946 376 973 415 973 C453 973 479 946 479 905 C479 868 450 837 415 837 L415 837 Z M317 905 C317 854 362 810 415 810 C468 810 513 854 513 905 C513 962 474 1000 415 1000 C356 1000 317 962 317 905 L317 905 Z M727 98 L727 677 L727 750 L636 750 L546 750 C546 750 535 748 520 746 C504 744 493 742 493 742 L536 742 C573 742 598 732 598 677 L598 206 C562 126 478 73 389 73 C294 73 231 134 231 226 L231 677 L231 750 L141 750 L50 750 C50 750 40 748 24 746 C8 744 -2 742 -2 742 L40 742 C78 742 103 732 103 677 L103 226 C103 85 197 -10 338 -10 C450 -10 554 53 598 148 L598 98 L598 0 L619 0 L831 49 L831 53 C744 48 727 54 727 98 L727 98 Z " />
<glyph glyph-name="uring" unicode="&#x16f;" horiz-adv-x="665" d="M323 587 C288 587 258 618 258 655 C258 696 284 723 323 723 C362 723 388 696 388 655 C388 618 358 587 323 587 L323 587 Z M225 655 C225 604 270 560 323 560 C376 560 421 604 421 655 C421 712 382 750 323 750 C264 750 225 712 225 655 L225 655 Z M643 41 L603 32 C578 26 561 34 561 101 L561 477 L561 500 L487 500 L413 500 C413 500 406 498 396 496 C386 494 380 492 380 492 L422 492 C436 492 446 490 446 477 L446 131 C424 94 369 70 303 70 C241 70 200 108 200 165 L200 477 L200 500 L126 500 L52 500 C52 500 45 498 36 496 C26 494 19 492 19 492 L61 492 C76 492 85 490 85 477 L85 165 C85 60 151 -10 249 -10 C333 -10 411 42 446 123 L446 77 L446 -11 L466 -11 L603 23 C603 23 612 27 625 32 C633 36 639 39 643 40 L643 41 L643 41 Z M643 40 C645 41 646 41 646 41 L643 40 L643 40 Z " />
<glyph glyph-name="Wcircumflex" unicode="&#x174;" horiz-adv-x="1205" d="M583 921 L721 805 L737 818 L623 996 C615 1008 596 1037 582 1037 C569 1037 550 1009 542 996 L428 818 L444 805 L583 921 L583 921 Z M501 702 L594 500 L593 500 L466 162 L263 622 L263 622 C218 723 250 742 312 742 L351 742 C351 742 345 744 335 746 C325 748 319 750 319 750 L206 750 L177 750 L65 750 L36 750 C36 750 29 748 19 746 C10 744 3 742 3 742 L60 742 C65 742 77 723 121 622 L122 622 L325 162 L401 -10 L435 -10 L618 449 L738 187 L828 -10 L862 -10 L1060 622 L1060 622 C1060 623 1060 624 1060 625 L1067 648 C1093 726 1119 742 1150 742 L1192 742 C1192 742 1185 744 1176 746 C1166 748 1159 750 1159 750 L1099 750 L1047 750 L1037 750 L914 750 C914 750 908 748 898 746 C888 744 882 742 882 742 L922 742 C994 742 1038 724 1012 627 L885 187 L885 187 L672 652 L672 652 C638 728 672 742 734 742 L772 742 C772 742 766 744 756 746 C746 748 740 750 740 750 L627 750 L580 750 L479 750 L420 750 C420 750 413 748 403 746 C394 744 387 742 387 742 L429 742 C461 742 485 736 500 702 L501 702 L501 702 Z " />
<glyph glyph-name="Ycircumflex" unicode="&#x176;" horiz-adv-x="797" d="M408 922 L547 805 L562 818 L449 996 C441 1008 421 1037 408 1037 C394 1037 375 1009 367 996 L254 818 L269 805 L408 922 L408 922 Z M279 641 C227 725 241 742 276 742 L314 742 C314 742 307 744 297 746 C288 748 281 750 281 750 L209 750 L155 750 L57 750 L30 750 C30 750 23 748 13 746 C4 744 -3 742 -3 742 L54 742 C59 742 75 723 141 622 L142 622 L344 316 L344 68 C344 18 319 8 281 8 L239 8 C239 8 249 6 265 4 C281 2 291 0 291 0 L408 0 L525 0 C525 0 535 2 551 4 C567 6 577 8 577 8 L535 8 C497 8 472 18 472 68 L472 337 L642 635 C695 725 722 742 746 742 L789 742 C789 742 782 744 773 746 C763 748 756 750 756 750 L708 750 L699 750 L691 750 L626 750 C626 750 620 748 610 746 C600 744 594 742 594 742 L632 742 C668 742 683 726 641 647 L470 343 L279 641 L279 641 Z " />
<glyph glyph-name="Ydieresis" unicode="&#x178;" horiz-adv-x="797" d="M491 865 C536 865 566 895 566 939 C566 984 536 1014 491 1014 C447 1014 417 984 417 939 C417 895 447 865 491 865 L491 865 Z M324 865 C369 865 399 895 399 939 C399 984 369 1014 324 1014 C280 1014 250 984 250 939 C250 895 280 865 324 865 L324 865 Z M279 641 C227 725 241 742 276 742 L314 742 C314 742 307 744 297 746 C288 748 281 750 281 750 L209 750 L155 750 L57 750 L30 750 C30 750 23 748 13 746 C4 744 -3 742 -3 742 L54 742 C59 742 75 723 141 622 L142 622 L344 316 L344 68 C344 18 319 8 281 8 L239 8 C239 8 249 6 265 4 C281 2 291 0 291 0 L408 0 L525 0 C525 0 535 2 551 4 C567 6 577 8 577 8 L535 8 C497 8 472 18 472 68 L472 337 L642 635 C695 725 722 742 746 742 L789 742 C789 742 782 744 773 746 C763 748 756 750 756 750 L708 750 L699 750 L691 750 L626 750 C626 750 620 748 610 746 C600 744 594 742 594 742 L632 742 C668 742 683 726 641 647 L470 343 L279 641 L279 641 Z " />
<glyph glyph-name="Zacute" unicode="&#x179;" horiz-adv-x="683" d="M364 811 L509 929 C544 958 568 981 568 988 C568 1019 542 1046 511 1046 C504 1046 483 1020 456 981 L350 826 L364 811 L364 811 Z M164 0 L490 0 L637 0 C641 17 647 39 651 57 C656 74 661 96 666 113 C665 113 668 129 672 153 C675 176 678 192 678 192 L664 148 C646 89 617 48 533 39 L184 31 L641 723 L641 750 L516 750 L228 750 L70 750 C67 732 64 708 62 691 C59 673 56 649 53 632 C53 632 53 615 52 588 C52 562 51 545 51 545 L57 584 C69 659 98 710 205 715 L496 721 L25 28 L25 1 L164 0 L164 0 Z " />
<glyph glyph-name="Zdot" unicode="&#x17b;" horiz-adv-x="683" d="M356 865 C400 865 430 895 430 939 C430 984 400 1014 356 1014 C311 1014 281 984 281 939 C281 895 311 865 356 865 L356 865 Z M164 0 L490 0 L637 0 C641 17 647 39 651 57 C656 74 661 96 666 113 C665 113 668 129 672 153 C675 176 678 192 678 192 L664 148 C646 89 617 48 533 39 L184 31 L641 723 L641 750 L516 750 L228 750 L70 750 C67 732 64 708 62 691 C59 673 56 649 53 632 C53 632 53 615 52 588 C52 562 51 545 51 545 L57 584 C69 659 98 710 205 715 L496 721 L25 28 L25 1 L164 0 L164 0 Z " />
<glyph glyph-name="zdot" unicode="&#x17c;" horiz-adv-x="506" d="M275 615 C319 615 349 645 349 689 C349 734 319 764 275 764 C230 764 200 734 200 689 C200 645 230 615 275 615 L275 615 Z M108 538 C107 536 105 533 103 529 C99 523 96 519 96 519 C94 513 92 506 90 499 L83 499 L83 474 C82 471 81 468 80 466 C76 450 70 429 66 413 C66 413 63 403 59 388 C55 373 52 363 52 363 L72 405 C85 434 106 455 160 461 L328 467 L40 26 L40 -1 L161 -1 L349 -1 L461 -1 C463 12 465 29 467 42 C469 55 471 72 473 85 L478 110 L483 135 L467 92 C456 63 433 42 360 36 L181 30 L466 471 L466 498 L349 498 L110 498 C105 498 99 502 100 508 L108 538 L108 538 Z M108 536 L108 538 C108 538 108 537 107 536 L108 536 L108 536 Z " />
<glyph glyph-name="Zcaron" unicode="&#x17d;" horiz-adv-x="683" d="M356 929 L494 1045 L510 1032 L396 854 C388 842 369 813 356 813 C342 813 323 841 315 854 L201 1032 L217 1045 L356 929 L356 929 Z M164 0 L490 0 L637 0 C641 17 647 39 651 57 C656 74 661 96 666 113 C665 113 668 129 672 153 C675 176 678 192 678 192 L664 148 C646 89 617 48 533 39 L184 31 L641 723 L641 750 L516 750 L228 750 L70 750 C67 732 64 708 62 691 C59 673 56 649 53 632 C53 632 53 615 52 588 C52 562 51 545 51 545 L57 584 C69 659 98 710 205 715 L496 721 L25 28 L25 1 L164 0 L164 0 Z " />
<glyph glyph-name="zcaron" unicode="&#x17e;" horiz-adv-x="506" d="M275 679 L413 795 L429 782 L315 604 C307 592 288 563 275 563 C261 563 242 591 234 604 L120 782 L136 795 L275 679 L275 679 Z M108 538 C107 536 105 533 103 529 C99 523 96 519 96 519 C94 513 92 506 90 499 L83 499 L83 474 C82 471 81 468 80 466 C76 450 70 429 66 413 C66 413 63 403 59 388 C55 373 52 363 52 363 L72 405 C85 434 106 455 160 461 L328 467 L40 26 L40 -1 L161 -1 L349 -1 L461 -1 C463 12 465 29 467 42 C469 55 471 72 473 85 L478 110 L483 135 L467 92 C456 63 433 42 360 36 L181 30 L466 471 L466 498 L349 498 L110 498 C105 498 99 502 100 508 L108 538 L108 538 Z M108 536 L108 538 C108 538 108 537 107 536 L108 536 L108 536 Z " />
<glyph glyph-name="oogonek" unicode="&#x1eb;" horiz-adv-x="821" d="M1074 -53 L1073 -52 C1044 -76 927 -93 782 -93 C642 -93 489 -61 380 -10 C385 -10 389 -10 393 -10 C620 -10 772 111 772 292 C772 472 624 593 403 593 C188 593 44 472 44 292 C44 186 128 101 218 48 L218 48 C439 -80 659 -166 769 -166 C872 -166 994 -121 1074 -53 L1074 -53 Z M394 -5 C328 -5 176 114 176 292 C176 470 266 589 402 589 C544 589 639 470 639 292 C639 114 541 -5 394 -5 L394 -5 Z " />
<glyph glyph-name="Adotabove" unicode="&#x226;" horiz-adv-x="835" d="M424 865 C469 865 499 895 499 939 C499 984 469 1014 424 1014 C380 1014 350 984 350 939 C350 895 380 865 424 865 L424 865 Z M696 128 L696 128 L489 709 L467 770 L454 770 C432 738 394 714 360 709 L364 698 L240 299 L240 299 L240 298 L196 158 L196 158 C156 32 112 8 56 8 L14 8 C14 8 20 6 30 4 C40 2 46 0 46 0 L147 0 L152 0 L166 0 L285 0 C285 0 291 2 301 4 C311 6 317 8 317 8 L277 8 C204 8 162 32 201 158 L201 158 L243 294 L505 294 L569 110 C595 24 565 7 512 7 L472 7 C472 7 478 5 488 3 C498 1 504 -1 504 -1 L607 -1 L653 -1 L742 -1 L802 -1 C802 -1 808 1 818 3 C828 5 834 7 834 7 L792 7 C760 7 731 26 697 127 L696 128 L696 128 Z M244 298 L366 693 L503 298 L244 298 L244 298 Z " />
<glyph glyph-name="G_sc" unicode="&#x262;" horiz-adv-x="787" d="M530 185 L531 127 C529 62 483 18 415 18 C268 18 171 127 171 292 C171 470 264 589 404 589 C439 589 468 584 494 575 C571 548 639 461 653 404 C656 391 658 383 658 383 C658 383 659 391 659 404 C660 417 661 425 661 425 L661 487 L661 491 L661 548 C661 548 660 555 659 565 C659 575 658 582 658 582 C658 582 656 571 653 554 C651 542 620 541 578 560 C537 580 483 592 402 592 C187 592 44 471 44 291 C44 110 188 -11 404 -11 C480 -11 546 0 608 19 L644 27 L644 31 C668 40 691 50 714 61 L713 64 C693 55 671 47 644 40 L645 184 C645 234 662 244 687 244 L730 244 C730 244 721 246 708 248 C696 250 687 252 687 252 L583 252 L479 252 C479 252 469 250 454 248 C439 246 429 244 429 244 L471 244 C506 244 529 234 529 184 L530 185 L530 185 Z " />
<glyph glyph-name="I_sc" unicode="&#x26a;" horiz-adv-x="392" d="M248 68 L248 516 C248 566 273 576 311 576 L353 576 C353 576 342 577 327 579 C311 582 300 583 300 583 L190 583 L80 583 C80 583 69 582 53 579 C38 577 27 576 27 576 L69 576 C107 576 132 566 132 516 L132 68 C132 18 107 8 69 8 L27 8 C27 8 38 6 53 4 C69 2 80 0 80 0 L190 0 L300 0 C300 0 311 2 327 4 C342 6 353 8 353 8 L311 8 C273 8 248 18 248 68 L248 68 Z " />
<glyph glyph-name="N_sc" unicode="&#x274;" horiz-adv-x="744" d="M194 583 L167 583 L138 583 L109 583 L50 583 L25 583 C25 583 18 582 8 579 C-1 577 -8 576 -8 576 L49 576 C53 576 58 573 71 560 L138 485 L137 119 C132 28 100 10 54 10 L11 10 C11 10 18 8 28 6 C37 4 44 2 44 2 L136 2 L154 2 L171 2 L263 2 C263 2 270 4 280 6 C289 8 296 10 296 10 L254 10 C205 10 173 27 170 116 L168 452 L454 130 L568 2 L591 2 L598 478 L598 478 C597 562 630 578 681 578 L723 578 C723 578 710 579 692 581 C673 584 660 585 660 585 L599 585 L582 585 L565 585 L503 585 C503 585 490 584 472 581 C453 579 440 578 440 578 L483 578 C532 578 565 562 565 478 L566 478 L568 135 L524 188 L194 583 L194 583 Z " />
<glyph glyph-name="R_sc" unicode="&#x280;" horiz-adv-x="731" d="M722 0 L722 9 C651 9 647 11 612 53 C526 158 460 239 428 278 C522 297 579 342 579 418 C579 517 472 584 311 584 L256 584 L172 584 L88 584 C88 584 77 583 61 580 C46 578 35 577 35 577 L77 577 C115 577 140 567 140 512 L140 74 C140 19 115 9 77 9 L35 9 C35 9 46 7 61 5 C77 3 88 1 88 1 L198 1 L308 1 C308 1 319 3 335 5 C350 7 361 9 361 9 L318 9 C281 9 256 19 256 74 L256 268 L307 268 C329 236 392 157 476 54 C517 3 527 1 721 1 L722 0 L722 0 Z M256 561 L276 561 C381 561 451 513 451 440 C451 341 395 297 311 297 L256 297 L256 512 L256 561 L256 561 Z " />
<glyph glyph-name="Y_sc" unicode="&#x28f;" horiz-adv-x="698" d="M284 456 L285 456 C214 557 227 576 265 576 L302 576 C302 576 296 577 286 579 C276 582 270 583 270 583 L197 583 L152 583 L61 583 L34 583 C34 583 27 582 18 579 C8 577 1 576 1 576 L59 576 C63 576 80 557 150 456 L150 456 L300 243 L300 68 C300 18 275 8 237 8 L195 8 C195 8 205 6 221 4 C237 2 247 0 247 0 L358 0 L468 0 C468 0 479 2 494 4 C510 6 521 8 521 8 L478 8 C441 8 416 18 416 68 L416 262 L539 468 C594 559 622 577 646 577 L689 577 C689 577 682 578 672 580 C663 583 656 584 656 584 L608 584 L600 584 L592 584 L527 584 C527 584 521 583 511 580 C501 578 495 577 495 577 L532 577 C571 577 586 559 530 467 L530 466 L414 268 L284 456 L284 456 Z " />
<glyph glyph-name="B_sc" unicode="&#x299;" horiz-adv-x="650" d="M257 580 L319 580 C436 580 463 521 463 432 C463 354 420 301 356 301 L257 301 L257 511 L257 580 L257 580 Z M407 301 C511 314 577 368 577 444 C577 528 529 583 325 583 L256 583 L172 583 L88 583 C88 583 77 582 61 579 C46 577 35 576 35 576 L77 576 C115 576 140 566 140 511 L140 73 C140 18 115 8 77 8 L35 8 C35 8 46 6 61 4 C77 2 88 0 88 0 L172 0 L256 0 L376 0 C516 0 609 29 609 150 C609 240 528 300 406 302 L407 301 L407 301 Z M357 299 L390 299 C445 299 482 240 482 151 C482 32 438 4 371 4 L321 4 C282 4 256 24 256 53 L256 74 L256 299 L357 299 L357 299 Z " />
<glyph glyph-name="H_sc" unicode="&#x29c;" horiz-adv-x="831" d="M687 68 L687 516 C687 566 712 576 750 576 L792 576 C792 576 781 577 766 579 C750 582 739 583 739 583 L629 583 L519 583 C519 583 508 582 493 579 C477 577 466 576 466 576 L509 576 C546 576 571 566 571 516 L571 300 L293 300 L293 516 C293 566 318 576 355 576 L398 576 C398 576 387 577 372 579 C356 582 345 583 345 583 L235 583 L125 583 C125 583 114 582 98 579 C83 577 72 576 72 576 L114 576 C152 576 177 566 177 516 L177 68 C177 18 152 8 114 8 L72 8 C72 8 83 6 98 4 C114 2 125 0 125 0 L235 0 L345 0 C345 0 356 2 372 4 C387 6 398 8 398 8 L355 8 C318 8 293 18 293 68 L293 296 L571 296 L571 68 C571 18 546 8 509 8 L466 8 C466 8 477 6 493 4 C508 2 519 0 519 0 L629 0 L739 0 C739 0 750 2 766 4 C781 6 792 8 792 8 L750 8 C712 8 687 18 687 68 L687 68 Z " />
<glyph glyph-name="L_sc" unicode="&#x29f;" horiz-adv-x="610" d="M363 20 L535 20 L535 19 C538 30 541 41 543 50 C547 65 553 85 557 101 C557 101 560 118 564 143 C569 168 572 185 572 185 L560 142 C541 69 502 20 363 20 L363 20 Z M363 20 L300 20 C253 20 248 33 248 52 L248 73 L248 511 C248 566 273 576 311 576 L353 576 C353 576 342 577 327 579 C311 582 300 583 300 583 L248 583 L190 583 L132 583 L80 583 C80 583 69 582 53 579 C38 577 27 576 27 576 L69 576 C107 576 132 566 132 511 L132 73 C132 18 107 8 69 8 L27 8 C27 8 38 6 53 4 C69 2 80 0 80 0 L132 0 L164 0 L248 0 L357 0 L530 0 L363 20 L363 20 Z " />
<glyph glyph-name="A_sc" unicode="&#x1d00;" horiz-adv-x="744" d="M203 158 L203 158 L226 228 L444 228 L489 107 C515 25 485 9 433 9 L393 9 C393 9 400 7 410 5 C419 3 426 1 426 1 L528 1 L568 1 L650 1 L709 1 C709 1 716 3 726 5 C735 7 742 9 742 9 L700 9 C669 9 642 26 607 113 L438 556 L419 604 L407 604 C390 580 356 561 322 556 L326 546 L198 159 L198 159 C157 33 112 9 56 9 L13 9 C13 9 20 7 29 5 C39 3 46 1 46 1 L146 1 L151 1 L165 1 L283 1 C283 1 290 3 300 5 C309 7 316 9 316 9 L276 9 C202 9 161 33 203 159 L203 158 L203 158 Z M227 234 L327 541 L441 234 L227 234 L227 234 Z " />
<glyph glyph-name="C_sc" unicode="&#x1d04;" horiz-adv-x="704" d="M579 561 C538 581 484 593 403 593 C188 593 45 472 45 292 C45 111 185 -10 394 -10 C469 -10 525 1 569 21 L570 21 C613 40 648 25 654 2 C659 -16 662 -28 662 -28 L662 2 L662 32 L662 91 L662 94 L662 157 C662 157 661 166 660 178 C660 191 659 200 659 200 C659 200 657 191 654 178 C644 135 594 65 535 29 C496 7 451 -6 396 -6 C261 -6 172 113 172 292 C172 470 265 589 405 589 C440 589 469 584 495 575 C572 548 640 461 654 404 C657 391 659 383 659 383 C659 383 660 391 660 404 C661 417 662 425 662 425 L662 487 L662 491 L662 548 C662 548 661 555 660 565 C660 575 659 582 659 582 C659 582 657 571 654 554 C652 542 621 541 579 560 L579 561 L579 561 Z " />
<glyph glyph-name="D_sc" unicode="&#x1d05;" horiz-adv-x="820" d="M141 511 L141 73 C141 18 116 8 78 8 L36 8 C36 8 47 6 62 4 C78 2 89 0 89 0 L141 0 L173 0 L257 0 L322 0 C588 0 766 99 766 292 C766 466 626 583 354 583 L257 583 L173 583 L141 583 L89 583 C89 583 78 582 62 579 C47 577 36 576 36 576 L78 576 C116 576 141 566 141 511 L141 511 Z M257 580 L340 580 C537 580 639 465 639 292 C639 101 510 3 316 3 C263 3 257 23 257 52 L257 73 L257 511 L257 580 L257 580 Z " />
<glyph glyph-name="E_sc" unicode="&#x1d07;" horiz-adv-x="626" d="M446 0 L554 0 C555 10 557 23 558 33 C560 43 562 56 563 66 C563 66 563 79 564 97 L564 129 L558 86 C551 37 531 4 447 4 L309 4 C262 4 257 23 257 52 L257 73 L257 299 L361 299 C445 299 461 260 461 202 L461 159 C461 159 463 173 465 194 C467 215 469 229 469 229 L469 299 L469 302 L469 304 L469 374 C469 374 467 388 465 409 C463 430 461 444 461 444 L461 401 C461 343 445 304 361 304 L257 304 L257 511 L257 580 L421 580 C522 580 524 542 528 485 L530 455 C530 455 531 467 532 486 C533 505 534 517 533 517 C533 527 532 540 531 550 C530 560 530 574 529 583 L421 583 L257 583 L173 583 L141 583 L89 583 C89 583 78 582 62 579 C47 577 36 576 36 576 L78 576 C116 576 141 566 141 511 L141 73 C141 18 116 8 78 8 L36 8 C36 8 47 6 62 4 C78 2 89 0 89 0 L141 0 L173 0 L257 0 L446 0 L446 0 Z " />
<glyph glyph-name="J_sc" unicode="&#x1d0a;" horiz-adv-x="392" d="M132 516 L132 -87 C132 -194 67 -214 20 -214 C-39 -214 -13 -116 -71 -116 C-104 -116 -126 -138 -126 -171 C-126 -201 -69 -220 16 -220 C113 -220 248 -164 248 131 L248 516 C248 566 273 576 311 576 L353 576 C353 576 342 577 327 579 C311 582 300 583 300 583 L190 583 L80 583 C80 583 69 582 53 579 C38 577 27 576 27 576 L69 576 C107 576 132 566 132 516 L132 516 Z " />
<glyph glyph-name="K_sc" unicode="&#x1d0b;" horiz-adv-x="746" d="M599 73 L598 73 L349 362 L465 486 L466 486 C467 488 468 490 469 492 L498 522 C544 567 573 576 602 576 L644 576 C644 576 638 577 628 579 C618 582 612 583 612 583 L556 583 L512 583 L508 583 L405 583 C405 583 398 582 388 579 C379 577 372 576 372 576 L408 576 C466 576 488 557 400 456 L400 456 L256 292 L256 523 C256 568 281 576 318 576 L361 576 C361 576 350 577 335 579 C319 582 308 583 308 583 L256 583 L198 583 L140 583 L88 583 C88 583 77 582 61 579 C46 577 35 576 35 576 L77 576 C115 576 140 568 140 523 L140 60 C140 16 115 8 77 8 L35 8 C35 8 46 6 61 4 C77 2 88 0 88 0 L140 0 L198 0 L256 0 L308 0 C308 0 319 2 335 4 C350 6 361 8 361 8 L318 8 C281 8 256 16 256 60 L256 292 L451 73 L516 0 L611 0 L660 0 L706 0 C706 0 712 2 722 4 C732 6 738 8 738 8 L688 8 C669 8 627 40 598 73 L599 73 L599 73 Z " />
<glyph glyph-name="M_sc" unicode="&#x1d0d;" horiz-adv-x="866" d="M768 73 L768 73 L753 447 C752 554 775 575 810 575 L852 575 C852 575 845 576 835 578 C826 581 819 582 819 582 L747 582 L728 582 L677 582 L637 582 L471 151 L472 154 L269 582 L182 582 L165 582 L153 582 L130 582 L61 582 C61 582 55 581 45 578 C35 576 29 575 29 575 L71 575 C102 575 128 568 151 535 L135 137 L135 137 C131 28 97 7 47 7 L5 7 C5 7 12 5 21 3 C31 1 38 -1 38 -1 L130 -1 L150 -1 L170 -1 L263 -1 C263 -1 269 1 279 3 C289 5 295 7 295 7 L253 7 C202 7 169 26 173 127 L173 127 L180 479 L338 154 L413 -1 L442 -1 L640 490 L653 62 C652 16 627 7 590 7 L548 7 C548 7 558 5 574 3 C590 1 600 -1 600 -1 L655 -1 L710 -1 L771 -1 L820 -1 C820 -1 831 1 847 3 C862 5 873 7 873 7 L831 7 C794 7 770 17 768 72 L768 73 L768 73 Z " />
<glyph glyph-name="O_sc" unicode="&#x1d0f;" horiz-adv-x="826" d="M394 -5 C263 -5 176 114 176 292 C176 470 266 589 402 589 C544 589 639 470 639 292 C639 114 541 -5 394 -5 L394 -5 Z M44 292 C44 111 184 -10 393 -10 C620 -10 772 111 772 292 C772 472 624 593 403 593 C188 593 44 472 44 292 L44 292 Z " />
<glyph glyph-name="P_sc" unicode="&#x1d18;" horiz-adv-x="587" d="M228 0 L286 0 L338 0 C338 0 349 2 364 4 C380 6 391 8 391 8 L348 8 C311 8 286 18 286 73 L286 259 L326 259 C471 259 568 308 568 418 C568 517 487 583 367 583 L286 583 L202 583 L170 583 L118 583 C118 583 107 582 91 579 C76 577 65 576 65 576 L107 576 C145 576 170 566 170 511 L170 73 C170 18 145 8 107 8 L65 8 C65 8 76 6 91 4 C107 2 118 0 118 0 L170 0 L228 0 L228 0 Z M286 284 L286 511 L286 564 L337 564 C410 564 459 513 459 437 C459 331 406 284 326 284 L286 284 L286 284 Z " />
<glyph glyph-name="T_sc" unicode="&#x1d1b;" horiz-adv-x="736" d="M25 453 L40 492 C54 529 79 554 163 554 L311 554 L311 68 C311 18 286 8 248 8 L206 8 C206 8 216 6 232 4 C248 2 258 0 258 0 L368 0 L479 0 C479 0 489 2 505 4 C521 6 531 8 531 8 L489 8 C451 8 426 18 426 68 L426 554 L574 554 C658 554 683 529 697 492 L712 449 C712 449 710 460 707 476 C703 492 701 503 701 503 C695 518 688 538 682 553 L682 553 L682 553 L682 582 L672 582 C669 589 666 596 664 602 C664 602 661 606 657 612 C652 618 649 622 649 622 L655 605 C660 591 648 582 564 582 L426 582 L311 582 L173 582 C89 582 77 591 81 605 L88 622 C88 622 85 618 80 612 C76 606 73 602 73 602 C71 596 68 589 65 582 L55 582 L55 555 C55 554 55 553 55 552 C50 537 43 517 37 502 C37 502 35 491 31 475 C29 465 27 457 26 452 L25 453 L25 453 Z M26 452 C25 450 25 449 25 449 L26 452 L26 452 Z " />
<glyph glyph-name="U_sc" unicode="&#x1d1c;" horiz-adv-x="735" d="M621 98 L621 511 L621 583 L537 583 L453 583 C453 583 442 582 427 579 C411 577 400 576 400 576 L443 576 C480 576 505 566 505 511 L505 180 C473 111 401 65 326 65 C263 65 222 121 222 205 L222 511 L222 583 L138 583 L54 583 C54 583 43 582 27 579 C12 577 1 576 1 576 L43 576 C81 576 106 566 106 511 L106 205 C106 76 175 -10 279 -10 C376 -10 467 45 505 128 L505 98 L505 0 L524 0 L725 49 L725 53 C638 48 621 54 621 98 L621 98 Z " />
<glyph glyph-name="V_sc" unicode="&#x1d20;" horiz-adv-x="776" d="M84 550 L278 168 L368 -10 L391 -10 L612 456 L612 456 C613 458 614 460 615 462 L630 493 C665 562 692 576 721 576 L763 576 C763 576 757 577 747 579 C737 582 731 583 731 583 L672 583 L626 583 L612 583 L493 583 C493 583 487 582 477 579 C467 577 461 576 461 576 L500 576 C573 576 614 557 570 456 L571 456 L446 169 L274 460 C225 558 260 577 327 577 L365 577 C365 577 358 578 349 580 C339 583 332 584 332 584 L200 584 L185 584 L67 584 L38 584 C38 584 32 583 22 580 C12 578 6 577 6 577 L63 577 C67 577 72 573 84 551 L84 550 L84 550 Z " />
<glyph glyph-name="W_sc" unicode="&#x1d21;" horiz-adv-x="1051" d="M322 576 L340 576 L365 576 C394 576 417 571 434 543 L512 388 L418 144 L418 145 L261 455 L261 455 C212 556 243 575 303 575 L322 576 L322 576 Z M332 577 C330 577 328 577 325 578 C315 581 309 582 309 582 L196 582 L175 582 L69 582 L40 582 C40 582 34 581 24 578 C14 576 8 575 8 575 L65 575 C69 575 78 561 111 495 L282 144 L358 -12 L388 -12 L534 343 L623 166 L713 -12 L743 -12 L917 490 C944 560 969 574 998 574 L1040 574 C1040 574 1034 575 1024 577 C1014 580 1008 581 1008 581 L948 581 L900 581 L888 581 L768 581 C768 581 761 580 752 577 C742 575 735 574 735 574 L775 574 C848 574 891 556 863 460 L770 165 L770 166 L601 484 L601 484 C563 560 596 574 656 574 L694 574 C694 574 688 575 678 577 C668 580 662 581 662 581 L549 581 L509 581 L415 581 L357 581 C357 581 350 580 341 577 C338 576 335 576 333 576 L332 577 L332 577 Z " />
<glyph glyph-name="Z_sc" unicode="&#x1d22;" horiz-adv-x="614" d="M151 0 L420 0 L568 0 C572 16 577 38 582 55 C586 71 591 93 595 109 C595 109 598 125 601 149 C605 172 607 188 607 188 L594 144 C576 84 546 42 461 34 L171 27 L571 558 L571 582 L458 582 L227 582 L69 582 C67 565 63 542 61 525 C59 508 55 485 53 468 C53 468 52 451 52 425 C51 398 51 381 51 381 L57 421 C69 496 99 547 209 551 L219 551 C220 551 221 551 222 551 L222 551 L437 555 L24 23 L24 -1 L151 0 L151 0 Z " />
<glyph glyph-name="Wgrave" unicode="&#x1e80;" horiz-adv-x="1205" d="M492 981 C466 1020 446 1046 438 1046 C406 1046 380 1019 380 988 C380 979 404 957 439 929 L584 811 L598 826 L492 981 L492 981 Z M501 702 L594 500 L593 500 L466 162 L263 622 L263 622 C218 723 250 742 312 742 L351 742 C351 742 345 744 335 746 C325 748 319 750 319 750 L206 750 L177 750 L65 750 L36 750 C36 750 29 748 19 746 C10 744 3 742 3 742 L60 742 C65 742 77 723 121 622 L122 622 L325 162 L401 -10 L435 -10 L618 449 L738 187 L828 -10 L862 -10 L1060 622 L1060 622 C1060 623 1060 624 1060 625 L1067 648 C1093 726 1119 742 1150 742 L1192 742 C1192 742 1185 744 1176 746 C1166 748 1159 750 1159 750 L1099 750 L1047 750 L1037 750 L914 750 C914 750 908 748 898 746 C888 744 882 742 882 742 L922 742 C994 742 1038 724 1012 627 L885 187 L885 187 L672 652 L672 652 C638 728 672 742 734 742 L772 742 C772 742 766 744 756 746 C746 748 740 750 740 750 L627 750 L580 750 L479 750 L420 750 C420 750 413 748 403 746 C394 744 387 742 387 742 L429 742 C461 742 485 736 500 702 L501 702 L501 702 Z " />
<glyph glyph-name="Wacute" unicode="&#x1e82;" horiz-adv-x="1205" d="M591 811 L736 929 C771 958 795 981 795 988 C795 1019 769 1046 737 1046 C731 1046 710 1020 683 981 L577 826 L591 811 L591 811 Z M501 702 L594 500 L593 500 L466 162 L263 622 L263 622 C218 723 250 742 312 742 L351 742 C351 742 345 744 335 746 C325 748 319 750 319 750 L206 750 L177 750 L65 750 L36 750 C36 750 29 748 19 746 C10 744 3 742 3 742 L60 742 C65 742 77 723 121 622 L122 622 L325 162 L401 -10 L435 -10 L618 449 L738 187 L828 -10 L862 -10 L1060 622 L1060 622 C1060 623 1060 624 1060 625 L1067 648 C1093 726 1119 742 1150 742 L1192 742 C1192 742 1185 744 1176 746 C1166 748 1159 750 1159 750 L1099 750 L1047 750 L1037 750 L914 750 C914 750 908 748 898 746 C888 744 882 742 882 742 L922 742 C994 742 1038 724 1012 627 L885 187 L885 187 L672 652 L672 652 C638 728 672 742 734 742 L772 742 C772 742 766 744 756 746 C746 748 740 750 740 750 L627 750 L580 750 L479 750 L420 750 C420 750 413 748 403 746 C394 744 387 742 387 742 L429 742 C461 742 485 736 500 702 L501 702 L501 702 Z " />
<glyph glyph-name="Wdieresis" unicode="&#x1e84;" horiz-adv-x="1205" d="M666 865 C710 865 740 895 740 939 C740 984 710 1014 666 1014 C622 1014 592 984 592 939 C592 895 622 865 666 865 L666 865 Z M499 865 C543 865 573 895 573 939 C573 984 543 1014 499 1014 C455 1014 425 984 425 939 C425 895 455 865 499 865 L499 865 Z M501 702 L594 500 L593 500 L466 162 L263 622 L263 622 C218 723 250 742 312 742 L351 742 C351 742 345 744 335 746 C325 748 319 750 319 750 L206 750 L177 750 L65 750 L36 750 C36 750 29 748 19 746 C10 744 3 742 3 742 L60 742 C65 742 77 723 121 622 L122 622 L325 162 L401 -10 L435 -10 L618 449 L738 187 L828 -10 L862 -10 L1060 622 L1060 622 C1060 623 1060 624 1060 625 L1067 648 C1093 726 1119 742 1150 742 L1192 742 C1192 742 1185 744 1176 746 C1166 748 1159 750 1159 750 L1099 750 L1047 750 L1037 750 L914 750 C914 750 908 748 898 746 C888 744 882 742 882 742 L922 742 C994 742 1038 724 1012 627 L885 187 L885 187 L672 652 L672 652 C638 728 672 742 734 742 L772 742 C772 742 766 744 756 746 C746 748 740 750 740 750 L627 750 L580 750 L479 750 L420 750 C420 750 413 748 403 746 C394 744 387 742 387 742 L429 742 C461 742 485 736 500 702 L501 702 L501 702 Z " />
<glyph glyph-name="Etilde" unicode="&#x1ebc;" horiz-adv-x="705" d="M208 870 C208 903 228 925 258 925 C323 925 389 860 455 860 C506 860 541 916 541 1001 L538 1001 C538 965 515 941 481 941 C416 941 350 1006 284 1006 C237 1006 205 952 205 870 L208 870 L208 870 Z M525 0 L633 0 C634 10 636 24 637 33 C639 43 641 57 642 67 C642 67 643 79 643 98 L643 129 L637 87 C630 37 610 4 526 4 L318 4 C271 4 266 23 266 52 L266 73 L266 385 L440 385 C524 385 540 346 540 287 L540 245 C540 245 542 259 544 280 C546 301 548 315 548 315 L548 385 L548 387 L548 390 L548 460 C548 460 546 474 544 495 C542 516 540 530 540 530 L540 487 C540 429 524 390 440 390 L266 390 L266 677 L266 746 L500 746 C601 746 603 708 607 651 L609 621 C609 621 610 633 611 652 C612 671 613 683 612 683 C612 693 611 707 610 717 C610 726 609 740 608 750 L500 750 L266 750 L176 750 L138 750 L85 750 C85 750 75 748 59 746 C43 744 33 742 33 742 L75 742 C113 742 138 732 138 677 L138 73 C138 18 113 8 75 8 L33 8 C33 8 43 6 59 4 C75 2 85 0 85 0 L138 0 L176 0 L266 0 L525 0 L525 0 Z " />
<glyph glyph-name="Ygrave" unicode="&#x1ef2;" horiz-adv-x="797" d="M317 981 C291 1020 271 1046 263 1046 C232 1046 205 1019 205 988 C205 979 229 957 265 929 L409 811 L424 826 L317 981 L317 981 Z M279 641 C227 725 241 742 276 742 L314 742 C314 742 307 744 297 746 C288 748 281 750 281 750 L209 750 L155 750 L57 750 L30 750 C30 750 23 748 13 746 C4 744 -3 742 -3 742 L54 742 C59 742 75 723 141 622 L142 622 L344 316 L344 68 C344 18 319 8 281 8 L239 8 C239 8 249 6 265 4 C281 2 291 0 291 0 L408 0 L525 0 C525 0 535 2 551 4 C567 6 577 8 577 8 L535 8 C497 8 472 18 472 68 L472 337 L642 635 C695 725 722 742 746 742 L789 742 C789 742 782 744 773 746 C763 748 756 750 756 750 L708 750 L699 750 L691 750 L626 750 C626 750 620 748 610 746 C600 744 594 742 594 742 L632 742 C668 742 683 726 641 647 L470 343 L279 641 L279 641 Z " />
<glyph glyph-name="quoteleft" unicode="&#x2018;" horiz-adv-x="728" d="" />
<glyph glyph-name="quoteright" unicode="&#x2019;" horiz-adv-x="196" d="" />
<glyph glyph-name="quotedblleft" unicode="&#x201c;" horiz-adv-x="728" d="M273 640 C260 640 249 634 241 624 C241 687 270 737 313 749 L303 760 C245 744 206 682 206 603 C206 560 233 532 273 532 C306 532 328 554 328 586 C328 618 306 640 273 640 L273 640 Z " />
<glyph glyph-name="quotedblright" unicode="&#x201d;" horiz-adv-x="728" d="M306 668 C304 604 271 554 223 541 L233 531 C297 548 340 612 340 692 C340 732 313 759 272 759 C240 759 218 737 218 705 C218 673 240 651 272 651 C286 651 297 657 305 667 L306 668 L306 668 Z " />
<glyph glyph-name="Euro" unicode="&#x20ac;" horiz-adv-x="852" d="M661 39 L661 39 C614 10 561 -6 497 -6 C365 -6 269 100 241 268 L555 268 L567 350 L233 350 C233 358 233 366 233 374 C233 382 233 390 233 398 L567 398 L578 480 L242 480 C271 647 370 753 508 753 C580 753 633 733 680 699 C742 653 791 583 801 539 C804 526 806 517 806 517 C806 517 807 526 808 539 C808 551 809 560 809 560 L809 623 L809 629 L809 686 C809 686 808 698 808 715 C807 732 806 744 806 744 C806 744 804 732 801 715 C797 693 766 682 726 706 C676 738 610 757 506 757 C299 757 149 649 105 479 L67 479 L55 397 L93 397 C93 389 93 381 93 373 C93 365 93 357 93 349 L55 349 L43 267 L105 267 C147 97 293 -11 495 -11 C596 -11 669 9 725 43 C764 62 796 49 802 27 C807 9 810 -3 810 -3 L810 27 L810 57 L810 116 L810 121 L810 185 C810 185 809 193 808 206 C808 219 807 227 807 227 C807 227 805 219 802 206 C792 161 732 79 661 37 L661 39 L661 39 Z " />
<glyph glyph-name="F_sc" unicode="&#xa730;" horiz-adv-x="601" d="M391 295 C439 284 451 249 453 202 L454 154 C454 154 455 169 457 191 C458 212 459 227 459 227 L459 295 L459 298 L459 299 L459 370 C459 370 458 384 457 405 C455 426 454 440 454 440 L453 392 C450 336 433 299 351 299 L257 299 L257 511 L257 580 L341 580 C492 580 524 547 529 498 L532 455 C532 455 533 468 533 487 C534 506 535 519 534 519 C534 529 533 541 532 551 C531 561 530 574 529 583 L421 583 L257 583 L173 583 L141 583 L89 583 C89 583 78 582 62 579 C47 577 36 576 36 576 L78 576 C116 576 141 566 141 511 L141 73 C141 18 116 8 78 8 L36 8 C36 8 47 6 62 4 C78 2 89 0 89 0 L141 0 L199 0 L257 0 L309 0 C309 0 320 2 336 4 C351 6 362 8 362 8 L319 8 C282 8 257 18 257 73 L257 295 L391 295 L391 295 Z " />
<glyph glyph-name="S_sc" unicode="&#xa731;" horiz-adv-x="514" d="M375 563 L373 564 C338 583 294 594 246 594 C135 594 61 528 61 429 C61 348 118 273 229 233 C330 196 382 157 382 128 C382 49 335 -3 264 -3 C240 -3 216 3 193 13 L194 13 C129 43 69 135 55 193 C52 206 50 214 50 214 C50 214 50 206 49 193 C48 180 48 172 48 172 L48 114 L48 107 L48 41 C48 41 48 27 49 5 C50 -17 50 -31 50 -31 C50 -31 52 -17 55 5 C59 32 91 49 132 25 L132 25 C170 3 215 -9 263 -9 C389 -9 474 59 474 162 C474 238 414 311 297 353 C201 388 151 433 151 473 C151 543 188 590 245 590 C248 590 251 590 254 590 L253 590 C257 590 261 590 265 589 C278 587 291 584 304 579 L294 581 C360 556 415 483 428 423 C431 411 433 402 433 402 C433 402 434 411 435 423 C435 436 436 445 436 445 L436 502 L436 503 L436 560 C436 560 435 567 435 577 C434 587 433 594 433 594 C433 594 431 583 428 566 C426 553 404 548 375 564 L375 563 L375 563 Z M293 581 L254 589 C257 589 260 589 263 589 C273 588 283 585 292 581 L293 581 L293 581 Z " />
<glyph glyph-name="X_sc" unicode="&#xf078;" horiz-adv-x="757" d="M570 128 L570 128 L414 333 L507 426 L635 554 C661 571 681 576 699 576 L741 576 C741 576 735 577 725 579 C715 582 709 583 709 583 L664 583 L612 583 L609 583 L509 583 C509 583 503 582 493 579 C483 577 477 576 477 576 L513 576 C568 576 588 555 497 446 L497 445 L408 339 L319 456 L319 456 C243 557 261 576 310 576 L347 576 C347 576 340 577 330 579 C321 582 314 583 314 583 L222 583 L181 583 L85 583 L49 583 C49 583 42 582 32 579 C23 577 16 576 16 576 L62 576 C77 576 99 562 155 491 L325 268 L170 89 C108 22 72 9 37 9 L-5 9 C-5 9 1 7 11 5 C21 3 27 1 27 1 L93 1 L140 1 L160 1 L292 1 C292 1 299 3 308 5 C318 7 325 9 325 9 L288 9 C208 9 166 26 224 106 L250 139 L250 139 L250 139 L338 249 L442 112 C503 26 484 9 437 9 L401 9 C401 9 407 7 417 5 C427 3 433 1 433 1 L526 1 L571 1 L663 1 L710 1 C710 1 716 3 726 5 C736 7 742 9 742 9 L700 9 C674 9 642 28 566 129 L570 128 L570 128 Z " />
</font>
</svg>
